G04 #@! TF.GenerationSoftware,KiCad,Pcbnew,(5.1.4-0-10_14)*
G04 #@! TF.CreationDate,2020-11-03T01:10:48-06:00*
G04 #@! TF.ProjectId,omega_4_skeleton_top,6f6d6567-615f-4345-9f73-6b656c65746f,rev?*
G04 #@! TF.SameCoordinates,Original*
G04 #@! TF.FileFunction,Profile,NP*
%FSLAX46Y46*%
G04 Gerber Fmt 4.6, Leading zero omitted, Abs format (unit mm)*
G04 Created by KiCad (PCBNEW (5.1.4-0-10_14)) date 2020-11-03 01:10:48*
%MOMM*%
%LPD*%
G04 APERTURE LIST*
%ADD10C,0.200000*%
G04 APERTURE END LIST*
D10*
X190436500Y-88773001D02*
G75*
G02X189936500Y-88273001I0J500000D01*
G01*
X146786500Y-75273001D02*
X146786500Y-88273001D01*
X146286501Y-74773000D02*
G75*
G02X146786500Y-75273001I-1J-500000D01*
G01*
X133286499Y-74773001D02*
X146286500Y-74773001D01*
X132786499Y-75273001D02*
G75*
G02X133286499Y-74773001I500000J0D01*
G01*
X175361500Y-113373001D02*
X175361500Y-126373000D01*
X174861499Y-112873000D02*
G75*
G02X175361500Y-113373001I0J-500001D01*
G01*
X170886500Y-75273001D02*
G75*
G02X171386500Y-74773001I500000J0D01*
G01*
X151836500Y-126373000D02*
X151836500Y-113373001D01*
X152336498Y-126873000D02*
G75*
G02X151836500Y-126373000I1J499999D01*
G01*
X152336500Y-112873001D02*
X174861500Y-112873001D01*
X151836500Y-113372999D02*
G75*
G02X152336500Y-112873001I499999J-1D01*
G01*
X184886500Y-75273001D02*
X184886500Y-88273001D01*
X190436500Y-74773001D02*
X203436500Y-74773000D01*
X189936501Y-75273000D02*
G75*
G02X190436500Y-74773001I499999J0D01*
G01*
X189936500Y-88273001D02*
X189936500Y-75273001D01*
X171386501Y-88773000D02*
G75*
G02X170886500Y-88273001I-1J500000D01*
G01*
X236213154Y-132068000D02*
G75*
G03X236213154Y-132068000I-1100000J0D01*
G01*
X184386499Y-74773000D02*
G75*
G02X184886500Y-75273001I0J-500001D01*
G01*
X146286500Y-88773001D02*
X133286499Y-88773001D01*
X146786500Y-88273001D02*
G75*
G02X146286500Y-88773001I-500000J0D01*
G01*
X171386500Y-74773001D02*
X184386500Y-74773000D01*
X166623998Y-69723000D02*
G75*
G02X166124000Y-69223000I1J499999D01*
G01*
X152336500Y-74773001D02*
X165336499Y-74773000D01*
X151836500Y-75273001D02*
G75*
G02X152336500Y-74773001I500000J0D01*
G01*
X179624000Y-55723000D02*
G75*
G02X180123999Y-56223001I-1J-500000D01*
G01*
X166624000Y-55723001D02*
X179623999Y-55723001D01*
X166124000Y-56223001D02*
G75*
G02X166624000Y-55723001I500000J0D01*
G01*
X166124000Y-69223000D02*
X166124000Y-56223001D01*
X165836500Y-88272999D02*
G75*
G02X165336500Y-88773001I-500001J-1D01*
G01*
X165836500Y-75273001D02*
X165836500Y-88273001D01*
X165336499Y-74773000D02*
G75*
G02X165836500Y-75273001I0J-500001D01*
G01*
X203436500Y-88773001D02*
X190436500Y-88773001D01*
X203936501Y-88273000D02*
G75*
G02X203436500Y-88773001I-500001J0D01*
G01*
X203936500Y-75273001D02*
X203936500Y-88273001D01*
X203436500Y-74773001D02*
G75*
G02X203936500Y-75273001I0J-500000D01*
G01*
X151836500Y-88273001D02*
X151836500Y-75273001D01*
X152336501Y-88773000D02*
G75*
G02X151836500Y-88273001I-1J500000D01*
G01*
X165336500Y-88773001D02*
X152336500Y-88773001D01*
X170886500Y-88273001D02*
X170886500Y-75273001D01*
X184386500Y-88773001D02*
X171386500Y-88773001D01*
X83725653Y-132068000D02*
G75*
G03X83725653Y-132068000I-1100000J0D01*
G01*
X114236500Y-88773001D02*
G75*
G02X113736500Y-88273001I0J500000D01*
G01*
X69425647Y-49312965D02*
G75*
G03X69425647Y-49312965I-1100000J0D01*
G01*
X170099000Y-107823001D02*
X157099000Y-107823001D01*
X170598999Y-107323000D02*
G75*
G02X170099000Y-107823001I-500000J-1D01*
G01*
X170599000Y-94323001D02*
X170598999Y-107323001D01*
X170098999Y-93823000D02*
G75*
G02X170599000Y-94323001I0J-500001D01*
G01*
X157099000Y-93823001D02*
X170099000Y-93823000D01*
X156599000Y-94323001D02*
G75*
G02X157099000Y-93823001I500000J0D01*
G01*
X108116500Y-125873001D02*
G75*
G02X107616499Y-125373000I0J500001D01*
G01*
X114116499Y-125873000D02*
X108116499Y-125873000D01*
X114616499Y-125373000D02*
G75*
G02X114116499Y-125873000I-500000J0D01*
G01*
X114616499Y-111373000D02*
X114616500Y-125373000D01*
X114116499Y-110873000D02*
G75*
G02X114616499Y-111373000I0J-500000D01*
G01*
X108116499Y-110873000D02*
X114116499Y-110873000D01*
X202916500Y-111373000D02*
G75*
G02X203416500Y-110873000I500000J0D01*
G01*
X202916500Y-125373000D02*
X202916499Y-111373000D01*
X203416500Y-125873000D02*
G75*
G02X202916500Y-125373000I0J500000D01*
G01*
X209416500Y-125873000D02*
X203416500Y-125873000D01*
X209916500Y-125373000D02*
G75*
G02X209416500Y-125873000I-500000J0D01*
G01*
X209916500Y-111373000D02*
X209916500Y-125373000D01*
X209416499Y-110872999D02*
G75*
G02X209916500Y-111373000I0J-500001D01*
G01*
X203416500Y-110873000D02*
X209416500Y-110873000D01*
X222011500Y-111373000D02*
X222011500Y-112873000D01*
X222011500Y-111373000D02*
G75*
G02X222511500Y-110873000I500000J0D01*
G01*
X228511500Y-110873000D02*
X222511500Y-110873000D01*
X228511500Y-110873000D02*
G75*
G02X229011500Y-111373000I0J-500000D01*
G01*
X229011500Y-112873000D02*
X229011500Y-111373000D01*
X232011500Y-112873000D02*
X229011500Y-112873000D01*
X232011500Y-112873000D02*
G75*
G02X232511500Y-113373000I0J-500000D01*
G01*
X232511500Y-126373000D02*
X232511500Y-113373000D01*
X232511499Y-126373001D02*
G75*
G02X232011500Y-126873000I-499999J0D01*
G01*
X219011500Y-126873000D02*
X232011500Y-126873000D01*
X219011498Y-126873000D02*
G75*
G02X218511500Y-126373000I1J499999D01*
G01*
X218511500Y-113373000D02*
X218511500Y-126373000D01*
X218511499Y-113373001D02*
G75*
G02X219011500Y-112873000I500001J0D01*
G01*
X222011500Y-112873000D02*
X219011500Y-112873000D01*
X48724000Y-72148000D02*
X48724000Y-52098524D01*
X49423999Y-72847999D02*
G75*
G02X48724000Y-72148000I0J699999D01*
G01*
X52799000Y-72848001D02*
X49423999Y-72848000D01*
X52799000Y-72848001D02*
G75*
G02X53499000Y-73548001I0J-700000D01*
G01*
X53499000Y-91198001D02*
X53499000Y-73548001D01*
X54199001Y-91898000D02*
G75*
G02X53499000Y-91198001I-1J700000D01*
G01*
X57549000Y-91898001D02*
X54199000Y-91898000D01*
X57548999Y-91898001D02*
G75*
G02X58249000Y-92598000I1J-700000D01*
G01*
X58249000Y-110223001D02*
X58249000Y-92598000D01*
X58949000Y-110923001D02*
G75*
G02X58249000Y-110223001I0J700000D01*
G01*
X62324000Y-110923001D02*
X58949000Y-110923001D01*
X62324000Y-110923001D02*
G75*
G02X63024000Y-111623001I0J-700000D01*
G01*
X63024000Y-129268380D02*
X63024000Y-111623001D01*
X63723621Y-129968380D02*
G75*
G02X63024000Y-129268380I379J700000D01*
G01*
X72978646Y-129973395D02*
X63723620Y-129968380D01*
X72978647Y-129973396D02*
G75*
G02X75804906Y-131144968I-2168J-3999999D01*
G01*
X78456364Y-133796426D02*
X75804906Y-131144968D01*
X81284791Y-134967999D02*
G75*
G02X78456364Y-133796426I0J4000000D01*
G01*
X83971083Y-134967999D02*
X81284791Y-134967999D01*
X86799510Y-133796426D02*
G75*
G02X83971083Y-134967999I-2828427J2828427D01*
G01*
X89462518Y-131133418D02*
X86799510Y-133796426D01*
X89462518Y-131133418D02*
G75*
G02X92291314Y-129961845I2828427J-2828427D01*
G01*
X225465094Y-129974140D02*
X92291314Y-129961845D01*
X225465093Y-129974139D02*
G75*
G02X228293151Y-131145712I-369J-4000001D01*
G01*
X230943865Y-133796426D02*
X228293151Y-131145712D01*
X233772292Y-134967999D02*
G75*
G02X230943865Y-133796426I0J4000000D01*
G01*
X236458584Y-134967999D02*
X233772292Y-134967999D01*
X239287011Y-133796426D02*
G75*
G02X236458584Y-134967999I-2828427J2828427D01*
G01*
X241949215Y-131134222D02*
X239287011Y-133796426D01*
X241949215Y-131134222D02*
G75*
G02X244779951Y-129962650I2828427J-2828427D01*
G01*
X254011542Y-129967979D02*
X244779951Y-129962650D01*
X254711946Y-129268425D02*
G75*
G02X254011542Y-129967979I-700000J446D01*
G01*
X254723936Y-110448446D02*
X254711946Y-129268425D01*
X254023936Y-109748000D02*
G75*
G02X254723936Y-110448446I0J-700000D01*
G01*
X250624000Y-109748000D02*
X254023936Y-109748000D01*
X250624000Y-109748000D02*
G75*
G02X249924000Y-109048000I0J700000D01*
G01*
X249924000Y-91398000D02*
X249924000Y-109048000D01*
X249224000Y-90698000D02*
G75*
G02X249924000Y-91398000I0J-700000D01*
G01*
X245874000Y-90698000D02*
X249224000Y-90698000D01*
X245874000Y-90698000D02*
G75*
G02X245174000Y-89998000I0J700000D01*
G01*
X245174000Y-72348000D02*
X245174000Y-89998000D01*
X244473999Y-71648001D02*
G75*
G02X245174000Y-72348000I1J-700000D01*
G01*
X241099000Y-71648000D02*
X244474000Y-71648000D01*
X241098999Y-71647999D02*
G75*
G02X240399000Y-70948000I0J699999D01*
G01*
X240398999Y-52247479D02*
X240399000Y-70948000D01*
X239699522Y-51547479D02*
G75*
G02X240398999Y-52247479I-523J-700000D01*
G01*
X230464354Y-51540583D02*
X239699522Y-51547479D01*
X230464354Y-51540583D02*
G75*
G02X227638914Y-50369011I2987J3999999D01*
G01*
X224974516Y-47704613D02*
X227638914Y-50369011D01*
X222146089Y-46533040D02*
G75*
G02X224974516Y-47704613I0J-4000000D01*
G01*
X219459797Y-46533040D02*
X222146089Y-46533040D01*
X216631370Y-47704613D02*
G75*
G02X219459797Y-46533040I2828427J-2828427D01*
G01*
X213982114Y-50353869D02*
X216631370Y-47704613D01*
X213982114Y-50353869D02*
G75*
G02X211150537Y-51525441I-2828427J2828427D01*
G01*
X77989246Y-51420576D02*
X211150537Y-51525441D01*
X77989246Y-51420577D02*
G75*
G02X75163969Y-50249004I3151J4000000D01*
G01*
X72499504Y-47584539D02*
X75163969Y-50249004D01*
X69671077Y-46412966D02*
G75*
G02X72499504Y-47584539I0J-4000000D01*
G01*
X66984785Y-46412966D02*
X69671077Y-46412966D01*
X64156358Y-47584539D02*
G75*
G02X66984785Y-46412966I2828427J-2828427D01*
G01*
X61507035Y-50233862D02*
X64156358Y-47584539D01*
X61507035Y-50233861D02*
G75*
G02X58675621Y-51405433I-2828427J2828426D01*
G01*
X49424522Y-51398525D02*
X58675621Y-51405433D01*
X48724000Y-52098524D02*
G75*
G02X49424522Y-51398525I699999J0D01*
G01*
X74849000Y-107823001D02*
X61849000Y-107823001D01*
X75349000Y-107322999D02*
G75*
G02X74849000Y-107823001I-500001J-1D01*
G01*
X75349000Y-94323001D02*
X75349000Y-107323001D01*
X74848999Y-93823000D02*
G75*
G02X75349000Y-94323001I0J-500001D01*
G01*
X61849000Y-93823001D02*
X74849000Y-93823001D01*
X61349001Y-94323000D02*
G75*
G02X61849000Y-93823001I499999J0D01*
G01*
X61349000Y-107323001D02*
X61349000Y-94323001D01*
X61849001Y-107823000D02*
G75*
G02X61349000Y-107323001I-1J500000D01*
G01*
X237274000Y-56223001D02*
X237274000Y-69223000D01*
X236774001Y-55723000D02*
G75*
G02X237274000Y-56223001I-1J-500000D01*
G01*
X223774000Y-55723001D02*
X236774000Y-55723000D01*
X223274001Y-56223000D02*
G75*
G02X223774000Y-55723001I499999J0D01*
G01*
X223274000Y-69223000D02*
X223274000Y-56223001D01*
X223774000Y-69723000D02*
G75*
G02X223274000Y-69223000I0J500000D01*
G01*
X236774000Y-69723001D02*
X223774000Y-69723000D01*
X237274000Y-69223001D02*
G75*
G02X236774000Y-69723001I-500000J0D01*
G01*
X118999000Y-93823001D02*
X131999000Y-93823000D01*
X118499000Y-94323001D02*
G75*
G02X118999000Y-93823001I500000J0D01*
G01*
X118499000Y-107323001D02*
X118499000Y-94323001D01*
X118998999Y-107823000D02*
G75*
G02X118499000Y-107323001I0J499999D01*
G01*
X131999000Y-107823001D02*
X118999000Y-107823001D01*
X132499000Y-107323001D02*
G75*
G02X131999000Y-107823001I-500000J0D01*
G01*
X132499000Y-94323001D02*
X132499000Y-107323001D01*
X131999001Y-93823000D02*
G75*
G02X132499000Y-94323001I-1J-500000D01*
G01*
X151049000Y-107823001D02*
X138049000Y-107823001D01*
X151549001Y-107323000D02*
G75*
G02X151049000Y-107823001I-500001J0D01*
G01*
X151549000Y-94323001D02*
X151549000Y-107323001D01*
X151049000Y-93823001D02*
G75*
G02X151549000Y-94323001I0J-500000D01*
G01*
X138049000Y-93823001D02*
X151049000Y-93823000D01*
X137549000Y-94322999D02*
G75*
G02X138049000Y-93823001I499999J-1D01*
G01*
X137549000Y-107323001D02*
X137549000Y-94323001D01*
X138049001Y-107823000D02*
G75*
G02X137549000Y-107323001I-1J500000D01*
G01*
X108186500Y-88773001D02*
X95186500Y-88773001D01*
X108686500Y-88273001D02*
G75*
G02X108186500Y-88773001I-500000J0D01*
G01*
X108686500Y-75273001D02*
X108686500Y-88273001D01*
X108186499Y-74773000D02*
G75*
G02X108686500Y-75273001I0J-500001D01*
G01*
X95186499Y-74773001D02*
X108186500Y-74773001D01*
X94686500Y-75273002D02*
G75*
G02X95186499Y-74773001I500000J1D01*
G01*
X94686500Y-88273001D02*
X94686500Y-75273001D01*
X95186501Y-88773000D02*
G75*
G02X94686500Y-88273001I-1J500000D01*
G01*
X175649000Y-107323001D02*
X175649000Y-94323001D01*
X176149000Y-107823001D02*
G75*
G02X175649000Y-107323001I0J500000D01*
G01*
X189149000Y-107823001D02*
X176149000Y-107823001D01*
X189649000Y-107323001D02*
G75*
G02X189149000Y-107823001I-500000J0D01*
G01*
X189649000Y-94323001D02*
X189649000Y-107323001D01*
X189149000Y-93823001D02*
G75*
G02X189649000Y-94323001I0J-500000D01*
G01*
X176149000Y-93823001D02*
X189149000Y-93823000D01*
X175649001Y-94323000D02*
G75*
G02X176149000Y-93823001I499999J0D01*
G01*
X89924000Y-69223000D02*
X89924000Y-56223001D01*
X90424000Y-69723000D02*
G75*
G02X89924000Y-69223000I0J500000D01*
G01*
X103424000Y-69723000D02*
X90424000Y-69723000D01*
X103923999Y-69222999D02*
G75*
G02X103424000Y-69723000I-500000J-1D01*
G01*
X103924000Y-56223001D02*
X103924000Y-69223000D01*
X103424001Y-55723000D02*
G75*
G02X103924000Y-56223001I-1J-500000D01*
G01*
X90423999Y-55723000D02*
X103424000Y-55723000D01*
X89923999Y-56223002D02*
G75*
G02X90423999Y-55723000I500001J1D01*
G01*
X204224000Y-69223000D02*
X204224000Y-56223001D01*
X204724000Y-69723000D02*
G75*
G02X204224000Y-69223000I0J500000D01*
G01*
X217724000Y-69723000D02*
X204724000Y-69723001D01*
X218223999Y-69223001D02*
G75*
G02X217724000Y-69723000I-499999J0D01*
G01*
X218224000Y-56223001D02*
X218224000Y-69223000D01*
X217723999Y-55723000D02*
G75*
G02X218224000Y-56223001I0J-500001D01*
G01*
X204724000Y-55723000D02*
X217724000Y-55723000D01*
X204223999Y-56223001D02*
G75*
G02X204724000Y-55723000I500001J0D01*
G01*
X71374000Y-55723001D02*
X84373999Y-55723000D01*
X70874001Y-56223000D02*
G75*
G02X71374000Y-55723001I499999J0D01*
G01*
X70874000Y-69223000D02*
X70874000Y-56223001D01*
X71373998Y-69723000D02*
G75*
G02X70874000Y-69223000I1J499999D01*
G01*
X84374000Y-69723001D02*
X71374000Y-69723000D01*
X84874000Y-69222999D02*
G75*
G02X84374000Y-69723001I-500001J-1D01*
G01*
X84874000Y-56223001D02*
X84874000Y-69223000D01*
X84373999Y-55723000D02*
G75*
G02X84874000Y-56223001I0J-500001D01*
G01*
X195199000Y-93823001D02*
X208199000Y-93823001D01*
X194699000Y-94323001D02*
G75*
G02X195199000Y-93823001I500000J0D01*
G01*
X194699000Y-107323001D02*
X194699000Y-94323001D01*
X195199001Y-107823000D02*
G75*
G02X194699000Y-107323001I-1J500000D01*
G01*
X208199000Y-107823001D02*
X195199000Y-107823001D01*
X208699000Y-107323001D02*
G75*
G02X208199000Y-107823001I-500000J0D01*
G01*
X208699000Y-94323001D02*
X208699000Y-107323001D01*
X208199000Y-93823001D02*
G75*
G02X208699000Y-94323001I0J-500000D01*
G01*
X147074000Y-69223000D02*
X147074000Y-56223001D01*
X147573999Y-69723001D02*
G75*
G02X147074000Y-69223000I1J500000D01*
G01*
X160574000Y-69723000D02*
X147574000Y-69723001D01*
X161074000Y-69223000D02*
G75*
G02X160574000Y-69723000I-500000J0D01*
G01*
X161074000Y-56223001D02*
X161074000Y-69223000D01*
X95161500Y-110873001D02*
X89161500Y-110873001D01*
X95161501Y-110873000D02*
G75*
G02X95661500Y-111373001I-1J-500000D01*
G01*
X95661500Y-112373001D02*
X95661500Y-111373001D01*
X96161499Y-112873000D02*
G75*
G02X95661500Y-112373001I0J499999D01*
G01*
X98661500Y-112873001D02*
X96161500Y-112873001D01*
X98661501Y-112873000D02*
G75*
G02X99161500Y-113373001I-1J-500000D01*
G01*
X99161499Y-126373000D02*
X99161500Y-113373001D01*
X65323999Y-69723001D02*
X52324000Y-69723001D01*
X65824000Y-69223000D02*
G75*
G02X65323999Y-69723001I-500001J0D01*
G01*
X122973999Y-56223001D02*
X122973999Y-69223000D01*
X122474000Y-55723000D02*
G75*
G02X122973999Y-56223001I-1J-500000D01*
G01*
X109474000Y-55723001D02*
X122473999Y-55723000D01*
X108974001Y-56223000D02*
G75*
G02X109474000Y-55723001I499999J0D01*
G01*
X108974000Y-69223000D02*
X108974000Y-56223001D01*
X109473999Y-69723001D02*
G75*
G02X108974000Y-69223000I1J500000D01*
G01*
X122473999Y-69723001D02*
X109474000Y-69723001D01*
X122974000Y-69223000D02*
G75*
G02X122473999Y-69723001I-500001J0D01*
G01*
X199174000Y-56223001D02*
X199174000Y-69223000D01*
X198674001Y-55723000D02*
G75*
G02X199174000Y-56223001I-1J-500000D01*
G01*
X185674000Y-55723000D02*
X198674000Y-55723000D01*
X185173999Y-56223001D02*
G75*
G02X185674000Y-55723000I500001J0D01*
G01*
X185174000Y-69223000D02*
X185174000Y-56223001D01*
X185674000Y-69723000D02*
G75*
G02X185174000Y-69223000I0J500000D01*
G01*
X198674000Y-69723000D02*
X185674000Y-69723001D01*
X107616499Y-111373000D02*
G75*
G02X108116499Y-110873000I500000J0D01*
G01*
X107616499Y-125373000D02*
X107616500Y-111373000D01*
X88661500Y-112373001D02*
G75*
G02X88161500Y-112873001I-500000J0D01*
G01*
X241536500Y-88773001D02*
X228536500Y-88773001D01*
X242036501Y-88273000D02*
G75*
G02X241536500Y-88773001I-500001J0D01*
G01*
X242036500Y-75273001D02*
X242036500Y-88273001D01*
X241536500Y-74773001D02*
G75*
G02X242036500Y-75273001I0J-500000D01*
G01*
X228536500Y-74773001D02*
X241536500Y-74773000D01*
X228036500Y-75272999D02*
G75*
G02X228536500Y-74773001I499999J-1D01*
G01*
X228036500Y-88273001D02*
X228036500Y-75273001D01*
X228536499Y-88773000D02*
G75*
G02X228036500Y-88273001I0J499999D01*
G01*
X221900659Y-49433040D02*
G75*
G03X221900659Y-49433040I-1100000J0D01*
G01*
X70086500Y-88773001D02*
X57086500Y-88773001D01*
X70586499Y-88273000D02*
G75*
G02X70086500Y-88773001I-500000J-1D01*
G01*
X70586500Y-75273001D02*
X70586499Y-88273001D01*
X70086501Y-74773000D02*
G75*
G02X70586500Y-75273001I-1J-500000D01*
G01*
X57086500Y-74773001D02*
X70086500Y-74773001D01*
X56586500Y-75272999D02*
G75*
G02X57086500Y-74773001I499999J-1D01*
G01*
X56586499Y-88273001D02*
X56586500Y-75273001D01*
X57086500Y-88773002D02*
G75*
G02X56586499Y-88273001I0J500001D01*
G01*
X214249000Y-93823001D02*
X227249000Y-93823000D01*
X213749000Y-94323001D02*
G75*
G02X214249000Y-93823001I500000J0D01*
G01*
X213749000Y-107323001D02*
X213749000Y-94323001D01*
X214249001Y-107823000D02*
G75*
G02X213749000Y-107323001I-1J500000D01*
G01*
X227249000Y-107823000D02*
X214249000Y-107823001D01*
X227748999Y-107323001D02*
G75*
G02X227249000Y-107823000I-499999J0D01*
G01*
X66611500Y-126873000D02*
G75*
G02X66111500Y-126373000I0J500000D01*
G01*
X66111500Y-113373001D02*
X66111500Y-126373000D01*
X66111500Y-113372999D02*
G75*
G02X66611500Y-112873001I499999J-1D01*
G01*
X69111499Y-112873001D02*
X66611500Y-112873001D01*
X69611500Y-112373000D02*
G75*
G02X69111499Y-112873001I-500001J0D01*
G01*
X88661500Y-111373001D02*
X88661500Y-112373001D01*
X88661500Y-111373001D02*
G75*
G02X89161500Y-110873001I500000J0D01*
G01*
X160574000Y-55723001D02*
G75*
G02X161074000Y-56223001I0J-500000D01*
G01*
X147574000Y-55723001D02*
X160574000Y-55723000D01*
X147074000Y-56222999D02*
G75*
G02X147574000Y-55723001I499999J-1D01*
G01*
X99161499Y-126373001D02*
G75*
G02X98661500Y-126873000I-499999J0D01*
G01*
X85661500Y-126873000D02*
X98661500Y-126873000D01*
X85661499Y-126873001D02*
G75*
G02X85161500Y-126373000I1J500000D01*
G01*
X156599000Y-107323001D02*
X156599000Y-94323001D01*
X157099000Y-107823001D02*
G75*
G02X156599000Y-107323001I0J500000D01*
G01*
X246799000Y-94323001D02*
X246799000Y-107322999D01*
X246299001Y-93823000D02*
G75*
G02X246799000Y-94323001I-1J-500000D01*
G01*
X233299000Y-93823001D02*
X246299000Y-93823001D01*
X232799000Y-94322999D02*
G75*
G02X233299000Y-93823001I499999J-1D01*
G01*
X232799000Y-107323001D02*
X232799000Y-94323001D01*
X233298999Y-107823000D02*
G75*
G02X232799000Y-107323001I0J499999D01*
G01*
X246299000Y-107823001D02*
X233299000Y-107823000D01*
X246799000Y-107322999D02*
G75*
G02X246299000Y-107823001I-500001J-1D01*
G01*
X237561500Y-113373001D02*
X237561500Y-126373000D01*
X237561500Y-113373001D02*
G75*
G02X238061500Y-112873001I500000J0D01*
G01*
X240561500Y-112873001D02*
X238061500Y-112873001D01*
X247561499Y-110873000D02*
G75*
G02X248061500Y-111373001I0J-500001D01*
G01*
X248061499Y-112373001D02*
X248061500Y-111373001D01*
X248561501Y-112873001D02*
G75*
G02X248061499Y-112373001I-1J500001D01*
G01*
X127236500Y-88773001D02*
X114236500Y-88773001D01*
X127736500Y-88272999D02*
G75*
G02X127236500Y-88773001I-500001J-1D01*
G01*
X127736500Y-75273001D02*
X127736500Y-88273001D01*
X127236500Y-74773001D02*
G75*
G02X127736500Y-75273001I0J-500000D01*
G01*
X114236500Y-74773001D02*
X127236500Y-74773001D01*
X113736500Y-75273001D02*
G75*
G02X114236500Y-74773001I500000J0D01*
G01*
X113736500Y-88273001D02*
X113736500Y-75273001D01*
X184886500Y-88272999D02*
G75*
G02X184386500Y-88773001I-500001J-1D01*
G01*
X141523999Y-69723000D02*
X128523999Y-69723000D01*
X142024000Y-69223001D02*
G75*
G02X141523999Y-69723000I-500000J1D01*
G01*
X142024000Y-56223001D02*
X142024000Y-69223000D01*
X141524000Y-55723001D02*
G75*
G02X142024000Y-56223001I0J-500000D01*
G01*
X128523999Y-55723000D02*
X141524000Y-55723000D01*
X128023999Y-56223002D02*
G75*
G02X128523999Y-55723000I500001J1D01*
G01*
X128024000Y-69223000D02*
X128024000Y-56223001D01*
X128523999Y-69723001D02*
G75*
G02X128024000Y-69223000I1J500000D01*
G01*
X94398999Y-94323001D02*
X94399000Y-107323001D01*
X93899000Y-93823000D02*
G75*
G02X94398999Y-94323001I-1J-500000D01*
G01*
X227749000Y-94323001D02*
X227749000Y-107323001D01*
X227249000Y-93822999D02*
G75*
G02X227749000Y-94323001I-1J-500001D01*
G01*
X179623999Y-69723001D02*
X166624000Y-69723001D01*
X180124000Y-69223000D02*
G75*
G02X179623999Y-69723001I-500001J0D01*
G01*
X180123999Y-56223001D02*
X180123999Y-69223000D01*
X132786499Y-88273001D02*
X132786499Y-75273001D01*
X133286500Y-88773002D02*
G75*
G02X132786499Y-88273001I0J500001D01*
G01*
X174861499Y-126873000D02*
X152336500Y-126873001D01*
X175361499Y-126373000D02*
G75*
G02X174861499Y-126873000I-500000J0D01*
G01*
X209486500Y-74773001D02*
X222486500Y-74773001D01*
X208986500Y-75273001D02*
G75*
G02X209486500Y-74773001I500000J0D01*
G01*
X208986500Y-88273001D02*
X208986500Y-75273001D01*
X209486500Y-88773001D02*
G75*
G02X208986500Y-88273001I0J500000D01*
G01*
X222486500Y-88773001D02*
X209486500Y-88773001D01*
X222986500Y-88272999D02*
G75*
G02X222486500Y-88773001I-500001J-1D01*
G01*
X222986500Y-75273001D02*
X222986500Y-88273001D01*
X222486501Y-74773000D02*
G75*
G02X222986500Y-75273001I-1J-500000D01*
G01*
X76136500Y-74773001D02*
X89136500Y-74773001D01*
X75636500Y-75272999D02*
G75*
G02X76136500Y-74773001I499999J-1D01*
G01*
X75636500Y-88273001D02*
X75636500Y-75273001D01*
X76136500Y-88773001D02*
G75*
G02X75636500Y-88273001I0J500000D01*
G01*
X89136500Y-88773001D02*
X76136500Y-88773001D01*
X89636501Y-88273000D02*
G75*
G02X89136500Y-88773001I-500001J0D01*
G01*
X89636500Y-75273001D02*
X89636500Y-88273001D01*
X89136500Y-74773001D02*
G75*
G02X89636500Y-75273001I0J-500000D01*
G01*
X113449000Y-94323001D02*
X113449000Y-107323001D01*
X112948999Y-93823000D02*
G75*
G02X113449000Y-94323001I0J-500001D01*
G01*
X99949000Y-93823001D02*
X112949000Y-93823000D01*
X99449000Y-94322999D02*
G75*
G02X99949000Y-93823001I499999J-1D01*
G01*
X99449000Y-107323001D02*
X99449000Y-94323001D01*
X99948999Y-107823000D02*
G75*
G02X99449000Y-107323001I0J499999D01*
G01*
X112949000Y-107823001D02*
X99949000Y-107823001D01*
X113449001Y-107323000D02*
G75*
G02X112949000Y-107823001I-500001J0D01*
G01*
X65823999Y-56223001D02*
X65824000Y-69223000D01*
X65324000Y-55723000D02*
G75*
G02X65823999Y-56223001I-1J-500000D01*
G01*
X52324000Y-55723001D02*
X65323999Y-55723000D01*
X51824000Y-56223001D02*
G75*
G02X52324000Y-55723001I500000J0D01*
G01*
X51823999Y-69223000D02*
X51824000Y-56223001D01*
X52324000Y-69723001D02*
G75*
G02X51823999Y-69223000I0J500001D01*
G01*
X80899000Y-93823001D02*
X93899000Y-93823001D01*
X80399000Y-94323001D02*
G75*
G02X80899000Y-93823001I500000J0D01*
G01*
X80399000Y-107323001D02*
X80399000Y-94323001D01*
X80899001Y-107823000D02*
G75*
G02X80399000Y-107323001I-1J500000D01*
G01*
X93899000Y-107823001D02*
X80899000Y-107823001D01*
X94399000Y-107323001D02*
G75*
G02X93899000Y-107823001I-500000J0D01*
G01*
X251061500Y-112873000D02*
X248561499Y-112873001D01*
X251061501Y-112873000D02*
G75*
G02X251561500Y-113373001I-1J-500000D01*
G01*
X251561500Y-126373000D02*
X251561500Y-113373001D01*
X251561499Y-126373001D02*
G75*
G02X251061500Y-126873000I-499999J0D01*
G01*
X238061500Y-126873000D02*
X251061500Y-126873000D01*
X238061498Y-126873000D02*
G75*
G02X237561500Y-126373000I1J499999D01*
G01*
X241061501Y-112373000D02*
G75*
G02X240561500Y-112873001I-500001J0D01*
G01*
X241061499Y-111373001D02*
X241061500Y-112373001D01*
X241061500Y-111373001D02*
G75*
G02X241561500Y-110873001I500000J0D01*
G01*
X247561500Y-110873000D02*
X241561500Y-110873001D01*
X85161500Y-113373001D02*
X85161500Y-126373000D01*
X85161500Y-113372999D02*
G75*
G02X85661500Y-112873001I499999J-1D01*
G01*
X88161500Y-112873001D02*
X85661500Y-112873001D01*
X199173999Y-69223001D02*
G75*
G02X198674000Y-69723000I-499999J0D01*
G01*
X69611500Y-111373001D02*
X69611499Y-112373001D01*
X69611500Y-111373000D02*
G75*
G02X70111499Y-110873001I499999J0D01*
G01*
X76111499Y-110873000D02*
X70111499Y-110873001D01*
X76111499Y-110873000D02*
G75*
G02X76611499Y-111373000I0J-500000D01*
G01*
X76611499Y-112373001D02*
X76611499Y-111373000D01*
X77111499Y-112873001D02*
G75*
G02X76611499Y-112373001I0J500000D01*
G01*
X79611500Y-112873001D02*
X77111499Y-112873001D01*
X79611499Y-112873001D02*
G75*
G02X80111500Y-113373000I1J-500000D01*
G01*
X80111500Y-126373000D02*
X80111500Y-113373000D01*
X80111500Y-126373000D02*
G75*
G02X79611500Y-126873000I-500000J0D01*
G01*
X66611500Y-126873000D02*
X79611500Y-126873000D01*
M02*
