G04 #@! TF.GenerationSoftware,KiCad,Pcbnew,(5.1.4-0-10_14)*
G04 #@! TF.CreationDate,2020-08-18T10:46:29-05:00*
G04 #@! TF.ProjectId,omega_4_skeleton_top,6f6d6567-615f-4345-9f73-6b656c65746f,rev?*
G04 #@! TF.SameCoordinates,Original*
G04 #@! TF.FileFunction,Legend,Bot*
G04 #@! TF.FilePolarity,Positive*
%FSLAX46Y46*%
G04 Gerber Fmt 4.6, Leading zero omitted, Abs format (unit mm)*
G04 Created by KiCad (PCBNEW (5.1.4-0-10_14)) date 2020-08-18 10:46:29*
%MOMM*%
%LPD*%
G04 APERTURE LIST*
%ADD10C,0.150000*%
G04 APERTURE END LIST*
D10*
X140761904Y-113327380D02*
X140857142Y-113279761D01*
X140904761Y-113232142D01*
X140952380Y-113136904D01*
X140952380Y-112851190D01*
X140904761Y-112755952D01*
X140857142Y-112708333D01*
X140761904Y-112660714D01*
X140619047Y-112660714D01*
X140523809Y-112708333D01*
X140476190Y-112755952D01*
X140428571Y-112851190D01*
X140428571Y-113136904D01*
X140476190Y-113232142D01*
X140523809Y-113279761D01*
X140619047Y-113327380D01*
X140761904Y-113327380D01*
X140000000Y-113327380D02*
X140000000Y-112660714D01*
X140000000Y-112755952D02*
X139952380Y-112708333D01*
X139857142Y-112660714D01*
X139714285Y-112660714D01*
X139619047Y-112708333D01*
X139571428Y-112803571D01*
X139571428Y-113327380D01*
X139571428Y-112803571D02*
X139523809Y-112708333D01*
X139428571Y-112660714D01*
X139285714Y-112660714D01*
X139190476Y-112708333D01*
X139142857Y-112803571D01*
X139142857Y-113327380D01*
X138285714Y-113279761D02*
X138380952Y-113327380D01*
X138571428Y-113327380D01*
X138666666Y-113279761D01*
X138714285Y-113184523D01*
X138714285Y-112803571D01*
X138666666Y-112708333D01*
X138571428Y-112660714D01*
X138380952Y-112660714D01*
X138285714Y-112708333D01*
X138238095Y-112803571D01*
X138238095Y-112898809D01*
X138714285Y-112994047D01*
X137380952Y-112660714D02*
X137380952Y-113470238D01*
X137428571Y-113565476D01*
X137476190Y-113613095D01*
X137571428Y-113660714D01*
X137714285Y-113660714D01*
X137809523Y-113613095D01*
X137380952Y-113279761D02*
X137476190Y-113327380D01*
X137666666Y-113327380D01*
X137761904Y-113279761D01*
X137809523Y-113232142D01*
X137857142Y-113136904D01*
X137857142Y-112851190D01*
X137809523Y-112755952D01*
X137761904Y-112708333D01*
X137666666Y-112660714D01*
X137476190Y-112660714D01*
X137380952Y-112708333D01*
X136476190Y-113327380D02*
X136476190Y-112803571D01*
X136523809Y-112708333D01*
X136619047Y-112660714D01*
X136809523Y-112660714D01*
X136904761Y-112708333D01*
X136476190Y-113279761D02*
X136571428Y-113327380D01*
X136809523Y-113327380D01*
X136904761Y-113279761D01*
X136952380Y-113184523D01*
X136952380Y-113089285D01*
X136904761Y-112994047D01*
X136809523Y-112946428D01*
X136571428Y-112946428D01*
X136476190Y-112898809D01*
X136238095Y-113422619D02*
X135476190Y-113422619D01*
X134809523Y-112660714D02*
X134809523Y-113327380D01*
X135047619Y-112279761D02*
X135285714Y-112994047D01*
X134666666Y-112994047D01*
X134523809Y-113422619D02*
X133761904Y-113422619D01*
X133666666Y-112660714D02*
X133285714Y-112660714D01*
X133523809Y-112327380D02*
X133523809Y-113184523D01*
X133476190Y-113279761D01*
X133380952Y-113327380D01*
X133285714Y-113327380D01*
X132809523Y-113327380D02*
X132904761Y-113279761D01*
X132952380Y-113232142D01*
X133000000Y-113136904D01*
X133000000Y-112851190D01*
X132952380Y-112755952D01*
X132904761Y-112708333D01*
X132809523Y-112660714D01*
X132666666Y-112660714D01*
X132571428Y-112708333D01*
X132523809Y-112755952D01*
X132476190Y-112851190D01*
X132476190Y-113136904D01*
X132523809Y-113232142D01*
X132571428Y-113279761D01*
X132666666Y-113327380D01*
X132809523Y-113327380D01*
X132047619Y-112660714D02*
X132047619Y-113660714D01*
X132047619Y-112708333D02*
X131952380Y-112660714D01*
X131761904Y-112660714D01*
X131666666Y-112708333D01*
X131619047Y-112755952D01*
X131571428Y-112851190D01*
X131571428Y-113136904D01*
X131619047Y-113232142D01*
X131666666Y-113279761D01*
X131761904Y-113327380D01*
X131952380Y-113327380D01*
X132047619Y-113279761D01*
X131380952Y-113422619D02*
X130619047Y-113422619D01*
X130380952Y-112660714D02*
X130380952Y-113660714D01*
X130380952Y-112708333D02*
X130285714Y-112660714D01*
X130095238Y-112660714D01*
X130000000Y-112708333D01*
X129952380Y-112755952D01*
X129904761Y-112851190D01*
X129904761Y-113136904D01*
X129952380Y-113232142D01*
X130000000Y-113279761D01*
X130095238Y-113327380D01*
X130285714Y-113327380D01*
X130380952Y-113279761D01*
X129333333Y-113327380D02*
X129428571Y-113279761D01*
X129476190Y-113184523D01*
X129476190Y-112327380D01*
X128523809Y-113327380D02*
X128523809Y-112803571D01*
X128571428Y-112708333D01*
X128666666Y-112660714D01*
X128857142Y-112660714D01*
X128952380Y-112708333D01*
X128523809Y-113279761D02*
X128619047Y-113327380D01*
X128857142Y-113327380D01*
X128952380Y-113279761D01*
X129000000Y-113184523D01*
X129000000Y-113089285D01*
X128952380Y-112994047D01*
X128857142Y-112946428D01*
X128619047Y-112946428D01*
X128523809Y-112898809D01*
X128190476Y-112660714D02*
X127809523Y-112660714D01*
X128047619Y-112327380D02*
X128047619Y-113184523D01*
X128000000Y-113279761D01*
X127904761Y-113327380D01*
X127809523Y-113327380D01*
X127095238Y-113279761D02*
X127190476Y-113327380D01*
X127380952Y-113327380D01*
X127476190Y-113279761D01*
X127523809Y-113184523D01*
X127523809Y-112803571D01*
X127476190Y-112708333D01*
X127380952Y-112660714D01*
X127190476Y-112660714D01*
X127095238Y-112708333D01*
X127047619Y-112803571D01*
X127047619Y-112898809D01*
X127523809Y-112994047D01*
X138666666Y-114977380D02*
X138666666Y-113977380D01*
X138666666Y-114358333D02*
X138571428Y-114310714D01*
X138380952Y-114310714D01*
X138285714Y-114358333D01*
X138238095Y-114405952D01*
X138190476Y-114501190D01*
X138190476Y-114786904D01*
X138238095Y-114882142D01*
X138285714Y-114929761D01*
X138380952Y-114977380D01*
X138571428Y-114977380D01*
X138666666Y-114929761D01*
X137857142Y-114310714D02*
X137619047Y-114977380D01*
X137380952Y-114310714D02*
X137619047Y-114977380D01*
X137714285Y-115215476D01*
X137761904Y-115263095D01*
X137857142Y-115310714D01*
X136238095Y-114977380D02*
X136238095Y-114310714D01*
X136238095Y-114405952D02*
X136190476Y-114358333D01*
X136095238Y-114310714D01*
X135952380Y-114310714D01*
X135857142Y-114358333D01*
X135809523Y-114453571D01*
X135809523Y-114977380D01*
X135809523Y-114453571D02*
X135761904Y-114358333D01*
X135666666Y-114310714D01*
X135523809Y-114310714D01*
X135428571Y-114358333D01*
X135380952Y-114453571D01*
X135380952Y-114977380D01*
X134476190Y-114977380D02*
X134476190Y-114453571D01*
X134523809Y-114358333D01*
X134619047Y-114310714D01*
X134809523Y-114310714D01*
X134904761Y-114358333D01*
X134476190Y-114929761D02*
X134571428Y-114977380D01*
X134809523Y-114977380D01*
X134904761Y-114929761D01*
X134952380Y-114834523D01*
X134952380Y-114739285D01*
X134904761Y-114644047D01*
X134809523Y-114596428D01*
X134571428Y-114596428D01*
X134476190Y-114548809D01*
X134000000Y-114977380D02*
X134000000Y-113977380D01*
X133904761Y-114596428D02*
X133619047Y-114977380D01*
X133619047Y-114310714D02*
X134000000Y-114691666D01*
X132809523Y-114929761D02*
X132904761Y-114977380D01*
X133095238Y-114977380D01*
X133190476Y-114929761D01*
X133238095Y-114834523D01*
X133238095Y-114453571D01*
X133190476Y-114358333D01*
X133095238Y-114310714D01*
X132904761Y-114310714D01*
X132809523Y-114358333D01*
X132761904Y-114453571D01*
X132761904Y-114548809D01*
X133238095Y-114644047D01*
X132333333Y-114310714D02*
X132333333Y-114977380D01*
X132333333Y-114405952D02*
X132285714Y-114358333D01*
X132190476Y-114310714D01*
X132047619Y-114310714D01*
X131952380Y-114358333D01*
X131904761Y-114453571D01*
X131904761Y-114977380D01*
X131285714Y-114977380D02*
X131380952Y-114929761D01*
X131428571Y-114882142D01*
X131476190Y-114786904D01*
X131476190Y-114501190D01*
X131428571Y-114405952D01*
X131380952Y-114358333D01*
X131285714Y-114310714D01*
X131142857Y-114310714D01*
X131047619Y-114358333D01*
X131000000Y-114405952D01*
X130952380Y-114501190D01*
X130952380Y-114786904D01*
X131000000Y-114882142D01*
X131047619Y-114929761D01*
X131142857Y-114977380D01*
X131285714Y-114977380D01*
X130619047Y-114310714D02*
X130380952Y-114977380D01*
X130142857Y-114310714D01*
X129333333Y-114977380D02*
X129333333Y-114453571D01*
X129380952Y-114358333D01*
X129476190Y-114310714D01*
X129666666Y-114310714D01*
X129761904Y-114358333D01*
X129333333Y-114929761D02*
X129428571Y-114977380D01*
X129666666Y-114977380D01*
X129761904Y-114929761D01*
X129809523Y-114834523D01*
X129809523Y-114739285D01*
X129761904Y-114644047D01*
X129666666Y-114596428D01*
X129428571Y-114596428D01*
X129333333Y-114548809D01*
X136476190Y-116627380D02*
X136476190Y-115627380D01*
X136476190Y-116579761D02*
X136571428Y-116627380D01*
X136761904Y-116627380D01*
X136857142Y-116579761D01*
X136904761Y-116532142D01*
X136952380Y-116436904D01*
X136952380Y-116151190D01*
X136904761Y-116055952D01*
X136857142Y-116008333D01*
X136761904Y-115960714D01*
X136571428Y-115960714D01*
X136476190Y-116008333D01*
X135571428Y-116627380D02*
X135571428Y-116103571D01*
X135619047Y-116008333D01*
X135714285Y-115960714D01*
X135904761Y-115960714D01*
X136000000Y-116008333D01*
X135571428Y-116579761D02*
X135666666Y-116627380D01*
X135904761Y-116627380D01*
X136000000Y-116579761D01*
X136047619Y-116484523D01*
X136047619Y-116389285D01*
X136000000Y-116294047D01*
X135904761Y-116246428D01*
X135666666Y-116246428D01*
X135571428Y-116198809D01*
X135095238Y-116627380D02*
X135095238Y-115960714D01*
X135095238Y-116151190D02*
X135047619Y-116055952D01*
X135000000Y-116008333D01*
X134904761Y-115960714D01*
X134809523Y-115960714D01*
X134476190Y-116627380D02*
X134476190Y-115627380D01*
X134380952Y-116246428D02*
X134095238Y-116627380D01*
X134095238Y-115960714D02*
X134476190Y-116341666D01*
X133714285Y-116579761D02*
X133619047Y-116627380D01*
X133428571Y-116627380D01*
X133333333Y-116579761D01*
X133285714Y-116484523D01*
X133285714Y-116436904D01*
X133333333Y-116341666D01*
X133428571Y-116294047D01*
X133571428Y-116294047D01*
X133666666Y-116246428D01*
X133714285Y-116151190D01*
X133714285Y-116103571D01*
X133666666Y-116008333D01*
X133571428Y-115960714D01*
X133428571Y-115960714D01*
X133333333Y-116008333D01*
X132857142Y-116627380D02*
X132857142Y-115960714D01*
X132857142Y-115627380D02*
X132904761Y-115675000D01*
X132857142Y-115722619D01*
X132809523Y-115675000D01*
X132857142Y-115627380D01*
X132857142Y-115722619D01*
X131952380Y-116627380D02*
X131952380Y-115627380D01*
X131952380Y-116579761D02*
X132047619Y-116627380D01*
X132238095Y-116627380D01*
X132333333Y-116579761D01*
X132380952Y-116532142D01*
X132428571Y-116436904D01*
X132428571Y-116151190D01*
X132380952Y-116055952D01*
X132333333Y-116008333D01*
X132238095Y-115960714D01*
X132047619Y-115960714D01*
X131952380Y-116008333D01*
X131095238Y-116579761D02*
X131190476Y-116627380D01*
X131380952Y-116627380D01*
X131476190Y-116579761D01*
X131523809Y-116484523D01*
X131523809Y-116103571D01*
X131476190Y-116008333D01*
X131380952Y-115960714D01*
X131190476Y-115960714D01*
X131095238Y-116008333D01*
X131047619Y-116103571D01*
X131047619Y-116198809D01*
X131523809Y-116294047D01*
M02*
