G04 #@! TF.GenerationSoftware,KiCad,Pcbnew,(5.1.4-0-10_14)*
G04 #@! TF.CreationDate,2020-08-19T23:03:45-05:00*
G04 #@! TF.ProjectId,omega_4_skeleton_top,6f6d6567-615f-4345-9f73-6b656c65746f,rev?*
G04 #@! TF.SameCoordinates,Original*
G04 #@! TF.FileFunction,Copper,L1,Top*
G04 #@! TF.FilePolarity,Positive*
%FSLAX46Y46*%
G04 Gerber Fmt 4.6, Leading zero omitted, Abs format (unit mm)*
G04 Created by KiCad (PCBNEW (5.1.4-0-10_14)) date 2020-08-19 23:03:45*
%MOMM*%
%LPD*%
G04 APERTURE LIST*
%ADD10C,0.010000*%
%ADD11C,0.400000*%
%ADD12C,0.800000*%
G04 APERTURE END LIST*
D10*
G36*
X142700000Y-118575000D02*
G01*
X142443500Y-118529800D01*
X142217900Y-118399500D01*
X142050500Y-118200000D01*
X141961400Y-117955200D01*
X141961400Y-117694800D01*
X142050500Y-117450000D01*
X142217900Y-117250500D01*
X142443500Y-117120200D01*
X142700000Y-117075000D01*
X142700000Y-118575000D01*
X142700000Y-118575000D01*
G37*
X142700000Y-118575000D02*
X142443500Y-118529800D01*
X142217900Y-118399500D01*
X142050500Y-118200000D01*
X141961400Y-117955200D01*
X141961400Y-117694800D01*
X142050500Y-117450000D01*
X142217900Y-117250500D01*
X142443500Y-117120200D01*
X142700000Y-117075000D01*
X142700000Y-118575000D01*
G36*
X142900000Y-117075000D02*
G01*
X143156500Y-117120200D01*
X143382100Y-117250500D01*
X143549500Y-117450000D01*
X143638600Y-117694800D01*
X143638600Y-117955200D01*
X143549500Y-118200000D01*
X143382100Y-118399500D01*
X143156500Y-118529800D01*
X142900000Y-118575000D01*
X142900000Y-117075000D01*
X142900000Y-117075000D01*
G37*
X142900000Y-117075000D02*
X143156500Y-117120200D01*
X143382100Y-117250500D01*
X143549500Y-117450000D01*
X143638600Y-117694800D01*
X143638600Y-117955200D01*
X143549500Y-118200000D01*
X143382100Y-118399500D01*
X143156500Y-118529800D01*
X142900000Y-118575000D01*
X142900000Y-117075000D01*
D11*
X142350000Y-117825000D03*
X143250000Y-117825000D03*
D12*
X125500000Y-117800000D03*
M02*
