0
SECTION
2
HEADER
9
$INSUNITS
70
4
9
$ACADVER
1
AC1014
9
$HANDSEED
5
FFFF
0
ENDSEC
0
SECTION
2
TABLES
0
TABLE
2
VPORT
5
8
100
AcDbSymbolTable
0
ENDTAB
0
TABLE
2
LTYPE
5
5
100
AcDbSymbolTable
0
LTYPE
5
14
100
AcDbSymbolTableRecord
100
AcDbLinetypeTableRecord
2
BYBLOCK
70
0
0
LTYPE
5
15
100
AcDbSymbolTableRecord
100
AcDbLinetypeTableRecord
2
BYLAYER
70
0
0
ENDTAB
0
TABLE
2
LAYER
5
2
100
AcDbSymbolTable
70
2
0
LAYER
5
50
100
AcDbSymbolTableRecord
100
AcDbLayerTableRecord
2
0
70
0
6
CONTINUOUS
0
ENDTAB
0
TABLE
2
STYLE
5
3
100
AcDbSymbolTable
70
1
0
STYLE
5
11
100
AcDbSymbolTableRecord
100
AcDbTextStyleTableRecord
2
STANDARD
70
0
0
ENDTAB
0
TABLE
2
VIEW
5
6
100
AcDbSymbolTable
70
0
0
ENDTAB
0
TABLE
2
UCS
5
7
100
AcDbSymbolTable
70
0
0
ENDTAB
0
TABLE
2
APPID
5
9
100
AcDbSymbolTable
70
2
0
APPID
5
12
100
AcDbSymbolTableRecord
100
AcDbRegAppTableRecord
2
ACAD
70
0
0
ENDTAB
0
TABLE
2
DIMSTYLE
5
A
100
AcDbSymbolTable
70
1
0
ENDTAB
0
TABLE
2
BLOCK_RECORD
5
1
100
AcDbSymbolTable
70
1
0
BLOCK_RECORD
5
1F
100
AcDbSymbolTableRecord
100
AcDbBlockTableRecord
2
*MODEL_SPACE
0
BLOCK_RECORD
5
1B
100
AcDbSymbolTableRecord
100
AcDbBlockTableRecord
2
*PAPER_SPACE
0
ENDTAB
0
ENDSEC
0
SECTION
2
BLOCKS
0
BLOCK
5
20
100
AcDbEntity
100
AcDbBlockBegin
2
*MODEL_SPACE
0
ENDBLK
5
21
100
AcDbEntity
100
AcDbBlockEnd
0
BLOCK
5
1C
100
AcDbEntity
100
AcDbBlockBegin
2
*PAPER_SPACE
0
ENDBLK
5
1D
100
AcDbEntity
100
AcDbBlockEnd
0
ENDSEC
0
SECTION
2
ENTITIES
0
CIRCLE
5
100
100
AcDbEntity
8
0
100
AcDbCircle
10
33.326653759823202
20
-78.86999934882806
30
0
40
1.0999999999999985
210
0
220
-0
230
1
0
CIRCLE
5
101
100
AcDbEntity
8
0
100
AcDbCircle
10
185.81415475982323
20
-78.86999934882806
30
0
40
1.0999999999999943
210
0
220
-0
230
1
0
CIRCLE
5
102
100
AcDbEntity
8
0
100
AcDbCircle
10
171.50165965137845
20
3.7649619377047001
30
0
40
1.0999999999999943
210
0
220
0
230
1
0
CIRCLE
5
103
100
AcDbEntity
8
0
100
AcDbCircle
10
19.026647868267919
20
3.8850367599515199
30
0
40
1.0999999999999985
210
0
220
0
230
1
0
LWPOLYLINE
5
104
100
AcDbEntity
8
0
100
AcDbPolyline
90
64
70
1
43
0.0
10
-0.57500000000000495
20
1.0994770393496875
42
-0.41443231418725102
10
0.12552276530190087
20
1.7994768441471167
10
9.3766212277064707
20
1.7925680518195852
42
0.1991064635730764
10
12.208035582749268
20
2.9641398116301358
10
14.857358756579453
20
5.6134629854603224
42
-0.19891236737965834
10
17.685785881325646
20
6.7850358607141361
10
20.372077382340905
20
6.7850358607141326
42
-0.19891236737965731
10
23.200504507087089
20
5.6134629854603304
10
25.864969880710767
20
2.9489976118366723
42
0.19870770957296366
10
28.690246986746093
20
1.7774259769102938
10
161.85153767303333
20
1.672560805087534
42
0.19911704121623319
10
164.68311481649039
20
2.8441324400139134
10
167.33237053968998
20
5.4933881632135337
42
-0.19891236737965823
10
170.16079766443619
20
6.6649610384673164
10
172.84708916545145
20
6.6649610384673306
42
-0.19891236737965848
10
175.67551629019763
20
5.4933881632134902
10
178.33991413695659
20
2.8289903164545311
42
0.19871830428640391
10
181.1653543189978
20
1.6574185564292212
10
190.40052271497333
20
1.6505223247891145
42
-0.41399486544561898
10
191.09999999999997
20
0.95052251995408898
10
191.09999999999999
20
-17.749999999999982
42
0.41421356237309415
10
191.80000000000001
20
-18.449999999999982
10
195.17500000000001
20
-18.449999999999989
42
-0.41421356237308943
10
195.87500000000003
20
-19.149999999999977
10
195.87500000000003
20
-36.799999999999969
42
0.41421356237309509
10
196.57500000000002
20
-37.499999999999964
10
199.92500000000001
20
-37.499999999999986
42
-0.41421356237308943
10
200.625
20
-38.199999999999974
10
200.625
20
-55.849999999999994
42
0.41421356237309509
10
201.32499999999999
20
-56.549999999999983
10
204.72493627430549
20
-56.54999999999994
42
-0.41440016346373409
10
205.4249361322623
20
-57.250445937728067
10
205.41294678931456
20
-76.070424226717705
42
-0.41419605014662614
10
204.71254284721792
20
-76.769978172358222
10
195.48095182614819
20
-76.764649115016681
42
0.19906239747634522
10
192.65021564917407
20
-77.936221323805185
10
189.98801139864239
20
-80.598425574336886
42
-0.19891236737965454
10
187.1595842738962
20
-81.769998449590688
10
184.47329277288091
20
-81.769998449590673
42
-0.19891236737966006
10
181.64486564813473
20
-80.598425574336844
10
178.99415197885151
20
-77.947711905053609
42
0.19888837513357183
10
176.16609412132942
20
-76.776139046844563
10
42.99231463791692
20
-76.76384486882354
42
0.19893635984602848
10
40.163518245946676
20
-77.935417727032586
10
37.500510398642383
20
-80.598425574336858
42
-0.19891236737965973
10
34.672083273896192
20
-81.769998449590688
10
31.985791772880937
20
-81.769998449590688
42
-0.19891236737965859
10
29.157364648134738
20
-80.598425574336858
10
26.50590612611623
20
-77.946967052318342
42
0.19877152705402815
10
23.679646738226864
20
-76.77539476444997
10
14.424620646050062
20
-76.770379148420716
42
-0.41405484241519885
10
13.725000000000009
20
-76.070379251213154
10
13.725000000000009
20
-58.425000000000011
42
0.41421356237309592
10
13.025000000000006
20
-57.725000000000001
10
9.6500000000000004
20
-57.725000000000009
42
-0.4142135623730876
10
8.9499999999999993
20
-57.025000000000006
10
8.9499999999999993
20
-39.399999999999991
42
0.41421356237309453
10
8.25
20
-38.700000000000003
10
4.9000000000000039
20
-38.699999999999989
42
-0.41421356237309298
10
4.2000000000000046
20
-38
10
4.2000000000000028
20
-20.350000000000005
42
0.41421356237309415
10
3.5000000000000053
20
-19.650000000000002
10
0.12499999999999303
20
-19.649999999999995
42
-0.41421356237309243
10
-0.57500000000000495
20
-18.949999999999992
0
ENDSEC
0
SECTION
2
OBJECTS
0
DICTIONARY
5
C
100
AcDbDictionary
3
ACAD_GROUP
350
D
3
ACAD_MLINESTYLE
350
17
0
DICTIONARY
5
D
100
AcDbDictionary
0
DICTIONARY
5
1A
330
C
100
AcDbDictionary
0
DICTIONARY
5
17
100
AcDbDictionary
0
ENDSEC
0
EOF
