0
SECTION
2
HEADER
9
$INSUNITS
70
4
9
$ACADVER
1
AC1014
9
$HANDSEED
5
FFFF
0
ENDSEC
0
SECTION
2
TABLES
0
TABLE
2
VPORT
5
8
100
AcDbSymbolTable
0
ENDTAB
0
TABLE
2
LTYPE
5
5
100
AcDbSymbolTable
0
LTYPE
5
14
100
AcDbSymbolTableRecord
100
AcDbLinetypeTableRecord
2
BYBLOCK
70
0
0
LTYPE
5
15
100
AcDbSymbolTableRecord
100
AcDbLinetypeTableRecord
2
BYLAYER
70
0
0
ENDTAB
0
TABLE
2
LAYER
5
2
100
AcDbSymbolTable
70
2
0
LAYER
5
50
100
AcDbSymbolTableRecord
100
AcDbLayerTableRecord
2
0
70
0
6
CONTINUOUS
0
ENDTAB
0
TABLE
2
STYLE
5
3
100
AcDbSymbolTable
70
1
0
STYLE
5
11
100
AcDbSymbolTableRecord
100
AcDbTextStyleTableRecord
2
STANDARD
70
0
0
ENDTAB
0
TABLE
2
VIEW
5
6
100
AcDbSymbolTable
70
0
0
ENDTAB
0
TABLE
2
UCS
5
7
100
AcDbSymbolTable
70
0
0
ENDTAB
0
TABLE
2
APPID
5
9
100
AcDbSymbolTable
70
2
0
APPID
5
12
100
AcDbSymbolTableRecord
100
AcDbRegAppTableRecord
2
ACAD
70
0
0
ENDTAB
0
TABLE
2
DIMSTYLE
5
A
100
AcDbSymbolTable
70
1
0
ENDTAB
0
TABLE
2
BLOCK_RECORD
5
1
100
AcDbSymbolTable
70
1
0
BLOCK_RECORD
5
1F
100
AcDbSymbolTableRecord
100
AcDbBlockTableRecord
2
*MODEL_SPACE
0
BLOCK_RECORD
5
1B
100
AcDbSymbolTableRecord
100
AcDbBlockTableRecord
2
*PAPER_SPACE
0
ENDTAB
0
ENDSEC
0
SECTION
2
BLOCKS
0
BLOCK
5
20
100
AcDbEntity
100
AcDbBlockBegin
2
*MODEL_SPACE
0
ENDBLK
5
21
100
AcDbEntity
100
AcDbBlockEnd
0
BLOCK
5
1C
100
AcDbEntity
100
AcDbBlockBegin
2
*PAPER_SPACE
0
ENDBLK
5
1D
100
AcDbEntity
100
AcDbBlockEnd
0
ENDSEC
0
SECTION
2
ENTITIES
0
CIRCLE
5
100
100
AcDbEntity
8
0
100
AcDbCircle
10
185.81415475982323
20
-78.299999348828052
30
0
40
1.0999999999999943
210
0
220
-0
230
1
0
CIRCLE
5
101
100
AcDbEntity
8
0
100
AcDbCircle
10
171.50165965137845
20
3.7649619377047001
30
0
40
1.0999999999999943
210
0
220
0
230
1
0
CIRCLE
5
102
100
AcDbEntity
8
0
100
AcDbCircle
10
19.026647868267919
20
3.8850367599515199
30
0
40
1.0999999999999985
210
0
220
0
230
1
0
CIRCLE
5
103
100
AcDbEntity
8
0
100
AcDbCircle
10
33.326653759823202
20
-78.299999348828067
30
0
40
1.0999999999999985
210
0
220
0
230
1
0
LWPOLYLINE
5
104
100
AcDbEntity
8
0
100
AcDbPolyline
90
64
70
1
43
0.0
10
6.0000000000000036
20
-38.099999999999994
42
-0.41421356237309259
10
4.8000000000000043
20
-36.899999999999991
10
4.8000000000000034
20
-20.250000000000004
42
0.41421356237309426
10
3.6000000000000068
20
-19.050000000000004
10
1.2249999999999921
20
-19.049999999999994
42
-0.41421356237309509
10
0.024999999999995026
20
-17.849999999999998
10
0.024999999999994332
20
0.59905462199536719
42
-0.41444423599095631
10
1.2259450056132526
20
1.7990542498971387
10
9.3765258899228225
20
1.7926356273343536
42
0.19911704121623333
10
12.208103033379874
20
2.9642072622607412
10
14.857358756579453
20
5.6134629854603224
42
-0.19891236737965834
10
17.685785881325646
20
6.7850358607141361
10
20.372077382340905
20
6.7850358607141326
42
-0.19891236737965731
10
23.200504507087089
20
5.6134629854603304
10
25.864969880710767
20
2.9489976118366723
42
0.19870770957296366
10
28.690246986746093
20
1.7774259769102938
10
161.85153767303333
20
1.672560805087534
42
0.19911704121623319
10
164.68311481649039
20
2.8441324400139134
10
167.33237053968998
20
5.4933881632135337
42
-0.19891236737965823
10
170.16079766443619
20
6.6649610384673164
10
172.84708916545145
20
6.6649610384673306
42
-0.19891236737965848
10
175.67551629019763
20
5.4933881632134902
10
178.33998166382128
20
2.8289227895898534
42
0.19870770957296324
10
181.16525876985659
20
1.6573511546634738
10
189.30094500561324
20
1.6509442617097001
42
-0.41398292637445661
10
190.49999999999997
20
0.4509446338079659
10
190.5
20
-17.84999999999998
42
0.41421356237309448
10
191.70000000000002
20
-19.049999999999979
10
194.07499999999999
20
-19.049999999999933
42
-0.41421356237309509
10
195.27500000000003
20
-20.249999999999979
10
195.27500000000003
20
-36.89999999999997
42
0.41421356237309509
10
196.47500000000005
20
-38.099999999999966
10
198.82499999999999
20
-38.099999999999966
42
-0.41421356237309509
10
200.02500000000001
20
-39.299999999999976
10
200.02500000000001
20
-55.949999999999989
42
0.41421356237309509
10
201.22500000000002
20
-57.149999999999977
10
203.62421240312486
20
-57.150000000000006
42
-0.41440574718132739
10
204.82421214483242
20
-58.350787338413198
10
204.81328827376223
20
-75.000098794218744
42
-0.41418951116443598
10
203.61259973361604
20
-76.199311258120815
10
195.48094417857249
20
-76.194643697643656
42
0.19906154904858087
10
192.65022105903086
20
-77.366215913948395
10
189.98801139864239
20
-80.028425574336879
42
-0.19891236737965454
10
187.1595842738962
20
-81.19999844959068
10
184.47329277288091
20
-81.199998449590652
42
-0.19891236737966192
10
181.64486564813473
20
-80.028425574336836
10
178.99415197885151
20
-77.377711905053616
42
0.19888837513356936
10
176.16609412132945
20
-76.206139046844569
10
42.99231463791692
20
-76.193844868823561
42
0.19893635984602803
10
40.163518245946676
20
-77.365417727032593
10
37.500510398642398
20
-80.028425574336865
42
-0.1989123673796602
10
34.672083273896199
20
-81.19999844959068
10
31.98579177288094
20
-81.19999844959068
42
-0.19891236737965293
10
29.157364648134745
20
-80.028425574336879
10
26.505857206221126
20
-77.376918132423242
42
0.198763852212621
10
23.679715948613836
20
-76.205345910318059
10
15.524314239858342
20
-76.200685368364404
42
-0.41404619352126254
10
14.32500000000001
20
-75.000685564308981
10
14.32500000000001
20
-58.325000000000017
42
0.41421356237309553
10
13.125000000000007
20
-57.125
10
10.750000000000002
20
-57.125000000000014
42
-0.41421356237309936
10
9.5500000000000007
20
-55.925000000000011
10
9.5499999999999989
20
-39.300000000000004
42
0.41421356237309476
10
8.3500000000000014
20
-38.100000000000001
0
ENDSEC
0
SECTION
2
OBJECTS
0
DICTIONARY
5
C
100
AcDbDictionary
3
ACAD_GROUP
350
D
3
ACAD_MLINESTYLE
350
17
0
DICTIONARY
5
D
100
AcDbDictionary
0
DICTIONARY
5
1A
330
C
100
AcDbDictionary
0
DICTIONARY
5
17
100
AcDbDictionary
0
ENDSEC
0
EOF
