0
SECTION
2
HEADER
9
$INSUNITS
70
4
9
$ACADVER
1
AC1014
9
$HANDSEED
5
FFFF
0
ENDSEC
0
SECTION
2
TABLES
0
TABLE
2
VPORT
5
8
100
AcDbSymbolTable
0
ENDTAB
0
TABLE
2
LTYPE
5
5
100
AcDbSymbolTable
0
LTYPE
5
14
100
AcDbSymbolTableRecord
100
AcDbLinetypeTableRecord
2
BYBLOCK
70
0
0
LTYPE
5
15
100
AcDbSymbolTableRecord
100
AcDbLinetypeTableRecord
2
BYLAYER
70
0
0
ENDTAB
0
TABLE
2
LAYER
5
2
100
AcDbSymbolTable
70
2
0
LAYER
5
50
100
AcDbSymbolTableRecord
100
AcDbLayerTableRecord
2
0
70
0
6
CONTINUOUS
0
ENDTAB
0
TABLE
2
STYLE
5
3
100
AcDbSymbolTable
70
1
0
STYLE
5
11
100
AcDbSymbolTableRecord
100
AcDbTextStyleTableRecord
2
STANDARD
70
0
0
ENDTAB
0
TABLE
2
VIEW
5
6
100
AcDbSymbolTable
70
0
0
ENDTAB
0
TABLE
2
UCS
5
7
100
AcDbSymbolTable
70
0
0
ENDTAB
0
TABLE
2
APPID
5
9
100
AcDbSymbolTable
70
2
0
APPID
5
12
100
AcDbSymbolTableRecord
100
AcDbRegAppTableRecord
2
ACAD
70
0
0
ENDTAB
0
TABLE
2
DIMSTYLE
5
A
100
AcDbSymbolTable
70
1
0
ENDTAB
0
TABLE
2
BLOCK_RECORD
5
1
100
AcDbSymbolTable
70
1
0
BLOCK_RECORD
5
1F
100
AcDbSymbolTableRecord
100
AcDbBlockTableRecord
2
*MODEL_SPACE
0
BLOCK_RECORD
5
1B
100
AcDbSymbolTableRecord
100
AcDbBlockTableRecord
2
*PAPER_SPACE
0
ENDTAB
0
ENDSEC
0
SECTION
2
BLOCKS
0
BLOCK
5
20
100
AcDbEntity
100
AcDbBlockBegin
2
*MODEL_SPACE
0
ENDBLK
5
21
100
AcDbEntity
100
AcDbBlockEnd
0
BLOCK
5
1C
100
AcDbEntity
100
AcDbBlockBegin
2
*PAPER_SPACE
0
ENDBLK
5
1D
100
AcDbEntity
100
AcDbBlockEnd
0
ENDSEC
0
SECTION
2
ENTITIES
0
LWPOLYLINE
5
100
100
AcDbEntity
8
0
100
AcDbPolyline
90
8
70
1
43
0.0
10
141.13749999999999
20
-35.575000000000003
42
-0.41421356237309243
10
140.63749999999999
20
-35.075000000000003
10
140.63749999999999
20
-22.074999999999999
42
-0.41421356237310281
10
141.13749999999999
20
-21.575000000000003
10
154.13749999999999
20
-21.574999999999992
42
-0.41421356237307422
10
154.63750000000005
20
-22.074999999999999
10
154.63750000000005
20
-35.075000000000003
42
-0.41421356237307683
10
154.13749999999999
20
-35.575000000000017
0
LWPOLYLINE
5
101
100
AcDbEntity
8
0
100
AcDbPolyline
90
8
70
1
43
0.0
10
149.875
20
-16.024999999999999
42
-0.41421356237310542
10
149.375
20
-16.524999999999988
10
136.375
20
-16.525000000000009
42
-0.41421356237305473
10
135.875
20
-16.024999999999999
10
135.875
20
-3.0249999999999977
42
-0.41421356237303097
10
136.375
20
-2.5249999999999915
10
149.375
20
-2.5249999999999946
42
-0.41421356237309409
10
149.875
20
-3.0249999999999999
0
LWPOLYLINE
5
102
100
AcDbEntity
8
0
100
AcDbPolyline
90
14
70
1
43
0.0
10
45.862499999999997
20
-57.675000000000011
42
-0.41421356237313145
10
46.362499999999997
20
-58.174999999999997
10
46.362500000000004
20
-59.675000000000004
10
49.362500000000011
20
-59.675000000000004
42
-0.41421356237308982
10
49.862499999999997
20
-60.174999999999997
10
49.86249999999999
20
-73.174999999999983
42
-0.41421356237313145
10
49.362500000000004
20
-73.674999999999983
10
36.362500000000004
20
-73.674999999999983
42
-0.41421356237310281
10
35.862500000000011
20
-73.174999999999983
10
35.862500000000011
20
-60.174999999999997
42
-0.41421356237310802
10
36.362499999999997
20
-59.675000000000004
10
39.362499999999997
20
-59.675000000000004
10
39.362500000000004
20
-58.175000000000011
42
-0.41421356237309243
10
39.862499999999997
20
-57.674999999999997
0
LWPOLYLINE
5
103
100
AcDbEntity
8
0
100
AcDbPolyline
90
8
70
1
43
0.0
10
73.674999999999983
20
-16.024999999999999
42
-0.41421356237309637
10
73.174999999999983
20
-16.525000000000002
10
60.174999999999997
20
-16.525000000000006
42
-0.41421356237308982
10
59.675000000000004
20
-16.024999999999999
10
59.675000000000011
20
-3.0249999999999977
42
-0.41421356237309731
10
60.174999999999997
20
-2.5249999999999999
10
73.174999999999983
20
-2.5249999999999968
42
-0.41421356237309792
10
73.674999999999983
20
-3.0249999999999999
0
LWPOLYLINE
5
104
100
AcDbEntity
8
0
100
AcDbPolyline
90
8
70
1
43
0.0
10
197.5
20
-54.125000000000014
42
-0.41421356237303264
10
197.00000000000003
20
-54.625
10
184.00000000000003
20
-54.624999999999993
42
-0.41421356237316265
10
183.5
20
-54.125000000000014
10
183.5
20
-41.125
42
-0.41421356237313667
10
184.00000000000003
20
-40.625
10
197.00000000000003
20
-40.625000000000036
42
-0.41421356237315227
10
197.50000000000003
20
-41.125
0
LWPOLYLINE
5
105
100
AcDbEntity
8
0
100
AcDbPolyline
90
8
70
1
43
0.0
10
135.58750000000001
20
-35.075000000000003
42
-0.414213562373069
10
135.08750000000001
20
-35.57500000000001
10
122.08750000000002
20
-35.575000000000003
42
-0.41421356237309243
10
121.58750000000001
20
-35.075000000000003
10
121.58750000000001
20
-22.074999999999999
42
-0.41421356237308726
10
122.08750000000002
20
-21.575000000000006
10
135.08750000000003
20
-21.574999999999992
42
-0.41421356237304296
10
135.58750000000001
20
-22.074999999999999
0
LWPOLYLINE
5
106
100
AcDbEntity
8
0
100
AcDbPolyline
90
8
70
1
43
0.0
10
97.487500000000011
20
-35.075000000000003
42
-0.41421356237309243
10
96.987500000000011
20
-35.57500000000001
10
83.987499999999955
20
-35.575000000000017
42
-0.41421356237307683
10
83.487499999999983
20
-35.075000000000003
10
83.487499999999983
20
-22.074999999999999
42
-0.4142135623730977
10
83.987499999999983
20
-21.575000000000006
10
96.987500000000011
20
-21.575000000000003
42
-0.41421356237311063
10
97.487500000000011
20
-22.074999999999999
0
LWPOLYLINE
5
107
100
AcDbEntity
8
0
100
AcDbPolyline
90
8
70
1
43
0.0
10
154.92500000000001
20
-3.0249999999999999
42
-0.41421356237303225
10
155.42500000000001
20
-2.5249999999999915
10
168.42500000000001
20
-2.5249999999999599
42
-0.41421356237298934
10
168.92500000000001
20
-3.0249999999999999
10
168.92500000000001
20
-16.024999999999999
42
-0.41421356237312884
10
168.42500000000001
20
-16.524999999999984
10
155.42500000000001
20
-16.525000000000009
42
-0.41421356237305473
10
154.92500000000001
20
-16.024999999999999
0
LWPOLYLINE
5
108
100
AcDbEntity
8
0
100
AcDbPolyline
90
8
70
1
43
0.0
10
39.837499999999999
20
-21.575000000000006
42
-0.41421356237309509
10
40.337500000000013
20
-22.074999999999999
10
40.337500000000013
20
-35.075000000000003
42
-0.41421356237309509
10
39.837499999999999
20
-35.57500000000001
10
26.837499999999999
20
-35.575000000000003
42
-0.41421356237309243
10
26.337499999999999
20
-35.075000000000003
10
26.337499999999999
20
-22.074999999999999
42
-0.41421356237310281
10
26.837499999999999
20
-21.575000000000006
0
LWPOLYLINE
5
109
100
AcDbEntity
8
0
100
AcDbPolyline
90
8
70
1
43
0.0
10
158.90000000000001
20
-40.625
42
-0.41421356237308982
10
159.40000000000001
20
-41.125
10
159.40000000000001
20
-54.125000000000014
42
-0.41421356237310542
10
158.90000000000001
20
-54.625
10
145.90000000000001
20
-54.625
42
-0.41421356237306384
10
145.40000000000001
20
-54.125000000000014
10
145.40000000000003
20
-41.125
42
-0.41421356237306384
10
145.90000000000001
20
-40.625
0
LWPOLYLINE
5
110
100
AcDbEntity
8
0
100
AcDbPolyline
90
8
70
1
43
0.0
10
177.95000000000002
20
-40.624999999999964
42
-0.41421356237308982
10
178.44999999999999
20
-41.125
10
178.44999999999999
20
-54.125000000000014
42
-0.41421356237317308
10
177.94999999999999
20
-54.624999999999993
10
164.95000000000005
20
-54.625000000000028
42
-0.41421356237307944
10
164.44999999999999
20
-54.125000000000014
10
164.44999999999999
20
-41.125
42
-0.414213562373069
10
164.95000000000005
20
-40.625
0
LWPOLYLINE
5
111
100
AcDbEntity
8
0
100
AcDbPolyline
90
8
70
1
43
0.0
10
117.32500000000002
20
-16.525000000000002
42
-0.41421356237312235
10
116.82500000000003
20
-16.024999999999999
10
116.82500000000003
20
-3.0249999999999977
42
-0.41421356237303714
10
117.32500000000002
20
-2.5249999999999999
10
130.32499999999999
20
-2.5250000000000092
42
-0.41421356237310608
10
130.82499999999999
20
-3.0249999999999999
10
130.82499999999999
20
-16.024999999999999
42
-0.41421356237309243
10
130.32499999999999
20
-16.525000000000002
0
LWPOLYLINE
5
112
100
AcDbEntity
8
0
100
AcDbPolyline
90
8
70
1
43
0.0
10
103.03750000000001
20
-73.674999999999997
42
-0.41421356237313667
10
102.53749999999999
20
-73.174999999999983
10
102.53749999999999
20
-60.174999999999997
42
-0.41421356237312629
10
103.03750000000001
20
-59.675000000000004
10
125.5625
20
-59.674999999999997
42
-0.41421356237306384
10
126.0625
20
-60.174999999999997
10
126.0625
20
-73.174999999999983
42
-0.4142135623730534
10
125.56249999999999
20
-73.674999999999983
0
LWPOLYLINE
5
113
100
AcDbEntity
8
0
100
AcDbPolyline
90
14
70
1
43
0.0
10
26.812499999999968
20
-57.67499999999999
42
-0.4142135623730977
10
27.312499999999972
20
-58.17499999999999
10
27.312499999999975
20
-59.675000000000004
10
30.3125
20
-59.675000000000004
42
-0.4142135623730977
10
30.812500000000011
20
-60.17499999999999
10
30.812500000000004
20
-73.174999999999983
42
-0.41421356237310281
10
30.3125
20
-73.674999999999983
10
17.312499999999993
20
-73.674999999999983
42
-0.41421356237309109
10
16.8125
20
-73.174999999999983
10
16.812500000000004
20
-60.174999999999997
42
-0.41421356237312101
10
17.3125
20
-59.674999999999997
10
20.312499999999982
20
-59.675000000000004
10
20.3125
20
-58.174999999999997
42
-0.4142135623731002
10
20.812499999999989
20
-57.674999999999997
0
LWPOLYLINE
5
114
100
AcDbEntity
8
0
100
AcDbPolyline
90
8
70
1
43
0.0
10
64.9375
20
-35.57500000000001
42
-0.41421356237309509
10
64.437500000000014
20
-35.075000000000003
10
64.437500000000014
20
-22.074999999999999
42
-0.41421356237308982
10
64.937500000000014
20
-21.575000000000006
10
77.9375
20
-21.575000000000017
42
-0.4142135623730977
10
78.4375
20
-22.074999999999999
10
78.4375
20
-35.075000000000003
42
-0.41421356237308982
10
77.9375
20
-35.57500000000001
0
CIRCLE
5
115
100
AcDbEntity
8
0
100
AcDbCircle
10
185.81415475982323
20
-78.299999348828052
30
0
40
1.0999999999999943
210
0
220
-0
230
1
0
LWPOLYLINE
5
116
100
AcDbEntity
8
0
100
AcDbPolyline
90
8
70
1
43
0.0
10
116.03750000000002
20
-21.574999999999992
42
-0.41421356237304296
10
116.53750000000001
20
-22.074999999999999
10
116.53749999999999
20
-35.075000000000003
42
-0.414213562373069
10
116.03749999999999
20
-35.57500000000001
10
103.03750000000001
20
-35.575000000000003
42
-0.41421356237309243
10
102.53749999999999
20
-35.075000000000003
10
102.53749999999999
20
-22.074999999999999
42
-0.41421356237308726
10
103.03750000000001
20
-21.575000000000006
0
LWPOLYLINE
5
117
100
AcDbEntity
8
0
100
AcDbPolyline
90
8
70
1
43
0.0
10
35.075000000000003
20
-2.5249999999999955
42
-0.41421356237309337
10
35.57500000000001
20
-3.0249999999999999
10
35.57500000000001
20
-16.024999999999999
42
-0.41421356237308593
10
35.07500000000001
20
-16.525000000000006
10
22.074999999999996
20
-16.524999999999999
42
-0.4142135623731002
10
21.575000000000006
20
-16.024999999999999
10
21.575000000000017
20
-3.0249999999999977
42
-0.41421356237308654
10
22.074999999999999
20
-2.5250000000000004
0
LWPOLYLINE
5
118
100
AcDbEntity
8
0
100
AcDbPolyline
90
8
70
1
43
0.0
10
79.22499999999998
20
-16.524999999999999
42
-0.41421356237309509
10
78.724999999999994
20
-16.024999999999999
10
78.724999999999994
20
-3.0249999999999977
42
-0.4142135623730771
10
79.22499999999998
20
-2.5249999999999972
10
92.224999999999994
20
-2.5249999999999986
42
-0.4142135623731022
10
92.725000000000023
20
-3.0249999999999999
10
92.725000000000023
20
-16.024999999999999
42
-0.41421356237309109
10
92.22499999999998
20
-16.524999999999995
0
LWPOLYLINE
5
119
100
AcDbEntity
8
0
100
AcDbPolyline
90
8
70
1
43
0.0
10
12.550000000000001
20
-54.625
42
-0.4142135623730599
10
12.050000000000001
20
-54.125000000000014
10
12.050000000000011
20
-41.125
42
-0.4142135623731002
10
12.550000000000001
20
-40.625
10
25.549999999999997
20
-40.625
42
-0.41421356237308982
10
26.050000000000004
20
-41.125
10
26.050000000000001
20
-54.125000000000014
42
-0.414213562373069
10
25.550000000000001
20
-54.625
0
LWPOLYLINE
5
120
100
AcDbEntity
8
0
100
AcDbPolyline
90
8
70
1
43
0.0
10
82.700000000000017
20
-40.624999999999993
42
-0.41421356237310542
10
83.200000000000003
20
-41.125
10
83.200000000000003
20
-54.125000000000014
42
-0.41421356237309509
10
82.700000000000017
20
-54.625
10
69.700000000000003
20
-54.625
42
-0.41421356237311063
10
69.200000000000003
20
-54.125000000000014
10
69.200000000000003
20
-41.125
42
-0.41421356237309509
10
69.700000000000003
20
-40.625
0
LWPOLYLINE
5
121
100
AcDbEntity
8
0
100
AcDbPolyline
90
8
70
1
43
0.0
10
88.75
20
-54.625000000000021
42
-0.41421356237301177
10
88.25
20
-54.125000000000014
10
88.25
20
-41.125
42
-0.41421356237312101
10
88.75
20
-40.625000000000007
10
101.75
20
-40.624999999999993
42
-0.41421356237309509
10
102.25000000000001
20
-41.125
10
102.25000000000001
20
-54.125000000000014
42
-0.41421356237308465
10
101.75
20
-54.625
0
LWPOLYLINE
5
122
100
AcDbEntity
8
0
100
AcDbPolyline
90
8
70
1
43
0.0
10
40.625000000000007
20
-3.0249999999999999
42
-0.41421356237307844
10
41.124999999999986
20
-2.5249999999999972
10
54.125000000000014
20
-2.5249999999999995
42
-0.41421356237311197
10
54.625
20
-3.0249999999999999
10
54.625
20
-16.024999999999999
42
-0.414213562373069
10
54.125000000000014
20
-16.524999999999999
10
41.125000000000007
20
-16.524999999999999
42
-0.4142135623731002
10
40.625
20
-16.024999999999999
0
CIRCLE
5
123
100
AcDbEntity
8
0
100
AcDbCircle
10
171.50165965137845
20
3.7649619377047001
30
0
40
1.0999999999999943
210
0
220
0
230
1
0
LWPOLYLINE
5
124
100
AcDbEntity
8
0
100
AcDbPolyline
90
8
70
1
43
0.0
10
173.1875
20
-21.575000000000006
42
-0.41421356237312884
10
173.68750000000003
20
-22.074999999999999
10
173.6875
20
-35.075000000000003
42
-0.41421356237304296
10
173.1875
20
-35.57500000000001
10
160.1875
20
-35.575000000000003
42
-0.41421356237309243
10
159.6875
20
-35.075000000000003
10
159.6875
20
-22.074999999999999
42
-0.41421356237308726
10
160.1875
20
-21.575000000000006
0
LWPOLYLINE
5
125
100
AcDbEntity
8
0
100
AcDbPolyline
90
8
70
1
43
0.0
10
45.100000000000009
20
-54.125000000000014
42
-0.41421356237309509
10
44.600000000000001
20
-54.625
10
31.600000000000001
20
-54.625
42
-0.41421356237307944
10
31.100000000000001
20
-54.125000000000014
10
31.100000000000001
20
-41.125
42
-0.41421356237309509
10
31.600000000000001
20
-40.625
10
44.600000000000009
20
-40.625
42
-0.41421356237308982
10
45.099999999999994
20
-41.125
0
LWPOLYLINE
5
126
100
AcDbEntity
8
0
100
AcDbPolyline
90
8
70
1
43
0.0
10
107.80000000000001
20
-54.625000000000021
42
-0.41421356237309509
10
107.30000000000001
20
-54.125000000000014
10
107.30000000000001
20
-41.125
42
-0.41421356237307944
10
107.8
20
-40.625
10
120.80000000000001
20
-40.624999999999986
42
-0.41421356237302742
10
121.30000000000001
20
-41.125
10
121.29999999999998
20
-54.125000000000014
42
-0.41421356237309509
10
120.8
20
-54.625
0
CIRCLE
5
127
100
AcDbEntity
8
0
100
AcDbCircle
10
19.026647868267919
20
3.8850367599515199
30
0
40
1.0999999999999985
210
0
220
0
230
1
0
LWPOLYLINE
5
128
100
AcDbEntity
8
0
100
AcDbPolyline
90
8
70
1
43
0.0
10
16.525000000000002
20
-16.024999999999999
42
-0.4142135623730937
10
16.024999999999999
20
-16.525000000000002
10
3.0250000000000021
20
-16.525000000000002
42
-0.4142135623730947
10
2.5249999999999995
20
-16.024999999999999
10
2.5249999999999999
20
-3.0249999999999977
42
-0.41421356237309309
10
3.0249999999999999
20
-2.5249999999999999
10
16.024999999999991
20
-2.5249999999999995
42
-0.41421356237310153
10
16.524999999999999
20
-3.0249999999999999
0
LWPOLYLINE
5
129
100
AcDbEntity
8
0
100
AcDbPolyline
90
8
70
1
43
0.0
10
179.23750000000001
20
-35.575000000000031
42
-0.41421356237314966
10
178.73750000000001
20
-35.075000000000003
10
178.73750000000001
20
-22.074999999999999
42
-0.4142135623731652
10
179.23750000000001
20
-21.575000000000017
10
192.23750000000001
20
-21.574999999999992
42
-0.41421356237307422
10
192.73750000000007
20
-22.074999999999999
10
192.73750000000007
20
-35.075000000000003
42
-0.41421356237307422
10
192.23750000000001
20
-35.57500000000001
0
LWPOLYLINE
5
130
100
AcDbEntity
8
0
100
AcDbPolyline
90
8
70
1
43
0.0
10
45.887500000000003
20
-35.57500000000001
42
-0.41421356237308982
10
45.387500000000003
20
-35.075000000000003
10
45.387500000000003
20
-22.074999999999999
42
-0.41421356237306384
10
45.887499999999989
20
-21.575000000000006
10
58.887500000000017
20
-21.57500000000001
42
-0.41421356237306384
10
59.387500000000003
20
-22.074999999999999
10
59.387500000000003
20
-35.075000000000003
42
-0.41421356237309509
10
58.887500000000017
20
-35.57500000000001
0
LWPOLYLINE
5
131
100
AcDbEntity
8
0
100
AcDbPolyline
90
14
70
1
43
0.0
10
198.76249999999999
20
-59.675000000000004
10
198.76249999999999
20
-58.174999999999997
42
0.41421356237302742
10
198.26250000000002
20
-57.674999999999947
10
192.26249999999999
20
-57.674999999999997
42
0.41421356237307422
10
191.76249999999996
20
-58.174999999999997
10
191.76249999999999
20
-59.675000000000004
10
188.76249999999999
20
-59.675000000000004
42
0.41421356237299095
10
188.26250000000002
20
-60.174999999999997
10
188.26249999999999
20
-73.174999999999983
42
0.41421356237313145
10
188.76249999999999
20
-73.674999999999983
10
201.76249999999999
20
-73.674999999999983
42
0.41421356237316787
10
202.26249999999999
20
-73.174999999999983
10
202.26249999999999
20
-60.174999999999997
42
0.41421356237311585
10
201.76249999999999
20
-59.674999999999955
0
LWPOLYLINE
5
132
100
AcDbEntity
8
0
100
AcDbPolyline
90
8
70
1
43
0.0
10
126.35000000000002
20
-41.125
42
-0.41421356237311585
10
126.85000000000002
20
-40.625
10
139.84999999999999
20
-40.624999999999993
42
-0.41421356237309509
10
140.34999999999999
20
-41.125
10
140.34999999999999
20
-54.125000000000014
42
-0.41421356237308465
10
139.84999999999999
20
-54.625
10
126.84999999999999
20
-54.625000000000021
42
-0.41421356237307422
10
126.35000000000002
20
-54.125000000000014
0
LWPOLYLINE
5
133
100
AcDbEntity
8
0
100
AcDbPolyline
90
8
70
1
43
0.0
10
97.775000000000006
20
-3.0249999999999999
42
-0.41421356237313312
10
98.275000000000006
20
-2.5250000000000021
10
111.27500000000001
20
-2.5249999999999946
42
-0.41421356237309409
10
111.77500000000002
20
-3.0249999999999999
10
111.77500000000002
20
-16.024999999999999
42
-0.41421356237310542
10
111.27500000000001
20
-16.524999999999988
10
98.275000000000006
20
-16.525000000000009
42
-0.41421356237307549
10
97.775000000000034
20
-16.024999999999999
0
LWPOLYLINE
5
134
100
AcDbEntity
8
0
100
AcDbPolyline
90
14
70
1
43
0.0
10
163.1875
20
-58.174999999999997
42
-0.41421356237314189
10
163.68749999999994
20
-57.674999999999976
10
179.21250000000001
20
-57.67499999999999
42
-0.41421356237307422
10
179.71250000000003
20
-58.174999999999997
10
179.71250000000001
20
-59.675000000000004
10
182.71250000000006
20
-59.675000000000054
42
-0.41421356237312101
10
183.21250000000003
20
-60.174999999999997
10
183.21250000000006
20
-73.174999999999983
42
-0.41421356237310542
10
182.71250000000006
20
-73.674999999999955
10
169.71250000000001
20
-73.67500000000004
42
-0.41421356237311585
10
169.21250000000001
20
-73.174999999999983
10
169.21250000000001
20
-72.674999999999983
10
163.6875
20
-72.67500000000004
42
-0.4142135623731471
10
163.1875
20
-72.174999999999983
0
LWPOLYLINE
5
135
100
AcDbEntity
8
0
100
AcDbPolyline
90
8
70
1
43
0.0
10
64.150000000000006
20
-54.125000000000014
42
-0.41421356237307422
10
63.65000000000002
20
-54.625
10
50.650000000000013
20
-54.625
42
-0.41421356237311063
10
50.150000000000013
20
-54.125000000000014
10
50.149999999999999
20
-41.125
42
-0.41421356237311585
10
50.650000000000013
20
-40.625
10
63.65000000000002
20
-40.624999999999993
42
-0.41421356237307422
10
64.150000000000006
20
-41.125
0
LWPOLYLINE
5
136
100
AcDbEntity
8
0
100
AcDbPolyline
90
8
70
1
43
0.0
10
74.9375
20
-72.174999999999983
42
-0.41421356237309509
10
74.4375
20
-72.674999999999983
10
68.4375
20
-72.674999999999983
42
-0.41421356237309509
10
67.9375
20
-72.174999999999983
10
67.937499999999986
20
-58.174999999999997
42
-0.41421356237311585
10
68.4375
20
-57.674999999999997
10
74.4375
20
-57.674999999999997
42
-0.41421356237309509
10
74.9375
20
-58.174999999999997
0
LWPOLYLINE
5
137
100
AcDbEntity
8
0
100
AcDbPolyline
90
8
70
1
43
0.0
10
7.7875000000000005
20
-35.57500000000001
42
-0.4142135623730937
10
7.2874999999999979
20
-35.075000000000003
10
7.2875000000000023
20
-22.074999999999999
42
-0.41421356237310281
10
7.7875000000000005
20
-21.575000000000006
10
20.787499999999994
20
-21.575000000000006
42
-0.41421356237310802
10
21.287500000000001
20
-22.074999999999999
10
21.287499999999998
20
-35.075000000000003
42
-0.41421356237308982
10
20.787500000000001
20
-35.575000000000003
0
LWPOLYLINE
5
138
100
AcDbEntity
8
0
100
AcDbPolyline
90
8
70
1
43
0.0
10
187.97499999999999
20
-16.024999999999999
42
-0.41421356237314055
10
187.47499999999999
20
-16.525000000000013
10
174.47500000000005
20
-16.524999999999984
42
-0.41421356237310153
10
173.97500000000002
20
-16.024999999999999
10
173.97500000000005
20
-3.0249999999999977
42
-0.41421356237312917
10
174.47500000000005
20
-2.5250000000000146
10
187.47499999999999
20
-2.5249999999999733
42
-0.4142135623731481
10
187.97499999999999
20
-3.0249999999999999
0
CIRCLE
5
139
100
AcDbEntity
8
0
100
AcDbCircle
10
33.326653759823202
20
-78.299999348828067
30
0
40
1.0999999999999985
210
0
220
0
230
1
0
LWPOLYLINE
5
140
100
AcDbEntity
8
0
100
AcDbPolyline
90
64
70
1
43
0.0
10
6.0000000000000036
20
-38.099999999999994
42
-0.41421356237309259
10
4.8000000000000043
20
-36.899999999999991
10
4.8000000000000034
20
-20.250000000000004
42
0.41421356237309426
10
3.6000000000000068
20
-19.050000000000004
10
1.2249999999999921
20
-19.049999999999994
42
-0.41421356237309509
10
0.024999999999995026
20
-17.849999999999998
10
0.024999999999994332
20
0.59905462199536719
42
-0.41444423599095631
10
1.2259450056132526
20
1.7990542498971387
10
9.3765258899228225
20
1.7926356273343536
42
0.19911704121623333
10
12.208103033379874
20
2.9642072622607412
10
14.857358756579453
20
5.6134629854603224
42
-0.19891236737965834
10
17.685785881325646
20
6.7850358607141361
10
20.372077382340905
20
6.7850358607141326
42
-0.19891236737965731
10
23.200504507087089
20
5.6134629854603304
10
25.864969880710767
20
2.9489976118366723
42
0.19870770957296366
10
28.690246986746093
20
1.7774259769102938
10
161.85153767303333
20
1.672560805087534
42
0.19911704121623319
10
164.68311481649039
20
2.8441324400139134
10
167.33237053968998
20
5.4933881632135337
42
-0.19891236737965823
10
170.16079766443619
20
6.6649610384673164
10
172.84708916545145
20
6.6649610384673306
42
-0.19891236737965848
10
175.67551629019763
20
5.4933881632134902
10
178.33998166382128
20
2.8289227895898534
42
0.19870770957296324
10
181.16525876985659
20
1.6573511546634738
10
189.30094500561324
20
1.6509442617097001
42
-0.41398292637445661
10
190.49999999999997
20
0.4509446338079659
10
190.5
20
-17.84999999999998
42
0.41421356237309448
10
191.70000000000002
20
-19.049999999999979
10
194.07499999999999
20
-19.049999999999933
42
-0.41421356237309509
10
195.27500000000003
20
-20.249999999999979
10
195.27500000000003
20
-36.89999999999997
42
0.41421356237309509
10
196.47500000000005
20
-38.099999999999966
10
198.82499999999999
20
-38.099999999999966
42
-0.41421356237309509
10
200.02500000000001
20
-39.299999999999976
10
200.02500000000001
20
-55.949999999999989
42
0.41421356237309509
10
201.22500000000002
20
-57.149999999999977
10
203.62421240312486
20
-57.150000000000006
42
-0.41440574718132739
10
204.82421214483242
20
-58.350787338413198
10
204.81328827376223
20
-75.000098794218744
42
-0.41418951116443598
10
203.61259973361604
20
-76.199311258120815
10
195.48094417857249
20
-76.194643697643656
42
0.19906154904858087
10
192.65022105903086
20
-77.366215913948395
10
189.98801139864239
20
-80.028425574336879
42
-0.19891236737965454
10
187.1595842738962
20
-81.19999844959068
10
184.47329277288091
20
-81.199998449590652
42
-0.19891236737966192
10
181.64486564813473
20
-80.028425574336836
10
178.99415197885151
20
-77.377711905053616
42
0.19888837513356936
10
176.16609412132945
20
-76.206139046844569
10
42.99231463791692
20
-76.193844868823561
42
0.19893635984602803
10
40.163518245946676
20
-77.365417727032593
10
37.500510398642398
20
-80.028425574336865
42
-0.1989123673796602
10
34.672083273896199
20
-81.19999844959068
10
31.98579177288094
20
-81.19999844959068
42
-0.19891236737965293
10
29.157364648134745
20
-80.028425574336879
10
26.505857206221126
20
-77.376918132423242
42
0.198763852212621
10
23.679715948613836
20
-76.205345910318059
10
15.524314239858342
20
-76.200685368364404
42
-0.41404619352126254
10
14.32500000000001
20
-75.000685564308981
10
14.32500000000001
20
-58.325000000000017
42
0.41421356237309553
10
13.125000000000007
20
-57.125
10
10.750000000000002
20
-57.125000000000014
42
-0.41421356237309936
10
9.5500000000000007
20
-55.925000000000011
10
9.5499999999999989
20
-39.300000000000004
42
0.41421356237309476
10
8.3500000000000014
20
-38.100000000000001
0
ENDSEC
0
SECTION
2
OBJECTS
0
DICTIONARY
5
C
100
AcDbDictionary
3
ACAD_GROUP
350
D
3
ACAD_MLINESTYLE
350
17
0
DICTIONARY
5
D
100
AcDbDictionary
0
DICTIONARY
5
1A
330
C
100
AcDbDictionary
0
DICTIONARY
5
17
100
AcDbDictionary
0
ENDSEC
0
EOF
