G04 #@! TF.GenerationSoftware,KiCad,Pcbnew,(5.1.4-0-10_14)*
G04 #@! TF.CreationDate,2020-06-07T21:29:09-05:00*
G04 #@! TF.ProjectId,omega,6f6d6567-612e-46b6-9963-61645f706362,rev?*
G04 #@! TF.SameCoordinates,Original*
G04 #@! TF.FileFunction,Legend,Bot*
G04 #@! TF.FilePolarity,Positive*
%FSLAX46Y46*%
G04 Gerber Fmt 4.6, Leading zero omitted, Abs format (unit mm)*
G04 Created by KiCad (PCBNEW (5.1.4-0-10_14)) date 2020-06-07 21:29:09*
%MOMM*%
%LPD*%
G04 APERTURE LIST*
%ADD10C,0.120000*%
%ADD11C,0.150000*%
G04 APERTURE END LIST*
D10*
X105029000Y-54991000D02*
G75*
G03X105029000Y-54991000I-127000J0D01*
G01*
X96505000Y-52547000D02*
X100345000Y-52547000D01*
X96505000Y-54387000D02*
X100345000Y-54387000D01*
X252222000Y-94050629D02*
X252222000Y-92667000D01*
X253548371Y-95377000D02*
G75*
G03X253548371Y-95377000I-1326371J0D01*
G01*
X233172000Y-94050629D02*
X233172000Y-92667000D01*
X234498371Y-95377000D02*
G75*
G03X234498371Y-95377000I-1326371J0D01*
G01*
X214122000Y-94050629D02*
X214122000Y-92667000D01*
X215448371Y-95377000D02*
G75*
G03X215448371Y-95377000I-1326371J0D01*
G01*
X195072000Y-94050629D02*
X195072000Y-92667000D01*
X196398371Y-95377000D02*
G75*
G03X196398371Y-95377000I-1326371J0D01*
G01*
X166497000Y-93923629D02*
X166497000Y-92540000D01*
X167823371Y-95250000D02*
G75*
G03X167823371Y-95250000I-1326371J0D01*
G01*
X138049000Y-94050629D02*
X138049000Y-92667000D01*
X139375371Y-95377000D02*
G75*
G03X139375371Y-95377000I-1326371J0D01*
G01*
X118999000Y-94050629D02*
X118999000Y-92667000D01*
X120325371Y-95377000D02*
G75*
G03X120325371Y-95377000I-1326371J0D01*
G01*
X99822000Y-94050629D02*
X99822000Y-92667000D01*
X101148371Y-95377000D02*
G75*
G03X101148371Y-95377000I-1326371J0D01*
G01*
X80899000Y-94050629D02*
X80899000Y-92667000D01*
X82225371Y-95377000D02*
G75*
G03X82225371Y-95377000I-1326371J0D01*
G01*
X247396000Y-75000629D02*
X247396000Y-73617000D01*
X248722371Y-76327000D02*
G75*
G03X248722371Y-76327000I-1326371J0D01*
G01*
X228346000Y-75000629D02*
X228346000Y-73617000D01*
X229672371Y-76327000D02*
G75*
G03X229672371Y-76327000I-1326371J0D01*
G01*
X209296000Y-75000629D02*
X209296000Y-73617000D01*
X210622371Y-76327000D02*
G75*
G03X210622371Y-76327000I-1326371J0D01*
G01*
X190373000Y-75000629D02*
X190373000Y-73617000D01*
X191699371Y-76327000D02*
G75*
G03X191699371Y-76327000I-1326371J0D01*
G01*
X171323000Y-74873629D02*
X171323000Y-73490000D01*
X172649371Y-76200000D02*
G75*
G03X172649371Y-76200000I-1326371J0D01*
G01*
X152146000Y-75000629D02*
X152146000Y-73617000D01*
X153472371Y-76327000D02*
G75*
G03X153472371Y-76327000I-1326371J0D01*
G01*
X133096000Y-75000629D02*
X133096000Y-73617000D01*
X134422371Y-76327000D02*
G75*
G03X134422371Y-76327000I-1326371J0D01*
G01*
X114173000Y-75000629D02*
X114173000Y-73617000D01*
X115499371Y-76327000D02*
G75*
G03X115499371Y-76327000I-1326371J0D01*
G01*
X95123000Y-75000629D02*
X95123000Y-73617000D01*
X96449371Y-76327000D02*
G75*
G03X96449371Y-76327000I-1326371J0D01*
G01*
X76073000Y-75000629D02*
X76073000Y-73617000D01*
X77399371Y-76327000D02*
G75*
G03X77399371Y-76327000I-1326371J0D01*
G01*
X242697000Y-55950629D02*
X242697000Y-54567000D01*
X244023371Y-57277000D02*
G75*
G03X244023371Y-57277000I-1326371J0D01*
G01*
X223647000Y-55950629D02*
X223647000Y-54567000D01*
X224973371Y-57277000D02*
G75*
G03X224973371Y-57277000I-1326371J0D01*
G01*
X204597000Y-55950629D02*
X204597000Y-54567000D01*
X205923371Y-57277000D02*
G75*
G03X205923371Y-57277000I-1326371J0D01*
G01*
X185547000Y-55950629D02*
X185547000Y-54567000D01*
X186873371Y-57277000D02*
G75*
G03X186873371Y-57277000I-1326371J0D01*
G01*
X166497000Y-55950629D02*
X166497000Y-54567000D01*
X167823371Y-57277000D02*
G75*
G03X167823371Y-57277000I-1326371J0D01*
G01*
X147447000Y-55823629D02*
X147447000Y-54440000D01*
X148773371Y-57150000D02*
G75*
G03X148773371Y-57150000I-1326371J0D01*
G01*
X128397000Y-55950629D02*
X128397000Y-54567000D01*
X129723371Y-57277000D02*
G75*
G03X129723371Y-57277000I-1326371J0D01*
G01*
X109347000Y-55950629D02*
X109347000Y-54567000D01*
X110673371Y-57277000D02*
G75*
G03X110673371Y-57277000I-1326371J0D01*
G01*
X90678000Y-55950629D02*
X90678000Y-54567000D01*
X92004371Y-57277000D02*
G75*
G03X92004371Y-57277000I-1326371J0D01*
G01*
X73660000Y-53918629D02*
X73660000Y-52535000D01*
X74986371Y-55245000D02*
G75*
G03X74986371Y-55245000I-1326371J0D01*
G01*
D11*
X86487000Y-59436000D02*
X86487000Y-41656000D01*
X56007000Y-59436000D02*
X86487000Y-59436000D01*
X56007000Y-54356000D02*
X56007000Y-59436000D01*
X53467000Y-54356000D02*
X56007000Y-54356000D01*
X53467000Y-46736000D02*
X53467000Y-54356000D01*
X56007000Y-46736000D02*
X53467000Y-46736000D01*
X56007000Y-41656000D02*
X56007000Y-46736000D01*
X56007000Y-41656000D02*
X86487000Y-41656000D01*
X101330000Y-57785000D02*
G75*
G03X101330000Y-57785000I-1000000J0D01*
G01*
X97730000Y-55185000D02*
X97730000Y-60385000D01*
X102930000Y-55185000D02*
X97730000Y-55185000D01*
X102930000Y-60385000D02*
X102930000Y-55185000D01*
X97730000Y-60385000D02*
X102930000Y-60385000D01*
X98591666Y-53919380D02*
X98925000Y-53443190D01*
X99163095Y-53919380D02*
X99163095Y-52919380D01*
X98782142Y-52919380D01*
X98686904Y-52967000D01*
X98639285Y-53014619D01*
X98591666Y-53109857D01*
X98591666Y-53252714D01*
X98639285Y-53347952D01*
X98686904Y-53395571D01*
X98782142Y-53443190D01*
X99163095Y-53443190D01*
X97639285Y-53919380D02*
X98210714Y-53919380D01*
X97925000Y-53919380D02*
X97925000Y-52919380D01*
X98020238Y-53062238D01*
X98115476Y-53157476D01*
X98210714Y-53205095D01*
X255000751Y-92257714D02*
X254000751Y-92257714D01*
X254000751Y-92495809D01*
X254048371Y-92638666D01*
X254143609Y-92733904D01*
X254238847Y-92781523D01*
X254429323Y-92829142D01*
X254572180Y-92829142D01*
X254762656Y-92781523D01*
X254857894Y-92733904D01*
X254953132Y-92638666D01*
X255000751Y-92495809D01*
X255000751Y-92257714D01*
X254095990Y-93210095D02*
X254048371Y-93257714D01*
X254000751Y-93352952D01*
X254000751Y-93591047D01*
X254048371Y-93686285D01*
X254095990Y-93733904D01*
X254191228Y-93781523D01*
X254286466Y-93781523D01*
X254429323Y-93733904D01*
X255000751Y-93162476D01*
X255000751Y-93781523D01*
X255000751Y-94257714D02*
X255000751Y-94448190D01*
X254953132Y-94543428D01*
X254905513Y-94591047D01*
X254762656Y-94686285D01*
X254572180Y-94733904D01*
X254191228Y-94733904D01*
X254095990Y-94686285D01*
X254048371Y-94638666D01*
X254000751Y-94543428D01*
X254000751Y-94352952D01*
X254048371Y-94257714D01*
X254095990Y-94210095D01*
X254191228Y-94162476D01*
X254429323Y-94162476D01*
X254524561Y-94210095D01*
X254572180Y-94257714D01*
X254619799Y-94352952D01*
X254619799Y-94543428D01*
X254572180Y-94638666D01*
X254524561Y-94686285D01*
X254429323Y-94733904D01*
X251588666Y-92828904D02*
X251588666Y-93305095D01*
X251874380Y-92733666D02*
X250874380Y-93067000D01*
X251874380Y-93400333D01*
X235950751Y-92257714D02*
X234950751Y-92257714D01*
X234950751Y-92495809D01*
X234998371Y-92638666D01*
X235093609Y-92733904D01*
X235188847Y-92781523D01*
X235379323Y-92829142D01*
X235522180Y-92829142D01*
X235712656Y-92781523D01*
X235807894Y-92733904D01*
X235903132Y-92638666D01*
X235950751Y-92495809D01*
X235950751Y-92257714D01*
X235045990Y-93210095D02*
X234998371Y-93257714D01*
X234950751Y-93352952D01*
X234950751Y-93591047D01*
X234998371Y-93686285D01*
X235045990Y-93733904D01*
X235141228Y-93781523D01*
X235236466Y-93781523D01*
X235379323Y-93733904D01*
X235950751Y-93162476D01*
X235950751Y-93781523D01*
X235379323Y-94352952D02*
X235331704Y-94257714D01*
X235284085Y-94210095D01*
X235188847Y-94162476D01*
X235141228Y-94162476D01*
X235045990Y-94210095D01*
X234998371Y-94257714D01*
X234950751Y-94352952D01*
X234950751Y-94543428D01*
X234998371Y-94638666D01*
X235045990Y-94686285D01*
X235141228Y-94733904D01*
X235188847Y-94733904D01*
X235284085Y-94686285D01*
X235331704Y-94638666D01*
X235379323Y-94543428D01*
X235379323Y-94352952D01*
X235426942Y-94257714D01*
X235474561Y-94210095D01*
X235569799Y-94162476D01*
X235760275Y-94162476D01*
X235855513Y-94210095D01*
X235903132Y-94257714D01*
X235950751Y-94352952D01*
X235950751Y-94543428D01*
X235903132Y-94638666D01*
X235855513Y-94686285D01*
X235760275Y-94733904D01*
X235569799Y-94733904D01*
X235474561Y-94686285D01*
X235426942Y-94638666D01*
X235379323Y-94543428D01*
X232538666Y-92828904D02*
X232538666Y-93305095D01*
X232824380Y-92733666D02*
X231824380Y-93067000D01*
X232824380Y-93400333D01*
X216900751Y-92257714D02*
X215900751Y-92257714D01*
X215900751Y-92495809D01*
X215948371Y-92638666D01*
X216043609Y-92733904D01*
X216138847Y-92781523D01*
X216329323Y-92829142D01*
X216472180Y-92829142D01*
X216662656Y-92781523D01*
X216757894Y-92733904D01*
X216853132Y-92638666D01*
X216900751Y-92495809D01*
X216900751Y-92257714D01*
X215995990Y-93210095D02*
X215948371Y-93257714D01*
X215900751Y-93352952D01*
X215900751Y-93591047D01*
X215948371Y-93686285D01*
X215995990Y-93733904D01*
X216091228Y-93781523D01*
X216186466Y-93781523D01*
X216329323Y-93733904D01*
X216900751Y-93162476D01*
X216900751Y-93781523D01*
X215900751Y-94114857D02*
X215900751Y-94781523D01*
X216900751Y-94352952D01*
X213488666Y-92828904D02*
X213488666Y-93305095D01*
X213774380Y-92733666D02*
X212774380Y-93067000D01*
X213774380Y-93400333D01*
X197850751Y-92257714D02*
X196850751Y-92257714D01*
X196850751Y-92495809D01*
X196898371Y-92638666D01*
X196993609Y-92733904D01*
X197088847Y-92781523D01*
X197279323Y-92829142D01*
X197422180Y-92829142D01*
X197612656Y-92781523D01*
X197707894Y-92733904D01*
X197803132Y-92638666D01*
X197850751Y-92495809D01*
X197850751Y-92257714D01*
X196945990Y-93210095D02*
X196898371Y-93257714D01*
X196850751Y-93352952D01*
X196850751Y-93591047D01*
X196898371Y-93686285D01*
X196945990Y-93733904D01*
X197041228Y-93781523D01*
X197136466Y-93781523D01*
X197279323Y-93733904D01*
X197850751Y-93162476D01*
X197850751Y-93781523D01*
X196850751Y-94638666D02*
X196850751Y-94448190D01*
X196898371Y-94352952D01*
X196945990Y-94305333D01*
X197088847Y-94210095D01*
X197279323Y-94162476D01*
X197660275Y-94162476D01*
X197755513Y-94210095D01*
X197803132Y-94257714D01*
X197850751Y-94352952D01*
X197850751Y-94543428D01*
X197803132Y-94638666D01*
X197755513Y-94686285D01*
X197660275Y-94733904D01*
X197422180Y-94733904D01*
X197326942Y-94686285D01*
X197279323Y-94638666D01*
X197231704Y-94543428D01*
X197231704Y-94352952D01*
X197279323Y-94257714D01*
X197326942Y-94210095D01*
X197422180Y-94162476D01*
X194438666Y-92828904D02*
X194438666Y-93305095D01*
X194724380Y-92733666D02*
X193724380Y-93067000D01*
X194724380Y-93400333D01*
X169275751Y-92130714D02*
X168275751Y-92130714D01*
X168275751Y-92368809D01*
X168323371Y-92511666D01*
X168418609Y-92606904D01*
X168513847Y-92654523D01*
X168704323Y-92702142D01*
X168847180Y-92702142D01*
X169037656Y-92654523D01*
X169132894Y-92606904D01*
X169228132Y-92511666D01*
X169275751Y-92368809D01*
X169275751Y-92130714D01*
X168370990Y-93083095D02*
X168323371Y-93130714D01*
X168275751Y-93225952D01*
X168275751Y-93464047D01*
X168323371Y-93559285D01*
X168370990Y-93606904D01*
X168466228Y-93654523D01*
X168561466Y-93654523D01*
X168704323Y-93606904D01*
X169275751Y-93035476D01*
X169275751Y-93654523D01*
X168275751Y-94559285D02*
X168275751Y-94083095D01*
X168751942Y-94035476D01*
X168704323Y-94083095D01*
X168656704Y-94178333D01*
X168656704Y-94416428D01*
X168704323Y-94511666D01*
X168751942Y-94559285D01*
X168847180Y-94606904D01*
X169085275Y-94606904D01*
X169180513Y-94559285D01*
X169228132Y-94511666D01*
X169275751Y-94416428D01*
X169275751Y-94178333D01*
X169228132Y-94083095D01*
X169180513Y-94035476D01*
X165863666Y-92701904D02*
X165863666Y-93178095D01*
X166149380Y-92606666D02*
X165149380Y-92940000D01*
X166149380Y-93273333D01*
X140827751Y-92257714D02*
X139827751Y-92257714D01*
X139827751Y-92495809D01*
X139875371Y-92638666D01*
X139970609Y-92733904D01*
X140065847Y-92781523D01*
X140256323Y-92829142D01*
X140399180Y-92829142D01*
X140589656Y-92781523D01*
X140684894Y-92733904D01*
X140780132Y-92638666D01*
X140827751Y-92495809D01*
X140827751Y-92257714D01*
X139922990Y-93210095D02*
X139875371Y-93257714D01*
X139827751Y-93352952D01*
X139827751Y-93591047D01*
X139875371Y-93686285D01*
X139922990Y-93733904D01*
X140018228Y-93781523D01*
X140113466Y-93781523D01*
X140256323Y-93733904D01*
X140827751Y-93162476D01*
X140827751Y-93781523D01*
X140161085Y-94638666D02*
X140827751Y-94638666D01*
X139780132Y-94400571D02*
X140494418Y-94162476D01*
X140494418Y-94781523D01*
X137415666Y-92828904D02*
X137415666Y-93305095D01*
X137701380Y-92733666D02*
X136701380Y-93067000D01*
X137701380Y-93400333D01*
X121777751Y-92257714D02*
X120777751Y-92257714D01*
X120777751Y-92495809D01*
X120825371Y-92638666D01*
X120920609Y-92733904D01*
X121015847Y-92781523D01*
X121206323Y-92829142D01*
X121349180Y-92829142D01*
X121539656Y-92781523D01*
X121634894Y-92733904D01*
X121730132Y-92638666D01*
X121777751Y-92495809D01*
X121777751Y-92257714D01*
X120872990Y-93210095D02*
X120825371Y-93257714D01*
X120777751Y-93352952D01*
X120777751Y-93591047D01*
X120825371Y-93686285D01*
X120872990Y-93733904D01*
X120968228Y-93781523D01*
X121063466Y-93781523D01*
X121206323Y-93733904D01*
X121777751Y-93162476D01*
X121777751Y-93781523D01*
X120777751Y-94114857D02*
X120777751Y-94733904D01*
X121158704Y-94400571D01*
X121158704Y-94543428D01*
X121206323Y-94638666D01*
X121253942Y-94686285D01*
X121349180Y-94733904D01*
X121587275Y-94733904D01*
X121682513Y-94686285D01*
X121730132Y-94638666D01*
X121777751Y-94543428D01*
X121777751Y-94257714D01*
X121730132Y-94162476D01*
X121682513Y-94114857D01*
X118365666Y-92828904D02*
X118365666Y-93305095D01*
X118651380Y-92733666D02*
X117651380Y-93067000D01*
X118651380Y-93400333D01*
X102600751Y-92257714D02*
X101600751Y-92257714D01*
X101600751Y-92495809D01*
X101648371Y-92638666D01*
X101743609Y-92733904D01*
X101838847Y-92781523D01*
X102029323Y-92829142D01*
X102172180Y-92829142D01*
X102362656Y-92781523D01*
X102457894Y-92733904D01*
X102553132Y-92638666D01*
X102600751Y-92495809D01*
X102600751Y-92257714D01*
X101695990Y-93210095D02*
X101648371Y-93257714D01*
X101600751Y-93352952D01*
X101600751Y-93591047D01*
X101648371Y-93686285D01*
X101695990Y-93733904D01*
X101791228Y-93781523D01*
X101886466Y-93781523D01*
X102029323Y-93733904D01*
X102600751Y-93162476D01*
X102600751Y-93781523D01*
X101695990Y-94162476D02*
X101648371Y-94210095D01*
X101600751Y-94305333D01*
X101600751Y-94543428D01*
X101648371Y-94638666D01*
X101695990Y-94686285D01*
X101791228Y-94733904D01*
X101886466Y-94733904D01*
X102029323Y-94686285D01*
X102600751Y-94114857D01*
X102600751Y-94733904D01*
X99188666Y-92828904D02*
X99188666Y-93305095D01*
X99474380Y-92733666D02*
X98474380Y-93067000D01*
X99474380Y-93400333D01*
X83677751Y-92257714D02*
X82677751Y-92257714D01*
X82677751Y-92495809D01*
X82725371Y-92638666D01*
X82820609Y-92733904D01*
X82915847Y-92781523D01*
X83106323Y-92829142D01*
X83249180Y-92829142D01*
X83439656Y-92781523D01*
X83534894Y-92733904D01*
X83630132Y-92638666D01*
X83677751Y-92495809D01*
X83677751Y-92257714D01*
X82772990Y-93210095D02*
X82725371Y-93257714D01*
X82677751Y-93352952D01*
X82677751Y-93591047D01*
X82725371Y-93686285D01*
X82772990Y-93733904D01*
X82868228Y-93781523D01*
X82963466Y-93781523D01*
X83106323Y-93733904D01*
X83677751Y-93162476D01*
X83677751Y-93781523D01*
X83677751Y-94733904D02*
X83677751Y-94162476D01*
X83677751Y-94448190D02*
X82677751Y-94448190D01*
X82820609Y-94352952D01*
X82915847Y-94257714D01*
X82963466Y-94162476D01*
X80265666Y-92828904D02*
X80265666Y-93305095D01*
X80551380Y-92733666D02*
X79551380Y-93067000D01*
X80551380Y-93400333D01*
X250174751Y-73207714D02*
X249174751Y-73207714D01*
X249174751Y-73445809D01*
X249222371Y-73588666D01*
X249317609Y-73683904D01*
X249412847Y-73731523D01*
X249603323Y-73779142D01*
X249746180Y-73779142D01*
X249936656Y-73731523D01*
X250031894Y-73683904D01*
X250127132Y-73588666D01*
X250174751Y-73445809D01*
X250174751Y-73207714D01*
X249269990Y-74160095D02*
X249222371Y-74207714D01*
X249174751Y-74302952D01*
X249174751Y-74541047D01*
X249222371Y-74636285D01*
X249269990Y-74683904D01*
X249365228Y-74731523D01*
X249460466Y-74731523D01*
X249603323Y-74683904D01*
X250174751Y-74112476D01*
X250174751Y-74731523D01*
X249174751Y-75350571D02*
X249174751Y-75445809D01*
X249222371Y-75541047D01*
X249269990Y-75588666D01*
X249365228Y-75636285D01*
X249555704Y-75683904D01*
X249793799Y-75683904D01*
X249984275Y-75636285D01*
X250079513Y-75588666D01*
X250127132Y-75541047D01*
X250174751Y-75445809D01*
X250174751Y-75350571D01*
X250127132Y-75255333D01*
X250079513Y-75207714D01*
X249984275Y-75160095D01*
X249793799Y-75112476D01*
X249555704Y-75112476D01*
X249365228Y-75160095D01*
X249269990Y-75207714D01*
X249222371Y-75255333D01*
X249174751Y-75350571D01*
X246762666Y-73778904D02*
X246762666Y-74255095D01*
X247048380Y-73683666D02*
X246048380Y-74017000D01*
X247048380Y-74350333D01*
X231124751Y-73207714D02*
X230124751Y-73207714D01*
X230124751Y-73445809D01*
X230172371Y-73588666D01*
X230267609Y-73683904D01*
X230362847Y-73731523D01*
X230553323Y-73779142D01*
X230696180Y-73779142D01*
X230886656Y-73731523D01*
X230981894Y-73683904D01*
X231077132Y-73588666D01*
X231124751Y-73445809D01*
X231124751Y-73207714D01*
X231124751Y-74731523D02*
X231124751Y-74160095D01*
X231124751Y-74445809D02*
X230124751Y-74445809D01*
X230267609Y-74350571D01*
X230362847Y-74255333D01*
X230410466Y-74160095D01*
X231124751Y-75207714D02*
X231124751Y-75398190D01*
X231077132Y-75493428D01*
X231029513Y-75541047D01*
X230886656Y-75636285D01*
X230696180Y-75683904D01*
X230315228Y-75683904D01*
X230219990Y-75636285D01*
X230172371Y-75588666D01*
X230124751Y-75493428D01*
X230124751Y-75302952D01*
X230172371Y-75207714D01*
X230219990Y-75160095D01*
X230315228Y-75112476D01*
X230553323Y-75112476D01*
X230648561Y-75160095D01*
X230696180Y-75207714D01*
X230743799Y-75302952D01*
X230743799Y-75493428D01*
X230696180Y-75588666D01*
X230648561Y-75636285D01*
X230553323Y-75683904D01*
X227712666Y-73778904D02*
X227712666Y-74255095D01*
X227998380Y-73683666D02*
X226998380Y-74017000D01*
X227998380Y-74350333D01*
X212074751Y-73207714D02*
X211074751Y-73207714D01*
X211074751Y-73445809D01*
X211122371Y-73588666D01*
X211217609Y-73683904D01*
X211312847Y-73731523D01*
X211503323Y-73779142D01*
X211646180Y-73779142D01*
X211836656Y-73731523D01*
X211931894Y-73683904D01*
X212027132Y-73588666D01*
X212074751Y-73445809D01*
X212074751Y-73207714D01*
X212074751Y-74731523D02*
X212074751Y-74160095D01*
X212074751Y-74445809D02*
X211074751Y-74445809D01*
X211217609Y-74350571D01*
X211312847Y-74255333D01*
X211360466Y-74160095D01*
X211503323Y-75302952D02*
X211455704Y-75207714D01*
X211408085Y-75160095D01*
X211312847Y-75112476D01*
X211265228Y-75112476D01*
X211169990Y-75160095D01*
X211122371Y-75207714D01*
X211074751Y-75302952D01*
X211074751Y-75493428D01*
X211122371Y-75588666D01*
X211169990Y-75636285D01*
X211265228Y-75683904D01*
X211312847Y-75683904D01*
X211408085Y-75636285D01*
X211455704Y-75588666D01*
X211503323Y-75493428D01*
X211503323Y-75302952D01*
X211550942Y-75207714D01*
X211598561Y-75160095D01*
X211693799Y-75112476D01*
X211884275Y-75112476D01*
X211979513Y-75160095D01*
X212027132Y-75207714D01*
X212074751Y-75302952D01*
X212074751Y-75493428D01*
X212027132Y-75588666D01*
X211979513Y-75636285D01*
X211884275Y-75683904D01*
X211693799Y-75683904D01*
X211598561Y-75636285D01*
X211550942Y-75588666D01*
X211503323Y-75493428D01*
X208662666Y-73778904D02*
X208662666Y-74255095D01*
X208948380Y-73683666D02*
X207948380Y-74017000D01*
X208948380Y-74350333D01*
X193151751Y-73207714D02*
X192151751Y-73207714D01*
X192151751Y-73445809D01*
X192199371Y-73588666D01*
X192294609Y-73683904D01*
X192389847Y-73731523D01*
X192580323Y-73779142D01*
X192723180Y-73779142D01*
X192913656Y-73731523D01*
X193008894Y-73683904D01*
X193104132Y-73588666D01*
X193151751Y-73445809D01*
X193151751Y-73207714D01*
X193151751Y-74731523D02*
X193151751Y-74160095D01*
X193151751Y-74445809D02*
X192151751Y-74445809D01*
X192294609Y-74350571D01*
X192389847Y-74255333D01*
X192437466Y-74160095D01*
X192151751Y-75064857D02*
X192151751Y-75731523D01*
X193151751Y-75302952D01*
X189739666Y-73778904D02*
X189739666Y-74255095D01*
X190025380Y-73683666D02*
X189025380Y-74017000D01*
X190025380Y-74350333D01*
X174101751Y-73080714D02*
X173101751Y-73080714D01*
X173101751Y-73318809D01*
X173149371Y-73461666D01*
X173244609Y-73556904D01*
X173339847Y-73604523D01*
X173530323Y-73652142D01*
X173673180Y-73652142D01*
X173863656Y-73604523D01*
X173958894Y-73556904D01*
X174054132Y-73461666D01*
X174101751Y-73318809D01*
X174101751Y-73080714D01*
X174101751Y-74604523D02*
X174101751Y-74033095D01*
X174101751Y-74318809D02*
X173101751Y-74318809D01*
X173244609Y-74223571D01*
X173339847Y-74128333D01*
X173387466Y-74033095D01*
X173101751Y-75461666D02*
X173101751Y-75271190D01*
X173149371Y-75175952D01*
X173196990Y-75128333D01*
X173339847Y-75033095D01*
X173530323Y-74985476D01*
X173911275Y-74985476D01*
X174006513Y-75033095D01*
X174054132Y-75080714D01*
X174101751Y-75175952D01*
X174101751Y-75366428D01*
X174054132Y-75461666D01*
X174006513Y-75509285D01*
X173911275Y-75556904D01*
X173673180Y-75556904D01*
X173577942Y-75509285D01*
X173530323Y-75461666D01*
X173482704Y-75366428D01*
X173482704Y-75175952D01*
X173530323Y-75080714D01*
X173577942Y-75033095D01*
X173673180Y-74985476D01*
X170689666Y-73651904D02*
X170689666Y-74128095D01*
X170975380Y-73556666D02*
X169975380Y-73890000D01*
X170975380Y-74223333D01*
X154924751Y-73207714D02*
X153924751Y-73207714D01*
X153924751Y-73445809D01*
X153972371Y-73588666D01*
X154067609Y-73683904D01*
X154162847Y-73731523D01*
X154353323Y-73779142D01*
X154496180Y-73779142D01*
X154686656Y-73731523D01*
X154781894Y-73683904D01*
X154877132Y-73588666D01*
X154924751Y-73445809D01*
X154924751Y-73207714D01*
X154924751Y-74731523D02*
X154924751Y-74160095D01*
X154924751Y-74445809D02*
X153924751Y-74445809D01*
X154067609Y-74350571D01*
X154162847Y-74255333D01*
X154210466Y-74160095D01*
X153924751Y-75636285D02*
X153924751Y-75160095D01*
X154400942Y-75112476D01*
X154353323Y-75160095D01*
X154305704Y-75255333D01*
X154305704Y-75493428D01*
X154353323Y-75588666D01*
X154400942Y-75636285D01*
X154496180Y-75683904D01*
X154734275Y-75683904D01*
X154829513Y-75636285D01*
X154877132Y-75588666D01*
X154924751Y-75493428D01*
X154924751Y-75255333D01*
X154877132Y-75160095D01*
X154829513Y-75112476D01*
X151512666Y-73778904D02*
X151512666Y-74255095D01*
X151798380Y-73683666D02*
X150798380Y-74017000D01*
X151798380Y-74350333D01*
X135874751Y-73207714D02*
X134874751Y-73207714D01*
X134874751Y-73445809D01*
X134922371Y-73588666D01*
X135017609Y-73683904D01*
X135112847Y-73731523D01*
X135303323Y-73779142D01*
X135446180Y-73779142D01*
X135636656Y-73731523D01*
X135731894Y-73683904D01*
X135827132Y-73588666D01*
X135874751Y-73445809D01*
X135874751Y-73207714D01*
X135874751Y-74731523D02*
X135874751Y-74160095D01*
X135874751Y-74445809D02*
X134874751Y-74445809D01*
X135017609Y-74350571D01*
X135112847Y-74255333D01*
X135160466Y-74160095D01*
X135208085Y-75588666D02*
X135874751Y-75588666D01*
X134827132Y-75350571D02*
X135541418Y-75112476D01*
X135541418Y-75731523D01*
X132462666Y-73778904D02*
X132462666Y-74255095D01*
X132748380Y-73683666D02*
X131748380Y-74017000D01*
X132748380Y-74350333D01*
X116951751Y-73207714D02*
X115951751Y-73207714D01*
X115951751Y-73445809D01*
X115999371Y-73588666D01*
X116094609Y-73683904D01*
X116189847Y-73731523D01*
X116380323Y-73779142D01*
X116523180Y-73779142D01*
X116713656Y-73731523D01*
X116808894Y-73683904D01*
X116904132Y-73588666D01*
X116951751Y-73445809D01*
X116951751Y-73207714D01*
X116951751Y-74731523D02*
X116951751Y-74160095D01*
X116951751Y-74445809D02*
X115951751Y-74445809D01*
X116094609Y-74350571D01*
X116189847Y-74255333D01*
X116237466Y-74160095D01*
X115951751Y-75064857D02*
X115951751Y-75683904D01*
X116332704Y-75350571D01*
X116332704Y-75493428D01*
X116380323Y-75588666D01*
X116427942Y-75636285D01*
X116523180Y-75683904D01*
X116761275Y-75683904D01*
X116856513Y-75636285D01*
X116904132Y-75588666D01*
X116951751Y-75493428D01*
X116951751Y-75207714D01*
X116904132Y-75112476D01*
X116856513Y-75064857D01*
X113539666Y-73778904D02*
X113539666Y-74255095D01*
X113825380Y-73683666D02*
X112825380Y-74017000D01*
X113825380Y-74350333D01*
X97901751Y-73207714D02*
X96901751Y-73207714D01*
X96901751Y-73445809D01*
X96949371Y-73588666D01*
X97044609Y-73683904D01*
X97139847Y-73731523D01*
X97330323Y-73779142D01*
X97473180Y-73779142D01*
X97663656Y-73731523D01*
X97758894Y-73683904D01*
X97854132Y-73588666D01*
X97901751Y-73445809D01*
X97901751Y-73207714D01*
X97901751Y-74731523D02*
X97901751Y-74160095D01*
X97901751Y-74445809D02*
X96901751Y-74445809D01*
X97044609Y-74350571D01*
X97139847Y-74255333D01*
X97187466Y-74160095D01*
X96996990Y-75112476D02*
X96949371Y-75160095D01*
X96901751Y-75255333D01*
X96901751Y-75493428D01*
X96949371Y-75588666D01*
X96996990Y-75636285D01*
X97092228Y-75683904D01*
X97187466Y-75683904D01*
X97330323Y-75636285D01*
X97901751Y-75064857D01*
X97901751Y-75683904D01*
X94489666Y-73778904D02*
X94489666Y-74255095D01*
X94775380Y-73683666D02*
X93775380Y-74017000D01*
X94775380Y-74350333D01*
X78851751Y-73207714D02*
X77851751Y-73207714D01*
X77851751Y-73445809D01*
X77899371Y-73588666D01*
X77994609Y-73683904D01*
X78089847Y-73731523D01*
X78280323Y-73779142D01*
X78423180Y-73779142D01*
X78613656Y-73731523D01*
X78708894Y-73683904D01*
X78804132Y-73588666D01*
X78851751Y-73445809D01*
X78851751Y-73207714D01*
X78851751Y-74731523D02*
X78851751Y-74160095D01*
X78851751Y-74445809D02*
X77851751Y-74445809D01*
X77994609Y-74350571D01*
X78089847Y-74255333D01*
X78137466Y-74160095D01*
X78851751Y-75683904D02*
X78851751Y-75112476D01*
X78851751Y-75398190D02*
X77851751Y-75398190D01*
X77994609Y-75302952D01*
X78089847Y-75207714D01*
X78137466Y-75112476D01*
X75439666Y-73778904D02*
X75439666Y-74255095D01*
X75725380Y-73683666D02*
X74725380Y-74017000D01*
X75725380Y-74350333D01*
X245475751Y-54157714D02*
X244475751Y-54157714D01*
X244475751Y-54395809D01*
X244523371Y-54538666D01*
X244618609Y-54633904D01*
X244713847Y-54681523D01*
X244904323Y-54729142D01*
X245047180Y-54729142D01*
X245237656Y-54681523D01*
X245332894Y-54633904D01*
X245428132Y-54538666D01*
X245475751Y-54395809D01*
X245475751Y-54157714D01*
X245475751Y-55681523D02*
X245475751Y-55110095D01*
X245475751Y-55395809D02*
X244475751Y-55395809D01*
X244618609Y-55300571D01*
X244713847Y-55205333D01*
X244761466Y-55110095D01*
X244475751Y-56300571D02*
X244475751Y-56395809D01*
X244523371Y-56491047D01*
X244570990Y-56538666D01*
X244666228Y-56586285D01*
X244856704Y-56633904D01*
X245094799Y-56633904D01*
X245285275Y-56586285D01*
X245380513Y-56538666D01*
X245428132Y-56491047D01*
X245475751Y-56395809D01*
X245475751Y-56300571D01*
X245428132Y-56205333D01*
X245380513Y-56157714D01*
X245285275Y-56110095D01*
X245094799Y-56062476D01*
X244856704Y-56062476D01*
X244666228Y-56110095D01*
X244570990Y-56157714D01*
X244523371Y-56205333D01*
X244475751Y-56300571D01*
X242063666Y-54728904D02*
X242063666Y-55205095D01*
X242349380Y-54633666D02*
X241349380Y-54967000D01*
X242349380Y-55300333D01*
X226425751Y-54633904D02*
X225425751Y-54633904D01*
X225425751Y-54872000D01*
X225473371Y-55014857D01*
X225568609Y-55110095D01*
X225663847Y-55157714D01*
X225854323Y-55205333D01*
X225997180Y-55205333D01*
X226187656Y-55157714D01*
X226282894Y-55110095D01*
X226378132Y-55014857D01*
X226425751Y-54872000D01*
X226425751Y-54633904D01*
X226425751Y-55681523D02*
X226425751Y-55872000D01*
X226378132Y-55967238D01*
X226330513Y-56014857D01*
X226187656Y-56110095D01*
X225997180Y-56157714D01*
X225616228Y-56157714D01*
X225520990Y-56110095D01*
X225473371Y-56062476D01*
X225425751Y-55967238D01*
X225425751Y-55776761D01*
X225473371Y-55681523D01*
X225520990Y-55633904D01*
X225616228Y-55586285D01*
X225854323Y-55586285D01*
X225949561Y-55633904D01*
X225997180Y-55681523D01*
X226044799Y-55776761D01*
X226044799Y-55967238D01*
X225997180Y-56062476D01*
X225949561Y-56110095D01*
X225854323Y-56157714D01*
X223013666Y-54728904D02*
X223013666Y-55205095D01*
X223299380Y-54633666D02*
X222299380Y-54967000D01*
X223299380Y-55300333D01*
X207375751Y-54633904D02*
X206375751Y-54633904D01*
X206375751Y-54872000D01*
X206423371Y-55014857D01*
X206518609Y-55110095D01*
X206613847Y-55157714D01*
X206804323Y-55205333D01*
X206947180Y-55205333D01*
X207137656Y-55157714D01*
X207232894Y-55110095D01*
X207328132Y-55014857D01*
X207375751Y-54872000D01*
X207375751Y-54633904D01*
X206804323Y-55776761D02*
X206756704Y-55681523D01*
X206709085Y-55633904D01*
X206613847Y-55586285D01*
X206566228Y-55586285D01*
X206470990Y-55633904D01*
X206423371Y-55681523D01*
X206375751Y-55776761D01*
X206375751Y-55967238D01*
X206423371Y-56062476D01*
X206470990Y-56110095D01*
X206566228Y-56157714D01*
X206613847Y-56157714D01*
X206709085Y-56110095D01*
X206756704Y-56062476D01*
X206804323Y-55967238D01*
X206804323Y-55776761D01*
X206851942Y-55681523D01*
X206899561Y-55633904D01*
X206994799Y-55586285D01*
X207185275Y-55586285D01*
X207280513Y-55633904D01*
X207328132Y-55681523D01*
X207375751Y-55776761D01*
X207375751Y-55967238D01*
X207328132Y-56062476D01*
X207280513Y-56110095D01*
X207185275Y-56157714D01*
X206994799Y-56157714D01*
X206899561Y-56110095D01*
X206851942Y-56062476D01*
X206804323Y-55967238D01*
X203963666Y-54728904D02*
X203963666Y-55205095D01*
X204249380Y-54633666D02*
X203249380Y-54967000D01*
X204249380Y-55300333D01*
X188325751Y-54633904D02*
X187325751Y-54633904D01*
X187325751Y-54872000D01*
X187373371Y-55014857D01*
X187468609Y-55110095D01*
X187563847Y-55157714D01*
X187754323Y-55205333D01*
X187897180Y-55205333D01*
X188087656Y-55157714D01*
X188182894Y-55110095D01*
X188278132Y-55014857D01*
X188325751Y-54872000D01*
X188325751Y-54633904D01*
X187325751Y-55538666D02*
X187325751Y-56205333D01*
X188325751Y-55776761D01*
X184913666Y-54728904D02*
X184913666Y-55205095D01*
X185199380Y-54633666D02*
X184199380Y-54967000D01*
X185199380Y-55300333D01*
X169275751Y-54633904D02*
X168275751Y-54633904D01*
X168275751Y-54872000D01*
X168323371Y-55014857D01*
X168418609Y-55110095D01*
X168513847Y-55157714D01*
X168704323Y-55205333D01*
X168847180Y-55205333D01*
X169037656Y-55157714D01*
X169132894Y-55110095D01*
X169228132Y-55014857D01*
X169275751Y-54872000D01*
X169275751Y-54633904D01*
X168275751Y-56062476D02*
X168275751Y-55872000D01*
X168323371Y-55776761D01*
X168370990Y-55729142D01*
X168513847Y-55633904D01*
X168704323Y-55586285D01*
X169085275Y-55586285D01*
X169180513Y-55633904D01*
X169228132Y-55681523D01*
X169275751Y-55776761D01*
X169275751Y-55967238D01*
X169228132Y-56062476D01*
X169180513Y-56110095D01*
X169085275Y-56157714D01*
X168847180Y-56157714D01*
X168751942Y-56110095D01*
X168704323Y-56062476D01*
X168656704Y-55967238D01*
X168656704Y-55776761D01*
X168704323Y-55681523D01*
X168751942Y-55633904D01*
X168847180Y-55586285D01*
X165863666Y-54728904D02*
X165863666Y-55205095D01*
X166149380Y-54633666D02*
X165149380Y-54967000D01*
X166149380Y-55300333D01*
X150225751Y-54506904D02*
X149225751Y-54506904D01*
X149225751Y-54745000D01*
X149273371Y-54887857D01*
X149368609Y-54983095D01*
X149463847Y-55030714D01*
X149654323Y-55078333D01*
X149797180Y-55078333D01*
X149987656Y-55030714D01*
X150082894Y-54983095D01*
X150178132Y-54887857D01*
X150225751Y-54745000D01*
X150225751Y-54506904D01*
X149225751Y-55983095D02*
X149225751Y-55506904D01*
X149701942Y-55459285D01*
X149654323Y-55506904D01*
X149606704Y-55602142D01*
X149606704Y-55840238D01*
X149654323Y-55935476D01*
X149701942Y-55983095D01*
X149797180Y-56030714D01*
X150035275Y-56030714D01*
X150130513Y-55983095D01*
X150178132Y-55935476D01*
X150225751Y-55840238D01*
X150225751Y-55602142D01*
X150178132Y-55506904D01*
X150130513Y-55459285D01*
X146813666Y-54601904D02*
X146813666Y-55078095D01*
X147099380Y-54506666D02*
X146099380Y-54840000D01*
X147099380Y-55173333D01*
X131175751Y-54633904D02*
X130175751Y-54633904D01*
X130175751Y-54872000D01*
X130223371Y-55014857D01*
X130318609Y-55110095D01*
X130413847Y-55157714D01*
X130604323Y-55205333D01*
X130747180Y-55205333D01*
X130937656Y-55157714D01*
X131032894Y-55110095D01*
X131128132Y-55014857D01*
X131175751Y-54872000D01*
X131175751Y-54633904D01*
X130509085Y-56062476D02*
X131175751Y-56062476D01*
X130128132Y-55824380D02*
X130842418Y-55586285D01*
X130842418Y-56205333D01*
X127763666Y-54728904D02*
X127763666Y-55205095D01*
X128049380Y-54633666D02*
X127049380Y-54967000D01*
X128049380Y-55300333D01*
X112125751Y-54633904D02*
X111125751Y-54633904D01*
X111125751Y-54872000D01*
X111173371Y-55014857D01*
X111268609Y-55110095D01*
X111363847Y-55157714D01*
X111554323Y-55205333D01*
X111697180Y-55205333D01*
X111887656Y-55157714D01*
X111982894Y-55110095D01*
X112078132Y-55014857D01*
X112125751Y-54872000D01*
X112125751Y-54633904D01*
X111125751Y-55538666D02*
X111125751Y-56157714D01*
X111506704Y-55824380D01*
X111506704Y-55967238D01*
X111554323Y-56062476D01*
X111601942Y-56110095D01*
X111697180Y-56157714D01*
X111935275Y-56157714D01*
X112030513Y-56110095D01*
X112078132Y-56062476D01*
X112125751Y-55967238D01*
X112125751Y-55681523D01*
X112078132Y-55586285D01*
X112030513Y-55538666D01*
X108713666Y-54728904D02*
X108713666Y-55205095D01*
X108999380Y-54633666D02*
X107999380Y-54967000D01*
X108999380Y-55300333D01*
X93456751Y-54633904D02*
X92456751Y-54633904D01*
X92456751Y-54872000D01*
X92504371Y-55014857D01*
X92599609Y-55110095D01*
X92694847Y-55157714D01*
X92885323Y-55205333D01*
X93028180Y-55205333D01*
X93218656Y-55157714D01*
X93313894Y-55110095D01*
X93409132Y-55014857D01*
X93456751Y-54872000D01*
X93456751Y-54633904D01*
X92551990Y-55586285D02*
X92504371Y-55633904D01*
X92456751Y-55729142D01*
X92456751Y-55967238D01*
X92504371Y-56062476D01*
X92551990Y-56110095D01*
X92647228Y-56157714D01*
X92742466Y-56157714D01*
X92885323Y-56110095D01*
X93456751Y-55538666D01*
X93456751Y-56157714D01*
X90044666Y-54728904D02*
X90044666Y-55205095D01*
X90330380Y-54633666D02*
X89330380Y-54967000D01*
X90330380Y-55300333D01*
X76438751Y-52601904D02*
X75438751Y-52601904D01*
X75438751Y-52840000D01*
X75486371Y-52982857D01*
X75581609Y-53078095D01*
X75676847Y-53125714D01*
X75867323Y-53173333D01*
X76010180Y-53173333D01*
X76200656Y-53125714D01*
X76295894Y-53078095D01*
X76391132Y-52982857D01*
X76438751Y-52840000D01*
X76438751Y-52601904D01*
X76438751Y-54125714D02*
X76438751Y-53554285D01*
X76438751Y-53840000D02*
X75438751Y-53840000D01*
X75581609Y-53744761D01*
X75676847Y-53649523D01*
X75724466Y-53554285D01*
X73026666Y-52696904D02*
X73026666Y-53173095D01*
X73312380Y-52601666D02*
X72312380Y-52935000D01*
X73312380Y-53268333D01*
X101663333Y-61745761D02*
X101520476Y-61793380D01*
X101282380Y-61793380D01*
X101187142Y-61745761D01*
X101139523Y-61698142D01*
X101091904Y-61602904D01*
X101091904Y-61507666D01*
X101139523Y-61412428D01*
X101187142Y-61364809D01*
X101282380Y-61317190D01*
X101472857Y-61269571D01*
X101568095Y-61221952D01*
X101615714Y-61174333D01*
X101663333Y-61079095D01*
X101663333Y-60983857D01*
X101615714Y-60888619D01*
X101568095Y-60841000D01*
X101472857Y-60793380D01*
X101234761Y-60793380D01*
X101091904Y-60841000D01*
X100758571Y-60793380D02*
X100520476Y-61793380D01*
X100330000Y-61079095D01*
X100139523Y-61793380D01*
X99901428Y-60793380D01*
X98996666Y-61793380D02*
X99568095Y-61793380D01*
X99282380Y-61793380D02*
X99282380Y-60793380D01*
X99377619Y-60936238D01*
X99472857Y-61031476D01*
X99568095Y-61079095D01*
X248268904Y-92527380D02*
X248268904Y-91527380D01*
X247935571Y-92241666D01*
X247602238Y-91527380D01*
X247602238Y-92527380D01*
X247221285Y-91527380D02*
X246554619Y-92527380D01*
X246554619Y-91527380D02*
X247221285Y-92527380D01*
X246221285Y-91622619D02*
X246173666Y-91575000D01*
X246078428Y-91527380D01*
X245840333Y-91527380D01*
X245745095Y-91575000D01*
X245697476Y-91622619D01*
X245649857Y-91717857D01*
X245649857Y-91813095D01*
X245697476Y-91955952D01*
X246268904Y-92527380D01*
X245649857Y-92527380D01*
X245173666Y-92527380D02*
X244983190Y-92527380D01*
X244887952Y-92479761D01*
X244840333Y-92432142D01*
X244745095Y-92289285D01*
X244697476Y-92098809D01*
X244697476Y-91717857D01*
X244745095Y-91622619D01*
X244792714Y-91575000D01*
X244887952Y-91527380D01*
X245078428Y-91527380D01*
X245173666Y-91575000D01*
X245221285Y-91622619D01*
X245268904Y-91717857D01*
X245268904Y-91955952D01*
X245221285Y-92051190D01*
X245173666Y-92098809D01*
X245078428Y-92146428D01*
X244887952Y-92146428D01*
X244792714Y-92098809D01*
X244745095Y-92051190D01*
X244697476Y-91955952D01*
X229218904Y-92527380D02*
X229218904Y-91527380D01*
X228885571Y-92241666D01*
X228552238Y-91527380D01*
X228552238Y-92527380D01*
X228171285Y-91527380D02*
X227504619Y-92527380D01*
X227504619Y-91527380D02*
X228171285Y-92527380D01*
X227171285Y-91622619D02*
X227123666Y-91575000D01*
X227028428Y-91527380D01*
X226790333Y-91527380D01*
X226695095Y-91575000D01*
X226647476Y-91622619D01*
X226599857Y-91717857D01*
X226599857Y-91813095D01*
X226647476Y-91955952D01*
X227218904Y-92527380D01*
X226599857Y-92527380D01*
X226028428Y-91955952D02*
X226123666Y-91908333D01*
X226171285Y-91860714D01*
X226218904Y-91765476D01*
X226218904Y-91717857D01*
X226171285Y-91622619D01*
X226123666Y-91575000D01*
X226028428Y-91527380D01*
X225837952Y-91527380D01*
X225742714Y-91575000D01*
X225695095Y-91622619D01*
X225647476Y-91717857D01*
X225647476Y-91765476D01*
X225695095Y-91860714D01*
X225742714Y-91908333D01*
X225837952Y-91955952D01*
X226028428Y-91955952D01*
X226123666Y-92003571D01*
X226171285Y-92051190D01*
X226218904Y-92146428D01*
X226218904Y-92336904D01*
X226171285Y-92432142D01*
X226123666Y-92479761D01*
X226028428Y-92527380D01*
X225837952Y-92527380D01*
X225742714Y-92479761D01*
X225695095Y-92432142D01*
X225647476Y-92336904D01*
X225647476Y-92146428D01*
X225695095Y-92051190D01*
X225742714Y-92003571D01*
X225837952Y-91955952D01*
X210168904Y-92527380D02*
X210168904Y-91527380D01*
X209835571Y-92241666D01*
X209502238Y-91527380D01*
X209502238Y-92527380D01*
X209121285Y-91527380D02*
X208454619Y-92527380D01*
X208454619Y-91527380D02*
X209121285Y-92527380D01*
X208121285Y-91622619D02*
X208073666Y-91575000D01*
X207978428Y-91527380D01*
X207740333Y-91527380D01*
X207645095Y-91575000D01*
X207597476Y-91622619D01*
X207549857Y-91717857D01*
X207549857Y-91813095D01*
X207597476Y-91955952D01*
X208168904Y-92527380D01*
X207549857Y-92527380D01*
X207216523Y-91527380D02*
X206549857Y-91527380D01*
X206978428Y-92527380D01*
X191118904Y-92527380D02*
X191118904Y-91527380D01*
X190785571Y-92241666D01*
X190452238Y-91527380D01*
X190452238Y-92527380D01*
X190071285Y-91527380D02*
X189404619Y-92527380D01*
X189404619Y-91527380D02*
X190071285Y-92527380D01*
X189071285Y-91622619D02*
X189023666Y-91575000D01*
X188928428Y-91527380D01*
X188690333Y-91527380D01*
X188595095Y-91575000D01*
X188547476Y-91622619D01*
X188499857Y-91717857D01*
X188499857Y-91813095D01*
X188547476Y-91955952D01*
X189118904Y-92527380D01*
X188499857Y-92527380D01*
X187642714Y-91527380D02*
X187833190Y-91527380D01*
X187928428Y-91575000D01*
X187976047Y-91622619D01*
X188071285Y-91765476D01*
X188118904Y-91955952D01*
X188118904Y-92336904D01*
X188071285Y-92432142D01*
X188023666Y-92479761D01*
X187928428Y-92527380D01*
X187737952Y-92527380D01*
X187642714Y-92479761D01*
X187595095Y-92432142D01*
X187547476Y-92336904D01*
X187547476Y-92098809D01*
X187595095Y-92003571D01*
X187642714Y-91955952D01*
X187737952Y-91908333D01*
X187928428Y-91908333D01*
X188023666Y-91955952D01*
X188071285Y-92003571D01*
X188118904Y-92098809D01*
X162543904Y-92527380D02*
X162543904Y-91527380D01*
X162210571Y-92241666D01*
X161877238Y-91527380D01*
X161877238Y-92527380D01*
X161496285Y-91527380D02*
X160829619Y-92527380D01*
X160829619Y-91527380D02*
X161496285Y-92527380D01*
X160496285Y-91622619D02*
X160448666Y-91575000D01*
X160353428Y-91527380D01*
X160115333Y-91527380D01*
X160020095Y-91575000D01*
X159972476Y-91622619D01*
X159924857Y-91717857D01*
X159924857Y-91813095D01*
X159972476Y-91955952D01*
X160543904Y-92527380D01*
X159924857Y-92527380D01*
X159020095Y-91527380D02*
X159496285Y-91527380D01*
X159543904Y-92003571D01*
X159496285Y-91955952D01*
X159401047Y-91908333D01*
X159162952Y-91908333D01*
X159067714Y-91955952D01*
X159020095Y-92003571D01*
X158972476Y-92098809D01*
X158972476Y-92336904D01*
X159020095Y-92432142D01*
X159067714Y-92479761D01*
X159162952Y-92527380D01*
X159401047Y-92527380D01*
X159496285Y-92479761D01*
X159543904Y-92432142D01*
X133968904Y-92527380D02*
X133968904Y-91527380D01*
X133635571Y-92241666D01*
X133302238Y-91527380D01*
X133302238Y-92527380D01*
X132921285Y-91527380D02*
X132254619Y-92527380D01*
X132254619Y-91527380D02*
X132921285Y-92527380D01*
X131921285Y-91622619D02*
X131873666Y-91575000D01*
X131778428Y-91527380D01*
X131540333Y-91527380D01*
X131445095Y-91575000D01*
X131397476Y-91622619D01*
X131349857Y-91717857D01*
X131349857Y-91813095D01*
X131397476Y-91955952D01*
X131968904Y-92527380D01*
X131349857Y-92527380D01*
X130492714Y-91860714D02*
X130492714Y-92527380D01*
X130730809Y-91479761D02*
X130968904Y-92194047D01*
X130349857Y-92194047D01*
X114918904Y-92527380D02*
X114918904Y-91527380D01*
X114585571Y-92241666D01*
X114252238Y-91527380D01*
X114252238Y-92527380D01*
X113871285Y-91527380D02*
X113204619Y-92527380D01*
X113204619Y-91527380D02*
X113871285Y-92527380D01*
X112871285Y-91622619D02*
X112823666Y-91575000D01*
X112728428Y-91527380D01*
X112490333Y-91527380D01*
X112395095Y-91575000D01*
X112347476Y-91622619D01*
X112299857Y-91717857D01*
X112299857Y-91813095D01*
X112347476Y-91955952D01*
X112918904Y-92527380D01*
X112299857Y-92527380D01*
X111966523Y-91527380D02*
X111347476Y-91527380D01*
X111680809Y-91908333D01*
X111537952Y-91908333D01*
X111442714Y-91955952D01*
X111395095Y-92003571D01*
X111347476Y-92098809D01*
X111347476Y-92336904D01*
X111395095Y-92432142D01*
X111442714Y-92479761D01*
X111537952Y-92527380D01*
X111823666Y-92527380D01*
X111918904Y-92479761D01*
X111966523Y-92432142D01*
X95868904Y-92527380D02*
X95868904Y-91527380D01*
X95535571Y-92241666D01*
X95202238Y-91527380D01*
X95202238Y-92527380D01*
X94821285Y-91527380D02*
X94154619Y-92527380D01*
X94154619Y-91527380D02*
X94821285Y-92527380D01*
X93821285Y-91622619D02*
X93773666Y-91575000D01*
X93678428Y-91527380D01*
X93440333Y-91527380D01*
X93345095Y-91575000D01*
X93297476Y-91622619D01*
X93249857Y-91717857D01*
X93249857Y-91813095D01*
X93297476Y-91955952D01*
X93868904Y-92527380D01*
X93249857Y-92527380D01*
X92868904Y-91622619D02*
X92821285Y-91575000D01*
X92726047Y-91527380D01*
X92487952Y-91527380D01*
X92392714Y-91575000D01*
X92345095Y-91622619D01*
X92297476Y-91717857D01*
X92297476Y-91813095D01*
X92345095Y-91955952D01*
X92916523Y-92527380D01*
X92297476Y-92527380D01*
X76818904Y-92527380D02*
X76818904Y-91527380D01*
X76485571Y-92241666D01*
X76152238Y-91527380D01*
X76152238Y-92527380D01*
X75771285Y-91527380D02*
X75104619Y-92527380D01*
X75104619Y-91527380D02*
X75771285Y-92527380D01*
X74771285Y-91622619D02*
X74723666Y-91575000D01*
X74628428Y-91527380D01*
X74390333Y-91527380D01*
X74295095Y-91575000D01*
X74247476Y-91622619D01*
X74199857Y-91717857D01*
X74199857Y-91813095D01*
X74247476Y-91955952D01*
X74818904Y-92527380D01*
X74199857Y-92527380D01*
X73247476Y-92527380D02*
X73818904Y-92527380D01*
X73533190Y-92527380D02*
X73533190Y-91527380D01*
X73628428Y-91670238D01*
X73723666Y-91765476D01*
X73818904Y-91813095D01*
X243442904Y-73477380D02*
X243442904Y-72477380D01*
X243109571Y-73191666D01*
X242776238Y-72477380D01*
X242776238Y-73477380D01*
X242395285Y-72477380D02*
X241728619Y-73477380D01*
X241728619Y-72477380D02*
X242395285Y-73477380D01*
X241395285Y-72572619D02*
X241347666Y-72525000D01*
X241252428Y-72477380D01*
X241014333Y-72477380D01*
X240919095Y-72525000D01*
X240871476Y-72572619D01*
X240823857Y-72667857D01*
X240823857Y-72763095D01*
X240871476Y-72905952D01*
X241442904Y-73477380D01*
X240823857Y-73477380D01*
X240204809Y-72477380D02*
X240109571Y-72477380D01*
X240014333Y-72525000D01*
X239966714Y-72572619D01*
X239919095Y-72667857D01*
X239871476Y-72858333D01*
X239871476Y-73096428D01*
X239919095Y-73286904D01*
X239966714Y-73382142D01*
X240014333Y-73429761D01*
X240109571Y-73477380D01*
X240204809Y-73477380D01*
X240300047Y-73429761D01*
X240347666Y-73382142D01*
X240395285Y-73286904D01*
X240442904Y-73096428D01*
X240442904Y-72858333D01*
X240395285Y-72667857D01*
X240347666Y-72572619D01*
X240300047Y-72525000D01*
X240204809Y-72477380D01*
X224392904Y-73477380D02*
X224392904Y-72477380D01*
X224059571Y-73191666D01*
X223726238Y-72477380D01*
X223726238Y-73477380D01*
X223345285Y-72477380D02*
X222678619Y-73477380D01*
X222678619Y-72477380D02*
X223345285Y-73477380D01*
X221773857Y-73477380D02*
X222345285Y-73477380D01*
X222059571Y-73477380D02*
X222059571Y-72477380D01*
X222154809Y-72620238D01*
X222250047Y-72715476D01*
X222345285Y-72763095D01*
X221297666Y-73477380D02*
X221107190Y-73477380D01*
X221011952Y-73429761D01*
X220964333Y-73382142D01*
X220869095Y-73239285D01*
X220821476Y-73048809D01*
X220821476Y-72667857D01*
X220869095Y-72572619D01*
X220916714Y-72525000D01*
X221011952Y-72477380D01*
X221202428Y-72477380D01*
X221297666Y-72525000D01*
X221345285Y-72572619D01*
X221392904Y-72667857D01*
X221392904Y-72905952D01*
X221345285Y-73001190D01*
X221297666Y-73048809D01*
X221202428Y-73096428D01*
X221011952Y-73096428D01*
X220916714Y-73048809D01*
X220869095Y-73001190D01*
X220821476Y-72905952D01*
X205342904Y-73477380D02*
X205342904Y-72477380D01*
X205009571Y-73191666D01*
X204676238Y-72477380D01*
X204676238Y-73477380D01*
X204295285Y-72477380D02*
X203628619Y-73477380D01*
X203628619Y-72477380D02*
X204295285Y-73477380D01*
X202723857Y-73477380D02*
X203295285Y-73477380D01*
X203009571Y-73477380D02*
X203009571Y-72477380D01*
X203104809Y-72620238D01*
X203200047Y-72715476D01*
X203295285Y-72763095D01*
X202152428Y-72905952D02*
X202247666Y-72858333D01*
X202295285Y-72810714D01*
X202342904Y-72715476D01*
X202342904Y-72667857D01*
X202295285Y-72572619D01*
X202247666Y-72525000D01*
X202152428Y-72477380D01*
X201961952Y-72477380D01*
X201866714Y-72525000D01*
X201819095Y-72572619D01*
X201771476Y-72667857D01*
X201771476Y-72715476D01*
X201819095Y-72810714D01*
X201866714Y-72858333D01*
X201961952Y-72905952D01*
X202152428Y-72905952D01*
X202247666Y-72953571D01*
X202295285Y-73001190D01*
X202342904Y-73096428D01*
X202342904Y-73286904D01*
X202295285Y-73382142D01*
X202247666Y-73429761D01*
X202152428Y-73477380D01*
X201961952Y-73477380D01*
X201866714Y-73429761D01*
X201819095Y-73382142D01*
X201771476Y-73286904D01*
X201771476Y-73096428D01*
X201819095Y-73001190D01*
X201866714Y-72953571D01*
X201961952Y-72905952D01*
X186292904Y-73477380D02*
X186292904Y-72477380D01*
X185959571Y-73191666D01*
X185626238Y-72477380D01*
X185626238Y-73477380D01*
X185245285Y-72477380D02*
X184578619Y-73477380D01*
X184578619Y-72477380D02*
X185245285Y-73477380D01*
X183673857Y-73477380D02*
X184245285Y-73477380D01*
X183959571Y-73477380D02*
X183959571Y-72477380D01*
X184054809Y-72620238D01*
X184150047Y-72715476D01*
X184245285Y-72763095D01*
X183340523Y-72477380D02*
X182673857Y-72477380D01*
X183102428Y-73477380D01*
X167242904Y-73477380D02*
X167242904Y-72477380D01*
X166909571Y-73191666D01*
X166576238Y-72477380D01*
X166576238Y-73477380D01*
X166195285Y-72477380D02*
X165528619Y-73477380D01*
X165528619Y-72477380D02*
X166195285Y-73477380D01*
X164623857Y-73477380D02*
X165195285Y-73477380D01*
X164909571Y-73477380D02*
X164909571Y-72477380D01*
X165004809Y-72620238D01*
X165100047Y-72715476D01*
X165195285Y-72763095D01*
X163766714Y-72477380D02*
X163957190Y-72477380D01*
X164052428Y-72525000D01*
X164100047Y-72572619D01*
X164195285Y-72715476D01*
X164242904Y-72905952D01*
X164242904Y-73286904D01*
X164195285Y-73382142D01*
X164147666Y-73429761D01*
X164052428Y-73477380D01*
X163861952Y-73477380D01*
X163766714Y-73429761D01*
X163719095Y-73382142D01*
X163671476Y-73286904D01*
X163671476Y-73048809D01*
X163719095Y-72953571D01*
X163766714Y-72905952D01*
X163861952Y-72858333D01*
X164052428Y-72858333D01*
X164147666Y-72905952D01*
X164195285Y-72953571D01*
X164242904Y-73048809D01*
X148192904Y-73477380D02*
X148192904Y-72477380D01*
X147859571Y-73191666D01*
X147526238Y-72477380D01*
X147526238Y-73477380D01*
X147145285Y-72477380D02*
X146478619Y-73477380D01*
X146478619Y-72477380D02*
X147145285Y-73477380D01*
X145573857Y-73477380D02*
X146145285Y-73477380D01*
X145859571Y-73477380D02*
X145859571Y-72477380D01*
X145954809Y-72620238D01*
X146050047Y-72715476D01*
X146145285Y-72763095D01*
X144669095Y-72477380D02*
X145145285Y-72477380D01*
X145192904Y-72953571D01*
X145145285Y-72905952D01*
X145050047Y-72858333D01*
X144811952Y-72858333D01*
X144716714Y-72905952D01*
X144669095Y-72953571D01*
X144621476Y-73048809D01*
X144621476Y-73286904D01*
X144669095Y-73382142D01*
X144716714Y-73429761D01*
X144811952Y-73477380D01*
X145050047Y-73477380D01*
X145145285Y-73429761D01*
X145192904Y-73382142D01*
X129142904Y-73477380D02*
X129142904Y-72477380D01*
X128809571Y-73191666D01*
X128476238Y-72477380D01*
X128476238Y-73477380D01*
X128095285Y-72477380D02*
X127428619Y-73477380D01*
X127428619Y-72477380D02*
X128095285Y-73477380D01*
X126523857Y-73477380D02*
X127095285Y-73477380D01*
X126809571Y-73477380D02*
X126809571Y-72477380D01*
X126904809Y-72620238D01*
X127000047Y-72715476D01*
X127095285Y-72763095D01*
X125666714Y-72810714D02*
X125666714Y-73477380D01*
X125904809Y-72429761D02*
X126142904Y-73144047D01*
X125523857Y-73144047D01*
X110092904Y-73477380D02*
X110092904Y-72477380D01*
X109759571Y-73191666D01*
X109426238Y-72477380D01*
X109426238Y-73477380D01*
X109045285Y-72477380D02*
X108378619Y-73477380D01*
X108378619Y-72477380D02*
X109045285Y-73477380D01*
X107473857Y-73477380D02*
X108045285Y-73477380D01*
X107759571Y-73477380D02*
X107759571Y-72477380D01*
X107854809Y-72620238D01*
X107950047Y-72715476D01*
X108045285Y-72763095D01*
X107140523Y-72477380D02*
X106521476Y-72477380D01*
X106854809Y-72858333D01*
X106711952Y-72858333D01*
X106616714Y-72905952D01*
X106569095Y-72953571D01*
X106521476Y-73048809D01*
X106521476Y-73286904D01*
X106569095Y-73382142D01*
X106616714Y-73429761D01*
X106711952Y-73477380D01*
X106997666Y-73477380D01*
X107092904Y-73429761D01*
X107140523Y-73382142D01*
X91042904Y-73477380D02*
X91042904Y-72477380D01*
X90709571Y-73191666D01*
X90376238Y-72477380D01*
X90376238Y-73477380D01*
X89995285Y-72477380D02*
X89328619Y-73477380D01*
X89328619Y-72477380D02*
X89995285Y-73477380D01*
X88423857Y-73477380D02*
X88995285Y-73477380D01*
X88709571Y-73477380D02*
X88709571Y-72477380D01*
X88804809Y-72620238D01*
X88900047Y-72715476D01*
X88995285Y-72763095D01*
X88042904Y-72572619D02*
X87995285Y-72525000D01*
X87900047Y-72477380D01*
X87661952Y-72477380D01*
X87566714Y-72525000D01*
X87519095Y-72572619D01*
X87471476Y-72667857D01*
X87471476Y-72763095D01*
X87519095Y-72905952D01*
X88090523Y-73477380D01*
X87471476Y-73477380D01*
X71992904Y-73477380D02*
X71992904Y-72477380D01*
X71659571Y-73191666D01*
X71326238Y-72477380D01*
X71326238Y-73477380D01*
X70945285Y-72477380D02*
X70278619Y-73477380D01*
X70278619Y-72477380D02*
X70945285Y-73477380D01*
X69373857Y-73477380D02*
X69945285Y-73477380D01*
X69659571Y-73477380D02*
X69659571Y-72477380D01*
X69754809Y-72620238D01*
X69850047Y-72715476D01*
X69945285Y-72763095D01*
X68421476Y-73477380D02*
X68992904Y-73477380D01*
X68707190Y-73477380D02*
X68707190Y-72477380D01*
X68802428Y-72620238D01*
X68897666Y-72715476D01*
X68992904Y-72763095D01*
X238743904Y-54427380D02*
X238743904Y-53427380D01*
X238410571Y-54141666D01*
X238077238Y-53427380D01*
X238077238Y-54427380D01*
X237696285Y-53427380D02*
X237029619Y-54427380D01*
X237029619Y-53427380D02*
X237696285Y-54427380D01*
X236124857Y-54427380D02*
X236696285Y-54427380D01*
X236410571Y-54427380D02*
X236410571Y-53427380D01*
X236505809Y-53570238D01*
X236601047Y-53665476D01*
X236696285Y-53713095D01*
X235505809Y-53427380D02*
X235410571Y-53427380D01*
X235315333Y-53475000D01*
X235267714Y-53522619D01*
X235220095Y-53617857D01*
X235172476Y-53808333D01*
X235172476Y-54046428D01*
X235220095Y-54236904D01*
X235267714Y-54332142D01*
X235315333Y-54379761D01*
X235410571Y-54427380D01*
X235505809Y-54427380D01*
X235601047Y-54379761D01*
X235648666Y-54332142D01*
X235696285Y-54236904D01*
X235743904Y-54046428D01*
X235743904Y-53808333D01*
X235696285Y-53617857D01*
X235648666Y-53522619D01*
X235601047Y-53475000D01*
X235505809Y-53427380D01*
X219217714Y-54427380D02*
X219217714Y-53427380D01*
X218884380Y-54141666D01*
X218551047Y-53427380D01*
X218551047Y-54427380D01*
X218170095Y-53427380D02*
X217503428Y-54427380D01*
X217503428Y-53427380D02*
X218170095Y-54427380D01*
X217074857Y-54427380D02*
X216884380Y-54427380D01*
X216789142Y-54379761D01*
X216741523Y-54332142D01*
X216646285Y-54189285D01*
X216598666Y-53998809D01*
X216598666Y-53617857D01*
X216646285Y-53522619D01*
X216693904Y-53475000D01*
X216789142Y-53427380D01*
X216979619Y-53427380D01*
X217074857Y-53475000D01*
X217122476Y-53522619D01*
X217170095Y-53617857D01*
X217170095Y-53855952D01*
X217122476Y-53951190D01*
X217074857Y-53998809D01*
X216979619Y-54046428D01*
X216789142Y-54046428D01*
X216693904Y-53998809D01*
X216646285Y-53951190D01*
X216598666Y-53855952D01*
X200167714Y-54427380D02*
X200167714Y-53427380D01*
X199834380Y-54141666D01*
X199501047Y-53427380D01*
X199501047Y-54427380D01*
X199120095Y-53427380D02*
X198453428Y-54427380D01*
X198453428Y-53427380D02*
X199120095Y-54427380D01*
X197929619Y-53855952D02*
X198024857Y-53808333D01*
X198072476Y-53760714D01*
X198120095Y-53665476D01*
X198120095Y-53617857D01*
X198072476Y-53522619D01*
X198024857Y-53475000D01*
X197929619Y-53427380D01*
X197739142Y-53427380D01*
X197643904Y-53475000D01*
X197596285Y-53522619D01*
X197548666Y-53617857D01*
X197548666Y-53665476D01*
X197596285Y-53760714D01*
X197643904Y-53808333D01*
X197739142Y-53855952D01*
X197929619Y-53855952D01*
X198024857Y-53903571D01*
X198072476Y-53951190D01*
X198120095Y-54046428D01*
X198120095Y-54236904D01*
X198072476Y-54332142D01*
X198024857Y-54379761D01*
X197929619Y-54427380D01*
X197739142Y-54427380D01*
X197643904Y-54379761D01*
X197596285Y-54332142D01*
X197548666Y-54236904D01*
X197548666Y-54046428D01*
X197596285Y-53951190D01*
X197643904Y-53903571D01*
X197739142Y-53855952D01*
X181117714Y-54427380D02*
X181117714Y-53427380D01*
X180784380Y-54141666D01*
X180451047Y-53427380D01*
X180451047Y-54427380D01*
X180070095Y-53427380D02*
X179403428Y-54427380D01*
X179403428Y-53427380D02*
X180070095Y-54427380D01*
X179117714Y-53427380D02*
X178451047Y-53427380D01*
X178879619Y-54427380D01*
X162067714Y-54427380D02*
X162067714Y-53427380D01*
X161734380Y-54141666D01*
X161401047Y-53427380D01*
X161401047Y-54427380D01*
X161020095Y-53427380D02*
X160353428Y-54427380D01*
X160353428Y-53427380D02*
X161020095Y-54427380D01*
X159543904Y-53427380D02*
X159734380Y-53427380D01*
X159829619Y-53475000D01*
X159877238Y-53522619D01*
X159972476Y-53665476D01*
X160020095Y-53855952D01*
X160020095Y-54236904D01*
X159972476Y-54332142D01*
X159924857Y-54379761D01*
X159829619Y-54427380D01*
X159639142Y-54427380D01*
X159543904Y-54379761D01*
X159496285Y-54332142D01*
X159448666Y-54236904D01*
X159448666Y-53998809D01*
X159496285Y-53903571D01*
X159543904Y-53855952D01*
X159639142Y-53808333D01*
X159829619Y-53808333D01*
X159924857Y-53855952D01*
X159972476Y-53903571D01*
X160020095Y-53998809D01*
X143017714Y-54427380D02*
X143017714Y-53427380D01*
X142684380Y-54141666D01*
X142351047Y-53427380D01*
X142351047Y-54427380D01*
X141970095Y-53427380D02*
X141303428Y-54427380D01*
X141303428Y-53427380D02*
X141970095Y-54427380D01*
X140446285Y-53427380D02*
X140922476Y-53427380D01*
X140970095Y-53903571D01*
X140922476Y-53855952D01*
X140827238Y-53808333D01*
X140589142Y-53808333D01*
X140493904Y-53855952D01*
X140446285Y-53903571D01*
X140398666Y-53998809D01*
X140398666Y-54236904D01*
X140446285Y-54332142D01*
X140493904Y-54379761D01*
X140589142Y-54427380D01*
X140827238Y-54427380D01*
X140922476Y-54379761D01*
X140970095Y-54332142D01*
X123967714Y-54427380D02*
X123967714Y-53427380D01*
X123634380Y-54141666D01*
X123301047Y-53427380D01*
X123301047Y-54427380D01*
X122920095Y-53427380D02*
X122253428Y-54427380D01*
X122253428Y-53427380D02*
X122920095Y-54427380D01*
X121443904Y-53760714D02*
X121443904Y-54427380D01*
X121682000Y-53379761D02*
X121920095Y-54094047D01*
X121301047Y-54094047D01*
X104917714Y-54427380D02*
X104917714Y-53427380D01*
X104584380Y-54141666D01*
X104251047Y-53427380D01*
X104251047Y-54427380D01*
X103870095Y-53427380D02*
X103203428Y-54427380D01*
X103203428Y-53427380D02*
X103870095Y-54427380D01*
X102917714Y-53427380D02*
X102298666Y-53427380D01*
X102632000Y-53808333D01*
X102489142Y-53808333D01*
X102393904Y-53855952D01*
X102346285Y-53903571D01*
X102298666Y-53998809D01*
X102298666Y-54236904D01*
X102346285Y-54332142D01*
X102393904Y-54379761D01*
X102489142Y-54427380D01*
X102774857Y-54427380D01*
X102870095Y-54379761D01*
X102917714Y-54332142D01*
X85867714Y-54427380D02*
X85867714Y-53427380D01*
X85534380Y-54141666D01*
X85201047Y-53427380D01*
X85201047Y-54427380D01*
X84820095Y-53427380D02*
X84153428Y-54427380D01*
X84153428Y-53427380D02*
X84820095Y-54427380D01*
X83820095Y-53522619D02*
X83772476Y-53475000D01*
X83677238Y-53427380D01*
X83439142Y-53427380D01*
X83343904Y-53475000D01*
X83296285Y-53522619D01*
X83248666Y-53617857D01*
X83248666Y-53713095D01*
X83296285Y-53855952D01*
X83867714Y-54427380D01*
X83248666Y-54427380D01*
X66817714Y-54427380D02*
X66817714Y-53427380D01*
X66484380Y-54141666D01*
X66151047Y-53427380D01*
X66151047Y-54427380D01*
X65770095Y-53427380D02*
X65103428Y-54427380D01*
X65103428Y-53427380D02*
X65770095Y-54427380D01*
X64198666Y-54427380D02*
X64770095Y-54427380D01*
X64484380Y-54427380D02*
X64484380Y-53427380D01*
X64579619Y-53570238D01*
X64674857Y-53665476D01*
X64770095Y-53713095D01*
M02*
