M48
; DRILL file {KiCad (5.1.4-0-10_14)} date Sunday, June 07, 2020 at 09:29:04 PM
; FORMAT={-:-/ absolute / metric / decimal}
; #@! TF.CreationDate,2020-06-07T21:29:04-05:00
; #@! TF.GenerationSoftware,Kicad,Pcbnew,(5.1.4-0-10_14)
FMAT,2
METRIC
T1C0.400
T2C0.700
T3C0.800
T4C1.100
T5C1.750
T6C3.000
T7C3.048
T8C3.988
%
G90
G05
T1
X58.42Y-50.8
X63.119Y-70.612
X63.146Y-65.251
X67.945Y-83.82
X70.739Y-92.964
X73.66Y-45.847
X77.47Y-51.308
X79.756Y-67.437
X81.28Y-52.832
X83.312Y-45.847
X86.995Y-84.074
X94.361Y-48.387
X98.806Y-67.437
X106.045Y-82.804
X115.57Y-51.435
X117.856Y-67.437
X121.539Y-45.466
X121.539Y-63.373
X122.301Y-84.963
X125.095Y-83.312
X134.747Y-51.435
X137.033Y-67.437
X146.177Y-86.487
X153.67Y-51.562
X155.956Y-67.437
X159.131Y-96.52
X172.72Y-51.308
X175.006Y-67.437
X177.292Y-44.196
X177.292Y-63.5
X177.292Y-84.201
X179.832Y-86.487
X191.77Y-50.927
X194.056Y-67.437
X198.882Y-86.487
X210.82Y-51.562
X213.233Y-67.437
X217.932Y-86.487
X229.87Y-50.8
X232.283Y-67.437
X235.204Y-42.037
X235.204Y-62.738
X236.982Y-86.487
X240.665Y-81.534
T2
X95.885Y-53.467
X100.965Y-53.467
T3
X252.222Y-91.567
X252.222Y-95.377
X76.073Y-72.517
X76.073Y-76.327
X223.647Y-53.467
X223.647Y-57.277
X185.547Y-53.467
X185.547Y-57.277
X147.447Y-53.34
X166.497Y-95.25
X147.447Y-57.15
X166.497Y-91.44
X99.822Y-91.567
X99.822Y-95.377
X109.347Y-53.467
X109.347Y-57.277
X73.66Y-51.435
X73.66Y-55.245
X114.173Y-72.517
X114.173Y-76.327
X195.072Y-91.567
X195.072Y-95.377
X204.597Y-53.467
X204.597Y-57.277
X228.346Y-72.517
X228.346Y-76.327
X190.373Y-72.517
X190.373Y-76.327
X133.096Y-72.517
X133.096Y-76.327
X95.123Y-72.517
X95.123Y-76.327
X214.122Y-95.377
X90.678Y-53.467
X90.678Y-57.277
X242.697Y-53.467
X242.697Y-57.277
X214.122Y-91.567
X118.999Y-91.567
X118.999Y-95.377
X128.397Y-53.467
X128.397Y-57.277
X209.296Y-72.517
X209.296Y-76.327
X166.497Y-53.467
X166.497Y-57.277
X247.396Y-72.517
X247.396Y-76.327
X138.049Y-95.377
X138.049Y-91.567
X152.146Y-72.517
X152.146Y-76.327
X80.899Y-91.567
X80.899Y-95.377
X233.172Y-91.567
X233.172Y-95.377
X171.323Y-72.39
X171.323Y-76.2
T4
X57.277Y-42.926
X57.277Y-58.166
X59.817Y-42.926
X59.817Y-58.166
X62.357Y-42.926
X62.357Y-58.166
X64.897Y-42.926
X64.897Y-58.166
X67.437Y-42.926
X67.437Y-58.166
X69.977Y-42.926
X69.977Y-58.166
X72.517Y-42.926
X72.517Y-58.166
X75.057Y-42.926
X75.057Y-58.166
X77.597Y-42.926
X77.597Y-58.166
X80.137Y-42.926
X80.137Y-58.166
X82.677Y-42.926
X82.677Y-58.166
X85.217Y-42.926
X85.217Y-58.166
T5
X127.127Y-89.027
X137.287Y-89.027
X155.702Y-50.927
X165.862Y-50.927
X98.552Y-50.927
X108.712Y-50.927
X84.201Y-69.977
X94.361Y-69.977
X179.451Y-69.977
X189.611Y-69.977
X155.702Y-89.027
X165.862Y-89.027
X122.301Y-69.977
X132.461Y-69.977
X193.802Y-50.927
X75.311Y-69.977
X65.151Y-69.977
X203.962Y-50.927
X184.277Y-89.027
X194.437Y-89.027
X136.652Y-50.927
X146.812Y-50.927
X236.601Y-69.977
X246.761Y-69.977
X79.502Y-50.927
X118.237Y-89.027
X89.662Y-50.927
X108.077Y-89.027
X241.427Y-89.027
X251.587Y-89.027
X160.401Y-69.977
X170.561Y-69.977
X117.602Y-50.927
X127.762Y-50.927
X60.452Y-50.927
X70.612Y-50.927
X141.351Y-69.977
X151.511Y-69.977
X103.251Y-69.977
X113.411Y-69.977
X222.377Y-89.027
X232.537Y-89.027
X89.027Y-89.027
X99.187Y-89.027
X217.551Y-69.977
X227.711Y-69.977
X231.902Y-50.927
X242.062Y-50.927
X174.752Y-50.927
X184.912Y-50.927
X198.501Y-69.977
X208.661Y-69.977
X212.852Y-50.927
X223.012Y-50.927
X69.977Y-89.027
X80.137Y-89.027
X203.327Y-89.027
X213.487Y-89.027
T6
X134.747Y-83.947
X156.972Y-48.387
X163.322Y-45.847
X199.771Y-67.437
X206.121Y-64.897
X71.247Y-86.487
X214.122Y-48.387
X220.472Y-45.847
X77.597Y-83.947
X180.721Y-67.437
X187.071Y-64.897
X204.597Y-86.487
X106.172Y-45.847
X85.471Y-67.437
X91.821Y-64.897
X128.397Y-86.487
X99.822Y-48.387
X210.947Y-83.947
X156.972Y-86.487
X163.322Y-83.947
X123.571Y-67.437
X129.921Y-64.897
X109.347Y-86.487
X80.772Y-48.387
X87.122Y-45.847
X115.697Y-83.947
X242.697Y-86.487
X249.047Y-83.947
X137.922Y-48.387
X144.272Y-45.847
X237.871Y-67.437
X244.221Y-64.897
X195.072Y-48.387
X185.547Y-86.487
X72.771Y-64.897
X201.422Y-45.847
X66.421Y-67.437
X191.897Y-83.947
X142.621Y-67.437
X148.971Y-64.897
X218.821Y-67.437
X225.171Y-64.897
X161.671Y-67.437
X168.021Y-64.897
X104.521Y-67.437
X233.172Y-48.387
X229.997Y-83.947
X96.647Y-83.947
X118.872Y-48.387
X223.647Y-86.487
X110.871Y-64.897
X125.222Y-45.847
X90.297Y-86.487
X176.022Y-48.387
X61.722Y-48.387
X239.522Y-45.847
X182.372Y-45.847
X68.072Y-45.847
T7
X148.844Y-96.012
X172.72Y-96.012
T8
X203.581Y-69.977
X75.057Y-89.027
X132.207Y-89.027
X208.407Y-89.027
X217.932Y-50.927
X89.281Y-69.977
X127.381Y-69.977
X241.681Y-69.977
X160.782Y-89.027
X246.507Y-89.027
X198.882Y-50.927
X141.732Y-50.927
X113.157Y-89.027
X70.231Y-69.977
X184.531Y-69.977
X189.357Y-89.027
X84.582Y-50.927
X148.844Y-80.772
X172.72Y-80.772
X146.431Y-69.977
X94.107Y-89.027
X108.331Y-69.977
X122.682Y-50.927
X227.457Y-89.027
X179.832Y-50.927
X65.532Y-50.927
X222.631Y-69.977
X165.481Y-69.977
X236.982Y-50.927
X160.782Y-50.927
X103.632Y-50.927
T0
M30
