G04 #@! TF.GenerationSoftware,KiCad,Pcbnew,(5.1.4-0-10_14)*
G04 #@! TF.CreationDate,2020-06-19T11:18:16-05:00*
G04 #@! TF.ProjectId,omega_solder,6f6d6567-615f-4736-9f6c-6465722e6b69,rev?*
G04 #@! TF.SameCoordinates,Original*
G04 #@! TF.FileFunction,Legend,Bot*
G04 #@! TF.FilePolarity,Positive*
%FSLAX46Y46*%
G04 Gerber Fmt 4.6, Leading zero omitted, Abs format (unit mm)*
G04 Created by KiCad (PCBNEW (5.1.4-0-10_14)) date 2020-06-19 11:18:16*
%MOMM*%
%LPD*%
G04 APERTURE LIST*
%ADD10C,0.120000*%
%ADD11C,0.150000*%
G04 APERTURE END LIST*
D10*
X105029000Y-54991000D02*
G75*
G03X105029000Y-54991000I-127000J0D01*
G01*
X178612800Y-93542629D02*
X178612800Y-92159000D01*
X179939171Y-94869000D02*
G75*
G03X179939171Y-94869000I-1326371J0D01*
G01*
X96505000Y-52547000D02*
X100345000Y-52547000D01*
X96505000Y-54387000D02*
X100345000Y-54387000D01*
X253492000Y-93542629D02*
X253492000Y-92159000D01*
X254818371Y-94869000D02*
G75*
G03X254818371Y-94869000I-1326371J0D01*
G01*
X235712000Y-93542629D02*
X235712000Y-92159000D01*
X237038371Y-94869000D02*
G75*
G03X237038371Y-94869000I-1326371J0D01*
G01*
X216662000Y-93542629D02*
X216662000Y-92159000D01*
X217988371Y-94869000D02*
G75*
G03X217988371Y-94869000I-1326371J0D01*
G01*
X197612000Y-93542629D02*
X197612000Y-92159000D01*
X198938371Y-94869000D02*
G75*
G03X198938371Y-94869000I-1326371J0D01*
G01*
X157861000Y-94114129D02*
X157861000Y-92730500D01*
X159187371Y-95440500D02*
G75*
G03X159187371Y-95440500I-1326371J0D01*
G01*
X140462000Y-93542629D02*
X140462000Y-92159000D01*
X141788371Y-94869000D02*
G75*
G03X141788371Y-94869000I-1326371J0D01*
G01*
X121412000Y-93542629D02*
X121412000Y-92159000D01*
X122738371Y-94869000D02*
G75*
G03X122738371Y-94869000I-1326371J0D01*
G01*
X102362000Y-93542629D02*
X102362000Y-92159000D01*
X103688371Y-94869000D02*
G75*
G03X103688371Y-94869000I-1326371J0D01*
G01*
X83312000Y-93542629D02*
X83312000Y-92159000D01*
X84638371Y-94869000D02*
G75*
G03X84638371Y-94869000I-1326371J0D01*
G01*
X248666000Y-74492629D02*
X248666000Y-73109000D01*
X249992371Y-75819000D02*
G75*
G03X249992371Y-75819000I-1326371J0D01*
G01*
X230886000Y-74492629D02*
X230886000Y-73109000D01*
X232212371Y-75819000D02*
G75*
G03X232212371Y-75819000I-1326371J0D01*
G01*
X211836000Y-74492629D02*
X211836000Y-73109000D01*
X213162371Y-75819000D02*
G75*
G03X213162371Y-75819000I-1326371J0D01*
G01*
X192786000Y-74492629D02*
X192786000Y-73109000D01*
X194112371Y-75819000D02*
G75*
G03X194112371Y-75819000I-1326371J0D01*
G01*
X173736000Y-74492629D02*
X173736000Y-73109000D01*
X175062371Y-75819000D02*
G75*
G03X175062371Y-75819000I-1326371J0D01*
G01*
X154686000Y-74492629D02*
X154686000Y-73109000D01*
X156012371Y-75819000D02*
G75*
G03X156012371Y-75819000I-1326371J0D01*
G01*
X135636000Y-74492629D02*
X135636000Y-73109000D01*
X136962371Y-75819000D02*
G75*
G03X136962371Y-75819000I-1326371J0D01*
G01*
X116586000Y-74492629D02*
X116586000Y-73109000D01*
X117912371Y-75819000D02*
G75*
G03X117912371Y-75819000I-1326371J0D01*
G01*
X97536000Y-74492629D02*
X97536000Y-73109000D01*
X98862371Y-75819000D02*
G75*
G03X98862371Y-75819000I-1326371J0D01*
G01*
X78486000Y-74492629D02*
X78486000Y-73109000D01*
X79812371Y-75819000D02*
G75*
G03X79812371Y-75819000I-1326371J0D01*
G01*
X243967000Y-55442629D02*
X243967000Y-54059000D01*
X245293371Y-56769000D02*
G75*
G03X245293371Y-56769000I-1326371J0D01*
G01*
X226187000Y-55442629D02*
X226187000Y-54059000D01*
X227513371Y-56769000D02*
G75*
G03X227513371Y-56769000I-1326371J0D01*
G01*
X207137000Y-55442629D02*
X207137000Y-54059000D01*
X208463371Y-56769000D02*
G75*
G03X208463371Y-56769000I-1326371J0D01*
G01*
X188087000Y-55442629D02*
X188087000Y-54059000D01*
X189413371Y-56769000D02*
G75*
G03X189413371Y-56769000I-1326371J0D01*
G01*
X169037000Y-55442629D02*
X169037000Y-54059000D01*
X170363371Y-56769000D02*
G75*
G03X170363371Y-56769000I-1326371J0D01*
G01*
X149987000Y-55442629D02*
X149987000Y-54059000D01*
X151313371Y-56769000D02*
G75*
G03X151313371Y-56769000I-1326371J0D01*
G01*
X130937000Y-55442629D02*
X130937000Y-54059000D01*
X132263371Y-56769000D02*
G75*
G03X132263371Y-56769000I-1326371J0D01*
G01*
X111887000Y-55442629D02*
X111887000Y-54059000D01*
X113213371Y-56769000D02*
G75*
G03X113213371Y-56769000I-1326371J0D01*
G01*
X92837000Y-55442629D02*
X92837000Y-54059000D01*
X94163371Y-56769000D02*
G75*
G03X94163371Y-56769000I-1326371J0D01*
G01*
X73660000Y-53918629D02*
X73660000Y-52535000D01*
X74986371Y-55245000D02*
G75*
G03X74986371Y-55245000I-1326371J0D01*
G01*
D11*
X86487000Y-59436000D02*
X86487000Y-41656000D01*
X56007000Y-59436000D02*
X86487000Y-59436000D01*
X56007000Y-54356000D02*
X56007000Y-59436000D01*
X53467000Y-54356000D02*
X56007000Y-54356000D01*
X53467000Y-46736000D02*
X53467000Y-54356000D01*
X56007000Y-46736000D02*
X53467000Y-46736000D01*
X56007000Y-41656000D02*
X56007000Y-46736000D01*
X56007000Y-41656000D02*
X86487000Y-41656000D01*
X101838000Y-57531000D02*
G75*
G03X101838000Y-57531000I-1000000J0D01*
G01*
X98238000Y-54931000D02*
X98238000Y-60131000D01*
X103438000Y-54931000D02*
X98238000Y-54931000D01*
X103438000Y-60131000D02*
X103438000Y-54931000D01*
X98238000Y-60131000D02*
X103438000Y-60131000D01*
X181391551Y-91749714D02*
X180391551Y-91749714D01*
X180391551Y-91987809D01*
X180439171Y-92130666D01*
X180534409Y-92225904D01*
X180629647Y-92273523D01*
X180820123Y-92321142D01*
X180962980Y-92321142D01*
X181153456Y-92273523D01*
X181248694Y-92225904D01*
X181343932Y-92130666D01*
X181391551Y-91987809D01*
X181391551Y-91749714D01*
X180486790Y-92702095D02*
X180439171Y-92749714D01*
X180391551Y-92844952D01*
X180391551Y-93083047D01*
X180439171Y-93178285D01*
X180486790Y-93225904D01*
X180582028Y-93273523D01*
X180677266Y-93273523D01*
X180820123Y-93225904D01*
X181391551Y-92654476D01*
X181391551Y-93273523D01*
X180391551Y-94130666D02*
X180391551Y-93940190D01*
X180439171Y-93844952D01*
X180486790Y-93797333D01*
X180629647Y-93702095D01*
X180820123Y-93654476D01*
X181201075Y-93654476D01*
X181296313Y-93702095D01*
X181343932Y-93749714D01*
X181391551Y-93844952D01*
X181391551Y-94035428D01*
X181343932Y-94130666D01*
X181296313Y-94178285D01*
X181201075Y-94225904D01*
X180962980Y-94225904D01*
X180867742Y-94178285D01*
X180820123Y-94130666D01*
X180772504Y-94035428D01*
X180772504Y-93844952D01*
X180820123Y-93749714D01*
X180867742Y-93702095D01*
X180962980Y-93654476D01*
X177979466Y-92320904D02*
X177979466Y-92797095D01*
X178265180Y-92225666D02*
X177265180Y-92559000D01*
X178265180Y-92892333D01*
X98591666Y-53919380D02*
X98925000Y-53443190D01*
X99163095Y-53919380D02*
X99163095Y-52919380D01*
X98782142Y-52919380D01*
X98686904Y-52967000D01*
X98639285Y-53014619D01*
X98591666Y-53109857D01*
X98591666Y-53252714D01*
X98639285Y-53347952D01*
X98686904Y-53395571D01*
X98782142Y-53443190D01*
X99163095Y-53443190D01*
X97639285Y-53919380D02*
X98210714Y-53919380D01*
X97925000Y-53919380D02*
X97925000Y-52919380D01*
X98020238Y-53062238D01*
X98115476Y-53157476D01*
X98210714Y-53205095D01*
X256270751Y-91749714D02*
X255270751Y-91749714D01*
X255270751Y-91987809D01*
X255318371Y-92130666D01*
X255413609Y-92225904D01*
X255508847Y-92273523D01*
X255699323Y-92321142D01*
X255842180Y-92321142D01*
X256032656Y-92273523D01*
X256127894Y-92225904D01*
X256223132Y-92130666D01*
X256270751Y-91987809D01*
X256270751Y-91749714D01*
X255270751Y-92654476D02*
X255270751Y-93273523D01*
X255651704Y-92940190D01*
X255651704Y-93083047D01*
X255699323Y-93178285D01*
X255746942Y-93225904D01*
X255842180Y-93273523D01*
X256080275Y-93273523D01*
X256175513Y-93225904D01*
X256223132Y-93178285D01*
X256270751Y-93083047D01*
X256270751Y-92797333D01*
X256223132Y-92702095D01*
X256175513Y-92654476D01*
X255270751Y-93892571D02*
X255270751Y-93987809D01*
X255318371Y-94083047D01*
X255365990Y-94130666D01*
X255461228Y-94178285D01*
X255651704Y-94225904D01*
X255889799Y-94225904D01*
X256080275Y-94178285D01*
X256175513Y-94130666D01*
X256223132Y-94083047D01*
X256270751Y-93987809D01*
X256270751Y-93892571D01*
X256223132Y-93797333D01*
X256175513Y-93749714D01*
X256080275Y-93702095D01*
X255889799Y-93654476D01*
X255651704Y-93654476D01*
X255461228Y-93702095D01*
X255365990Y-93749714D01*
X255318371Y-93797333D01*
X255270751Y-93892571D01*
X252858666Y-92320904D02*
X252858666Y-92797095D01*
X253144380Y-92225666D02*
X252144380Y-92559000D01*
X253144380Y-92892333D01*
X238490751Y-91749714D02*
X237490751Y-91749714D01*
X237490751Y-91987809D01*
X237538371Y-92130666D01*
X237633609Y-92225904D01*
X237728847Y-92273523D01*
X237919323Y-92321142D01*
X238062180Y-92321142D01*
X238252656Y-92273523D01*
X238347894Y-92225904D01*
X238443132Y-92130666D01*
X238490751Y-91987809D01*
X238490751Y-91749714D01*
X237585990Y-92702095D02*
X237538371Y-92749714D01*
X237490751Y-92844952D01*
X237490751Y-93083047D01*
X237538371Y-93178285D01*
X237585990Y-93225904D01*
X237681228Y-93273523D01*
X237776466Y-93273523D01*
X237919323Y-93225904D01*
X238490751Y-92654476D01*
X238490751Y-93273523D01*
X238490751Y-93749714D02*
X238490751Y-93940190D01*
X238443132Y-94035428D01*
X238395513Y-94083047D01*
X238252656Y-94178285D01*
X238062180Y-94225904D01*
X237681228Y-94225904D01*
X237585990Y-94178285D01*
X237538371Y-94130666D01*
X237490751Y-94035428D01*
X237490751Y-93844952D01*
X237538371Y-93749714D01*
X237585990Y-93702095D01*
X237681228Y-93654476D01*
X237919323Y-93654476D01*
X238014561Y-93702095D01*
X238062180Y-93749714D01*
X238109799Y-93844952D01*
X238109799Y-94035428D01*
X238062180Y-94130666D01*
X238014561Y-94178285D01*
X237919323Y-94225904D01*
X235078666Y-92320904D02*
X235078666Y-92797095D01*
X235364380Y-92225666D02*
X234364380Y-92559000D01*
X235364380Y-92892333D01*
X219440751Y-91749714D02*
X218440751Y-91749714D01*
X218440751Y-91987809D01*
X218488371Y-92130666D01*
X218583609Y-92225904D01*
X218678847Y-92273523D01*
X218869323Y-92321142D01*
X219012180Y-92321142D01*
X219202656Y-92273523D01*
X219297894Y-92225904D01*
X219393132Y-92130666D01*
X219440751Y-91987809D01*
X219440751Y-91749714D01*
X218535990Y-92702095D02*
X218488371Y-92749714D01*
X218440751Y-92844952D01*
X218440751Y-93083047D01*
X218488371Y-93178285D01*
X218535990Y-93225904D01*
X218631228Y-93273523D01*
X218726466Y-93273523D01*
X218869323Y-93225904D01*
X219440751Y-92654476D01*
X219440751Y-93273523D01*
X218869323Y-93844952D02*
X218821704Y-93749714D01*
X218774085Y-93702095D01*
X218678847Y-93654476D01*
X218631228Y-93654476D01*
X218535990Y-93702095D01*
X218488371Y-93749714D01*
X218440751Y-93844952D01*
X218440751Y-94035428D01*
X218488371Y-94130666D01*
X218535990Y-94178285D01*
X218631228Y-94225904D01*
X218678847Y-94225904D01*
X218774085Y-94178285D01*
X218821704Y-94130666D01*
X218869323Y-94035428D01*
X218869323Y-93844952D01*
X218916942Y-93749714D01*
X218964561Y-93702095D01*
X219059799Y-93654476D01*
X219250275Y-93654476D01*
X219345513Y-93702095D01*
X219393132Y-93749714D01*
X219440751Y-93844952D01*
X219440751Y-94035428D01*
X219393132Y-94130666D01*
X219345513Y-94178285D01*
X219250275Y-94225904D01*
X219059799Y-94225904D01*
X218964561Y-94178285D01*
X218916942Y-94130666D01*
X218869323Y-94035428D01*
X216028666Y-92320904D02*
X216028666Y-92797095D01*
X216314380Y-92225666D02*
X215314380Y-92559000D01*
X216314380Y-92892333D01*
X200390751Y-91749714D02*
X199390751Y-91749714D01*
X199390751Y-91987809D01*
X199438371Y-92130666D01*
X199533609Y-92225904D01*
X199628847Y-92273523D01*
X199819323Y-92321142D01*
X199962180Y-92321142D01*
X200152656Y-92273523D01*
X200247894Y-92225904D01*
X200343132Y-92130666D01*
X200390751Y-91987809D01*
X200390751Y-91749714D01*
X199485990Y-92702095D02*
X199438371Y-92749714D01*
X199390751Y-92844952D01*
X199390751Y-93083047D01*
X199438371Y-93178285D01*
X199485990Y-93225904D01*
X199581228Y-93273523D01*
X199676466Y-93273523D01*
X199819323Y-93225904D01*
X200390751Y-92654476D01*
X200390751Y-93273523D01*
X199390751Y-93606857D02*
X199390751Y-94273523D01*
X200390751Y-93844952D01*
X196978666Y-92320904D02*
X196978666Y-92797095D01*
X197264380Y-92225666D02*
X196264380Y-92559000D01*
X197264380Y-92892333D01*
X160639751Y-92321214D02*
X159639751Y-92321214D01*
X159639751Y-92559309D01*
X159687371Y-92702166D01*
X159782609Y-92797404D01*
X159877847Y-92845023D01*
X160068323Y-92892642D01*
X160211180Y-92892642D01*
X160401656Y-92845023D01*
X160496894Y-92797404D01*
X160592132Y-92702166D01*
X160639751Y-92559309D01*
X160639751Y-92321214D01*
X159734990Y-93273595D02*
X159687371Y-93321214D01*
X159639751Y-93416452D01*
X159639751Y-93654547D01*
X159687371Y-93749785D01*
X159734990Y-93797404D01*
X159830228Y-93845023D01*
X159925466Y-93845023D01*
X160068323Y-93797404D01*
X160639751Y-93225976D01*
X160639751Y-93845023D01*
X159639751Y-94749785D02*
X159639751Y-94273595D01*
X160115942Y-94225976D01*
X160068323Y-94273595D01*
X160020704Y-94368833D01*
X160020704Y-94606928D01*
X160068323Y-94702166D01*
X160115942Y-94749785D01*
X160211180Y-94797404D01*
X160449275Y-94797404D01*
X160544513Y-94749785D01*
X160592132Y-94702166D01*
X160639751Y-94606928D01*
X160639751Y-94368833D01*
X160592132Y-94273595D01*
X160544513Y-94225976D01*
X157227666Y-92892404D02*
X157227666Y-93368595D01*
X157513380Y-92797166D02*
X156513380Y-93130500D01*
X157513380Y-93463833D01*
X143240751Y-91749714D02*
X142240751Y-91749714D01*
X142240751Y-91987809D01*
X142288371Y-92130666D01*
X142383609Y-92225904D01*
X142478847Y-92273523D01*
X142669323Y-92321142D01*
X142812180Y-92321142D01*
X143002656Y-92273523D01*
X143097894Y-92225904D01*
X143193132Y-92130666D01*
X143240751Y-91987809D01*
X143240751Y-91749714D01*
X142335990Y-92702095D02*
X142288371Y-92749714D01*
X142240751Y-92844952D01*
X142240751Y-93083047D01*
X142288371Y-93178285D01*
X142335990Y-93225904D01*
X142431228Y-93273523D01*
X142526466Y-93273523D01*
X142669323Y-93225904D01*
X143240751Y-92654476D01*
X143240751Y-93273523D01*
X142574085Y-94130666D02*
X143240751Y-94130666D01*
X142193132Y-93892571D02*
X142907418Y-93654476D01*
X142907418Y-94273523D01*
X139828666Y-92320904D02*
X139828666Y-92797095D01*
X140114380Y-92225666D02*
X139114380Y-92559000D01*
X140114380Y-92892333D01*
X124190751Y-91749714D02*
X123190751Y-91749714D01*
X123190751Y-91987809D01*
X123238371Y-92130666D01*
X123333609Y-92225904D01*
X123428847Y-92273523D01*
X123619323Y-92321142D01*
X123762180Y-92321142D01*
X123952656Y-92273523D01*
X124047894Y-92225904D01*
X124143132Y-92130666D01*
X124190751Y-91987809D01*
X124190751Y-91749714D01*
X123285990Y-92702095D02*
X123238371Y-92749714D01*
X123190751Y-92844952D01*
X123190751Y-93083047D01*
X123238371Y-93178285D01*
X123285990Y-93225904D01*
X123381228Y-93273523D01*
X123476466Y-93273523D01*
X123619323Y-93225904D01*
X124190751Y-92654476D01*
X124190751Y-93273523D01*
X123190751Y-93606857D02*
X123190751Y-94225904D01*
X123571704Y-93892571D01*
X123571704Y-94035428D01*
X123619323Y-94130666D01*
X123666942Y-94178285D01*
X123762180Y-94225904D01*
X124000275Y-94225904D01*
X124095513Y-94178285D01*
X124143132Y-94130666D01*
X124190751Y-94035428D01*
X124190751Y-93749714D01*
X124143132Y-93654476D01*
X124095513Y-93606857D01*
X120778666Y-92320904D02*
X120778666Y-92797095D01*
X121064380Y-92225666D02*
X120064380Y-92559000D01*
X121064380Y-92892333D01*
X105140751Y-91749714D02*
X104140751Y-91749714D01*
X104140751Y-91987809D01*
X104188371Y-92130666D01*
X104283609Y-92225904D01*
X104378847Y-92273523D01*
X104569323Y-92321142D01*
X104712180Y-92321142D01*
X104902656Y-92273523D01*
X104997894Y-92225904D01*
X105093132Y-92130666D01*
X105140751Y-91987809D01*
X105140751Y-91749714D01*
X104235990Y-92702095D02*
X104188371Y-92749714D01*
X104140751Y-92844952D01*
X104140751Y-93083047D01*
X104188371Y-93178285D01*
X104235990Y-93225904D01*
X104331228Y-93273523D01*
X104426466Y-93273523D01*
X104569323Y-93225904D01*
X105140751Y-92654476D01*
X105140751Y-93273523D01*
X104235990Y-93654476D02*
X104188371Y-93702095D01*
X104140751Y-93797333D01*
X104140751Y-94035428D01*
X104188371Y-94130666D01*
X104235990Y-94178285D01*
X104331228Y-94225904D01*
X104426466Y-94225904D01*
X104569323Y-94178285D01*
X105140751Y-93606857D01*
X105140751Y-94225904D01*
X101728666Y-92320904D02*
X101728666Y-92797095D01*
X102014380Y-92225666D02*
X101014380Y-92559000D01*
X102014380Y-92892333D01*
X86090751Y-91749714D02*
X85090751Y-91749714D01*
X85090751Y-91987809D01*
X85138371Y-92130666D01*
X85233609Y-92225904D01*
X85328847Y-92273523D01*
X85519323Y-92321142D01*
X85662180Y-92321142D01*
X85852656Y-92273523D01*
X85947894Y-92225904D01*
X86043132Y-92130666D01*
X86090751Y-91987809D01*
X86090751Y-91749714D01*
X85185990Y-92702095D02*
X85138371Y-92749714D01*
X85090751Y-92844952D01*
X85090751Y-93083047D01*
X85138371Y-93178285D01*
X85185990Y-93225904D01*
X85281228Y-93273523D01*
X85376466Y-93273523D01*
X85519323Y-93225904D01*
X86090751Y-92654476D01*
X86090751Y-93273523D01*
X86090751Y-94225904D02*
X86090751Y-93654476D01*
X86090751Y-93940190D02*
X85090751Y-93940190D01*
X85233609Y-93844952D01*
X85328847Y-93749714D01*
X85376466Y-93654476D01*
X82678666Y-92320904D02*
X82678666Y-92797095D01*
X82964380Y-92225666D02*
X81964380Y-92559000D01*
X82964380Y-92892333D01*
X251444751Y-72699714D02*
X250444751Y-72699714D01*
X250444751Y-72937809D01*
X250492371Y-73080666D01*
X250587609Y-73175904D01*
X250682847Y-73223523D01*
X250873323Y-73271142D01*
X251016180Y-73271142D01*
X251206656Y-73223523D01*
X251301894Y-73175904D01*
X251397132Y-73080666D01*
X251444751Y-72937809D01*
X251444751Y-72699714D01*
X250539990Y-73652095D02*
X250492371Y-73699714D01*
X250444751Y-73794952D01*
X250444751Y-74033047D01*
X250492371Y-74128285D01*
X250539990Y-74175904D01*
X250635228Y-74223523D01*
X250730466Y-74223523D01*
X250873323Y-74175904D01*
X251444751Y-73604476D01*
X251444751Y-74223523D01*
X250444751Y-74842571D02*
X250444751Y-74937809D01*
X250492371Y-75033047D01*
X250539990Y-75080666D01*
X250635228Y-75128285D01*
X250825704Y-75175904D01*
X251063799Y-75175904D01*
X251254275Y-75128285D01*
X251349513Y-75080666D01*
X251397132Y-75033047D01*
X251444751Y-74937809D01*
X251444751Y-74842571D01*
X251397132Y-74747333D01*
X251349513Y-74699714D01*
X251254275Y-74652095D01*
X251063799Y-74604476D01*
X250825704Y-74604476D01*
X250635228Y-74652095D01*
X250539990Y-74699714D01*
X250492371Y-74747333D01*
X250444751Y-74842571D01*
X248032666Y-73270904D02*
X248032666Y-73747095D01*
X248318380Y-73175666D02*
X247318380Y-73509000D01*
X248318380Y-73842333D01*
X233664751Y-72699714D02*
X232664751Y-72699714D01*
X232664751Y-72937809D01*
X232712371Y-73080666D01*
X232807609Y-73175904D01*
X232902847Y-73223523D01*
X233093323Y-73271142D01*
X233236180Y-73271142D01*
X233426656Y-73223523D01*
X233521894Y-73175904D01*
X233617132Y-73080666D01*
X233664751Y-72937809D01*
X233664751Y-72699714D01*
X233664751Y-74223523D02*
X233664751Y-73652095D01*
X233664751Y-73937809D02*
X232664751Y-73937809D01*
X232807609Y-73842571D01*
X232902847Y-73747333D01*
X232950466Y-73652095D01*
X233664751Y-74699714D02*
X233664751Y-74890190D01*
X233617132Y-74985428D01*
X233569513Y-75033047D01*
X233426656Y-75128285D01*
X233236180Y-75175904D01*
X232855228Y-75175904D01*
X232759990Y-75128285D01*
X232712371Y-75080666D01*
X232664751Y-74985428D01*
X232664751Y-74794952D01*
X232712371Y-74699714D01*
X232759990Y-74652095D01*
X232855228Y-74604476D01*
X233093323Y-74604476D01*
X233188561Y-74652095D01*
X233236180Y-74699714D01*
X233283799Y-74794952D01*
X233283799Y-74985428D01*
X233236180Y-75080666D01*
X233188561Y-75128285D01*
X233093323Y-75175904D01*
X230252666Y-73270904D02*
X230252666Y-73747095D01*
X230538380Y-73175666D02*
X229538380Y-73509000D01*
X230538380Y-73842333D01*
X214614751Y-72699714D02*
X213614751Y-72699714D01*
X213614751Y-72937809D01*
X213662371Y-73080666D01*
X213757609Y-73175904D01*
X213852847Y-73223523D01*
X214043323Y-73271142D01*
X214186180Y-73271142D01*
X214376656Y-73223523D01*
X214471894Y-73175904D01*
X214567132Y-73080666D01*
X214614751Y-72937809D01*
X214614751Y-72699714D01*
X214614751Y-74223523D02*
X214614751Y-73652095D01*
X214614751Y-73937809D02*
X213614751Y-73937809D01*
X213757609Y-73842571D01*
X213852847Y-73747333D01*
X213900466Y-73652095D01*
X214043323Y-74794952D02*
X213995704Y-74699714D01*
X213948085Y-74652095D01*
X213852847Y-74604476D01*
X213805228Y-74604476D01*
X213709990Y-74652095D01*
X213662371Y-74699714D01*
X213614751Y-74794952D01*
X213614751Y-74985428D01*
X213662371Y-75080666D01*
X213709990Y-75128285D01*
X213805228Y-75175904D01*
X213852847Y-75175904D01*
X213948085Y-75128285D01*
X213995704Y-75080666D01*
X214043323Y-74985428D01*
X214043323Y-74794952D01*
X214090942Y-74699714D01*
X214138561Y-74652095D01*
X214233799Y-74604476D01*
X214424275Y-74604476D01*
X214519513Y-74652095D01*
X214567132Y-74699714D01*
X214614751Y-74794952D01*
X214614751Y-74985428D01*
X214567132Y-75080666D01*
X214519513Y-75128285D01*
X214424275Y-75175904D01*
X214233799Y-75175904D01*
X214138561Y-75128285D01*
X214090942Y-75080666D01*
X214043323Y-74985428D01*
X211202666Y-73270904D02*
X211202666Y-73747095D01*
X211488380Y-73175666D02*
X210488380Y-73509000D01*
X211488380Y-73842333D01*
X195564751Y-72699714D02*
X194564751Y-72699714D01*
X194564751Y-72937809D01*
X194612371Y-73080666D01*
X194707609Y-73175904D01*
X194802847Y-73223523D01*
X194993323Y-73271142D01*
X195136180Y-73271142D01*
X195326656Y-73223523D01*
X195421894Y-73175904D01*
X195517132Y-73080666D01*
X195564751Y-72937809D01*
X195564751Y-72699714D01*
X195564751Y-74223523D02*
X195564751Y-73652095D01*
X195564751Y-73937809D02*
X194564751Y-73937809D01*
X194707609Y-73842571D01*
X194802847Y-73747333D01*
X194850466Y-73652095D01*
X194564751Y-74556857D02*
X194564751Y-75223523D01*
X195564751Y-74794952D01*
X192152666Y-73270904D02*
X192152666Y-73747095D01*
X192438380Y-73175666D02*
X191438380Y-73509000D01*
X192438380Y-73842333D01*
X176514751Y-72699714D02*
X175514751Y-72699714D01*
X175514751Y-72937809D01*
X175562371Y-73080666D01*
X175657609Y-73175904D01*
X175752847Y-73223523D01*
X175943323Y-73271142D01*
X176086180Y-73271142D01*
X176276656Y-73223523D01*
X176371894Y-73175904D01*
X176467132Y-73080666D01*
X176514751Y-72937809D01*
X176514751Y-72699714D01*
X176514751Y-74223523D02*
X176514751Y-73652095D01*
X176514751Y-73937809D02*
X175514751Y-73937809D01*
X175657609Y-73842571D01*
X175752847Y-73747333D01*
X175800466Y-73652095D01*
X175514751Y-75080666D02*
X175514751Y-74890190D01*
X175562371Y-74794952D01*
X175609990Y-74747333D01*
X175752847Y-74652095D01*
X175943323Y-74604476D01*
X176324275Y-74604476D01*
X176419513Y-74652095D01*
X176467132Y-74699714D01*
X176514751Y-74794952D01*
X176514751Y-74985428D01*
X176467132Y-75080666D01*
X176419513Y-75128285D01*
X176324275Y-75175904D01*
X176086180Y-75175904D01*
X175990942Y-75128285D01*
X175943323Y-75080666D01*
X175895704Y-74985428D01*
X175895704Y-74794952D01*
X175943323Y-74699714D01*
X175990942Y-74652095D01*
X176086180Y-74604476D01*
X173102666Y-73270904D02*
X173102666Y-73747095D01*
X173388380Y-73175666D02*
X172388380Y-73509000D01*
X173388380Y-73842333D01*
X157464751Y-72699714D02*
X156464751Y-72699714D01*
X156464751Y-72937809D01*
X156512371Y-73080666D01*
X156607609Y-73175904D01*
X156702847Y-73223523D01*
X156893323Y-73271142D01*
X157036180Y-73271142D01*
X157226656Y-73223523D01*
X157321894Y-73175904D01*
X157417132Y-73080666D01*
X157464751Y-72937809D01*
X157464751Y-72699714D01*
X157464751Y-74223523D02*
X157464751Y-73652095D01*
X157464751Y-73937809D02*
X156464751Y-73937809D01*
X156607609Y-73842571D01*
X156702847Y-73747333D01*
X156750466Y-73652095D01*
X156464751Y-75128285D02*
X156464751Y-74652095D01*
X156940942Y-74604476D01*
X156893323Y-74652095D01*
X156845704Y-74747333D01*
X156845704Y-74985428D01*
X156893323Y-75080666D01*
X156940942Y-75128285D01*
X157036180Y-75175904D01*
X157274275Y-75175904D01*
X157369513Y-75128285D01*
X157417132Y-75080666D01*
X157464751Y-74985428D01*
X157464751Y-74747333D01*
X157417132Y-74652095D01*
X157369513Y-74604476D01*
X154052666Y-73270904D02*
X154052666Y-73747095D01*
X154338380Y-73175666D02*
X153338380Y-73509000D01*
X154338380Y-73842333D01*
X138414751Y-72699714D02*
X137414751Y-72699714D01*
X137414751Y-72937809D01*
X137462371Y-73080666D01*
X137557609Y-73175904D01*
X137652847Y-73223523D01*
X137843323Y-73271142D01*
X137986180Y-73271142D01*
X138176656Y-73223523D01*
X138271894Y-73175904D01*
X138367132Y-73080666D01*
X138414751Y-72937809D01*
X138414751Y-72699714D01*
X138414751Y-74223523D02*
X138414751Y-73652095D01*
X138414751Y-73937809D02*
X137414751Y-73937809D01*
X137557609Y-73842571D01*
X137652847Y-73747333D01*
X137700466Y-73652095D01*
X137748085Y-75080666D02*
X138414751Y-75080666D01*
X137367132Y-74842571D02*
X138081418Y-74604476D01*
X138081418Y-75223523D01*
X135002666Y-73270904D02*
X135002666Y-73747095D01*
X135288380Y-73175666D02*
X134288380Y-73509000D01*
X135288380Y-73842333D01*
X119364751Y-72699714D02*
X118364751Y-72699714D01*
X118364751Y-72937809D01*
X118412371Y-73080666D01*
X118507609Y-73175904D01*
X118602847Y-73223523D01*
X118793323Y-73271142D01*
X118936180Y-73271142D01*
X119126656Y-73223523D01*
X119221894Y-73175904D01*
X119317132Y-73080666D01*
X119364751Y-72937809D01*
X119364751Y-72699714D01*
X119364751Y-74223523D02*
X119364751Y-73652095D01*
X119364751Y-73937809D02*
X118364751Y-73937809D01*
X118507609Y-73842571D01*
X118602847Y-73747333D01*
X118650466Y-73652095D01*
X118364751Y-74556857D02*
X118364751Y-75175904D01*
X118745704Y-74842571D01*
X118745704Y-74985428D01*
X118793323Y-75080666D01*
X118840942Y-75128285D01*
X118936180Y-75175904D01*
X119174275Y-75175904D01*
X119269513Y-75128285D01*
X119317132Y-75080666D01*
X119364751Y-74985428D01*
X119364751Y-74699714D01*
X119317132Y-74604476D01*
X119269513Y-74556857D01*
X115952666Y-73270904D02*
X115952666Y-73747095D01*
X116238380Y-73175666D02*
X115238380Y-73509000D01*
X116238380Y-73842333D01*
X100314751Y-72699714D02*
X99314751Y-72699714D01*
X99314751Y-72937809D01*
X99362371Y-73080666D01*
X99457609Y-73175904D01*
X99552847Y-73223523D01*
X99743323Y-73271142D01*
X99886180Y-73271142D01*
X100076656Y-73223523D01*
X100171894Y-73175904D01*
X100267132Y-73080666D01*
X100314751Y-72937809D01*
X100314751Y-72699714D01*
X100314751Y-74223523D02*
X100314751Y-73652095D01*
X100314751Y-73937809D02*
X99314751Y-73937809D01*
X99457609Y-73842571D01*
X99552847Y-73747333D01*
X99600466Y-73652095D01*
X99409990Y-74604476D02*
X99362371Y-74652095D01*
X99314751Y-74747333D01*
X99314751Y-74985428D01*
X99362371Y-75080666D01*
X99409990Y-75128285D01*
X99505228Y-75175904D01*
X99600466Y-75175904D01*
X99743323Y-75128285D01*
X100314751Y-74556857D01*
X100314751Y-75175904D01*
X96902666Y-73270904D02*
X96902666Y-73747095D01*
X97188380Y-73175666D02*
X96188380Y-73509000D01*
X97188380Y-73842333D01*
X81264751Y-72699714D02*
X80264751Y-72699714D01*
X80264751Y-72937809D01*
X80312371Y-73080666D01*
X80407609Y-73175904D01*
X80502847Y-73223523D01*
X80693323Y-73271142D01*
X80836180Y-73271142D01*
X81026656Y-73223523D01*
X81121894Y-73175904D01*
X81217132Y-73080666D01*
X81264751Y-72937809D01*
X81264751Y-72699714D01*
X81264751Y-74223523D02*
X81264751Y-73652095D01*
X81264751Y-73937809D02*
X80264751Y-73937809D01*
X80407609Y-73842571D01*
X80502847Y-73747333D01*
X80550466Y-73652095D01*
X81264751Y-75175904D02*
X81264751Y-74604476D01*
X81264751Y-74890190D02*
X80264751Y-74890190D01*
X80407609Y-74794952D01*
X80502847Y-74699714D01*
X80550466Y-74604476D01*
X77852666Y-73270904D02*
X77852666Y-73747095D01*
X78138380Y-73175666D02*
X77138380Y-73509000D01*
X78138380Y-73842333D01*
X246745751Y-53649714D02*
X245745751Y-53649714D01*
X245745751Y-53887809D01*
X245793371Y-54030666D01*
X245888609Y-54125904D01*
X245983847Y-54173523D01*
X246174323Y-54221142D01*
X246317180Y-54221142D01*
X246507656Y-54173523D01*
X246602894Y-54125904D01*
X246698132Y-54030666D01*
X246745751Y-53887809D01*
X246745751Y-53649714D01*
X246745751Y-55173523D02*
X246745751Y-54602095D01*
X246745751Y-54887809D02*
X245745751Y-54887809D01*
X245888609Y-54792571D01*
X245983847Y-54697333D01*
X246031466Y-54602095D01*
X245745751Y-55792571D02*
X245745751Y-55887809D01*
X245793371Y-55983047D01*
X245840990Y-56030666D01*
X245936228Y-56078285D01*
X246126704Y-56125904D01*
X246364799Y-56125904D01*
X246555275Y-56078285D01*
X246650513Y-56030666D01*
X246698132Y-55983047D01*
X246745751Y-55887809D01*
X246745751Y-55792571D01*
X246698132Y-55697333D01*
X246650513Y-55649714D01*
X246555275Y-55602095D01*
X246364799Y-55554476D01*
X246126704Y-55554476D01*
X245936228Y-55602095D01*
X245840990Y-55649714D01*
X245793371Y-55697333D01*
X245745751Y-55792571D01*
X243333666Y-54220904D02*
X243333666Y-54697095D01*
X243619380Y-54125666D02*
X242619380Y-54459000D01*
X243619380Y-54792333D01*
X228965751Y-54125904D02*
X227965751Y-54125904D01*
X227965751Y-54364000D01*
X228013371Y-54506857D01*
X228108609Y-54602095D01*
X228203847Y-54649714D01*
X228394323Y-54697333D01*
X228537180Y-54697333D01*
X228727656Y-54649714D01*
X228822894Y-54602095D01*
X228918132Y-54506857D01*
X228965751Y-54364000D01*
X228965751Y-54125904D01*
X228965751Y-55173523D02*
X228965751Y-55364000D01*
X228918132Y-55459238D01*
X228870513Y-55506857D01*
X228727656Y-55602095D01*
X228537180Y-55649714D01*
X228156228Y-55649714D01*
X228060990Y-55602095D01*
X228013371Y-55554476D01*
X227965751Y-55459238D01*
X227965751Y-55268761D01*
X228013371Y-55173523D01*
X228060990Y-55125904D01*
X228156228Y-55078285D01*
X228394323Y-55078285D01*
X228489561Y-55125904D01*
X228537180Y-55173523D01*
X228584799Y-55268761D01*
X228584799Y-55459238D01*
X228537180Y-55554476D01*
X228489561Y-55602095D01*
X228394323Y-55649714D01*
X225553666Y-54220904D02*
X225553666Y-54697095D01*
X225839380Y-54125666D02*
X224839380Y-54459000D01*
X225839380Y-54792333D01*
X209915751Y-54125904D02*
X208915751Y-54125904D01*
X208915751Y-54364000D01*
X208963371Y-54506857D01*
X209058609Y-54602095D01*
X209153847Y-54649714D01*
X209344323Y-54697333D01*
X209487180Y-54697333D01*
X209677656Y-54649714D01*
X209772894Y-54602095D01*
X209868132Y-54506857D01*
X209915751Y-54364000D01*
X209915751Y-54125904D01*
X209344323Y-55268761D02*
X209296704Y-55173523D01*
X209249085Y-55125904D01*
X209153847Y-55078285D01*
X209106228Y-55078285D01*
X209010990Y-55125904D01*
X208963371Y-55173523D01*
X208915751Y-55268761D01*
X208915751Y-55459238D01*
X208963371Y-55554476D01*
X209010990Y-55602095D01*
X209106228Y-55649714D01*
X209153847Y-55649714D01*
X209249085Y-55602095D01*
X209296704Y-55554476D01*
X209344323Y-55459238D01*
X209344323Y-55268761D01*
X209391942Y-55173523D01*
X209439561Y-55125904D01*
X209534799Y-55078285D01*
X209725275Y-55078285D01*
X209820513Y-55125904D01*
X209868132Y-55173523D01*
X209915751Y-55268761D01*
X209915751Y-55459238D01*
X209868132Y-55554476D01*
X209820513Y-55602095D01*
X209725275Y-55649714D01*
X209534799Y-55649714D01*
X209439561Y-55602095D01*
X209391942Y-55554476D01*
X209344323Y-55459238D01*
X206503666Y-54220904D02*
X206503666Y-54697095D01*
X206789380Y-54125666D02*
X205789380Y-54459000D01*
X206789380Y-54792333D01*
X190865751Y-54125904D02*
X189865751Y-54125904D01*
X189865751Y-54364000D01*
X189913371Y-54506857D01*
X190008609Y-54602095D01*
X190103847Y-54649714D01*
X190294323Y-54697333D01*
X190437180Y-54697333D01*
X190627656Y-54649714D01*
X190722894Y-54602095D01*
X190818132Y-54506857D01*
X190865751Y-54364000D01*
X190865751Y-54125904D01*
X189865751Y-55030666D02*
X189865751Y-55697333D01*
X190865751Y-55268761D01*
X187453666Y-54220904D02*
X187453666Y-54697095D01*
X187739380Y-54125666D02*
X186739380Y-54459000D01*
X187739380Y-54792333D01*
X171815751Y-54125904D02*
X170815751Y-54125904D01*
X170815751Y-54364000D01*
X170863371Y-54506857D01*
X170958609Y-54602095D01*
X171053847Y-54649714D01*
X171244323Y-54697333D01*
X171387180Y-54697333D01*
X171577656Y-54649714D01*
X171672894Y-54602095D01*
X171768132Y-54506857D01*
X171815751Y-54364000D01*
X171815751Y-54125904D01*
X170815751Y-55554476D02*
X170815751Y-55364000D01*
X170863371Y-55268761D01*
X170910990Y-55221142D01*
X171053847Y-55125904D01*
X171244323Y-55078285D01*
X171625275Y-55078285D01*
X171720513Y-55125904D01*
X171768132Y-55173523D01*
X171815751Y-55268761D01*
X171815751Y-55459238D01*
X171768132Y-55554476D01*
X171720513Y-55602095D01*
X171625275Y-55649714D01*
X171387180Y-55649714D01*
X171291942Y-55602095D01*
X171244323Y-55554476D01*
X171196704Y-55459238D01*
X171196704Y-55268761D01*
X171244323Y-55173523D01*
X171291942Y-55125904D01*
X171387180Y-55078285D01*
X168403666Y-54220904D02*
X168403666Y-54697095D01*
X168689380Y-54125666D02*
X167689380Y-54459000D01*
X168689380Y-54792333D01*
X152765751Y-54125904D02*
X151765751Y-54125904D01*
X151765751Y-54364000D01*
X151813371Y-54506857D01*
X151908609Y-54602095D01*
X152003847Y-54649714D01*
X152194323Y-54697333D01*
X152337180Y-54697333D01*
X152527656Y-54649714D01*
X152622894Y-54602095D01*
X152718132Y-54506857D01*
X152765751Y-54364000D01*
X152765751Y-54125904D01*
X151765751Y-55602095D02*
X151765751Y-55125904D01*
X152241942Y-55078285D01*
X152194323Y-55125904D01*
X152146704Y-55221142D01*
X152146704Y-55459238D01*
X152194323Y-55554476D01*
X152241942Y-55602095D01*
X152337180Y-55649714D01*
X152575275Y-55649714D01*
X152670513Y-55602095D01*
X152718132Y-55554476D01*
X152765751Y-55459238D01*
X152765751Y-55221142D01*
X152718132Y-55125904D01*
X152670513Y-55078285D01*
X149353666Y-54220904D02*
X149353666Y-54697095D01*
X149639380Y-54125666D02*
X148639380Y-54459000D01*
X149639380Y-54792333D01*
X133715751Y-54125904D02*
X132715751Y-54125904D01*
X132715751Y-54364000D01*
X132763371Y-54506857D01*
X132858609Y-54602095D01*
X132953847Y-54649714D01*
X133144323Y-54697333D01*
X133287180Y-54697333D01*
X133477656Y-54649714D01*
X133572894Y-54602095D01*
X133668132Y-54506857D01*
X133715751Y-54364000D01*
X133715751Y-54125904D01*
X133049085Y-55554476D02*
X133715751Y-55554476D01*
X132668132Y-55316380D02*
X133382418Y-55078285D01*
X133382418Y-55697333D01*
X130303666Y-54220904D02*
X130303666Y-54697095D01*
X130589380Y-54125666D02*
X129589380Y-54459000D01*
X130589380Y-54792333D01*
X114665751Y-54125904D02*
X113665751Y-54125904D01*
X113665751Y-54364000D01*
X113713371Y-54506857D01*
X113808609Y-54602095D01*
X113903847Y-54649714D01*
X114094323Y-54697333D01*
X114237180Y-54697333D01*
X114427656Y-54649714D01*
X114522894Y-54602095D01*
X114618132Y-54506857D01*
X114665751Y-54364000D01*
X114665751Y-54125904D01*
X113665751Y-55030666D02*
X113665751Y-55649714D01*
X114046704Y-55316380D01*
X114046704Y-55459238D01*
X114094323Y-55554476D01*
X114141942Y-55602095D01*
X114237180Y-55649714D01*
X114475275Y-55649714D01*
X114570513Y-55602095D01*
X114618132Y-55554476D01*
X114665751Y-55459238D01*
X114665751Y-55173523D01*
X114618132Y-55078285D01*
X114570513Y-55030666D01*
X111253666Y-54220904D02*
X111253666Y-54697095D01*
X111539380Y-54125666D02*
X110539380Y-54459000D01*
X111539380Y-54792333D01*
X95615751Y-54125904D02*
X94615751Y-54125904D01*
X94615751Y-54364000D01*
X94663371Y-54506857D01*
X94758609Y-54602095D01*
X94853847Y-54649714D01*
X95044323Y-54697333D01*
X95187180Y-54697333D01*
X95377656Y-54649714D01*
X95472894Y-54602095D01*
X95568132Y-54506857D01*
X95615751Y-54364000D01*
X95615751Y-54125904D01*
X94710990Y-55078285D02*
X94663371Y-55125904D01*
X94615751Y-55221142D01*
X94615751Y-55459238D01*
X94663371Y-55554476D01*
X94710990Y-55602095D01*
X94806228Y-55649714D01*
X94901466Y-55649714D01*
X95044323Y-55602095D01*
X95615751Y-55030666D01*
X95615751Y-55649714D01*
X92203666Y-54220904D02*
X92203666Y-54697095D01*
X92489380Y-54125666D02*
X91489380Y-54459000D01*
X92489380Y-54792333D01*
X76438751Y-52601904D02*
X75438751Y-52601904D01*
X75438751Y-52840000D01*
X75486371Y-52982857D01*
X75581609Y-53078095D01*
X75676847Y-53125714D01*
X75867323Y-53173333D01*
X76010180Y-53173333D01*
X76200656Y-53125714D01*
X76295894Y-53078095D01*
X76391132Y-52982857D01*
X76438751Y-52840000D01*
X76438751Y-52601904D01*
X76438751Y-54125714D02*
X76438751Y-53554285D01*
X76438751Y-53840000D02*
X75438751Y-53840000D01*
X75581609Y-53744761D01*
X75676847Y-53649523D01*
X75724466Y-53554285D01*
X73026666Y-52696904D02*
X73026666Y-53173095D01*
X73312380Y-52601666D02*
X72312380Y-52935000D01*
X73312380Y-53268333D01*
X102171333Y-61491761D02*
X102028476Y-61539380D01*
X101790380Y-61539380D01*
X101695142Y-61491761D01*
X101647523Y-61444142D01*
X101599904Y-61348904D01*
X101599904Y-61253666D01*
X101647523Y-61158428D01*
X101695142Y-61110809D01*
X101790380Y-61063190D01*
X101980857Y-61015571D01*
X102076095Y-60967952D01*
X102123714Y-60920333D01*
X102171333Y-60825095D01*
X102171333Y-60729857D01*
X102123714Y-60634619D01*
X102076095Y-60587000D01*
X101980857Y-60539380D01*
X101742761Y-60539380D01*
X101599904Y-60587000D01*
X101266571Y-60539380D02*
X101028476Y-61539380D01*
X100838000Y-60825095D01*
X100647523Y-61539380D01*
X100409428Y-60539380D01*
X99504666Y-61539380D02*
X100076095Y-61539380D01*
X99790380Y-61539380D02*
X99790380Y-60539380D01*
X99885619Y-60682238D01*
X99980857Y-60777476D01*
X100076095Y-60825095D01*
M02*
