G04 #@! TF.GenerationSoftware,KiCad,Pcbnew,(5.1.4-0-10_14)*
G04 #@! TF.CreationDate,2020-06-07T21:29:09-05:00*
G04 #@! TF.ProjectId,omega,6f6d6567-612e-46b6-9963-61645f706362,rev?*
G04 #@! TF.SameCoordinates,Original*
G04 #@! TF.FileFunction,Legend,Top*
G04 #@! TF.FilePolarity,Positive*
%FSLAX46Y46*%
G04 Gerber Fmt 4.6, Leading zero omitted, Abs format (unit mm)*
G04 Created by KiCad (PCBNEW (5.1.4-0-10_14)) date 2020-06-07 21:29:09*
%MOMM*%
%LPD*%
G04 APERTURE LIST*
%ADD10C,0.300000*%
%ADD11C,0.150000*%
G04 APERTURE END LIST*
D10*
X154290000Y-80942571D02*
X154290000Y-79442571D01*
X154290000Y-80014000D02*
X154432857Y-79942571D01*
X154718571Y-79942571D01*
X154861428Y-80014000D01*
X154932857Y-80085428D01*
X155004285Y-80228285D01*
X155004285Y-80656857D01*
X154932857Y-80799714D01*
X154861428Y-80871142D01*
X154718571Y-80942571D01*
X154432857Y-80942571D01*
X154290000Y-80871142D01*
X155504285Y-79942571D02*
X155861428Y-80942571D01*
X156218571Y-79942571D02*
X155861428Y-80942571D01*
X155718571Y-81299714D01*
X155647142Y-81371142D01*
X155504285Y-81442571D01*
X157932857Y-80942571D02*
X157932857Y-79942571D01*
X157932857Y-80085428D02*
X158004285Y-80014000D01*
X158147142Y-79942571D01*
X158361428Y-79942571D01*
X158504285Y-80014000D01*
X158575714Y-80156857D01*
X158575714Y-80942571D01*
X158575714Y-80156857D02*
X158647142Y-80014000D01*
X158790000Y-79942571D01*
X159004285Y-79942571D01*
X159147142Y-80014000D01*
X159218571Y-80156857D01*
X159218571Y-80942571D01*
X160575714Y-80942571D02*
X160575714Y-80156857D01*
X160504285Y-80014000D01*
X160361428Y-79942571D01*
X160075714Y-79942571D01*
X159932857Y-80014000D01*
X160575714Y-80871142D02*
X160432857Y-80942571D01*
X160075714Y-80942571D01*
X159932857Y-80871142D01*
X159861428Y-80728285D01*
X159861428Y-80585428D01*
X159932857Y-80442571D01*
X160075714Y-80371142D01*
X160432857Y-80371142D01*
X160575714Y-80299714D01*
X161290000Y-80942571D02*
X161290000Y-79442571D01*
X161432857Y-80371142D02*
X161861428Y-80942571D01*
X161861428Y-79942571D02*
X161290000Y-80514000D01*
X163075714Y-80871142D02*
X162932857Y-80942571D01*
X162647142Y-80942571D01*
X162504285Y-80871142D01*
X162432857Y-80728285D01*
X162432857Y-80156857D01*
X162504285Y-80014000D01*
X162647142Y-79942571D01*
X162932857Y-79942571D01*
X163075714Y-80014000D01*
X163147142Y-80156857D01*
X163147142Y-80299714D01*
X162432857Y-80442571D01*
X163790000Y-79942571D02*
X163790000Y-80942571D01*
X163790000Y-80085428D02*
X163861428Y-80014000D01*
X164004285Y-79942571D01*
X164218571Y-79942571D01*
X164361428Y-80014000D01*
X164432857Y-80156857D01*
X164432857Y-80942571D01*
X165361428Y-80942571D02*
X165218571Y-80871142D01*
X165147142Y-80799714D01*
X165075714Y-80656857D01*
X165075714Y-80228285D01*
X165147142Y-80085428D01*
X165218571Y-80014000D01*
X165361428Y-79942571D01*
X165575714Y-79942571D01*
X165718571Y-80014000D01*
X165790000Y-80085428D01*
X165861428Y-80228285D01*
X165861428Y-80656857D01*
X165790000Y-80799714D01*
X165718571Y-80871142D01*
X165575714Y-80942571D01*
X165361428Y-80942571D01*
X166361428Y-79942571D02*
X166718571Y-80942571D01*
X167075714Y-79942571D01*
X168290000Y-80942571D02*
X168290000Y-80156857D01*
X168218571Y-80014000D01*
X168075714Y-79942571D01*
X167790000Y-79942571D01*
X167647142Y-80014000D01*
X168290000Y-80871142D02*
X168147142Y-80942571D01*
X167790000Y-80942571D01*
X167647142Y-80871142D01*
X167575714Y-80728285D01*
X167575714Y-80585428D01*
X167647142Y-80442571D01*
X167790000Y-80371142D01*
X168147142Y-80371142D01*
X168290000Y-80299714D01*
X155817714Y-78275571D02*
X155674857Y-78204142D01*
X155603428Y-78132714D01*
X155532000Y-77989857D01*
X155532000Y-77561285D01*
X155603428Y-77418428D01*
X155674857Y-77347000D01*
X155817714Y-77275571D01*
X156032000Y-77275571D01*
X156174857Y-77347000D01*
X156246285Y-77418428D01*
X156317714Y-77561285D01*
X156317714Y-77989857D01*
X156246285Y-78132714D01*
X156174857Y-78204142D01*
X156032000Y-78275571D01*
X155817714Y-78275571D01*
X156960571Y-78275571D02*
X156960571Y-77275571D01*
X156960571Y-77418428D02*
X157032000Y-77347000D01*
X157174857Y-77275571D01*
X157389142Y-77275571D01*
X157532000Y-77347000D01*
X157603428Y-77489857D01*
X157603428Y-78275571D01*
X157603428Y-77489857D02*
X157674857Y-77347000D01*
X157817714Y-77275571D01*
X158032000Y-77275571D01*
X158174857Y-77347000D01*
X158246285Y-77489857D01*
X158246285Y-78275571D01*
X159532000Y-78204142D02*
X159389142Y-78275571D01*
X159103428Y-78275571D01*
X158960571Y-78204142D01*
X158889142Y-78061285D01*
X158889142Y-77489857D01*
X158960571Y-77347000D01*
X159103428Y-77275571D01*
X159389142Y-77275571D01*
X159532000Y-77347000D01*
X159603428Y-77489857D01*
X159603428Y-77632714D01*
X158889142Y-77775571D01*
X160889142Y-77275571D02*
X160889142Y-78489857D01*
X160817714Y-78632714D01*
X160746285Y-78704142D01*
X160603428Y-78775571D01*
X160389142Y-78775571D01*
X160246285Y-78704142D01*
X160889142Y-78204142D02*
X160746285Y-78275571D01*
X160460571Y-78275571D01*
X160317714Y-78204142D01*
X160246285Y-78132714D01*
X160174857Y-77989857D01*
X160174857Y-77561285D01*
X160246285Y-77418428D01*
X160317714Y-77347000D01*
X160460571Y-77275571D01*
X160746285Y-77275571D01*
X160889142Y-77347000D01*
X162246285Y-78275571D02*
X162246285Y-77489857D01*
X162174857Y-77347000D01*
X162032000Y-77275571D01*
X161746285Y-77275571D01*
X161603428Y-77347000D01*
X162246285Y-78204142D02*
X162103428Y-78275571D01*
X161746285Y-78275571D01*
X161603428Y-78204142D01*
X161532000Y-78061285D01*
X161532000Y-77918428D01*
X161603428Y-77775571D01*
X161746285Y-77704142D01*
X162103428Y-77704142D01*
X162246285Y-77632714D01*
X162603428Y-78418428D02*
X163746285Y-78418428D01*
X163960571Y-77275571D02*
X164317714Y-78275571D01*
X164674857Y-77275571D01*
X165532000Y-76775571D02*
X165674857Y-76775571D01*
X165817714Y-76847000D01*
X165889142Y-76918428D01*
X165960571Y-77061285D01*
X166032000Y-77347000D01*
X166032000Y-77704142D01*
X165960571Y-77989857D01*
X165889142Y-78132714D01*
X165817714Y-78204142D01*
X165674857Y-78275571D01*
X165532000Y-78275571D01*
X165389142Y-78204142D01*
X165317714Y-78132714D01*
X165246285Y-77989857D01*
X165174857Y-77704142D01*
X165174857Y-77347000D01*
X165246285Y-77061285D01*
X165317714Y-76918428D01*
X165389142Y-76847000D01*
X165532000Y-76775571D01*
D11*
X56007000Y-59436000D02*
X86487000Y-59436000D01*
X56007000Y-54356000D02*
X56007000Y-59436000D01*
X53467000Y-54356000D02*
X56007000Y-54356000D01*
X53467000Y-46736000D02*
X53467000Y-54356000D01*
X56007000Y-46736000D02*
X53467000Y-46736000D01*
X56007000Y-41656000D02*
X56007000Y-46736000D01*
X86487000Y-41656000D02*
X56007000Y-41656000D01*
X86487000Y-59436000D02*
X86487000Y-41656000D01*
M02*
