M48
; DRILL file {KiCad (5.1.4-0-10_14)} date Tuesday, July 07, 2020 at 08:55:30 PM
; FORMAT={-:-/ absolute / metric / decimal}
; #@! TF.CreationDate,2020-07-07T20:55:30-05:00
; #@! TF.GenerationSoftware,Kicad,Pcbnew,(5.1.4-0-10_14)
FMAT,2
METRIC
T1C0.400
T2C0.700
T3C1.000
T4C1.100
T5C1.470
T6C1.750
T7C2.200
T8C3.048
T9C3.988
%
G90
G05
T1
X67.818Y-52.832
X69.977Y-55.372
X70.739Y-92.964
X76.772Y-52.832
X81.407Y-56.134
X83.312Y-45.847
X121.539Y-45.466
X121.539Y-63.373
X122.301Y-84.963
X177.292Y-44.196
X177.698Y-81.585
X235.204Y-42.037
X235.204Y-62.738
T2
X95.885Y-53.467
X100.965Y-53.467
T3
X207.073Y-49.059
X207.073Y-56.859
X102.235Y-87.032
X192.659Y-67.982
X192.659Y-75.782
X168.91Y-48.995
X168.91Y-56.795
X197.485Y-87.096
X197.485Y-94.895
X116.459Y-68.045
X116.459Y-75.846
X135.509Y-68.045
X135.509Y-75.846
X121.285Y-87.032
X121.285Y-94.832
X154.559Y-68.045
X154.559Y-75.846
X230.759Y-67.982
X230.759Y-75.782
X83.185Y-87.032
X83.185Y-94.832
X149.86Y-48.995
X149.86Y-56.795
X187.96Y-49.059
X187.96Y-56.859
X235.61Y-87.083
X97.409Y-68.045
X97.409Y-75.846
X140.335Y-87.032
X140.335Y-94.832
X235.61Y-94.883
X102.235Y-94.832
X178.498Y-87.096
X178.498Y-94.895
X155.917Y-95.453
X163.717Y-95.453
X173.609Y-68.045
X173.609Y-75.846
X73.66Y-47.471
X73.66Y-55.271
X211.709Y-75.782
X249.174Y-67.982
X249.174Y-75.782
X211.709Y-67.982
X216.535Y-87.096
X216.535Y-94.895
X78.359Y-68.045
X78.359Y-75.846
X244.602Y-49.034
X244.602Y-56.834
X226.06Y-49.034
X226.06Y-56.834
X254.254Y-87.032
X254.254Y-94.832
X111.823Y-48.995
X111.823Y-56.795
X92.837Y-48.932
X92.837Y-56.732
X130.81Y-48.995
X130.81Y-56.795
T4
X59.03Y-42.926
X59.03Y-58.166
X61.57Y-42.926
X61.57Y-58.166
X64.11Y-42.926
X64.11Y-58.166
X66.65Y-42.926
X66.65Y-58.166
X69.19Y-42.926
X69.19Y-58.166
X71.73Y-42.926
X71.73Y-58.166
X74.27Y-42.926
X74.27Y-58.166
X76.81Y-42.926
X76.81Y-58.166
X79.35Y-42.926
X79.35Y-58.166
X81.89Y-42.926
X81.89Y-58.166
X84.43Y-42.926
X84.43Y-58.166
X86.97Y-42.926
X86.97Y-58.166
T5
X176.022Y-48.387
X182.372Y-45.847
X109.347Y-86.487
X115.697Y-83.947
X156.972Y-48.387
X163.322Y-45.847
X90.297Y-86.487
X96.647Y-83.947
X187.071Y-64.897
X104.521Y-67.437
X110.871Y-64.897
X180.721Y-67.437
X137.922Y-48.387
X242.697Y-86.487
X249.047Y-83.947
X144.272Y-45.847
X71.247Y-86.487
X77.597Y-83.947
X204.597Y-86.487
X210.947Y-83.947
X118.872Y-48.387
X125.222Y-45.847
X85.471Y-67.437
X91.821Y-64.897
X147.574Y-86.487
X244.221Y-64.897
X72.771Y-64.897
X153.924Y-83.947
X106.172Y-45.847
X214.122Y-48.387
X220.472Y-45.847
X168.021Y-64.897
X157.035Y-86.487
X66.421Y-67.437
X161.671Y-67.437
X218.821Y-67.437
X225.171Y-64.897
X99.822Y-48.387
X237.871Y-67.437
X163.385Y-83.947
X185.547Y-86.487
X191.897Y-83.947
X233.172Y-48.387
X239.522Y-45.847
X195.072Y-48.387
X128.397Y-86.487
X61.722Y-48.387
X134.747Y-83.947
X166.548Y-86.487
X172.898Y-83.947
X129.921Y-64.897
X68.072Y-45.847
X123.571Y-67.437
X80.772Y-48.387
X201.422Y-45.847
X87.122Y-45.847
X223.647Y-86.487
X229.997Y-83.947
X199.771Y-67.437
X206.121Y-64.897
X142.621Y-67.437
X148.971Y-64.897
T6
X122.301Y-69.977
X132.461Y-69.977
X222.377Y-89.027
X232.537Y-89.027
X198.501Y-69.977
X208.661Y-69.977
X141.351Y-69.977
X151.511Y-69.977
X155.702Y-50.927
X165.862Y-50.927
X89.027Y-89.027
X99.187Y-89.027
X136.652Y-50.927
X241.427Y-89.027
X251.587Y-89.027
X203.327Y-89.027
X179.451Y-69.977
X189.611Y-69.977
X127.762Y-50.927
X69.977Y-89.027
X103.251Y-69.977
X113.411Y-69.977
X146.812Y-50.927
X80.137Y-89.027
X213.487Y-89.027
X236.601Y-69.977
X246.761Y-69.977
X117.602Y-50.927
X146.304Y-89.027
X84.201Y-69.977
X94.361Y-69.977
X217.551Y-69.977
X212.852Y-50.927
X223.012Y-50.927
X98.552Y-50.927
X108.712Y-50.927
X156.464Y-89.027
X165.925Y-89.027
X160.401Y-69.977
X227.711Y-69.977
X155.766Y-89.027
X65.151Y-69.977
X75.311Y-69.977
X170.561Y-69.977
X184.277Y-89.027
X194.437Y-89.027
X231.902Y-50.927
X242.062Y-50.927
X79.502Y-50.927
X174.752Y-50.927
X165.278Y-89.027
X175.438Y-89.027
X89.662Y-50.927
X184.912Y-50.927
X60.452Y-50.927
X193.802Y-50.927
X203.962Y-50.927
X127.127Y-89.027
X137.287Y-89.027
X70.612Y-50.927
X108.077Y-89.027
X118.237Y-89.027
T7
X79.756Y-60.706
X232.156Y-79.502
X79.756Y-79.502
X232.156Y-60.452
T8
X148.939Y-96.012
X172.752Y-96.012
T9
X179.832Y-50.927
X170.358Y-89.027
X227.457Y-89.027
X65.532Y-50.927
X127.381Y-69.977
X160.782Y-50.927
X141.732Y-50.927
X246.507Y-89.027
X146.431Y-69.977
X113.157Y-89.027
X203.581Y-69.977
X94.107Y-89.027
X208.407Y-89.027
X184.531Y-69.977
X75.057Y-89.027
X241.681Y-69.977
X108.331Y-69.977
X122.682Y-50.927
X222.631Y-69.977
X103.632Y-50.927
X151.384Y-89.027
X89.281Y-69.977
X217.932Y-50.927
X70.231Y-69.977
X189.357Y-89.027
X160.845Y-89.027
X198.882Y-50.927
X132.207Y-89.027
X236.982Y-50.927
X84.582Y-50.927
X148.939Y-80.772
X172.752Y-80.772
X165.481Y-69.977
T0
M30
