G04 #@! TF.GenerationSoftware,KiCad,Pcbnew,(5.1.4-0-10_14)*
G04 #@! TF.CreationDate,2020-11-04T22:07:21-06:00*
G04 #@! TF.ProjectId,omega_solder,6f6d6567-615f-4736-9f6c-6465722e6b69,rev?*
G04 #@! TF.SameCoordinates,Original*
G04 #@! TF.FileFunction,Legend,Top*
G04 #@! TF.FilePolarity,Positive*
%FSLAX46Y46*%
G04 Gerber Fmt 4.6, Leading zero omitted, Abs format (unit mm)*
G04 Created by KiCad (PCBNEW (5.1.4-0-10_14)) date 2020-11-04 22:07:21*
%MOMM*%
%LPD*%
G04 APERTURE LIST*
%ADD10C,0.300000*%
%ADD11C,0.150000*%
G04 APERTURE END LIST*
D10*
X155317785Y-78651571D02*
X155174928Y-78580142D01*
X155103500Y-78508714D01*
X155032071Y-78365857D01*
X155032071Y-77937285D01*
X155103500Y-77794428D01*
X155174928Y-77723000D01*
X155317785Y-77651571D01*
X155532071Y-77651571D01*
X155674928Y-77723000D01*
X155746357Y-77794428D01*
X155817785Y-77937285D01*
X155817785Y-78365857D01*
X155746357Y-78508714D01*
X155674928Y-78580142D01*
X155532071Y-78651571D01*
X155317785Y-78651571D01*
X156460642Y-78651571D02*
X156460642Y-77651571D01*
X156460642Y-77794428D02*
X156532071Y-77723000D01*
X156674928Y-77651571D01*
X156889214Y-77651571D01*
X157032071Y-77723000D01*
X157103500Y-77865857D01*
X157103500Y-78651571D01*
X157103500Y-77865857D02*
X157174928Y-77723000D01*
X157317785Y-77651571D01*
X157532071Y-77651571D01*
X157674928Y-77723000D01*
X157746357Y-77865857D01*
X157746357Y-78651571D01*
X159032071Y-78580142D02*
X158889214Y-78651571D01*
X158603500Y-78651571D01*
X158460642Y-78580142D01*
X158389214Y-78437285D01*
X158389214Y-77865857D01*
X158460642Y-77723000D01*
X158603500Y-77651571D01*
X158889214Y-77651571D01*
X159032071Y-77723000D01*
X159103500Y-77865857D01*
X159103500Y-78008714D01*
X158389214Y-78151571D01*
X160389214Y-77651571D02*
X160389214Y-78865857D01*
X160317785Y-79008714D01*
X160246357Y-79080142D01*
X160103500Y-79151571D01*
X159889214Y-79151571D01*
X159746357Y-79080142D01*
X160389214Y-78580142D02*
X160246357Y-78651571D01*
X159960642Y-78651571D01*
X159817785Y-78580142D01*
X159746357Y-78508714D01*
X159674928Y-78365857D01*
X159674928Y-77937285D01*
X159746357Y-77794428D01*
X159817785Y-77723000D01*
X159960642Y-77651571D01*
X160246357Y-77651571D01*
X160389214Y-77723000D01*
X161746357Y-78651571D02*
X161746357Y-77865857D01*
X161674928Y-77723000D01*
X161532071Y-77651571D01*
X161246357Y-77651571D01*
X161103500Y-77723000D01*
X161746357Y-78580142D02*
X161603500Y-78651571D01*
X161246357Y-78651571D01*
X161103500Y-78580142D01*
X161032071Y-78437285D01*
X161032071Y-78294428D01*
X161103500Y-78151571D01*
X161246357Y-78080142D01*
X161603500Y-78080142D01*
X161746357Y-78008714D01*
X162103500Y-78794428D02*
X163246357Y-78794428D01*
X163460642Y-77651571D02*
X163817785Y-78651571D01*
X164174928Y-77651571D01*
X164674928Y-77294428D02*
X164746357Y-77223000D01*
X164889214Y-77151571D01*
X165246357Y-77151571D01*
X165389214Y-77223000D01*
X165460642Y-77294428D01*
X165532071Y-77437285D01*
X165532071Y-77580142D01*
X165460642Y-77794428D01*
X164603500Y-78651571D01*
X165532071Y-78651571D01*
X166174928Y-78508714D02*
X166246357Y-78580142D01*
X166174928Y-78651571D01*
X166103500Y-78580142D01*
X166174928Y-78508714D01*
X166174928Y-78651571D01*
X167674928Y-78651571D02*
X166817785Y-78651571D01*
X167246357Y-78651571D02*
X167246357Y-77151571D01*
X167103500Y-77365857D01*
X166960642Y-77508714D01*
X166817785Y-77580142D01*
X154353500Y-81201571D02*
X154353500Y-79701571D01*
X154353500Y-80273000D02*
X154496357Y-80201571D01*
X154782071Y-80201571D01*
X154924928Y-80273000D01*
X154996357Y-80344428D01*
X155067785Y-80487285D01*
X155067785Y-80915857D01*
X154996357Y-81058714D01*
X154924928Y-81130142D01*
X154782071Y-81201571D01*
X154496357Y-81201571D01*
X154353500Y-81130142D01*
X155567785Y-80201571D02*
X155924928Y-81201571D01*
X156282071Y-80201571D02*
X155924928Y-81201571D01*
X155782071Y-81558714D01*
X155710642Y-81630142D01*
X155567785Y-81701571D01*
X157996357Y-81201571D02*
X157996357Y-80201571D01*
X157996357Y-80344428D02*
X158067785Y-80273000D01*
X158210642Y-80201571D01*
X158424928Y-80201571D01*
X158567785Y-80273000D01*
X158639214Y-80415857D01*
X158639214Y-81201571D01*
X158639214Y-80415857D02*
X158710642Y-80273000D01*
X158853500Y-80201571D01*
X159067785Y-80201571D01*
X159210642Y-80273000D01*
X159282071Y-80415857D01*
X159282071Y-81201571D01*
X160639214Y-81201571D02*
X160639214Y-80415857D01*
X160567785Y-80273000D01*
X160424928Y-80201571D01*
X160139214Y-80201571D01*
X159996357Y-80273000D01*
X160639214Y-81130142D02*
X160496357Y-81201571D01*
X160139214Y-81201571D01*
X159996357Y-81130142D01*
X159924928Y-80987285D01*
X159924928Y-80844428D01*
X159996357Y-80701571D01*
X160139214Y-80630142D01*
X160496357Y-80630142D01*
X160639214Y-80558714D01*
X161353500Y-81201571D02*
X161353500Y-79701571D01*
X161496357Y-80630142D02*
X161924928Y-81201571D01*
X161924928Y-80201571D02*
X161353500Y-80773000D01*
X163139214Y-81130142D02*
X162996357Y-81201571D01*
X162710642Y-81201571D01*
X162567785Y-81130142D01*
X162496357Y-80987285D01*
X162496357Y-80415857D01*
X162567785Y-80273000D01*
X162710642Y-80201571D01*
X162996357Y-80201571D01*
X163139214Y-80273000D01*
X163210642Y-80415857D01*
X163210642Y-80558714D01*
X162496357Y-80701571D01*
X163853500Y-80201571D02*
X163853500Y-81201571D01*
X163853500Y-80344428D02*
X163924928Y-80273000D01*
X164067785Y-80201571D01*
X164282071Y-80201571D01*
X164424928Y-80273000D01*
X164496357Y-80415857D01*
X164496357Y-81201571D01*
X165424928Y-81201571D02*
X165282071Y-81130142D01*
X165210642Y-81058714D01*
X165139214Y-80915857D01*
X165139214Y-80487285D01*
X165210642Y-80344428D01*
X165282071Y-80273000D01*
X165424928Y-80201571D01*
X165639214Y-80201571D01*
X165782071Y-80273000D01*
X165853500Y-80344428D01*
X165924928Y-80487285D01*
X165924928Y-80915857D01*
X165853500Y-81058714D01*
X165782071Y-81130142D01*
X165639214Y-81201571D01*
X165424928Y-81201571D01*
X166424928Y-80201571D02*
X166782071Y-81201571D01*
X167139214Y-80201571D01*
X168353500Y-81201571D02*
X168353500Y-80415857D01*
X168282071Y-80273000D01*
X168139214Y-80201571D01*
X167853500Y-80201571D01*
X167710642Y-80273000D01*
X168353500Y-81130142D02*
X168210642Y-81201571D01*
X167853500Y-81201571D01*
X167710642Y-81130142D01*
X167639214Y-80987285D01*
X167639214Y-80844428D01*
X167710642Y-80701571D01*
X167853500Y-80630142D01*
X168210642Y-80630142D01*
X168353500Y-80558714D01*
D11*
X88239600Y-41656000D02*
X88239600Y-59436000D01*
X57759600Y-41656000D02*
X88239600Y-41656000D01*
X57759600Y-46736000D02*
X57759600Y-41656000D01*
X55219600Y-46736000D02*
X57759600Y-46736000D01*
X55219600Y-54356000D02*
X55219600Y-46736000D01*
X57759600Y-54356000D02*
X55219600Y-54356000D01*
X57759600Y-59436000D02*
X57759600Y-54356000D01*
X57759600Y-59436000D02*
X88239600Y-59436000D01*
M02*
