0
SECTION
2
HEADER
9
$INSUNITS
70
4
9
$ACADVER
1
AC1014
9
$HANDSEED
5
FFFF
0
ENDSEC
0
SECTION
2
TABLES
0
TABLE
2
VPORT
5
8
100
AcDbSymbolTable
0
ENDTAB
0
TABLE
2
LTYPE
5
5
100
AcDbSymbolTable
0
LTYPE
5
14
100
AcDbSymbolTableRecord
100
AcDbLinetypeTableRecord
2
BYBLOCK
70
0
0
LTYPE
5
15
100
AcDbSymbolTableRecord
100
AcDbLinetypeTableRecord
2
BYLAYER
70
0
0
ENDTAB
0
TABLE
2
LAYER
5
2
100
AcDbSymbolTable
70
2
0
LAYER
5
50
100
AcDbSymbolTableRecord
100
AcDbLayerTableRecord
2
0
70
0
6
CONTINUOUS
0
ENDTAB
0
TABLE
2
STYLE
5
3
100
AcDbSymbolTable
70
1
0
STYLE
5
11
100
AcDbSymbolTableRecord
100
AcDbTextStyleTableRecord
2
STANDARD
70
0
0
ENDTAB
0
TABLE
2
VIEW
5
6
100
AcDbSymbolTable
70
0
0
ENDTAB
0
TABLE
2
UCS
5
7
100
AcDbSymbolTable
70
0
0
ENDTAB
0
TABLE
2
APPID
5
9
100
AcDbSymbolTable
70
2
0
APPID
5
12
100
AcDbSymbolTableRecord
100
AcDbRegAppTableRecord
2
ACAD
70
0
0
ENDTAB
0
TABLE
2
DIMSTYLE
5
A
100
AcDbSymbolTable
70
1
0
ENDTAB
0
TABLE
2
BLOCK_RECORD
5
1
100
AcDbSymbolTable
70
1
0
BLOCK_RECORD
5
1F
100
AcDbSymbolTableRecord
100
AcDbBlockTableRecord
2
*MODEL_SPACE
0
BLOCK_RECORD
5
1B
100
AcDbSymbolTableRecord
100
AcDbBlockTableRecord
2
*PAPER_SPACE
0
ENDTAB
0
ENDSEC
0
SECTION
2
BLOCKS
0
BLOCK
5
20
100
AcDbEntity
100
AcDbBlockBegin
2
*MODEL_SPACE
0
ENDBLK
5
21
100
AcDbEntity
100
AcDbBlockEnd
0
BLOCK
5
1C
100
AcDbEntity
100
AcDbBlockBegin
2
*PAPER_SPACE
0
ENDBLK
5
1D
100
AcDbEntity
100
AcDbBlockEnd
0
ENDSEC
0
SECTION
2
ENTITIES
0
LWPOLYLINE
5
100
100
AcDbEntity
8
0
100
AcDbPolyline
90
48
70
1
43
0.0
10
30.016064494335165
20
0.14878975515721926
42
-0.19891236737965706
10
27.187637369588987
20
1.320362630411029
10
22.359210244842814
20
6.1487897551572246
42
0.41421356237309453
10
16.359210244842814
20
6.1487897551572228
10
11.530783120096631
20
1.3203626304110321
42
-0.19891236737965848
10
8.7023559953504321
20
0.14878975515721871
10
0.35921024484281361
20
0.14878975515721926
42
0.41421356237311552
10
-0.14878975515721926
20
-0.35921024484277808
10
-0.14878975515722814
20
-20.17121024484279
42
0.41421356237308998
10
0.35921024484277808
20
-20.679210244842785
10
4.8042102448427748
20
-20.679210244842775
42
-0.41421356237310336
10
5.3122102448427899
20
-21.187210244842785
10
5.3122102448427899
20
-39.221210244842787
42
0.41421356237309248
10
5.8202102448427873
20
-39.729210244842783
10
9.6302102448427895
20
-39.729210244842797
42
-0.41421356237308993
10
10.138210244842778
20
-40.2372102448428
10
10.138210244842778
20
-58.271210244842791
42
0.41421356237309509
10
10.646210244842784
20
-58.779210244842801
10
18.989355995350426
20
-58.779210244842794
42
-0.19891236737965848
10
21.817783120096621
20
-59.950783120096609
10
26.646210244842781
20
-64.779210244842773
42
0.41421356237309592
10
32.646210244842784
20
-64.779210244842787
10
37.474637369588997
20
-59.950783120096609
42
-0.19891236737965717
10
40.303064494335175
20
-58.779210244842801
10
170.47335599535046
20
-58.779210244842787
42
-0.19891236737965717
10
173.30178312009664
20
-59.950783120096595
10
178.13021024484283
20
-64.779210244842801
42
0.41421356237309587
10
184.13021024484283
20
-64.779210244842801
10
188.95863736958901
20
-59.950783120096617
42
-0.19891236737965881
10
191.7870644943352
20
-58.779210244842801
10
200.13021024484283
20
-58.779210244842801
42
0.41421356237311552
10
200.63821024484284
20
-58.271210244842791
10
200.63821024484284
20
-40.2372102448428
42
0.41421356237309509
10
200.13021024484286
20
-39.729210244842804
10
196.32021024484283
20
-39.729210244842811
42
-0.41421356237303614
10
195.81221024484282
20
-39.22121024484278
10
195.81221024484279
20
-21.187210244842785
42
0.41421356237309509
10
195.30421024484284
20
-20.679210244842832
10
191.62121024484279
20
-20.679210244842785
42
-0.4142135623730438
10
191.11321024484283
20
-20.171210244842783
10
191.11321024484283
20
-0.35921024484277808
42
0.41421356237309509
10
190.60521024484285
20
0.14878975515721038
10
182.26206449433528
20
0.14878975515721954
42
-0.19891236737965753
10
179.43363736958906
20
1.3203626304110239
10
174.60521024484285
20
6.1487897551572246
42
0.41421356237309515
10
168.60521024484285
20
6.1487897551572228
10
163.7767831200967
20
1.3203626304110379
42
-0.19891236737965881
10
160.94835599535054
20
0.14878975515721871
0
CIRCLE
5
101
100
AcDbEntity
8
0
100
AcDbCircle
10
171.60521024484285
20
2.9487897551572191
30
0
40
1.6000000000000014
210
0
220
-0
230
1
0
CIRCLE
5
102
100
AcDbEntity
8
0
100
AcDbCircle
10
19.359210244842814
20
2.9487897551572191
30
0
40
1.6000000000000036
210
0
220
-0
230
1
0
CIRCLE
5
103
100
AcDbEntity
8
0
100
AcDbCircle
10
29.646210244842788
20
-61.579210244842798
30
0
40
1.6000000000000014
210
0
220
-0
230
1
0
CIRCLE
5
104
100
AcDbEntity
8
0
100
AcDbCircle
10
181.13021024484283
20
-61.579210244842805
30
0
40
1.6000000000000014
210
0
220
-0
230
1
0
CIRCLE
5
105
100
AcDbEntity
8
0
100
AcDbCircle
10
176.6987102448428
20
-39.475210244842764
30
0
40
1.1000000000000001
210
0
220
-0
230
1
0
CIRCLE
5
106
100
AcDbEntity
8
0
100
AcDbCircle
10
176.76221024484281
20
-20.679210244842757
30
0
40
1.1000000000000001
210
0
220
-0
230
1
0
CIRCLE
5
107
100
AcDbEntity
8
0
100
AcDbCircle
10
24.362210244842792
20
-22.330210244842753
30
0
40
1.1000000000000001
210
0
220
-0
230
1
0
CIRCLE
5
108
100
AcDbEntity
8
0
100
AcDbCircle
10
24.362210244842792
20
-39.729210244842747
30
0
40
1.1000000000000001
210
0
220
-0
230
1
0
ENDSEC
0
SECTION
2
OBJECTS
0
DICTIONARY
5
C
100
AcDbDictionary
3
ACAD_GROUP
350
D
3
ACAD_MLINESTYLE
350
17
0
DICTIONARY
5
D
100
AcDbDictionary
0
DICTIONARY
5
1A
330
C
100
AcDbDictionary
0
DICTIONARY
5
17
100
AcDbDictionary
0
ENDSEC
0
EOF
