0
SECTION
2
HEADER
9
$INSUNITS
70
4
9
$ACADVER
1
AC1014
9
$HANDSEED
5
FFFF
0
ENDSEC
0
SECTION
2
TABLES
0
TABLE
2
VPORT
5
8
100
AcDbSymbolTable
0
ENDTAB
0
TABLE
2
LTYPE
5
5
100
AcDbSymbolTable
0
LTYPE
5
14
100
AcDbSymbolTableRecord
100
AcDbLinetypeTableRecord
2
BYBLOCK
70
0
0
LTYPE
5
15
100
AcDbSymbolTableRecord
100
AcDbLinetypeTableRecord
2
BYLAYER
70
0
0
ENDTAB
0
TABLE
2
LAYER
5
2
100
AcDbSymbolTable
70
2
0
LAYER
5
50
100
AcDbSymbolTableRecord
100
AcDbLayerTableRecord
2
0
70
0
6
CONTINUOUS
0
ENDTAB
0
TABLE
2
STYLE
5
3
100
AcDbSymbolTable
70
1
0
STYLE
5
11
100
AcDbSymbolTableRecord
100
AcDbTextStyleTableRecord
2
STANDARD
70
0
0
ENDTAB
0
TABLE
2
VIEW
5
6
100
AcDbSymbolTable
70
0
0
ENDTAB
0
TABLE
2
UCS
5
7
100
AcDbSymbolTable
70
0
0
ENDTAB
0
TABLE
2
APPID
5
9
100
AcDbSymbolTable
70
2
0
APPID
5
12
100
AcDbSymbolTableRecord
100
AcDbRegAppTableRecord
2
ACAD
70
0
0
ENDTAB
0
TABLE
2
DIMSTYLE
5
A
100
AcDbSymbolTable
70
1
0
ENDTAB
0
TABLE
2
BLOCK_RECORD
5
1
100
AcDbSymbolTable
70
1
0
BLOCK_RECORD
5
1F
100
AcDbSymbolTableRecord
100
AcDbBlockTableRecord
2
*MODEL_SPACE
0
BLOCK_RECORD
5
1B
100
AcDbSymbolTableRecord
100
AcDbBlockTableRecord
2
*PAPER_SPACE
0
ENDTAB
0
ENDSEC
0
SECTION
2
BLOCKS
0
BLOCK
5
20
100
AcDbEntity
100
AcDbBlockBegin
2
*MODEL_SPACE
0
ENDBLK
5
21
100
AcDbEntity
100
AcDbBlockEnd
0
BLOCK
5
1C
100
AcDbEntity
100
AcDbBlockBegin
2
*PAPER_SPACE
0
ENDBLK
5
1D
100
AcDbEntity
100
AcDbBlockEnd
0
ENDSEC
0
SECTION
2
ENTITIES
0
LWPOLYLINE
5
100
100
AcDbEntity
8
0
100
AcDbPolyline
90
48
70
1
43
0.0
10
30.016064494335168
20
0.14878975515721982
42
-0.19891236737965731
10
27.187637369588987
20
1.3203626304110283
10
22.359210244842814
20
6.1487897551572246
42
0.41421356237309453
10
16.359210244842814
20
6.1487897551572228
10
11.530783120096631
20
1.3203626304110316
42
-0.19891236737965834
10
8.7023559953504339
20
0.14878975515721871
10
0.35921024484281361
20
0.14878975515721926
42
0.41421356237311552
10
-0.14878975515721926
20
-0.35921024484277808
10
-0.14878975515722814
20
-20.17121024484279
42
0.41421356237308998
10
0.35921024484277808
20
-20.679210244842785
10
4.8042102448427748
20
-20.679210244842775
42
-0.41421356237310336
10
5.3122102448427899
20
-21.187210244842785
10
5.3122102448427899
20
-39.221210244842787
42
0.41421356237309248
10
5.8202102448427873
20
-39.729210244842783
10
9.6302102448427895
20
-39.729210244842797
42
-0.41421356237308993
10
10.138210244842778
20
-40.2372102448428
10
10.138210244842778
20
-58.271210244842791
42
0.41421356237309509
10
10.646210244842784
20
-58.779210244842801
10
18.989355995350426
20
-58.779210244842794
42
-0.19891236737965848
10
21.817783120096621
20
-59.950783120096609
10
26.646210244842781
20
-64.779210244842773
42
0.4142135623730957
10
32.646210244842784
20
-64.779210244842787
10
37.474637369588997
20
-59.950783120096609
42
-0.19891236737965717
10
40.303064494335175
20
-58.779210244842801
10
170.47335599535046
20
-58.779210244842787
42
-0.19891236737965717
10
173.30178312009664
20
-59.950783120096595
10
178.13021024484283
20
-64.779210244842801
42
0.41421356237309587
10
184.13021024484283
20
-64.779210244842801
10
188.95863736958901
20
-59.950783120096617
42
-0.19891236737965881
10
191.7870644943352
20
-58.779210244842801
10
200.13021024484283
20
-58.779210244842801
42
0.41421356237311552
10
200.63821024484284
20
-58.271210244842791
10
200.63821024484284
20
-40.2372102448428
42
0.41421356237309509
10
200.13021024484286
20
-39.729210244842804
10
196.32021024484283
20
-39.729210244842811
42
-0.41421356237303614
10
195.81221024484282
20
-39.22121024484278
10
195.81221024484279
20
-21.187210244842785
42
0.41421356237309509
10
195.30421024484284
20
-20.679210244842832
10
191.62121024484279
20
-20.679210244842785
42
-0.4142135623730438
10
191.11321024484283
20
-20.171210244842783
10
191.11321024484283
20
-0.35921024484277808
42
0.41421356237309509
10
190.60521024484285
20
0.14878975515721038
10
182.26206449433528
20
0.14878975515721898
42
-0.19891236737965753
10
179.43363736958906
20
1.3203626304110232
10
174.60521024484285
20
6.1487897551572246
42
0.4142135623730952
10
168.60521024484285
20
6.1487897551572201
10
163.7767831200967
20
1.3203626304110379
42
-0.19891236737965881
10
160.94835599535054
20
0.14878975515721871
0
LWPOLYLINE
5
101
100
AcDbEntity
8
0
100
AcDbPolyline
90
8
70
1
43
0.0
10
16.638210244842796
20
-4.1542102448427629
42
-0.41421356237309698
10
17.138210244842803
20
-4.6542102448427691
10
17.138210244842796
20
-17.654210244842758
42
-0.41421356237308982
10
16.638210244842796
20
-18.154210244842766
10
3.6382102448427966
20
-18.154210244842762
42
-0.41421356237309409
10
3.138210244842794
20
-17.654210244842758
10
3.1382102448427958
20
-4.6542102448427514
42
-0.4142135623730856
10
3.6382102448427966
20
-4.15421024484277
0
LWPOLYLINE
5
102
100
AcDbEntity
8
0
100
AcDbPolyline
90
8
70
1
43
0.0
10
22.1882102448428
20
-4.6542102448427514
42
-0.4142135623730791
10
22.688210244842793
20
-4.1542102448427665
10
35.6882102448428
20
-4.1542102448427611
42
-0.41421356237309825
10
36.188210244842807
20
-4.6542102448427691
10
36.188210244842807
20
-17.654210244842758
42
-0.41421356237309637
10
35.6882102448428
20
-18.154210244842762
10
22.688210244842793
20
-18.154210244842769
42
-0.41421356237311063
10
22.1882102448428
20
-17.654210244842758
0
LWPOLYLINE
5
103
100
AcDbEntity
8
0
100
AcDbPolyline
90
8
70
1
43
0.0
10
21.400710244842799
20
-23.20421024484277
42
-0.41421356237310281
10
21.900710244842795
20
-23.704210244842763
10
21.900710244842791
20
-36.70421024484277
42
-0.41421356237308982
10
21.400710244842799
20
-37.20421024484277
10
8.400710244842795
20
-37.204210244842777
42
-0.41421356237309243
10
7.9007102448427933
20
-36.70421024484277
10
7.9007102448427977
20
-23.704210244842763
42
-0.41421356237310542
10
8.400710244842795
20
-23.204210244842773
0
LWPOLYLINE
5
104
100
AcDbEntity
8
0
100
AcDbPolyline
90
8
70
1
43
0.0
10
26.163210244842794
20
-42.254210244842767
42
-0.41421356237310802
10
26.663210244842812
20
-42.754210244842774
10
26.663210244842801
20
-55.754210244842781
42
-0.41421356237307422
10
26.163210244842794
20
-56.254210244842767
10
13.163210244842798
20
-56.254210244842767
42
-0.41421356237310542
10
12.663210244842791
20
-55.754210244842781
10
12.663210244842794
20
-42.754210244842774
42
-0.4142135623730977
10
13.163210244842798
20
-42.254210244842774
0
CIRCLE
5
105
100
AcDbEntity
8
0
100
AcDbCircle
10
29.646210244842788
20
-61.579210244842798
30
0
40
1.6000000000000014
210
0
220
-0
230
1
0
LWPOLYLINE
5
106
100
AcDbEntity
8
0
100
AcDbPolyline
90
8
70
1
43
0.0
10
32.213210244842799
20
-56.254210244842753
42
-0.4142135623730977
10
31.713210244842799
20
-55.754210244842781
10
31.713210244842791
20
-42.754210244842774
42
-0.41421356237310281
10
32.213210244842799
20
-42.254210244842767
10
45.213210244842799
20
-42.25421024484276
42
-0.41421356237308982
10
45.713210244842806
20
-42.754210244842753
10
45.713210244842799
20
-55.754210244842781
42
-0.41421356237311063
10
45.213210244842799
20
-56.254210244842767
0
LWPOLYLINE
5
107
100
AcDbEntity
8
0
100
AcDbPolyline
90
8
70
1
43
0.0
10
27.450710244842792
20
-37.20421024484277
42
-0.41421356237309509
10
26.950710244842789
20
-36.70421024484277
10
26.950710244842799
20
-23.704210244842763
42
-0.41421356237310281
10
27.450710244842792
20
-23.204210244842773
10
40.450710244842796
20
-23.204210244842773
42
-0.41421356237311585
10
40.950710244842803
20
-23.704210244842763
10
40.950710244842782
20
-36.70421024484277
42
-0.41421356237309243
10
40.450710244842796
20
-37.204210244842777
0
LWPOLYLINE
5
108
100
AcDbEntity
8
0
100
AcDbPolyline
90
8
70
1
43
0.0
10
41.738210244842797
20
-18.154210244842766
42
-0.41421356237310542
10
41.23821024484279
20
-17.654210244842758
10
41.238210244842797
20
-4.6542102448427514
42
-0.41421356237307583
10
41.738210244842797
20
-4.1542102448427709
10
54.738210244842811
20
-4.1542102448427629
42
-0.41421356237309959
10
55.238210244842811
20
-4.6542102448427514
10
55.238210244842804
20
-17.654210244842776
42
-0.41421356237309509
10
54.738210244842811
20
-18.154210244842766
0
LWPOLYLINE
5
109
100
AcDbEntity
8
0
100
AcDbPolyline
90
8
70
1
43
0.0
10
60.788210244842809
20
-18.154210244842769
42
-0.41421356237312362
10
60.288210244842801
20
-17.654210244842758
10
60.288210244842801
20
-4.6542102448427691
42
-0.41421356237309437
10
60.788210244842801
20
-4.1542102448427709
10
73.788210244842787
20
-4.1542102448427753
42
-0.41421356237312362
10
74.288210244842787
20
-4.6542102448427869
10
74.288210244842787
20
-17.654210244842758
42
-0.41421356237308726
10
73.788210244842787
20
-18.154210244842766
0
LWPOLYLINE
5
110
100
AcDbEntity
8
0
100
AcDbPolyline
90
8
70
1
43
0.0
10
59.500710244842807
20
-23.204210244842777
42
-0.41421356237308726
10
60.000710244842807
20
-23.704210244842763
10
60.000710244842814
20
-36.70421024484277
42
-0.41421356237308982
10
59.500710244842814
20
-37.204210244842777
10
46.5007102448428
20
-37.204210244842784
42
-0.41421356237309243
10
46.0007102448428
20
-36.70421024484277
10
46.000710244842793
20
-23.704210244842763
42
-0.41421356237308726
10
46.5007102448428
20
-23.204210244842773
0
LWPOLYLINE
5
111
100
AcDbEntity
8
0
100
AcDbPolyline
90
8
70
1
43
0.0
10
64.263210244842824
20
-42.25421024484276
42
-0.414213562373069
10
64.76321024484281
20
-42.754210244842774
10
64.76321024484281
20
-55.754210244842781
42
-0.41421356237308465
10
64.263210244842824
20
-56.254210244842767
10
51.26321024484281
20
-56.254210244842753
42
-0.4142135623731002
10
50.76321024484281
20
-55.754210244842781
10
50.763210244842824
20
-42.754210244842753
42
-0.41421356237312629
10
51.26321024484281
20
-42.254210244842767
0
LWPOLYLINE
5
112
100
AcDbEntity
8
0
100
AcDbPolyline
90
8
70
1
43
0.0
10
65.550710244842804
20
-37.204210244842777
42
-0.41421356237308982
10
65.050710244842804
20
-36.70421024484277
10
65.050710244842804
20
-23.704210244842763
42
-0.4142135623731002
10
65.550710244842804
20
-23.204210244842773
10
78.550710244842804
20
-23.204210244842777
42
-0.41421356237309243
10
79.050710244842804
20
-23.704210244842763
10
79.05071024484279
20
-36.70421024484277
42
-0.41421356237309243
10
78.550710244842804
20
-37.204210244842777
0
LWPOLYLINE
5
113
100
AcDbEntity
8
0
100
AcDbPolyline
90
8
70
1
43
0.0
10
83.313210244842793
20
-42.25421024484276
42
-0.41421356237308982
10
83.813210244842793
20
-42.754210244842774
10
83.813210244842793
20
-55.754210244842781
42
-0.41421356237309509
10
83.313210244842807
20
-56.254210244842767
10
70.313210244842807
20
-56.254210244842767
42
-0.41421356237311063
10
69.813210244842807
20
-55.754210244842781
10
69.813210244842807
20
-42.754210244842774
42
-0.41421356237309509
10
70.313210244842807
20
-42.254210244842774
0
LWPOLYLINE
5
114
100
AcDbEntity
8
0
100
AcDbPolyline
90
20
70
1
43
0.0
10
113.9512102448428
20
-41.75421024484276
42
-0.41421356237310542
10
114.4512102448428
20
-41.254210244842767
10
120.2012102448428
20
-41.254210244842753
42
-0.41421356237310542
10
120.70121024484281
20
-41.75421024484276
10
120.7012102448428
20
-42.254210244842767
10
121.41321024484279
20
-42.254210244842753
42
-0.41421356237306384
10
121.9132102448428
20
-42.754210244842774
10
121.91321024484279
20
-55.754210244842781
42
-0.41421356237309509
10
121.41321024484279
20
-56.254210244842767
10
89.36321024484279
20
-56.254210244842781
42
-0.414213562373069
10
88.863210244842776
20
-55.754210244842781
10
88.863210244842776
20
-42.754210244842753
42
-0.41421356237313145
10
89.36321024484279
20
-42.254210244842767
10
90.075210244842793
20
-42.254210244842767
10
90.075210244842822
20
-41.75421024484276
42
-0.41421356237308465
10
90.575210244842793
20
-41.254210244842767
10
96.325210244842793
20
-41.254210244842753
42
-0.41421356237310542
10
96.825210244842822
20
-41.75421024484276
10
96.825210244842808
20
-42.254210244842767
10
113.9512102448428
20
-42.254210244842767
0
LWPOLYLINE
5
115
100
AcDbEntity
8
0
100
AcDbPolyline
90
8
70
1
43
0.0
10
84.600710244842787
20
-37.20421024484277
42
-0.4142135623731002
10
84.100710244842801
20
-36.70421024484277
10
84.100710244842787
20
-23.704210244842763
42
-0.4142135623730977
10
84.600710244842773
20
-23.204210244842773
10
97.600710244842787
20
-23.204210244842759
42
-0.41421356237309243
10
98.100710244842801
20
-23.704210244842763
10
98.100710244842801
20
-36.70421024484277
42
-0.41421356237309243
10
97.600710244842787
20
-37.204210244842777
0
LWPOLYLINE
5
116
100
AcDbEntity
8
0
100
AcDbPolyline
90
8
70
1
43
0.0
10
79.838210244842784
20
-18.154210244842766
42
-0.41421356237310542
10
79.33821024484277
20
-17.654210244842758
10
79.338210244842784
20
-4.6542102448427691
42
-0.41421356237309698
10
79.838210244842784
20
-4.1542102448427709
10
92.838210244842799
20
-4.1542102448427745
42
-0.41421356237311879
10
93.338210244842784
20
-4.6542102448427691
10
93.338210244842827
20
-17.654210244842776
42
-0.41421356237310936
10
92.838210244842799
20
-18.154210244842766
0
LWPOLYLINE
5
117
100
AcDbEntity
8
0
100
AcDbPolyline
90
8
70
1
43
0.0
10
98.888210244842796
20
-18.154210244842762
42
-0.41421356237310281
10
98.388210244842838
20
-17.654210244842758
10
98.388210244842782
20
-4.6542102448427514
42
-0.41421356237313017
10
98.888210244842796
20
-4.154210244842762
10
111.88821024484281
20
-4.1542102448427629
42
-0.41421356237309437
10
112.38821024484281
20
-4.6542102448427691
10
112.38821024484281
20
-17.654210244842776
42
-0.41421356237311319
10
111.88821024484281
20
-18.154210244842748
0
LWPOLYLINE
5
118
100
AcDbEntity
8
0
100
AcDbPolyline
90
8
70
1
43
0.0
10
116.6507102448428
20
-23.204210244842749
42
-0.41421356237304818
10
117.1507102448428
20
-23.704210244842763
10
117.15071024484277
20
-36.70421024484277
42
-0.41421356237305862
10
116.65071024484278
20
-37.204210244842777
10
103.6507102448428
20
-37.20421024484277
42
-0.41421356237309243
10
103.1507102448428
20
-36.70421024484277
10
103.1507102448428
20
-23.704210244842763
42
-0.41421356237310542
10
103.6507102448428
20
-23.204210244842773
0
LWPOLYLINE
5
119
100
AcDbEntity
8
0
100
AcDbPolyline
90
8
70
1
43
0.0
10
117.93821024484281
20
-18.154210244842758
42
-0.41421356237304952
10
117.43821024484282
20
-17.654210244842776
10
117.43821024484279
20
-4.6542102448427514
42
-0.41421356237313017
10
117.93821024484281
20
-4.154210244842762
10
130.93821024484276
20
-4.1542102448427629
42
-0.41421356237309437
10
131.43821024484279
20
-4.6542102448427691
10
131.43821024484279
20
-17.654210244842776
42
-0.41421356237309892
10
130.93821024484276
20
-18.154210244842766
0
LWPOLYLINE
5
120
100
AcDbEntity
8
0
100
AcDbPolyline
90
8
70
1
43
0.0
10
135.70071024484281
20
-23.204210244842749
42
-0.41421356237304818
10
136.20071024484281
20
-23.704210244842763
10
136.20071024484278
20
-36.70421024484277
42
-0.41421356237305862
10
135.70071024484281
20
-37.204210244842777
10
122.70071024484281
20
-37.20421024484277
42
-0.41421356237309243
10
122.20071024484281
20
-36.70421024484277
10
122.20071024484281
20
-23.704210244842763
42
-0.41421356237310542
10
122.70071024484281
20
-23.204210244842773
0
LWPOLYLINE
5
121
100
AcDbEntity
8
0
100
AcDbPolyline
90
8
70
1
43
0.0
10
140.46321024484274
20
-42.25421024484276
42
-0.41421356237311063
10
140.9632102448428
20
-42.754210244842774
10
140.9632102448428
20
-55.754210244842781
42
-0.41421356237310542
10
140.4632102448428
20
-56.254210244842767
10
127.4632102448428
20
-56.254210244842767
42
-0.41421356237306384
10
126.96321024484278
20
-55.754210244842781
10
126.96321024484278
20
-42.754210244842753
42
-0.41421356237306384
10
127.4632102448428
20
-42.254210244842767
0
LWPOLYLINE
5
122
100
AcDbEntity
8
0
100
AcDbPolyline
90
8
70
1
43
0.0
10
159.51321024484275
20
-42.25421024484276
42
-0.41421356237311063
10
160.01321024484281
20
-42.754210244842774
10
160.01321024484281
20
-55.754210244842781
42
-0.41421356237308465
10
159.51321024484281
20
-56.254210244842767
10
146.51321024484281
20
-56.254210244842781
42
-0.414213562373069
10
146.01321024484281
20
-55.754210244842795
10
146.01321024484281
20
-42.754210244842774
42
-0.41421356237308982
10
146.51321024484281
20
-42.254210244842767
0
LWPOLYLINE
5
123
100
AcDbEntity
8
0
100
AcDbPolyline
90
8
70
1
43
0.0
10
178.56321024484276
20
-42.254210244842731
42
-0.41421356237315754
10
179.06321024484276
20
-42.754210244842774
10
179.06321024484276
20
-55.754210244842781
42
-0.41421356237315227
10
178.56321024484276
20
-56.254210244842753
10
165.56321024484282
20
-56.254210244842795
42
-0.41421356237307944
10
165.06321024484279
20
-55.754210244842781
10
165.06321024484279
20
-42.754210244842774
42
-0.41421356237307944
10
165.56321024484282
20
-42.254210244842767
0
LWPOLYLINE
5
124
100
AcDbEntity
8
0
100
AcDbPolyline
90
8
70
1
43
0.0
10
197.61321024484283
20
-42.254210244842803
42
-0.41421356237315754
10
198.11321024484283
20
-42.754210244842774
10
198.11321024484278
20
-55.754210244842781
42
-0.41421356237301699
10
197.61321024484283
20
-56.254210244842767
10
184.6132102448428
20
-56.254210244842746
42
-0.41421356237315227
10
184.1132102448428
20
-55.754210244842781
10
184.1132102448428
20
-42.754210244842774
42
-0.4142135623731471
10
184.6132102448428
20
-42.254210244842767
0
CIRCLE
5
125
100
AcDbEntity
8
0
100
AcDbCircle
10
181.13021024484283
20
-61.579210244842805
30
0
40
1.6000000000000014
210
0
220
-0
230
1
0
LWPOLYLINE
5
126
100
AcDbEntity
8
0
100
AcDbPolyline
90
8
70
1
43
0.0
10
179.85071024484279
20
-37.204210244842798
42
-0.41421356237310542
10
179.35071024484279
20
-36.70421024484277
10
179.35071024484284
20
-23.70421024484278
42
-0.41421356237307944
10
179.85071024484279
20
-23.204210244842791
10
192.85071024484282
20
-23.204210244842749
42
-0.41421356237307944
10
193.35071024484284
20
-23.704210244842763
10
193.35071024484284
20
-36.70421024484277
42
-0.41421356237307422
10
192.85071024484282
20
-37.204210244842777
0
LWPOLYLINE
5
127
100
AcDbEntity
8
0
100
AcDbPolyline
90
8
70
1
43
0.0
10
160.8007102448428
20
-37.20421024484277
42
-0.41421356237313145
10
160.30071024484278
20
-36.70421024484277
10
160.30071024484278
20
-23.704210244842763
42
-0.41421356237307422
10
160.8007102448428
20
-23.204210244842773
10
173.8007102448428
20
-23.204210244842773
42
-0.41421356237312629
10
174.3007102448428
20
-23.704210244842763
10
174.3007102448428
20
-36.70421024484277
42
-0.4142135623731002
10
173.8007102448428
20
-37.204210244842777
0
LWPOLYLINE
5
128
100
AcDbEntity
8
0
100
AcDbPolyline
90
8
70
1
43
0.0
10
155.25071024484282
20
-36.70421024484277
42
-0.41421356237307422
10
154.75071024484279
20
-37.204210244842777
10
141.75071024484279
20
-37.20421024484277
42
-0.41421356237309243
10
141.25071024484276
20
-36.70421024484277
10
141.25071024484276
20
-23.704210244842763
42
-0.41421356237310542
10
141.75071024484279
20
-23.204210244842773
10
154.75071024484279
20
-23.204210244842756
42
-0.41421356237307422
10
155.25071024484282
20
-23.704210244842763
0
LWPOLYLINE
5
129
100
AcDbEntity
8
0
100
AcDbPolyline
90
8
70
1
43
0.0
10
136.9882102448428
20
-18.15421024484279
42
-0.41421356237305734
10
136.4882102448428
20
-17.654210244842776
10
136.4882102448428
20
-4.6542102448427691
42
-0.41421356237305795
10
136.9882102448428
20
-4.154210244842762
10
149.98821024484278
20
-4.1542102448427629
42
-0.41421356237309437
10
150.4882102448428
20
-4.6542102448427691
10
150.4882102448428
20
-17.654210244842758
42
-0.41421356237310675
10
149.98821024484278
20
-18.154210244842748
0
LWPOLYLINE
5
130
100
AcDbEntity
8
0
100
AcDbPolyline
90
8
70
1
43
0.0
10
156.03821024484282
20
-18.154210244842762
42
-0.41421356237307289
10
155.53821024484282
20
-17.654210244842776
10
155.53821024484282
20
-4.6542102448427691
42
-0.41421356237305795
10
156.03821024484282
20
-4.154210244842762
10
169.03821024484279
20
-4.1542102448427647
42
-0.41421356237315582
10
169.53821024484279
20
-4.6542102448427691
10
169.53821024484282
20
-17.654210244842758
42
-0.4142135623731002
10
169.03821024484284
20
-18.154210244842748
0
LWPOLYLINE
5
131
100
AcDbEntity
8
0
100
AcDbPolyline
90
8
70
1
43
0.0
10
175.08821024484286
20
-18.154210244842758
42
-0.41421356237311197
10
174.5882102448428
20
-17.654210244842758
10
174.58821024484283
20
-4.6542102448427691
42
-0.41421356237310092
10
175.0882102448428
20
-4.1542102448427798
10
188.08821024484277
20
-4.1542102448427425
42
-0.41421356237314838
10
188.5882102448428
20
-4.6542102448427691
10
188.5882102448428
20
-17.654210244842776
42
-0.414213562373134
10
188.08821024484277
20
-18.154210244842783
0
CIRCLE
5
132
100
AcDbEntity
8
0
100
AcDbCircle
10
171.60521024484285
20
2.9487897551572191
30
0
40
1.6000000000000014
210
0
220
-0
230
1
0
CIRCLE
5
133
100
AcDbEntity
8
0
100
AcDbCircle
10
19.359210244842814
20
2.9487897551572191
30
0
40
1.6000000000000036
210
0
220
-0
230
1
0
CIRCLE
5
134
100
AcDbEntity
8
0
100
AcDbCircle
10
24.362210244842792
20
-22.330210244842753
30
0
40
1.1000000000000001
210
0
220
0
230
1
0
CIRCLE
5
135
100
AcDbEntity
8
0
100
AcDbCircle
10
24.362210244842792
20
-39.729210244842747
30
0
40
1.1000000000000001
210
0
220
0
230
1
0
CIRCLE
5
136
100
AcDbEntity
8
0
100
AcDbCircle
10
176.6987102448428
20
-39.475210244842764
30
0
40
1.1000000000000001
210
0
220
0
230
1
0
CIRCLE
5
137
100
AcDbEntity
8
0
100
AcDbCircle
10
176.76221024484281
20
-20.679210244842757
30
0
40
1.1000000000000001
210
0
220
0
230
1
0
ENDSEC
0
SECTION
2
OBJECTS
0
DICTIONARY
5
C
100
AcDbDictionary
3
ACAD_GROUP
350
D
3
ACAD_MLINESTYLE
350
17
0
DICTIONARY
5
D
100
AcDbDictionary
0
DICTIONARY
5
1A
330
C
100
AcDbDictionary
0
DICTIONARY
5
17
100
AcDbDictionary
0
ENDSEC
0
EOF
