G04 #@! TF.GenerationSoftware,KiCad,Pcbnew,(5.1.4-0-10_14)*
G04 #@! TF.CreationDate,2020-06-01T00:22:02-05:00*
G04 #@! TF.ProjectId,omega,6f6d6567-612e-46b6-9963-61645f706362,rev?*
G04 #@! TF.SameCoordinates,Original*
G04 #@! TF.FileFunction,Legend,Bot*
G04 #@! TF.FilePolarity,Positive*
%FSLAX46Y46*%
G04 Gerber Fmt 4.6, Leading zero omitted, Abs format (unit mm)*
G04 Created by KiCad (PCBNEW (5.1.4-0-10_14)) date 2020-06-01 00:22:02*
%MOMM*%
%LPD*%
G04 APERTURE LIST*
%ADD10C,0.150000*%
%ADD11C,0.120000*%
G04 APERTURE END LIST*
D10*
X56007000Y-41656000D02*
X86487000Y-41656000D01*
X56007000Y-46736000D02*
X56007000Y-41656000D01*
X53467000Y-46736000D02*
X56007000Y-46736000D01*
X53467000Y-54356000D02*
X53467000Y-46736000D01*
X56007000Y-54356000D02*
X53467000Y-54356000D01*
X56007000Y-59436000D02*
X56007000Y-54356000D01*
X86487000Y-59436000D02*
X56007000Y-59436000D01*
X86487000Y-41656000D02*
X86487000Y-59436000D01*
X97730000Y-60385000D02*
X102930000Y-60385000D01*
X102930000Y-60385000D02*
X102930000Y-55185000D01*
X102930000Y-55185000D02*
X97730000Y-55185000D01*
X97730000Y-55185000D02*
X97730000Y-60385000D01*
X101330000Y-57785000D02*
G75*
G03X101330000Y-57785000I-1000000J0D01*
G01*
D11*
X95499422Y-51995000D02*
X96016578Y-51995000D01*
X95499422Y-53415000D02*
X96016578Y-53415000D01*
X253349000Y-95976000D02*
X253349000Y-92076000D01*
X251349000Y-95976000D02*
X251349000Y-92076000D01*
X253349000Y-95976000D02*
X251349000Y-95976000D01*
X234299000Y-95976000D02*
X234299000Y-92076000D01*
X232299000Y-95976000D02*
X232299000Y-92076000D01*
X234299000Y-95976000D02*
X232299000Y-95976000D01*
X215249000Y-95976000D02*
X215249000Y-92076000D01*
X213249000Y-95976000D02*
X213249000Y-92076000D01*
X215249000Y-95976000D02*
X213249000Y-95976000D01*
X196199000Y-95976000D02*
X196199000Y-92076000D01*
X194199000Y-95976000D02*
X194199000Y-92076000D01*
X196199000Y-95976000D02*
X194199000Y-95976000D01*
X167624000Y-95849000D02*
X167624000Y-91949000D01*
X165624000Y-95849000D02*
X165624000Y-91949000D01*
X167624000Y-95849000D02*
X165624000Y-95849000D01*
X139049000Y-95976000D02*
X139049000Y-92076000D01*
X137049000Y-95976000D02*
X137049000Y-92076000D01*
X139049000Y-95976000D02*
X137049000Y-95976000D01*
X119999000Y-95976000D02*
X119999000Y-92076000D01*
X117999000Y-95976000D02*
X117999000Y-92076000D01*
X119999000Y-95976000D02*
X117999000Y-95976000D01*
X100949000Y-95976000D02*
X100949000Y-92076000D01*
X98949000Y-95976000D02*
X98949000Y-92076000D01*
X100949000Y-95976000D02*
X98949000Y-95976000D01*
X81899000Y-95976000D02*
X81899000Y-92076000D01*
X79899000Y-95976000D02*
X79899000Y-92076000D01*
X81899000Y-95976000D02*
X79899000Y-95976000D01*
X248523000Y-76926000D02*
X248523000Y-73026000D01*
X246523000Y-76926000D02*
X246523000Y-73026000D01*
X248523000Y-76926000D02*
X246523000Y-76926000D01*
X229473000Y-76926000D02*
X229473000Y-73026000D01*
X227473000Y-76926000D02*
X227473000Y-73026000D01*
X229473000Y-76926000D02*
X227473000Y-76926000D01*
X210423000Y-76926000D02*
X210423000Y-73026000D01*
X208423000Y-76926000D02*
X208423000Y-73026000D01*
X210423000Y-76926000D02*
X208423000Y-76926000D01*
X191373000Y-76926000D02*
X191373000Y-73026000D01*
X189373000Y-76926000D02*
X189373000Y-73026000D01*
X191373000Y-76926000D02*
X189373000Y-76926000D01*
X172323000Y-76926000D02*
X172323000Y-73026000D01*
X170323000Y-76926000D02*
X170323000Y-73026000D01*
X172323000Y-76926000D02*
X170323000Y-76926000D01*
X153273000Y-76926000D02*
X153273000Y-73026000D01*
X151273000Y-76926000D02*
X151273000Y-73026000D01*
X153273000Y-76926000D02*
X151273000Y-76926000D01*
X134223000Y-76926000D02*
X134223000Y-73026000D01*
X132223000Y-76926000D02*
X132223000Y-73026000D01*
X134223000Y-76926000D02*
X132223000Y-76926000D01*
X115173000Y-76926000D02*
X115173000Y-73026000D01*
X113173000Y-76926000D02*
X113173000Y-73026000D01*
X115173000Y-76926000D02*
X113173000Y-76926000D01*
X96123000Y-76926000D02*
X96123000Y-73026000D01*
X94123000Y-76926000D02*
X94123000Y-73026000D01*
X96123000Y-76926000D02*
X94123000Y-76926000D01*
X77073000Y-76926000D02*
X77073000Y-73026000D01*
X75073000Y-76926000D02*
X75073000Y-73026000D01*
X77073000Y-76926000D02*
X75073000Y-76926000D01*
X243824000Y-57876000D02*
X243824000Y-53976000D01*
X241824000Y-57876000D02*
X241824000Y-53976000D01*
X243824000Y-57876000D02*
X241824000Y-57876000D01*
X224774000Y-57875000D02*
X224774000Y-53975000D01*
X222774000Y-57875000D02*
X222774000Y-53975000D01*
X224774000Y-57875000D02*
X222774000Y-57875000D01*
X205724000Y-57876000D02*
X205724000Y-53976000D01*
X203724000Y-57876000D02*
X203724000Y-53976000D01*
X205724000Y-57876000D02*
X203724000Y-57876000D01*
X186674000Y-57876000D02*
X186674000Y-53976000D01*
X184674000Y-57876000D02*
X184674000Y-53976000D01*
X186674000Y-57876000D02*
X184674000Y-57876000D01*
X167624000Y-57876000D02*
X167624000Y-53976000D01*
X165624000Y-57876000D02*
X165624000Y-53976000D01*
X167624000Y-57876000D02*
X165624000Y-57876000D01*
X148574000Y-57876000D02*
X148574000Y-53976000D01*
X146574000Y-57876000D02*
X146574000Y-53976000D01*
X148574000Y-57876000D02*
X146574000Y-57876000D01*
X129524000Y-57876000D02*
X129524000Y-53976000D01*
X127524000Y-57876000D02*
X127524000Y-53976000D01*
X129524000Y-57876000D02*
X127524000Y-57876000D01*
X110474000Y-57876000D02*
X110474000Y-53976000D01*
X108474000Y-57876000D02*
X108474000Y-53976000D01*
X110474000Y-57876000D02*
X108474000Y-57876000D01*
X91424000Y-57876000D02*
X91424000Y-53976000D01*
X89424000Y-57876000D02*
X89424000Y-53976000D01*
X91424000Y-57876000D02*
X89424000Y-57876000D01*
X74660000Y-55844000D02*
X74660000Y-51944000D01*
X72660000Y-55844000D02*
X72660000Y-51944000D01*
X74660000Y-55844000D02*
X72660000Y-55844000D01*
D10*
X101663333Y-54125761D02*
X101520476Y-54173380D01*
X101282380Y-54173380D01*
X101187142Y-54125761D01*
X101139523Y-54078142D01*
X101091904Y-53982904D01*
X101091904Y-53887666D01*
X101139523Y-53792428D01*
X101187142Y-53744809D01*
X101282380Y-53697190D01*
X101472857Y-53649571D01*
X101568095Y-53601952D01*
X101615714Y-53554333D01*
X101663333Y-53459095D01*
X101663333Y-53363857D01*
X101615714Y-53268619D01*
X101568095Y-53221000D01*
X101472857Y-53173380D01*
X101234761Y-53173380D01*
X101091904Y-53221000D01*
X100758571Y-53173380D02*
X100520476Y-54173380D01*
X100330000Y-53459095D01*
X100139523Y-54173380D01*
X99901428Y-53173380D01*
X98996666Y-54173380D02*
X99568095Y-54173380D01*
X99282380Y-54173380D02*
X99282380Y-53173380D01*
X99377619Y-53316238D01*
X99472857Y-53411476D01*
X99568095Y-53459095D01*
X95924666Y-54807380D02*
X96258000Y-54331190D01*
X96496095Y-54807380D02*
X96496095Y-53807380D01*
X96115142Y-53807380D01*
X96019904Y-53855000D01*
X95972285Y-53902619D01*
X95924666Y-53997857D01*
X95924666Y-54140714D01*
X95972285Y-54235952D01*
X96019904Y-54283571D01*
X96115142Y-54331190D01*
X96496095Y-54331190D01*
X94972285Y-54807380D02*
X95543714Y-54807380D01*
X95258000Y-54807380D02*
X95258000Y-53807380D01*
X95353238Y-53950238D01*
X95448476Y-54045476D01*
X95543714Y-54093095D01*
X248268904Y-92527380D02*
X248268904Y-91527380D01*
X247935571Y-92241666D01*
X247602238Y-91527380D01*
X247602238Y-92527380D01*
X247221285Y-91527380D02*
X246554619Y-92527380D01*
X246554619Y-91527380D02*
X247221285Y-92527380D01*
X246221285Y-91622619D02*
X246173666Y-91575000D01*
X246078428Y-91527380D01*
X245840333Y-91527380D01*
X245745095Y-91575000D01*
X245697476Y-91622619D01*
X245649857Y-91717857D01*
X245649857Y-91813095D01*
X245697476Y-91955952D01*
X246268904Y-92527380D01*
X245649857Y-92527380D01*
X245173666Y-92527380D02*
X244983190Y-92527380D01*
X244887952Y-92479761D01*
X244840333Y-92432142D01*
X244745095Y-92289285D01*
X244697476Y-92098809D01*
X244697476Y-91717857D01*
X244745095Y-91622619D01*
X244792714Y-91575000D01*
X244887952Y-91527380D01*
X245078428Y-91527380D01*
X245173666Y-91575000D01*
X245221285Y-91622619D01*
X245268904Y-91717857D01*
X245268904Y-91955952D01*
X245221285Y-92051190D01*
X245173666Y-92098809D01*
X245078428Y-92146428D01*
X244887952Y-92146428D01*
X244792714Y-92098809D01*
X244745095Y-92051190D01*
X244697476Y-91955952D01*
X229218904Y-92527380D02*
X229218904Y-91527380D01*
X228885571Y-92241666D01*
X228552238Y-91527380D01*
X228552238Y-92527380D01*
X228171285Y-91527380D02*
X227504619Y-92527380D01*
X227504619Y-91527380D02*
X228171285Y-92527380D01*
X227171285Y-91622619D02*
X227123666Y-91575000D01*
X227028428Y-91527380D01*
X226790333Y-91527380D01*
X226695095Y-91575000D01*
X226647476Y-91622619D01*
X226599857Y-91717857D01*
X226599857Y-91813095D01*
X226647476Y-91955952D01*
X227218904Y-92527380D01*
X226599857Y-92527380D01*
X226028428Y-91955952D02*
X226123666Y-91908333D01*
X226171285Y-91860714D01*
X226218904Y-91765476D01*
X226218904Y-91717857D01*
X226171285Y-91622619D01*
X226123666Y-91575000D01*
X226028428Y-91527380D01*
X225837952Y-91527380D01*
X225742714Y-91575000D01*
X225695095Y-91622619D01*
X225647476Y-91717857D01*
X225647476Y-91765476D01*
X225695095Y-91860714D01*
X225742714Y-91908333D01*
X225837952Y-91955952D01*
X226028428Y-91955952D01*
X226123666Y-92003571D01*
X226171285Y-92051190D01*
X226218904Y-92146428D01*
X226218904Y-92336904D01*
X226171285Y-92432142D01*
X226123666Y-92479761D01*
X226028428Y-92527380D01*
X225837952Y-92527380D01*
X225742714Y-92479761D01*
X225695095Y-92432142D01*
X225647476Y-92336904D01*
X225647476Y-92146428D01*
X225695095Y-92051190D01*
X225742714Y-92003571D01*
X225837952Y-91955952D01*
X210168904Y-92527380D02*
X210168904Y-91527380D01*
X209835571Y-92241666D01*
X209502238Y-91527380D01*
X209502238Y-92527380D01*
X209121285Y-91527380D02*
X208454619Y-92527380D01*
X208454619Y-91527380D02*
X209121285Y-92527380D01*
X208121285Y-91622619D02*
X208073666Y-91575000D01*
X207978428Y-91527380D01*
X207740333Y-91527380D01*
X207645095Y-91575000D01*
X207597476Y-91622619D01*
X207549857Y-91717857D01*
X207549857Y-91813095D01*
X207597476Y-91955952D01*
X208168904Y-92527380D01*
X207549857Y-92527380D01*
X207216523Y-91527380D02*
X206549857Y-91527380D01*
X206978428Y-92527380D01*
X191118904Y-92527380D02*
X191118904Y-91527380D01*
X190785571Y-92241666D01*
X190452238Y-91527380D01*
X190452238Y-92527380D01*
X190071285Y-91527380D02*
X189404619Y-92527380D01*
X189404619Y-91527380D02*
X190071285Y-92527380D01*
X189071285Y-91622619D02*
X189023666Y-91575000D01*
X188928428Y-91527380D01*
X188690333Y-91527380D01*
X188595095Y-91575000D01*
X188547476Y-91622619D01*
X188499857Y-91717857D01*
X188499857Y-91813095D01*
X188547476Y-91955952D01*
X189118904Y-92527380D01*
X188499857Y-92527380D01*
X187642714Y-91527380D02*
X187833190Y-91527380D01*
X187928428Y-91575000D01*
X187976047Y-91622619D01*
X188071285Y-91765476D01*
X188118904Y-91955952D01*
X188118904Y-92336904D01*
X188071285Y-92432142D01*
X188023666Y-92479761D01*
X187928428Y-92527380D01*
X187737952Y-92527380D01*
X187642714Y-92479761D01*
X187595095Y-92432142D01*
X187547476Y-92336904D01*
X187547476Y-92098809D01*
X187595095Y-92003571D01*
X187642714Y-91955952D01*
X187737952Y-91908333D01*
X187928428Y-91908333D01*
X188023666Y-91955952D01*
X188071285Y-92003571D01*
X188118904Y-92098809D01*
X162543904Y-92527380D02*
X162543904Y-91527380D01*
X162210571Y-92241666D01*
X161877238Y-91527380D01*
X161877238Y-92527380D01*
X161496285Y-91527380D02*
X160829619Y-92527380D01*
X160829619Y-91527380D02*
X161496285Y-92527380D01*
X160496285Y-91622619D02*
X160448666Y-91575000D01*
X160353428Y-91527380D01*
X160115333Y-91527380D01*
X160020095Y-91575000D01*
X159972476Y-91622619D01*
X159924857Y-91717857D01*
X159924857Y-91813095D01*
X159972476Y-91955952D01*
X160543904Y-92527380D01*
X159924857Y-92527380D01*
X159020095Y-91527380D02*
X159496285Y-91527380D01*
X159543904Y-92003571D01*
X159496285Y-91955952D01*
X159401047Y-91908333D01*
X159162952Y-91908333D01*
X159067714Y-91955952D01*
X159020095Y-92003571D01*
X158972476Y-92098809D01*
X158972476Y-92336904D01*
X159020095Y-92432142D01*
X159067714Y-92479761D01*
X159162952Y-92527380D01*
X159401047Y-92527380D01*
X159496285Y-92479761D01*
X159543904Y-92432142D01*
X133968904Y-92527380D02*
X133968904Y-91527380D01*
X133635571Y-92241666D01*
X133302238Y-91527380D01*
X133302238Y-92527380D01*
X132921285Y-91527380D02*
X132254619Y-92527380D01*
X132254619Y-91527380D02*
X132921285Y-92527380D01*
X131921285Y-91622619D02*
X131873666Y-91575000D01*
X131778428Y-91527380D01*
X131540333Y-91527380D01*
X131445095Y-91575000D01*
X131397476Y-91622619D01*
X131349857Y-91717857D01*
X131349857Y-91813095D01*
X131397476Y-91955952D01*
X131968904Y-92527380D01*
X131349857Y-92527380D01*
X130492714Y-91860714D02*
X130492714Y-92527380D01*
X130730809Y-91479761D02*
X130968904Y-92194047D01*
X130349857Y-92194047D01*
X114918904Y-92527380D02*
X114918904Y-91527380D01*
X114585571Y-92241666D01*
X114252238Y-91527380D01*
X114252238Y-92527380D01*
X113871285Y-91527380D02*
X113204619Y-92527380D01*
X113204619Y-91527380D02*
X113871285Y-92527380D01*
X112871285Y-91622619D02*
X112823666Y-91575000D01*
X112728428Y-91527380D01*
X112490333Y-91527380D01*
X112395095Y-91575000D01*
X112347476Y-91622619D01*
X112299857Y-91717857D01*
X112299857Y-91813095D01*
X112347476Y-91955952D01*
X112918904Y-92527380D01*
X112299857Y-92527380D01*
X111966523Y-91527380D02*
X111347476Y-91527380D01*
X111680809Y-91908333D01*
X111537952Y-91908333D01*
X111442714Y-91955952D01*
X111395095Y-92003571D01*
X111347476Y-92098809D01*
X111347476Y-92336904D01*
X111395095Y-92432142D01*
X111442714Y-92479761D01*
X111537952Y-92527380D01*
X111823666Y-92527380D01*
X111918904Y-92479761D01*
X111966523Y-92432142D01*
X95868904Y-92527380D02*
X95868904Y-91527380D01*
X95535571Y-92241666D01*
X95202238Y-91527380D01*
X95202238Y-92527380D01*
X94821285Y-91527380D02*
X94154619Y-92527380D01*
X94154619Y-91527380D02*
X94821285Y-92527380D01*
X93821285Y-91622619D02*
X93773666Y-91575000D01*
X93678428Y-91527380D01*
X93440333Y-91527380D01*
X93345095Y-91575000D01*
X93297476Y-91622619D01*
X93249857Y-91717857D01*
X93249857Y-91813095D01*
X93297476Y-91955952D01*
X93868904Y-92527380D01*
X93249857Y-92527380D01*
X92868904Y-91622619D02*
X92821285Y-91575000D01*
X92726047Y-91527380D01*
X92487952Y-91527380D01*
X92392714Y-91575000D01*
X92345095Y-91622619D01*
X92297476Y-91717857D01*
X92297476Y-91813095D01*
X92345095Y-91955952D01*
X92916523Y-92527380D01*
X92297476Y-92527380D01*
X76818904Y-92527380D02*
X76818904Y-91527380D01*
X76485571Y-92241666D01*
X76152238Y-91527380D01*
X76152238Y-92527380D01*
X75771285Y-91527380D02*
X75104619Y-92527380D01*
X75104619Y-91527380D02*
X75771285Y-92527380D01*
X74771285Y-91622619D02*
X74723666Y-91575000D01*
X74628428Y-91527380D01*
X74390333Y-91527380D01*
X74295095Y-91575000D01*
X74247476Y-91622619D01*
X74199857Y-91717857D01*
X74199857Y-91813095D01*
X74247476Y-91955952D01*
X74818904Y-92527380D01*
X74199857Y-92527380D01*
X73247476Y-92527380D02*
X73818904Y-92527380D01*
X73533190Y-92527380D02*
X73533190Y-91527380D01*
X73628428Y-91670238D01*
X73723666Y-91765476D01*
X73818904Y-91813095D01*
X243442904Y-73477380D02*
X243442904Y-72477380D01*
X243109571Y-73191666D01*
X242776238Y-72477380D01*
X242776238Y-73477380D01*
X242395285Y-72477380D02*
X241728619Y-73477380D01*
X241728619Y-72477380D02*
X242395285Y-73477380D01*
X241395285Y-72572619D02*
X241347666Y-72525000D01*
X241252428Y-72477380D01*
X241014333Y-72477380D01*
X240919095Y-72525000D01*
X240871476Y-72572619D01*
X240823857Y-72667857D01*
X240823857Y-72763095D01*
X240871476Y-72905952D01*
X241442904Y-73477380D01*
X240823857Y-73477380D01*
X240204809Y-72477380D02*
X240109571Y-72477380D01*
X240014333Y-72525000D01*
X239966714Y-72572619D01*
X239919095Y-72667857D01*
X239871476Y-72858333D01*
X239871476Y-73096428D01*
X239919095Y-73286904D01*
X239966714Y-73382142D01*
X240014333Y-73429761D01*
X240109571Y-73477380D01*
X240204809Y-73477380D01*
X240300047Y-73429761D01*
X240347666Y-73382142D01*
X240395285Y-73286904D01*
X240442904Y-73096428D01*
X240442904Y-72858333D01*
X240395285Y-72667857D01*
X240347666Y-72572619D01*
X240300047Y-72525000D01*
X240204809Y-72477380D01*
X224392904Y-73477380D02*
X224392904Y-72477380D01*
X224059571Y-73191666D01*
X223726238Y-72477380D01*
X223726238Y-73477380D01*
X223345285Y-72477380D02*
X222678619Y-73477380D01*
X222678619Y-72477380D02*
X223345285Y-73477380D01*
X221773857Y-73477380D02*
X222345285Y-73477380D01*
X222059571Y-73477380D02*
X222059571Y-72477380D01*
X222154809Y-72620238D01*
X222250047Y-72715476D01*
X222345285Y-72763095D01*
X221297666Y-73477380D02*
X221107190Y-73477380D01*
X221011952Y-73429761D01*
X220964333Y-73382142D01*
X220869095Y-73239285D01*
X220821476Y-73048809D01*
X220821476Y-72667857D01*
X220869095Y-72572619D01*
X220916714Y-72525000D01*
X221011952Y-72477380D01*
X221202428Y-72477380D01*
X221297666Y-72525000D01*
X221345285Y-72572619D01*
X221392904Y-72667857D01*
X221392904Y-72905952D01*
X221345285Y-73001190D01*
X221297666Y-73048809D01*
X221202428Y-73096428D01*
X221011952Y-73096428D01*
X220916714Y-73048809D01*
X220869095Y-73001190D01*
X220821476Y-72905952D01*
X205342904Y-73477380D02*
X205342904Y-72477380D01*
X205009571Y-73191666D01*
X204676238Y-72477380D01*
X204676238Y-73477380D01*
X204295285Y-72477380D02*
X203628619Y-73477380D01*
X203628619Y-72477380D02*
X204295285Y-73477380D01*
X202723857Y-73477380D02*
X203295285Y-73477380D01*
X203009571Y-73477380D02*
X203009571Y-72477380D01*
X203104809Y-72620238D01*
X203200047Y-72715476D01*
X203295285Y-72763095D01*
X202152428Y-72905952D02*
X202247666Y-72858333D01*
X202295285Y-72810714D01*
X202342904Y-72715476D01*
X202342904Y-72667857D01*
X202295285Y-72572619D01*
X202247666Y-72525000D01*
X202152428Y-72477380D01*
X201961952Y-72477380D01*
X201866714Y-72525000D01*
X201819095Y-72572619D01*
X201771476Y-72667857D01*
X201771476Y-72715476D01*
X201819095Y-72810714D01*
X201866714Y-72858333D01*
X201961952Y-72905952D01*
X202152428Y-72905952D01*
X202247666Y-72953571D01*
X202295285Y-73001190D01*
X202342904Y-73096428D01*
X202342904Y-73286904D01*
X202295285Y-73382142D01*
X202247666Y-73429761D01*
X202152428Y-73477380D01*
X201961952Y-73477380D01*
X201866714Y-73429761D01*
X201819095Y-73382142D01*
X201771476Y-73286904D01*
X201771476Y-73096428D01*
X201819095Y-73001190D01*
X201866714Y-72953571D01*
X201961952Y-72905952D01*
X186292904Y-73477380D02*
X186292904Y-72477380D01*
X185959571Y-73191666D01*
X185626238Y-72477380D01*
X185626238Y-73477380D01*
X185245285Y-72477380D02*
X184578619Y-73477380D01*
X184578619Y-72477380D02*
X185245285Y-73477380D01*
X183673857Y-73477380D02*
X184245285Y-73477380D01*
X183959571Y-73477380D02*
X183959571Y-72477380D01*
X184054809Y-72620238D01*
X184150047Y-72715476D01*
X184245285Y-72763095D01*
X183340523Y-72477380D02*
X182673857Y-72477380D01*
X183102428Y-73477380D01*
X167242904Y-73477380D02*
X167242904Y-72477380D01*
X166909571Y-73191666D01*
X166576238Y-72477380D01*
X166576238Y-73477380D01*
X166195285Y-72477380D02*
X165528619Y-73477380D01*
X165528619Y-72477380D02*
X166195285Y-73477380D01*
X164623857Y-73477380D02*
X165195285Y-73477380D01*
X164909571Y-73477380D02*
X164909571Y-72477380D01*
X165004809Y-72620238D01*
X165100047Y-72715476D01*
X165195285Y-72763095D01*
X163766714Y-72477380D02*
X163957190Y-72477380D01*
X164052428Y-72525000D01*
X164100047Y-72572619D01*
X164195285Y-72715476D01*
X164242904Y-72905952D01*
X164242904Y-73286904D01*
X164195285Y-73382142D01*
X164147666Y-73429761D01*
X164052428Y-73477380D01*
X163861952Y-73477380D01*
X163766714Y-73429761D01*
X163719095Y-73382142D01*
X163671476Y-73286904D01*
X163671476Y-73048809D01*
X163719095Y-72953571D01*
X163766714Y-72905952D01*
X163861952Y-72858333D01*
X164052428Y-72858333D01*
X164147666Y-72905952D01*
X164195285Y-72953571D01*
X164242904Y-73048809D01*
X148192904Y-73477380D02*
X148192904Y-72477380D01*
X147859571Y-73191666D01*
X147526238Y-72477380D01*
X147526238Y-73477380D01*
X147145285Y-72477380D02*
X146478619Y-73477380D01*
X146478619Y-72477380D02*
X147145285Y-73477380D01*
X145573857Y-73477380D02*
X146145285Y-73477380D01*
X145859571Y-73477380D02*
X145859571Y-72477380D01*
X145954809Y-72620238D01*
X146050047Y-72715476D01*
X146145285Y-72763095D01*
X144669095Y-72477380D02*
X145145285Y-72477380D01*
X145192904Y-72953571D01*
X145145285Y-72905952D01*
X145050047Y-72858333D01*
X144811952Y-72858333D01*
X144716714Y-72905952D01*
X144669095Y-72953571D01*
X144621476Y-73048809D01*
X144621476Y-73286904D01*
X144669095Y-73382142D01*
X144716714Y-73429761D01*
X144811952Y-73477380D01*
X145050047Y-73477380D01*
X145145285Y-73429761D01*
X145192904Y-73382142D01*
X129142904Y-73477380D02*
X129142904Y-72477380D01*
X128809571Y-73191666D01*
X128476238Y-72477380D01*
X128476238Y-73477380D01*
X128095285Y-72477380D02*
X127428619Y-73477380D01*
X127428619Y-72477380D02*
X128095285Y-73477380D01*
X126523857Y-73477380D02*
X127095285Y-73477380D01*
X126809571Y-73477380D02*
X126809571Y-72477380D01*
X126904809Y-72620238D01*
X127000047Y-72715476D01*
X127095285Y-72763095D01*
X125666714Y-72810714D02*
X125666714Y-73477380D01*
X125904809Y-72429761D02*
X126142904Y-73144047D01*
X125523857Y-73144047D01*
X110092904Y-73477380D02*
X110092904Y-72477380D01*
X109759571Y-73191666D01*
X109426238Y-72477380D01*
X109426238Y-73477380D01*
X109045285Y-72477380D02*
X108378619Y-73477380D01*
X108378619Y-72477380D02*
X109045285Y-73477380D01*
X107473857Y-73477380D02*
X108045285Y-73477380D01*
X107759571Y-73477380D02*
X107759571Y-72477380D01*
X107854809Y-72620238D01*
X107950047Y-72715476D01*
X108045285Y-72763095D01*
X107140523Y-72477380D02*
X106521476Y-72477380D01*
X106854809Y-72858333D01*
X106711952Y-72858333D01*
X106616714Y-72905952D01*
X106569095Y-72953571D01*
X106521476Y-73048809D01*
X106521476Y-73286904D01*
X106569095Y-73382142D01*
X106616714Y-73429761D01*
X106711952Y-73477380D01*
X106997666Y-73477380D01*
X107092904Y-73429761D01*
X107140523Y-73382142D01*
X91042904Y-73477380D02*
X91042904Y-72477380D01*
X90709571Y-73191666D01*
X90376238Y-72477380D01*
X90376238Y-73477380D01*
X89995285Y-72477380D02*
X89328619Y-73477380D01*
X89328619Y-72477380D02*
X89995285Y-73477380D01*
X88423857Y-73477380D02*
X88995285Y-73477380D01*
X88709571Y-73477380D02*
X88709571Y-72477380D01*
X88804809Y-72620238D01*
X88900047Y-72715476D01*
X88995285Y-72763095D01*
X88042904Y-72572619D02*
X87995285Y-72525000D01*
X87900047Y-72477380D01*
X87661952Y-72477380D01*
X87566714Y-72525000D01*
X87519095Y-72572619D01*
X87471476Y-72667857D01*
X87471476Y-72763095D01*
X87519095Y-72905952D01*
X88090523Y-73477380D01*
X87471476Y-73477380D01*
X71992904Y-73477380D02*
X71992904Y-72477380D01*
X71659571Y-73191666D01*
X71326238Y-72477380D01*
X71326238Y-73477380D01*
X70945285Y-72477380D02*
X70278619Y-73477380D01*
X70278619Y-72477380D02*
X70945285Y-73477380D01*
X69373857Y-73477380D02*
X69945285Y-73477380D01*
X69659571Y-73477380D02*
X69659571Y-72477380D01*
X69754809Y-72620238D01*
X69850047Y-72715476D01*
X69945285Y-72763095D01*
X68421476Y-73477380D02*
X68992904Y-73477380D01*
X68707190Y-73477380D02*
X68707190Y-72477380D01*
X68802428Y-72620238D01*
X68897666Y-72715476D01*
X68992904Y-72763095D01*
X238743904Y-54427380D02*
X238743904Y-53427380D01*
X238410571Y-54141666D01*
X238077238Y-53427380D01*
X238077238Y-54427380D01*
X237696285Y-53427380D02*
X237029619Y-54427380D01*
X237029619Y-53427380D02*
X237696285Y-54427380D01*
X236124857Y-54427380D02*
X236696285Y-54427380D01*
X236410571Y-54427380D02*
X236410571Y-53427380D01*
X236505809Y-53570238D01*
X236601047Y-53665476D01*
X236696285Y-53713095D01*
X235505809Y-53427380D02*
X235410571Y-53427380D01*
X235315333Y-53475000D01*
X235267714Y-53522619D01*
X235220095Y-53617857D01*
X235172476Y-53808333D01*
X235172476Y-54046428D01*
X235220095Y-54236904D01*
X235267714Y-54332142D01*
X235315333Y-54379761D01*
X235410571Y-54427380D01*
X235505809Y-54427380D01*
X235601047Y-54379761D01*
X235648666Y-54332142D01*
X235696285Y-54236904D01*
X235743904Y-54046428D01*
X235743904Y-53808333D01*
X235696285Y-53617857D01*
X235648666Y-53522619D01*
X235601047Y-53475000D01*
X235505809Y-53427380D01*
X219217714Y-54427380D02*
X219217714Y-53427380D01*
X218884380Y-54141666D01*
X218551047Y-53427380D01*
X218551047Y-54427380D01*
X218170095Y-53427380D02*
X217503428Y-54427380D01*
X217503428Y-53427380D02*
X218170095Y-54427380D01*
X217074857Y-54427380D02*
X216884380Y-54427380D01*
X216789142Y-54379761D01*
X216741523Y-54332142D01*
X216646285Y-54189285D01*
X216598666Y-53998809D01*
X216598666Y-53617857D01*
X216646285Y-53522619D01*
X216693904Y-53475000D01*
X216789142Y-53427380D01*
X216979619Y-53427380D01*
X217074857Y-53475000D01*
X217122476Y-53522619D01*
X217170095Y-53617857D01*
X217170095Y-53855952D01*
X217122476Y-53951190D01*
X217074857Y-53998809D01*
X216979619Y-54046428D01*
X216789142Y-54046428D01*
X216693904Y-53998809D01*
X216646285Y-53951190D01*
X216598666Y-53855952D01*
X200167714Y-54427380D02*
X200167714Y-53427380D01*
X199834380Y-54141666D01*
X199501047Y-53427380D01*
X199501047Y-54427380D01*
X199120095Y-53427380D02*
X198453428Y-54427380D01*
X198453428Y-53427380D02*
X199120095Y-54427380D01*
X197929619Y-53855952D02*
X198024857Y-53808333D01*
X198072476Y-53760714D01*
X198120095Y-53665476D01*
X198120095Y-53617857D01*
X198072476Y-53522619D01*
X198024857Y-53475000D01*
X197929619Y-53427380D01*
X197739142Y-53427380D01*
X197643904Y-53475000D01*
X197596285Y-53522619D01*
X197548666Y-53617857D01*
X197548666Y-53665476D01*
X197596285Y-53760714D01*
X197643904Y-53808333D01*
X197739142Y-53855952D01*
X197929619Y-53855952D01*
X198024857Y-53903571D01*
X198072476Y-53951190D01*
X198120095Y-54046428D01*
X198120095Y-54236904D01*
X198072476Y-54332142D01*
X198024857Y-54379761D01*
X197929619Y-54427380D01*
X197739142Y-54427380D01*
X197643904Y-54379761D01*
X197596285Y-54332142D01*
X197548666Y-54236904D01*
X197548666Y-54046428D01*
X197596285Y-53951190D01*
X197643904Y-53903571D01*
X197739142Y-53855952D01*
X181117714Y-54427380D02*
X181117714Y-53427380D01*
X180784380Y-54141666D01*
X180451047Y-53427380D01*
X180451047Y-54427380D01*
X180070095Y-53427380D02*
X179403428Y-54427380D01*
X179403428Y-53427380D02*
X180070095Y-54427380D01*
X179117714Y-53427380D02*
X178451047Y-53427380D01*
X178879619Y-54427380D01*
X162067714Y-54427380D02*
X162067714Y-53427380D01*
X161734380Y-54141666D01*
X161401047Y-53427380D01*
X161401047Y-54427380D01*
X161020095Y-53427380D02*
X160353428Y-54427380D01*
X160353428Y-53427380D02*
X161020095Y-54427380D01*
X159543904Y-53427380D02*
X159734380Y-53427380D01*
X159829619Y-53475000D01*
X159877238Y-53522619D01*
X159972476Y-53665476D01*
X160020095Y-53855952D01*
X160020095Y-54236904D01*
X159972476Y-54332142D01*
X159924857Y-54379761D01*
X159829619Y-54427380D01*
X159639142Y-54427380D01*
X159543904Y-54379761D01*
X159496285Y-54332142D01*
X159448666Y-54236904D01*
X159448666Y-53998809D01*
X159496285Y-53903571D01*
X159543904Y-53855952D01*
X159639142Y-53808333D01*
X159829619Y-53808333D01*
X159924857Y-53855952D01*
X159972476Y-53903571D01*
X160020095Y-53998809D01*
X143017714Y-54427380D02*
X143017714Y-53427380D01*
X142684380Y-54141666D01*
X142351047Y-53427380D01*
X142351047Y-54427380D01*
X141970095Y-53427380D02*
X141303428Y-54427380D01*
X141303428Y-53427380D02*
X141970095Y-54427380D01*
X140446285Y-53427380D02*
X140922476Y-53427380D01*
X140970095Y-53903571D01*
X140922476Y-53855952D01*
X140827238Y-53808333D01*
X140589142Y-53808333D01*
X140493904Y-53855952D01*
X140446285Y-53903571D01*
X140398666Y-53998809D01*
X140398666Y-54236904D01*
X140446285Y-54332142D01*
X140493904Y-54379761D01*
X140589142Y-54427380D01*
X140827238Y-54427380D01*
X140922476Y-54379761D01*
X140970095Y-54332142D01*
X123967714Y-54427380D02*
X123967714Y-53427380D01*
X123634380Y-54141666D01*
X123301047Y-53427380D01*
X123301047Y-54427380D01*
X122920095Y-53427380D02*
X122253428Y-54427380D01*
X122253428Y-53427380D02*
X122920095Y-54427380D01*
X121443904Y-53760714D02*
X121443904Y-54427380D01*
X121682000Y-53379761D02*
X121920095Y-54094047D01*
X121301047Y-54094047D01*
X104917714Y-54427380D02*
X104917714Y-53427380D01*
X104584380Y-54141666D01*
X104251047Y-53427380D01*
X104251047Y-54427380D01*
X103870095Y-53427380D02*
X103203428Y-54427380D01*
X103203428Y-53427380D02*
X103870095Y-54427380D01*
X102917714Y-53427380D02*
X102298666Y-53427380D01*
X102632000Y-53808333D01*
X102489142Y-53808333D01*
X102393904Y-53855952D01*
X102346285Y-53903571D01*
X102298666Y-53998809D01*
X102298666Y-54236904D01*
X102346285Y-54332142D01*
X102393904Y-54379761D01*
X102489142Y-54427380D01*
X102774857Y-54427380D01*
X102870095Y-54379761D01*
X102917714Y-54332142D01*
X85867714Y-54427380D02*
X85867714Y-53427380D01*
X85534380Y-54141666D01*
X85201047Y-53427380D01*
X85201047Y-54427380D01*
X84820095Y-53427380D02*
X84153428Y-54427380D01*
X84153428Y-53427380D02*
X84820095Y-54427380D01*
X83820095Y-53522619D02*
X83772476Y-53475000D01*
X83677238Y-53427380D01*
X83439142Y-53427380D01*
X83343904Y-53475000D01*
X83296285Y-53522619D01*
X83248666Y-53617857D01*
X83248666Y-53713095D01*
X83296285Y-53855952D01*
X83867714Y-54427380D01*
X83248666Y-54427380D01*
X66817714Y-54427380D02*
X66817714Y-53427380D01*
X66484380Y-54141666D01*
X66151047Y-53427380D01*
X66151047Y-54427380D01*
X65770095Y-53427380D02*
X65103428Y-54427380D01*
X65103428Y-53427380D02*
X65770095Y-54427380D01*
X64198666Y-54427380D02*
X64770095Y-54427380D01*
X64484380Y-54427380D02*
X64484380Y-53427380D01*
X64579619Y-53570238D01*
X64674857Y-53665476D01*
X64770095Y-53713095D01*
X253309285Y-97099380D02*
X253309285Y-96099380D01*
X253071190Y-96099380D01*
X252928333Y-96147000D01*
X252833095Y-96242238D01*
X252785476Y-96337476D01*
X252737857Y-96527952D01*
X252737857Y-96670809D01*
X252785476Y-96861285D01*
X252833095Y-96956523D01*
X252928333Y-97051761D01*
X253071190Y-97099380D01*
X253309285Y-97099380D01*
X252356904Y-96194619D02*
X252309285Y-96147000D01*
X252214047Y-96099380D01*
X251975952Y-96099380D01*
X251880714Y-96147000D01*
X251833095Y-96194619D01*
X251785476Y-96289857D01*
X251785476Y-96385095D01*
X251833095Y-96527952D01*
X252404523Y-97099380D01*
X251785476Y-97099380D01*
X251309285Y-97099380D02*
X251118809Y-97099380D01*
X251023571Y-97051761D01*
X250975952Y-97004142D01*
X250880714Y-96861285D01*
X250833095Y-96670809D01*
X250833095Y-96289857D01*
X250880714Y-96194619D01*
X250928333Y-96147000D01*
X251023571Y-96099380D01*
X251214047Y-96099380D01*
X251309285Y-96147000D01*
X251356904Y-96194619D01*
X251404523Y-96289857D01*
X251404523Y-96527952D01*
X251356904Y-96623190D01*
X251309285Y-96670809D01*
X251214047Y-96718428D01*
X251023571Y-96718428D01*
X250928333Y-96670809D01*
X250880714Y-96623190D01*
X250833095Y-96527952D01*
X234386285Y-97226380D02*
X234386285Y-96226380D01*
X234148190Y-96226380D01*
X234005333Y-96274000D01*
X233910095Y-96369238D01*
X233862476Y-96464476D01*
X233814857Y-96654952D01*
X233814857Y-96797809D01*
X233862476Y-96988285D01*
X233910095Y-97083523D01*
X234005333Y-97178761D01*
X234148190Y-97226380D01*
X234386285Y-97226380D01*
X233433904Y-96321619D02*
X233386285Y-96274000D01*
X233291047Y-96226380D01*
X233052952Y-96226380D01*
X232957714Y-96274000D01*
X232910095Y-96321619D01*
X232862476Y-96416857D01*
X232862476Y-96512095D01*
X232910095Y-96654952D01*
X233481523Y-97226380D01*
X232862476Y-97226380D01*
X232291047Y-96654952D02*
X232386285Y-96607333D01*
X232433904Y-96559714D01*
X232481523Y-96464476D01*
X232481523Y-96416857D01*
X232433904Y-96321619D01*
X232386285Y-96274000D01*
X232291047Y-96226380D01*
X232100571Y-96226380D01*
X232005333Y-96274000D01*
X231957714Y-96321619D01*
X231910095Y-96416857D01*
X231910095Y-96464476D01*
X231957714Y-96559714D01*
X232005333Y-96607333D01*
X232100571Y-96654952D01*
X232291047Y-96654952D01*
X232386285Y-96702571D01*
X232433904Y-96750190D01*
X232481523Y-96845428D01*
X232481523Y-97035904D01*
X232433904Y-97131142D01*
X232386285Y-97178761D01*
X232291047Y-97226380D01*
X232100571Y-97226380D01*
X232005333Y-97178761D01*
X231957714Y-97131142D01*
X231910095Y-97035904D01*
X231910095Y-96845428D01*
X231957714Y-96750190D01*
X232005333Y-96702571D01*
X232100571Y-96654952D01*
X215336285Y-97226380D02*
X215336285Y-96226380D01*
X215098190Y-96226380D01*
X214955333Y-96274000D01*
X214860095Y-96369238D01*
X214812476Y-96464476D01*
X214764857Y-96654952D01*
X214764857Y-96797809D01*
X214812476Y-96988285D01*
X214860095Y-97083523D01*
X214955333Y-97178761D01*
X215098190Y-97226380D01*
X215336285Y-97226380D01*
X214383904Y-96321619D02*
X214336285Y-96274000D01*
X214241047Y-96226380D01*
X214002952Y-96226380D01*
X213907714Y-96274000D01*
X213860095Y-96321619D01*
X213812476Y-96416857D01*
X213812476Y-96512095D01*
X213860095Y-96654952D01*
X214431523Y-97226380D01*
X213812476Y-97226380D01*
X213479142Y-96226380D02*
X212812476Y-96226380D01*
X213241047Y-97226380D01*
X196286285Y-97226380D02*
X196286285Y-96226380D01*
X196048190Y-96226380D01*
X195905333Y-96274000D01*
X195810095Y-96369238D01*
X195762476Y-96464476D01*
X195714857Y-96654952D01*
X195714857Y-96797809D01*
X195762476Y-96988285D01*
X195810095Y-97083523D01*
X195905333Y-97178761D01*
X196048190Y-97226380D01*
X196286285Y-97226380D01*
X195333904Y-96321619D02*
X195286285Y-96274000D01*
X195191047Y-96226380D01*
X194952952Y-96226380D01*
X194857714Y-96274000D01*
X194810095Y-96321619D01*
X194762476Y-96416857D01*
X194762476Y-96512095D01*
X194810095Y-96654952D01*
X195381523Y-97226380D01*
X194762476Y-97226380D01*
X193905333Y-96226380D02*
X194095809Y-96226380D01*
X194191047Y-96274000D01*
X194238666Y-96321619D01*
X194333904Y-96464476D01*
X194381523Y-96654952D01*
X194381523Y-97035904D01*
X194333904Y-97131142D01*
X194286285Y-97178761D01*
X194191047Y-97226380D01*
X194000571Y-97226380D01*
X193905333Y-97178761D01*
X193857714Y-97131142D01*
X193810095Y-97035904D01*
X193810095Y-96797809D01*
X193857714Y-96702571D01*
X193905333Y-96654952D01*
X194000571Y-96607333D01*
X194191047Y-96607333D01*
X194286285Y-96654952D01*
X194333904Y-96702571D01*
X194381523Y-96797809D01*
X167711285Y-97099380D02*
X167711285Y-96099380D01*
X167473190Y-96099380D01*
X167330333Y-96147000D01*
X167235095Y-96242238D01*
X167187476Y-96337476D01*
X167139857Y-96527952D01*
X167139857Y-96670809D01*
X167187476Y-96861285D01*
X167235095Y-96956523D01*
X167330333Y-97051761D01*
X167473190Y-97099380D01*
X167711285Y-97099380D01*
X166758904Y-96194619D02*
X166711285Y-96147000D01*
X166616047Y-96099380D01*
X166377952Y-96099380D01*
X166282714Y-96147000D01*
X166235095Y-96194619D01*
X166187476Y-96289857D01*
X166187476Y-96385095D01*
X166235095Y-96527952D01*
X166806523Y-97099380D01*
X166187476Y-97099380D01*
X165282714Y-96099380D02*
X165758904Y-96099380D01*
X165806523Y-96575571D01*
X165758904Y-96527952D01*
X165663666Y-96480333D01*
X165425571Y-96480333D01*
X165330333Y-96527952D01*
X165282714Y-96575571D01*
X165235095Y-96670809D01*
X165235095Y-96908904D01*
X165282714Y-97004142D01*
X165330333Y-97051761D01*
X165425571Y-97099380D01*
X165663666Y-97099380D01*
X165758904Y-97051761D01*
X165806523Y-97004142D01*
X139136285Y-97226380D02*
X139136285Y-96226380D01*
X138898190Y-96226380D01*
X138755333Y-96274000D01*
X138660095Y-96369238D01*
X138612476Y-96464476D01*
X138564857Y-96654952D01*
X138564857Y-96797809D01*
X138612476Y-96988285D01*
X138660095Y-97083523D01*
X138755333Y-97178761D01*
X138898190Y-97226380D01*
X139136285Y-97226380D01*
X138183904Y-96321619D02*
X138136285Y-96274000D01*
X138041047Y-96226380D01*
X137802952Y-96226380D01*
X137707714Y-96274000D01*
X137660095Y-96321619D01*
X137612476Y-96416857D01*
X137612476Y-96512095D01*
X137660095Y-96654952D01*
X138231523Y-97226380D01*
X137612476Y-97226380D01*
X136755333Y-96559714D02*
X136755333Y-97226380D01*
X136993428Y-96178761D02*
X137231523Y-96893047D01*
X136612476Y-96893047D01*
X120086285Y-97226380D02*
X120086285Y-96226380D01*
X119848190Y-96226380D01*
X119705333Y-96274000D01*
X119610095Y-96369238D01*
X119562476Y-96464476D01*
X119514857Y-96654952D01*
X119514857Y-96797809D01*
X119562476Y-96988285D01*
X119610095Y-97083523D01*
X119705333Y-97178761D01*
X119848190Y-97226380D01*
X120086285Y-97226380D01*
X119133904Y-96321619D02*
X119086285Y-96274000D01*
X118991047Y-96226380D01*
X118752952Y-96226380D01*
X118657714Y-96274000D01*
X118610095Y-96321619D01*
X118562476Y-96416857D01*
X118562476Y-96512095D01*
X118610095Y-96654952D01*
X119181523Y-97226380D01*
X118562476Y-97226380D01*
X118229142Y-96226380D02*
X117610095Y-96226380D01*
X117943428Y-96607333D01*
X117800571Y-96607333D01*
X117705333Y-96654952D01*
X117657714Y-96702571D01*
X117610095Y-96797809D01*
X117610095Y-97035904D01*
X117657714Y-97131142D01*
X117705333Y-97178761D01*
X117800571Y-97226380D01*
X118086285Y-97226380D01*
X118181523Y-97178761D01*
X118229142Y-97131142D01*
X101036285Y-97226380D02*
X101036285Y-96226380D01*
X100798190Y-96226380D01*
X100655333Y-96274000D01*
X100560095Y-96369238D01*
X100512476Y-96464476D01*
X100464857Y-96654952D01*
X100464857Y-96797809D01*
X100512476Y-96988285D01*
X100560095Y-97083523D01*
X100655333Y-97178761D01*
X100798190Y-97226380D01*
X101036285Y-97226380D01*
X100083904Y-96321619D02*
X100036285Y-96274000D01*
X99941047Y-96226380D01*
X99702952Y-96226380D01*
X99607714Y-96274000D01*
X99560095Y-96321619D01*
X99512476Y-96416857D01*
X99512476Y-96512095D01*
X99560095Y-96654952D01*
X100131523Y-97226380D01*
X99512476Y-97226380D01*
X99131523Y-96321619D02*
X99083904Y-96274000D01*
X98988666Y-96226380D01*
X98750571Y-96226380D01*
X98655333Y-96274000D01*
X98607714Y-96321619D01*
X98560095Y-96416857D01*
X98560095Y-96512095D01*
X98607714Y-96654952D01*
X99179142Y-97226380D01*
X98560095Y-97226380D01*
X82113285Y-97226380D02*
X82113285Y-96226380D01*
X81875190Y-96226380D01*
X81732333Y-96274000D01*
X81637095Y-96369238D01*
X81589476Y-96464476D01*
X81541857Y-96654952D01*
X81541857Y-96797809D01*
X81589476Y-96988285D01*
X81637095Y-97083523D01*
X81732333Y-97178761D01*
X81875190Y-97226380D01*
X82113285Y-97226380D01*
X81160904Y-96321619D02*
X81113285Y-96274000D01*
X81018047Y-96226380D01*
X80779952Y-96226380D01*
X80684714Y-96274000D01*
X80637095Y-96321619D01*
X80589476Y-96416857D01*
X80589476Y-96512095D01*
X80637095Y-96654952D01*
X81208523Y-97226380D01*
X80589476Y-97226380D01*
X79637095Y-97226380D02*
X80208523Y-97226380D01*
X79922809Y-97226380D02*
X79922809Y-96226380D01*
X80018047Y-96369238D01*
X80113285Y-96464476D01*
X80208523Y-96512095D01*
X248610285Y-78176380D02*
X248610285Y-77176380D01*
X248372190Y-77176380D01*
X248229333Y-77224000D01*
X248134095Y-77319238D01*
X248086476Y-77414476D01*
X248038857Y-77604952D01*
X248038857Y-77747809D01*
X248086476Y-77938285D01*
X248134095Y-78033523D01*
X248229333Y-78128761D01*
X248372190Y-78176380D01*
X248610285Y-78176380D01*
X247657904Y-77271619D02*
X247610285Y-77224000D01*
X247515047Y-77176380D01*
X247276952Y-77176380D01*
X247181714Y-77224000D01*
X247134095Y-77271619D01*
X247086476Y-77366857D01*
X247086476Y-77462095D01*
X247134095Y-77604952D01*
X247705523Y-78176380D01*
X247086476Y-78176380D01*
X246467428Y-77176380D02*
X246372190Y-77176380D01*
X246276952Y-77224000D01*
X246229333Y-77271619D01*
X246181714Y-77366857D01*
X246134095Y-77557333D01*
X246134095Y-77795428D01*
X246181714Y-77985904D01*
X246229333Y-78081142D01*
X246276952Y-78128761D01*
X246372190Y-78176380D01*
X246467428Y-78176380D01*
X246562666Y-78128761D01*
X246610285Y-78081142D01*
X246657904Y-77985904D01*
X246705523Y-77795428D01*
X246705523Y-77557333D01*
X246657904Y-77366857D01*
X246610285Y-77271619D01*
X246562666Y-77224000D01*
X246467428Y-77176380D01*
X229560285Y-78176380D02*
X229560285Y-77176380D01*
X229322190Y-77176380D01*
X229179333Y-77224000D01*
X229084095Y-77319238D01*
X229036476Y-77414476D01*
X228988857Y-77604952D01*
X228988857Y-77747809D01*
X229036476Y-77938285D01*
X229084095Y-78033523D01*
X229179333Y-78128761D01*
X229322190Y-78176380D01*
X229560285Y-78176380D01*
X228036476Y-78176380D02*
X228607904Y-78176380D01*
X228322190Y-78176380D02*
X228322190Y-77176380D01*
X228417428Y-77319238D01*
X228512666Y-77414476D01*
X228607904Y-77462095D01*
X227560285Y-78176380D02*
X227369809Y-78176380D01*
X227274571Y-78128761D01*
X227226952Y-78081142D01*
X227131714Y-77938285D01*
X227084095Y-77747809D01*
X227084095Y-77366857D01*
X227131714Y-77271619D01*
X227179333Y-77224000D01*
X227274571Y-77176380D01*
X227465047Y-77176380D01*
X227560285Y-77224000D01*
X227607904Y-77271619D01*
X227655523Y-77366857D01*
X227655523Y-77604952D01*
X227607904Y-77700190D01*
X227560285Y-77747809D01*
X227465047Y-77795428D01*
X227274571Y-77795428D01*
X227179333Y-77747809D01*
X227131714Y-77700190D01*
X227084095Y-77604952D01*
X210510285Y-78176380D02*
X210510285Y-77176380D01*
X210272190Y-77176380D01*
X210129333Y-77224000D01*
X210034095Y-77319238D01*
X209986476Y-77414476D01*
X209938857Y-77604952D01*
X209938857Y-77747809D01*
X209986476Y-77938285D01*
X210034095Y-78033523D01*
X210129333Y-78128761D01*
X210272190Y-78176380D01*
X210510285Y-78176380D01*
X208986476Y-78176380D02*
X209557904Y-78176380D01*
X209272190Y-78176380D02*
X209272190Y-77176380D01*
X209367428Y-77319238D01*
X209462666Y-77414476D01*
X209557904Y-77462095D01*
X208415047Y-77604952D02*
X208510285Y-77557333D01*
X208557904Y-77509714D01*
X208605523Y-77414476D01*
X208605523Y-77366857D01*
X208557904Y-77271619D01*
X208510285Y-77224000D01*
X208415047Y-77176380D01*
X208224571Y-77176380D01*
X208129333Y-77224000D01*
X208081714Y-77271619D01*
X208034095Y-77366857D01*
X208034095Y-77414476D01*
X208081714Y-77509714D01*
X208129333Y-77557333D01*
X208224571Y-77604952D01*
X208415047Y-77604952D01*
X208510285Y-77652571D01*
X208557904Y-77700190D01*
X208605523Y-77795428D01*
X208605523Y-77985904D01*
X208557904Y-78081142D01*
X208510285Y-78128761D01*
X208415047Y-78176380D01*
X208224571Y-78176380D01*
X208129333Y-78128761D01*
X208081714Y-78081142D01*
X208034095Y-77985904D01*
X208034095Y-77795428D01*
X208081714Y-77700190D01*
X208129333Y-77652571D01*
X208224571Y-77604952D01*
X191460285Y-78176380D02*
X191460285Y-77176380D01*
X191222190Y-77176380D01*
X191079333Y-77224000D01*
X190984095Y-77319238D01*
X190936476Y-77414476D01*
X190888857Y-77604952D01*
X190888857Y-77747809D01*
X190936476Y-77938285D01*
X190984095Y-78033523D01*
X191079333Y-78128761D01*
X191222190Y-78176380D01*
X191460285Y-78176380D01*
X189936476Y-78176380D02*
X190507904Y-78176380D01*
X190222190Y-78176380D02*
X190222190Y-77176380D01*
X190317428Y-77319238D01*
X190412666Y-77414476D01*
X190507904Y-77462095D01*
X189603142Y-77176380D02*
X188936476Y-77176380D01*
X189365047Y-78176380D01*
X172410285Y-78176380D02*
X172410285Y-77176380D01*
X172172190Y-77176380D01*
X172029333Y-77224000D01*
X171934095Y-77319238D01*
X171886476Y-77414476D01*
X171838857Y-77604952D01*
X171838857Y-77747809D01*
X171886476Y-77938285D01*
X171934095Y-78033523D01*
X172029333Y-78128761D01*
X172172190Y-78176380D01*
X172410285Y-78176380D01*
X170886476Y-78176380D02*
X171457904Y-78176380D01*
X171172190Y-78176380D02*
X171172190Y-77176380D01*
X171267428Y-77319238D01*
X171362666Y-77414476D01*
X171457904Y-77462095D01*
X170029333Y-77176380D02*
X170219809Y-77176380D01*
X170315047Y-77224000D01*
X170362666Y-77271619D01*
X170457904Y-77414476D01*
X170505523Y-77604952D01*
X170505523Y-77985904D01*
X170457904Y-78081142D01*
X170410285Y-78128761D01*
X170315047Y-78176380D01*
X170124571Y-78176380D01*
X170029333Y-78128761D01*
X169981714Y-78081142D01*
X169934095Y-77985904D01*
X169934095Y-77747809D01*
X169981714Y-77652571D01*
X170029333Y-77604952D01*
X170124571Y-77557333D01*
X170315047Y-77557333D01*
X170410285Y-77604952D01*
X170457904Y-77652571D01*
X170505523Y-77747809D01*
X153360285Y-78176380D02*
X153360285Y-77176380D01*
X153122190Y-77176380D01*
X152979333Y-77224000D01*
X152884095Y-77319238D01*
X152836476Y-77414476D01*
X152788857Y-77604952D01*
X152788857Y-77747809D01*
X152836476Y-77938285D01*
X152884095Y-78033523D01*
X152979333Y-78128761D01*
X153122190Y-78176380D01*
X153360285Y-78176380D01*
X151836476Y-78176380D02*
X152407904Y-78176380D01*
X152122190Y-78176380D02*
X152122190Y-77176380D01*
X152217428Y-77319238D01*
X152312666Y-77414476D01*
X152407904Y-77462095D01*
X150931714Y-77176380D02*
X151407904Y-77176380D01*
X151455523Y-77652571D01*
X151407904Y-77604952D01*
X151312666Y-77557333D01*
X151074571Y-77557333D01*
X150979333Y-77604952D01*
X150931714Y-77652571D01*
X150884095Y-77747809D01*
X150884095Y-77985904D01*
X150931714Y-78081142D01*
X150979333Y-78128761D01*
X151074571Y-78176380D01*
X151312666Y-78176380D01*
X151407904Y-78128761D01*
X151455523Y-78081142D01*
X134310285Y-78176380D02*
X134310285Y-77176380D01*
X134072190Y-77176380D01*
X133929333Y-77224000D01*
X133834095Y-77319238D01*
X133786476Y-77414476D01*
X133738857Y-77604952D01*
X133738857Y-77747809D01*
X133786476Y-77938285D01*
X133834095Y-78033523D01*
X133929333Y-78128761D01*
X134072190Y-78176380D01*
X134310285Y-78176380D01*
X132786476Y-78176380D02*
X133357904Y-78176380D01*
X133072190Y-78176380D02*
X133072190Y-77176380D01*
X133167428Y-77319238D01*
X133262666Y-77414476D01*
X133357904Y-77462095D01*
X131929333Y-77509714D02*
X131929333Y-78176380D01*
X132167428Y-77128761D02*
X132405523Y-77843047D01*
X131786476Y-77843047D01*
X115260285Y-78176380D02*
X115260285Y-77176380D01*
X115022190Y-77176380D01*
X114879333Y-77224000D01*
X114784095Y-77319238D01*
X114736476Y-77414476D01*
X114688857Y-77604952D01*
X114688857Y-77747809D01*
X114736476Y-77938285D01*
X114784095Y-78033523D01*
X114879333Y-78128761D01*
X115022190Y-78176380D01*
X115260285Y-78176380D01*
X113736476Y-78176380D02*
X114307904Y-78176380D01*
X114022190Y-78176380D02*
X114022190Y-77176380D01*
X114117428Y-77319238D01*
X114212666Y-77414476D01*
X114307904Y-77462095D01*
X113403142Y-77176380D02*
X112784095Y-77176380D01*
X113117428Y-77557333D01*
X112974571Y-77557333D01*
X112879333Y-77604952D01*
X112831714Y-77652571D01*
X112784095Y-77747809D01*
X112784095Y-77985904D01*
X112831714Y-78081142D01*
X112879333Y-78128761D01*
X112974571Y-78176380D01*
X113260285Y-78176380D01*
X113355523Y-78128761D01*
X113403142Y-78081142D01*
X96464285Y-78176380D02*
X96464285Y-77176380D01*
X96226190Y-77176380D01*
X96083333Y-77224000D01*
X95988095Y-77319238D01*
X95940476Y-77414476D01*
X95892857Y-77604952D01*
X95892857Y-77747809D01*
X95940476Y-77938285D01*
X95988095Y-78033523D01*
X96083333Y-78128761D01*
X96226190Y-78176380D01*
X96464285Y-78176380D01*
X94940476Y-78176380D02*
X95511904Y-78176380D01*
X95226190Y-78176380D02*
X95226190Y-77176380D01*
X95321428Y-77319238D01*
X95416666Y-77414476D01*
X95511904Y-77462095D01*
X94559523Y-77271619D02*
X94511904Y-77224000D01*
X94416666Y-77176380D01*
X94178571Y-77176380D01*
X94083333Y-77224000D01*
X94035714Y-77271619D01*
X93988095Y-77366857D01*
X93988095Y-77462095D01*
X94035714Y-77604952D01*
X94607142Y-78176380D01*
X93988095Y-78176380D01*
X77160285Y-78049380D02*
X77160285Y-77049380D01*
X76922190Y-77049380D01*
X76779333Y-77097000D01*
X76684095Y-77192238D01*
X76636476Y-77287476D01*
X76588857Y-77477952D01*
X76588857Y-77620809D01*
X76636476Y-77811285D01*
X76684095Y-77906523D01*
X76779333Y-78001761D01*
X76922190Y-78049380D01*
X77160285Y-78049380D01*
X75636476Y-78049380D02*
X76207904Y-78049380D01*
X75922190Y-78049380D02*
X75922190Y-77049380D01*
X76017428Y-77192238D01*
X76112666Y-77287476D01*
X76207904Y-77335095D01*
X74684095Y-78049380D02*
X75255523Y-78049380D01*
X74969809Y-78049380D02*
X74969809Y-77049380D01*
X75065047Y-77192238D01*
X75160285Y-77287476D01*
X75255523Y-77335095D01*
X243911285Y-59126380D02*
X243911285Y-58126380D01*
X243673190Y-58126380D01*
X243530333Y-58174000D01*
X243435095Y-58269238D01*
X243387476Y-58364476D01*
X243339857Y-58554952D01*
X243339857Y-58697809D01*
X243387476Y-58888285D01*
X243435095Y-58983523D01*
X243530333Y-59078761D01*
X243673190Y-59126380D01*
X243911285Y-59126380D01*
X242387476Y-59126380D02*
X242958904Y-59126380D01*
X242673190Y-59126380D02*
X242673190Y-58126380D01*
X242768428Y-58269238D01*
X242863666Y-58364476D01*
X242958904Y-58412095D01*
X241768428Y-58126380D02*
X241673190Y-58126380D01*
X241577952Y-58174000D01*
X241530333Y-58221619D01*
X241482714Y-58316857D01*
X241435095Y-58507333D01*
X241435095Y-58745428D01*
X241482714Y-58935904D01*
X241530333Y-59031142D01*
X241577952Y-59078761D01*
X241673190Y-59126380D01*
X241768428Y-59126380D01*
X241863666Y-59078761D01*
X241911285Y-59031142D01*
X241958904Y-58935904D01*
X242006523Y-58745428D01*
X242006523Y-58507333D01*
X241958904Y-58316857D01*
X241911285Y-58221619D01*
X241863666Y-58174000D01*
X241768428Y-58126380D01*
X224639095Y-59126380D02*
X224639095Y-58126380D01*
X224401000Y-58126380D01*
X224258142Y-58174000D01*
X224162904Y-58269238D01*
X224115285Y-58364476D01*
X224067666Y-58554952D01*
X224067666Y-58697809D01*
X224115285Y-58888285D01*
X224162904Y-58983523D01*
X224258142Y-59078761D01*
X224401000Y-59126380D01*
X224639095Y-59126380D01*
X223591476Y-59126380D02*
X223401000Y-59126380D01*
X223305761Y-59078761D01*
X223258142Y-59031142D01*
X223162904Y-58888285D01*
X223115285Y-58697809D01*
X223115285Y-58316857D01*
X223162904Y-58221619D01*
X223210523Y-58174000D01*
X223305761Y-58126380D01*
X223496238Y-58126380D01*
X223591476Y-58174000D01*
X223639095Y-58221619D01*
X223686714Y-58316857D01*
X223686714Y-58554952D01*
X223639095Y-58650190D01*
X223591476Y-58697809D01*
X223496238Y-58745428D01*
X223305761Y-58745428D01*
X223210523Y-58697809D01*
X223162904Y-58650190D01*
X223115285Y-58554952D01*
X205589095Y-59126380D02*
X205589095Y-58126380D01*
X205351000Y-58126380D01*
X205208142Y-58174000D01*
X205112904Y-58269238D01*
X205065285Y-58364476D01*
X205017666Y-58554952D01*
X205017666Y-58697809D01*
X205065285Y-58888285D01*
X205112904Y-58983523D01*
X205208142Y-59078761D01*
X205351000Y-59126380D01*
X205589095Y-59126380D01*
X204446238Y-58554952D02*
X204541476Y-58507333D01*
X204589095Y-58459714D01*
X204636714Y-58364476D01*
X204636714Y-58316857D01*
X204589095Y-58221619D01*
X204541476Y-58174000D01*
X204446238Y-58126380D01*
X204255761Y-58126380D01*
X204160523Y-58174000D01*
X204112904Y-58221619D01*
X204065285Y-58316857D01*
X204065285Y-58364476D01*
X204112904Y-58459714D01*
X204160523Y-58507333D01*
X204255761Y-58554952D01*
X204446238Y-58554952D01*
X204541476Y-58602571D01*
X204589095Y-58650190D01*
X204636714Y-58745428D01*
X204636714Y-58935904D01*
X204589095Y-59031142D01*
X204541476Y-59078761D01*
X204446238Y-59126380D01*
X204255761Y-59126380D01*
X204160523Y-59078761D01*
X204112904Y-59031142D01*
X204065285Y-58935904D01*
X204065285Y-58745428D01*
X204112904Y-58650190D01*
X204160523Y-58602571D01*
X204255761Y-58554952D01*
X186539095Y-59126380D02*
X186539095Y-58126380D01*
X186301000Y-58126380D01*
X186158142Y-58174000D01*
X186062904Y-58269238D01*
X186015285Y-58364476D01*
X185967666Y-58554952D01*
X185967666Y-58697809D01*
X186015285Y-58888285D01*
X186062904Y-58983523D01*
X186158142Y-59078761D01*
X186301000Y-59126380D01*
X186539095Y-59126380D01*
X185634333Y-58126380D02*
X184967666Y-58126380D01*
X185396238Y-59126380D01*
X167362095Y-59126380D02*
X167362095Y-58126380D01*
X167124000Y-58126380D01*
X166981142Y-58174000D01*
X166885904Y-58269238D01*
X166838285Y-58364476D01*
X166790666Y-58554952D01*
X166790666Y-58697809D01*
X166838285Y-58888285D01*
X166885904Y-58983523D01*
X166981142Y-59078761D01*
X167124000Y-59126380D01*
X167362095Y-59126380D01*
X165933523Y-58126380D02*
X166124000Y-58126380D01*
X166219238Y-58174000D01*
X166266857Y-58221619D01*
X166362095Y-58364476D01*
X166409714Y-58554952D01*
X166409714Y-58935904D01*
X166362095Y-59031142D01*
X166314476Y-59078761D01*
X166219238Y-59126380D01*
X166028761Y-59126380D01*
X165933523Y-59078761D01*
X165885904Y-59031142D01*
X165838285Y-58935904D01*
X165838285Y-58697809D01*
X165885904Y-58602571D01*
X165933523Y-58554952D01*
X166028761Y-58507333D01*
X166219238Y-58507333D01*
X166314476Y-58554952D01*
X166362095Y-58602571D01*
X166409714Y-58697809D01*
X148439095Y-59126380D02*
X148439095Y-58126380D01*
X148201000Y-58126380D01*
X148058142Y-58174000D01*
X147962904Y-58269238D01*
X147915285Y-58364476D01*
X147867666Y-58554952D01*
X147867666Y-58697809D01*
X147915285Y-58888285D01*
X147962904Y-58983523D01*
X148058142Y-59078761D01*
X148201000Y-59126380D01*
X148439095Y-59126380D01*
X146962904Y-58126380D02*
X147439095Y-58126380D01*
X147486714Y-58602571D01*
X147439095Y-58554952D01*
X147343857Y-58507333D01*
X147105761Y-58507333D01*
X147010523Y-58554952D01*
X146962904Y-58602571D01*
X146915285Y-58697809D01*
X146915285Y-58935904D01*
X146962904Y-59031142D01*
X147010523Y-59078761D01*
X147105761Y-59126380D01*
X147343857Y-59126380D01*
X147439095Y-59078761D01*
X147486714Y-59031142D01*
X129262095Y-59253380D02*
X129262095Y-58253380D01*
X129024000Y-58253380D01*
X128881142Y-58301000D01*
X128785904Y-58396238D01*
X128738285Y-58491476D01*
X128690666Y-58681952D01*
X128690666Y-58824809D01*
X128738285Y-59015285D01*
X128785904Y-59110523D01*
X128881142Y-59205761D01*
X129024000Y-59253380D01*
X129262095Y-59253380D01*
X127833523Y-58586714D02*
X127833523Y-59253380D01*
X128071619Y-58205761D02*
X128309714Y-58920047D01*
X127690666Y-58920047D01*
X110212095Y-59126380D02*
X110212095Y-58126380D01*
X109974000Y-58126380D01*
X109831142Y-58174000D01*
X109735904Y-58269238D01*
X109688285Y-58364476D01*
X109640666Y-58554952D01*
X109640666Y-58697809D01*
X109688285Y-58888285D01*
X109735904Y-58983523D01*
X109831142Y-59078761D01*
X109974000Y-59126380D01*
X110212095Y-59126380D01*
X109307333Y-58126380D02*
X108688285Y-58126380D01*
X109021619Y-58507333D01*
X108878761Y-58507333D01*
X108783523Y-58554952D01*
X108735904Y-58602571D01*
X108688285Y-58697809D01*
X108688285Y-58935904D01*
X108735904Y-59031142D01*
X108783523Y-59078761D01*
X108878761Y-59126380D01*
X109164476Y-59126380D01*
X109259714Y-59078761D01*
X109307333Y-59031142D01*
X91162095Y-59126380D02*
X91162095Y-58126380D01*
X90924000Y-58126380D01*
X90781142Y-58174000D01*
X90685904Y-58269238D01*
X90638285Y-58364476D01*
X90590666Y-58554952D01*
X90590666Y-58697809D01*
X90638285Y-58888285D01*
X90685904Y-58983523D01*
X90781142Y-59078761D01*
X90924000Y-59126380D01*
X91162095Y-59126380D01*
X90209714Y-58221619D02*
X90162095Y-58174000D01*
X90066857Y-58126380D01*
X89828761Y-58126380D01*
X89733523Y-58174000D01*
X89685904Y-58221619D01*
X89638285Y-58316857D01*
X89638285Y-58412095D01*
X89685904Y-58554952D01*
X90257333Y-59126380D01*
X89638285Y-59126380D01*
X74398095Y-57094380D02*
X74398095Y-56094380D01*
X74160000Y-56094380D01*
X74017142Y-56142000D01*
X73921904Y-56237238D01*
X73874285Y-56332476D01*
X73826666Y-56522952D01*
X73826666Y-56665809D01*
X73874285Y-56856285D01*
X73921904Y-56951523D01*
X74017142Y-57046761D01*
X74160000Y-57094380D01*
X74398095Y-57094380D01*
X72874285Y-57094380D02*
X73445714Y-57094380D01*
X73160000Y-57094380D02*
X73160000Y-56094380D01*
X73255238Y-56237238D01*
X73350476Y-56332476D01*
X73445714Y-56380095D01*
M02*
