M48
; DRILL file {KiCad (5.1.4-0-10_14)} date Monday, June 01, 2020 at 12:21:48 AM
; FORMAT={-:-/ absolute / metric / decimal}
; #@! TF.CreationDate,2020-06-01T00:21:48-05:00
; #@! TF.GenerationSoftware,Kicad,Pcbnew,(5.1.4-0-10_14)
FMAT,2
METRIC
T1C0.400
T2C1.100
T3C1.750
T4C3.000
T5C3.048
T6C3.988
%
G90
G05
T1
X58.42Y-50.8
X63.119Y-70.612
X63.146Y-65.251
X67.945Y-83.82
X73.66Y-45.847
X73.66Y-50.546
X77.47Y-51.308
X79.756Y-67.437
X86.995Y-84.074
X90.424Y-52.705
X91.071Y-47.994
X94.361Y-48.387
X98.806Y-67.437
X106.045Y-82.804
X115.57Y-51.435
X117.856Y-67.437
X125.095Y-83.312
X134.747Y-51.435
X137.033Y-67.437
X146.177Y-86.487
X153.67Y-51.562
X155.956Y-67.437
X160.909Y-96.52
X172.72Y-51.308
X175.006Y-67.437
X179.832Y-86.487
X191.77Y-50.927
X194.056Y-67.437
X198.882Y-86.487
X210.82Y-51.562
X213.233Y-67.437
X217.932Y-86.487
X229.87Y-50.8
X232.283Y-67.437
X236.982Y-86.487
T2
X57.277Y-42.926
X57.277Y-58.166
X59.817Y-42.926
X59.817Y-58.166
X62.357Y-42.926
X62.357Y-58.166
X64.897Y-42.926
X64.897Y-58.166
X67.437Y-42.926
X67.437Y-58.166
X69.977Y-42.926
X69.977Y-58.166
X72.517Y-42.926
X72.517Y-58.166
X75.057Y-42.926
X75.057Y-58.166
X77.597Y-42.926
X77.597Y-58.166
X80.137Y-42.926
X80.137Y-58.166
X82.677Y-42.926
X82.677Y-58.166
X85.217Y-42.926
X85.217Y-58.166
T3
X203.327Y-89.027
X213.487Y-89.027
X170.561Y-69.977
X217.551Y-69.977
X227.711Y-69.977
X193.802Y-50.927
X203.962Y-50.927
X160.401Y-69.977
X89.027Y-89.027
X99.187Y-89.027
X108.077Y-89.027
X118.237Y-89.027
X84.201Y-69.977
X94.361Y-69.977
X141.351Y-69.977
X151.511Y-69.977
X117.602Y-50.927
X127.762Y-50.927
X174.752Y-50.927
X184.912Y-50.927
X60.452Y-50.927
X70.612Y-50.927
X198.501Y-69.977
X208.661Y-69.977
X65.151Y-69.977
X75.311Y-69.977
X69.977Y-89.027
X122.301Y-69.977
X132.461Y-69.977
X98.552Y-50.927
X108.712Y-50.927
X80.137Y-89.027
X223.012Y-50.927
X155.702Y-89.027
X165.862Y-89.027
X103.251Y-69.977
X113.411Y-69.977
X241.427Y-89.027
X251.587Y-89.027
X137.287Y-89.027
X231.902Y-50.927
X242.062Y-50.927
X127.127Y-89.027
X179.451Y-69.977
X189.611Y-69.977
X212.852Y-50.927
X155.702Y-50.927
X165.862Y-50.927
X79.502Y-50.927
X89.662Y-50.927
X184.277Y-89.027
X194.437Y-89.027
X236.601Y-69.977
X246.761Y-69.977
X222.377Y-89.027
X232.537Y-89.027
X136.652Y-50.927
X146.812Y-50.927
T4
X242.697Y-86.487
X249.047Y-83.947
X220.472Y-45.847
X156.972Y-48.387
X163.322Y-83.947
X233.172Y-48.387
X163.322Y-45.847
X239.522Y-45.847
X180.721Y-67.437
X187.071Y-64.897
X214.122Y-48.387
X156.972Y-86.487
X185.547Y-86.487
X161.671Y-67.437
X223.647Y-86.487
X168.021Y-64.897
X144.272Y-45.847
X210.947Y-83.947
X191.897Y-83.947
X237.871Y-67.437
X134.747Y-83.947
X80.772Y-48.387
X87.122Y-45.847
X244.221Y-64.897
X128.397Y-86.487
X137.922Y-48.387
X104.521Y-67.437
X110.871Y-64.897
X229.997Y-83.947
X204.597Y-86.487
X195.072Y-48.387
X201.422Y-45.847
X85.471Y-67.437
X91.821Y-64.897
X61.722Y-48.387
X68.072Y-45.847
X218.821Y-67.437
X225.171Y-64.897
X109.347Y-86.487
X115.697Y-83.947
X118.872Y-48.387
X148.971Y-64.897
X125.222Y-45.847
X142.621Y-67.437
X90.297Y-86.487
X96.647Y-83.947
X176.022Y-48.387
X182.372Y-45.847
X199.771Y-67.437
X206.121Y-64.897
X66.421Y-67.437
X72.771Y-64.897
X129.921Y-64.897
X71.247Y-86.487
X123.571Y-67.437
X106.172Y-45.847
X77.597Y-83.947
X99.822Y-48.387
T5
X148.844Y-96.012
X172.72Y-96.012
T6
X222.631Y-69.977
X94.107Y-89.027
X184.531Y-69.977
X217.932Y-50.927
X148.844Y-80.772
X113.157Y-89.027
X122.682Y-50.927
X146.431Y-69.977
X179.832Y-50.927
X203.581Y-69.977
X103.632Y-50.927
X160.782Y-50.927
X75.057Y-89.027
X127.381Y-69.977
X70.231Y-69.977
X246.507Y-89.027
X160.782Y-89.027
X172.72Y-80.772
X241.681Y-69.977
X236.982Y-50.927
X189.357Y-89.027
X132.207Y-89.027
X141.732Y-50.927
X198.882Y-50.927
X165.481Y-69.977
X84.582Y-50.927
X108.331Y-69.977
X227.457Y-89.027
X208.407Y-89.027
X89.281Y-69.977
X65.532Y-50.927
T0
M30
