M48
; DRILL file {KiCad (6.0.1-0)} date Monday, August 08, 2022 at 11:03:16 PM
; FORMAT={-:-/ absolute / inch / decimal}
; #@! TF.CreationDate,2022-08-08T23:03:16-07:00
; #@! TF.GenerationSoftware,Kicad,Pcbnew,(6.0.1-0)
; #@! TF.FileFunction,Plated,1,2,PTH
FMAT,2
INCH
; #@! TA.AperFunction,Plated,PTH,ViaDrill
T1C0.0157
; #@! TA.AperFunction,Plated,PTH,ComponentDrill
T2C0.0315
; #@! TA.AperFunction,Plated,PTH,ComponentDrill
T3C0.0394
; #@! TA.AperFunction,Plated,PTH,ComponentDrill
T4C0.0433
; #@! TA.AperFunction,Plated,PTH,ComponentDrill
T5C0.0579
%
G90
G05
T1
X2.4433Y-2.6921
X2.5051Y-2.4732
X2.5669Y-2.1781
X2.7215Y-2.5522
X2.9012Y-2.7598
X3.005Y-3.08
X3.0285Y-2.3583
X3.1275Y-3.9225
X3.1677Y-2.5114
X3.3927Y-2.3435
X3.6486Y-2.75
X4.1811Y-5.1201
X4.4537Y-2.753
X5.2992Y-5.1309
X5.3142Y-4.7544
X6.011Y-4.372
X6.2835Y-4.9972
X6.302Y-5.1268
X6.4331Y-4.5906
X6.4897Y-4.9174
X6.8516Y-5.1524
X8.435Y-5.1325
T2
X3.4689Y-2.665
X3.4689Y-2.7437
T3
X2.6063Y-2.4331
X2.6063Y-2.7402
X2.7628Y-3.2628
X2.7628Y-3.5699
X2.9498Y-4.0138
X2.9498Y-4.3209
X3.1378Y-4.7638
X3.1378Y-5.0709
X3.3258Y-2.5128
X3.3258Y-2.8199
X3.5128Y-3.2628
X3.5128Y-3.5699
X3.6998Y-4.0138
X3.6998Y-4.3209
X3.8878Y-4.7638
X3.8878Y-5.0709
X4.0758Y-2.5128
X4.0758Y-2.8199
X4.2628Y-3.2628
X4.2628Y-3.5699
X4.4498Y-4.0138
X4.4498Y-4.3209
X4.8268Y-2.5128
X4.8268Y-2.8199
X5.0138Y-3.2628
X5.0138Y-3.5699
X5.1998Y-4.0138
X5.1998Y-4.3209
X5.3507Y-4.0138
X5.3507Y-4.3209
X5.5264Y-4.7638
X5.5264Y-5.0709
X5.5758Y-2.5128
X5.5758Y-2.8199
X5.7628Y-3.2628
X5.7628Y-3.5699
X6.3258Y-2.5128
X6.3258Y-2.8199
X6.5128Y-3.2628
X6.5128Y-3.5699
X6.7008Y-4.0138
X6.7008Y-4.3209
X6.9341Y-4.7638
X6.9341Y-5.0709
X7.0768Y-2.5128
X7.0768Y-2.8199
X7.2628Y-3.2628
X7.2628Y-3.5699
X7.4508Y-4.0138
X7.4508Y-4.3209
X7.8258Y-2.5128
X7.8258Y-2.8199
X8.0128Y-3.2628
X8.0128Y-3.5699
X8.2008Y-4.0138
X8.2008Y-4.3209
X8.5758Y-2.5128
X8.5758Y-2.8199
X8.7628Y-3.2628
X8.7628Y-3.5699
X8.9508Y-4.0138
X8.9508Y-4.3209
X9.1368Y-4.7628
X9.1368Y-5.0699
X9.3258Y-2.5128
X9.3258Y-2.8199
X9.5128Y-3.2628
X9.5128Y-3.5699
X9.6998Y-4.0138
X9.6998Y-4.3209
X9.8878Y-4.7628
X9.8878Y-5.0699
T4
X2.0632Y-2.2807
X2.0632Y-2.8807
X2.1632Y-2.2807
X2.1632Y-2.8807
X2.2632Y-2.2807
X2.2632Y-2.8807
X2.3632Y-2.2807
X2.3632Y-2.8807
X2.4632Y-2.2807
X2.4632Y-2.8807
X2.5632Y-2.2807
X2.5632Y-2.8807
X2.6632Y-2.2807
X2.6632Y-2.8807
X2.7632Y-2.2807
X2.7632Y-2.8807
X2.8632Y-2.2807
X2.8632Y-2.8807
X2.9632Y-2.2807
X2.9632Y-2.8807
X3.0632Y-2.2807
X3.0632Y-2.8807
X3.1632Y-2.2807
X3.1632Y-2.8807
T5
X2.1443Y-2.4807
X2.3333Y-3.2307
X2.3943Y-2.3807
X2.5203Y-3.9797
X2.5833Y-3.1307
X2.7083Y-4.7307
X2.7703Y-3.8797
X2.8953Y-2.4807
X2.9583Y-4.6307
X3.0833Y-3.2307
X3.1453Y-2.3807
X3.2703Y-3.9807
X3.3333Y-3.1307
X3.4573Y-4.7307
X3.5203Y-3.8807
X3.6443Y-2.4797
X3.7073Y-4.6307
X3.8333Y-3.2307
X3.8943Y-2.3797
X4.0203Y-3.9807
X4.0833Y-3.1307
X4.2703Y-3.8807
X4.3943Y-2.4807
X4.5823Y-3.2307
X4.6443Y-2.3807
X4.7703Y-3.9807
X4.8323Y-3.1307
X4.9559Y-4.7307
X5.0203Y-3.8807
X5.1443Y-2.4807
X5.2059Y-4.6307
X5.3323Y-3.2307
X5.3943Y-2.3807
X5.5203Y-3.9807
X5.5823Y-3.1307
X5.7703Y-3.8807
X5.8953Y-2.4807
X5.8953Y-3.9811
X6.0775Y-4.7325
X6.0813Y-3.2307
X6.1275Y-5.0325
X6.1291Y-4.675
X6.1453Y-2.3807
X6.1453Y-3.8811
X6.2703Y-3.9807
X6.3259Y-4.6553
X6.3275Y-4.6325
X6.3313Y-3.1307
X6.3775Y-4.9325
X6.4525Y-4.7325
X6.5203Y-3.8807
X6.6453Y-2.4807
X6.7025Y-4.6325
X6.8333Y-3.2307
X6.8953Y-2.3807
X7.0203Y-3.9807
X7.0833Y-3.1307
X7.2049Y-4.7307
X7.2703Y-3.8807
X7.3943Y-2.4807
X7.4549Y-4.6307
X7.5833Y-3.2307
X7.6443Y-2.3807
X7.7703Y-3.9807
X7.8333Y-3.1307
X8.0203Y-3.8807
X8.1453Y-2.4807
X8.3323Y-3.2307
X8.3953Y-2.3807
X8.5213Y-3.9807
X8.5823Y-3.1307
X8.7073Y-4.7307
X8.7713Y-3.8807
X8.8943Y-2.4807
X8.9573Y-4.6307
X9.0823Y-3.2307
X9.1443Y-2.3807
X9.2693Y-3.9807
X9.3323Y-3.1307
X9.4573Y-4.7307
X9.5193Y-3.8807
X9.7073Y-4.6307
T0
M30
