G04 #@! TF.GenerationSoftware,KiCad,Pcbnew,(5.1.4-0-10_14)*
G04 #@! TF.CreationDate,2020-11-13T00:41:32-06:00*
G04 #@! TF.ProjectId,omega_4_solder,6f6d6567-615f-4345-9f73-6f6c6465722e,rev?*
G04 #@! TF.SameCoordinates,Original*
G04 #@! TF.FileFunction,Legend,Top*
G04 #@! TF.FilePolarity,Positive*
%FSLAX46Y46*%
G04 Gerber Fmt 4.6, Leading zero omitted, Abs format (unit mm)*
G04 Created by KiCad (PCBNEW (5.1.4-0-10_14)) date 2020-11-13 00:41:32*
%MOMM*%
%LPD*%
G04 APERTURE LIST*
%ADD10C,0.150000*%
%ADD11C,0.200000*%
G04 APERTURE END LIST*
D10*
X163036857Y-127150880D02*
X162846380Y-127150880D01*
X162751142Y-127198500D01*
X162703523Y-127246119D01*
X162608285Y-127388976D01*
X162560666Y-127579452D01*
X162560666Y-127960404D01*
X162608285Y-128055642D01*
X162655904Y-128103261D01*
X162751142Y-128150880D01*
X162941619Y-128150880D01*
X163036857Y-128103261D01*
X163084476Y-128055642D01*
X163132095Y-127960404D01*
X163132095Y-127722309D01*
X163084476Y-127627071D01*
X163036857Y-127579452D01*
X162941619Y-127531833D01*
X162751142Y-127531833D01*
X162655904Y-127579452D01*
X162608285Y-127627071D01*
X162560666Y-127722309D01*
X163989238Y-127484214D02*
X163989238Y-128150880D01*
X163560666Y-127484214D02*
X163560666Y-128008023D01*
X163608285Y-128103261D01*
X163703523Y-128150880D01*
X163846380Y-128150880D01*
X163941619Y-128103261D01*
X163989238Y-128055642D01*
X164465428Y-127769928D02*
X165227333Y-127769928D01*
X165846380Y-128150880D02*
X165751142Y-128103261D01*
X165703523Y-128055642D01*
X165655904Y-127960404D01*
X165655904Y-127674690D01*
X165703523Y-127579452D01*
X165751142Y-127531833D01*
X165846380Y-127484214D01*
X165989238Y-127484214D01*
X166084476Y-127531833D01*
X166132095Y-127579452D01*
X166179714Y-127674690D01*
X166179714Y-127960404D01*
X166132095Y-128055642D01*
X166084476Y-128103261D01*
X165989238Y-128150880D01*
X165846380Y-128150880D01*
X166465428Y-127484214D02*
X166846380Y-127484214D01*
X166608285Y-128150880D02*
X166608285Y-127293738D01*
X166655904Y-127198500D01*
X166751142Y-127150880D01*
X166846380Y-127150880D01*
X167036857Y-127484214D02*
X167417809Y-127484214D01*
X167179714Y-128150880D02*
X167179714Y-127293738D01*
X167227333Y-127198500D01*
X167322571Y-127150880D01*
X167417809Y-127150880D01*
X167751142Y-127769928D02*
X168513047Y-127769928D01*
X169417809Y-128103261D02*
X169322571Y-128150880D01*
X169132095Y-128150880D01*
X169036857Y-128103261D01*
X168989238Y-128055642D01*
X168941619Y-127960404D01*
X168941619Y-127674690D01*
X168989238Y-127579452D01*
X169036857Y-127531833D01*
X169132095Y-127484214D01*
X169322571Y-127484214D01*
X169417809Y-127531833D01*
X170227333Y-128103261D02*
X170132095Y-128150880D01*
X169941619Y-128150880D01*
X169846380Y-128103261D01*
X169798761Y-128008023D01*
X169798761Y-127627071D01*
X169846380Y-127531833D01*
X169941619Y-127484214D01*
X170132095Y-127484214D01*
X170227333Y-127531833D01*
X170274952Y-127627071D01*
X170274952Y-127722309D01*
X169798761Y-127817547D01*
X170703523Y-127484214D02*
X170703523Y-128150880D01*
X170703523Y-127579452D02*
X170751142Y-127531833D01*
X170846380Y-127484214D01*
X170989238Y-127484214D01*
X171084476Y-127531833D01*
X171132095Y-127627071D01*
X171132095Y-128150880D01*
X171465428Y-127484214D02*
X171846380Y-127484214D01*
X171608285Y-127150880D02*
X171608285Y-128008023D01*
X171655904Y-128103261D01*
X171751142Y-128150880D01*
X171846380Y-128150880D01*
X172560666Y-128103261D02*
X172465428Y-128150880D01*
X172274952Y-128150880D01*
X172179714Y-128103261D01*
X172132095Y-128008023D01*
X172132095Y-127627071D01*
X172179714Y-127531833D01*
X172274952Y-127484214D01*
X172465428Y-127484214D01*
X172560666Y-127531833D01*
X172608285Y-127627071D01*
X172608285Y-127722309D01*
X172132095Y-127817547D01*
X173036857Y-128150880D02*
X173036857Y-127484214D01*
X173036857Y-127674690D02*
X173084476Y-127579452D01*
X173132095Y-127531833D01*
X173227333Y-127484214D01*
X173322571Y-127484214D01*
X157677380Y-111055952D02*
X157582142Y-111008333D01*
X157534523Y-110960714D01*
X157486904Y-110865476D01*
X157486904Y-110817857D01*
X157534523Y-110722619D01*
X157582142Y-110675000D01*
X157677380Y-110627380D01*
X157867857Y-110627380D01*
X157963095Y-110675000D01*
X158010714Y-110722619D01*
X158058333Y-110817857D01*
X158058333Y-110865476D01*
X158010714Y-110960714D01*
X157963095Y-111008333D01*
X157867857Y-111055952D01*
X157677380Y-111055952D01*
X157582142Y-111103571D01*
X157534523Y-111151190D01*
X157486904Y-111246428D01*
X157486904Y-111436904D01*
X157534523Y-111532142D01*
X157582142Y-111579761D01*
X157677380Y-111627380D01*
X157867857Y-111627380D01*
X157963095Y-111579761D01*
X158010714Y-111532142D01*
X158058333Y-111436904D01*
X158058333Y-111246428D01*
X158010714Y-111151190D01*
X157963095Y-111103571D01*
X157867857Y-111055952D01*
X158915476Y-110960714D02*
X158915476Y-111627380D01*
X158486904Y-110960714D02*
X158486904Y-111484523D01*
X158534523Y-111579761D01*
X158629761Y-111627380D01*
X158772619Y-111627380D01*
X158867857Y-111579761D01*
X158915476Y-111532142D01*
X157582142Y-113277380D02*
X157010714Y-113277380D01*
X157296428Y-113277380D02*
X157296428Y-112277380D01*
X157201190Y-112420238D01*
X157105952Y-112515476D01*
X157010714Y-112563095D01*
X158201190Y-112277380D02*
X158296428Y-112277380D01*
X158391666Y-112325000D01*
X158439285Y-112372619D01*
X158486904Y-112467857D01*
X158534523Y-112658333D01*
X158534523Y-112896428D01*
X158486904Y-113086904D01*
X158439285Y-113182142D01*
X158391666Y-113229761D01*
X158296428Y-113277380D01*
X158201190Y-113277380D01*
X158105952Y-113229761D01*
X158058333Y-113182142D01*
X158010714Y-113086904D01*
X157963095Y-112896428D01*
X157963095Y-112658333D01*
X158010714Y-112467857D01*
X158058333Y-112372619D01*
X158105952Y-112325000D01*
X158201190Y-112277380D01*
X159391666Y-112610714D02*
X159391666Y-113277380D01*
X158963095Y-112610714D02*
X158963095Y-113134523D01*
X159010714Y-113229761D01*
X159105952Y-113277380D01*
X159248809Y-113277380D01*
X159344047Y-113229761D01*
X159391666Y-113182142D01*
X154129761Y-113927380D02*
X153939285Y-113927380D01*
X153844047Y-113975000D01*
X153796428Y-114022619D01*
X153701190Y-114165476D01*
X153653571Y-114355952D01*
X153653571Y-114736904D01*
X153701190Y-114832142D01*
X153748809Y-114879761D01*
X153844047Y-114927380D01*
X154034523Y-114927380D01*
X154129761Y-114879761D01*
X154177380Y-114832142D01*
X154225000Y-114736904D01*
X154225000Y-114498809D01*
X154177380Y-114403571D01*
X154129761Y-114355952D01*
X154034523Y-114308333D01*
X153844047Y-114308333D01*
X153748809Y-114355952D01*
X153701190Y-114403571D01*
X153653571Y-114498809D01*
X155082142Y-114260714D02*
X155082142Y-114927380D01*
X154653571Y-114260714D02*
X154653571Y-114784523D01*
X154701190Y-114879761D01*
X154796428Y-114927380D01*
X154939285Y-114927380D01*
X155034523Y-114879761D01*
X155082142Y-114832142D01*
X155558333Y-114546428D02*
X156320238Y-114546428D01*
X157225000Y-114879761D02*
X157129761Y-114927380D01*
X156939285Y-114927380D01*
X156844047Y-114879761D01*
X156796428Y-114832142D01*
X156748809Y-114736904D01*
X156748809Y-114451190D01*
X156796428Y-114355952D01*
X156844047Y-114308333D01*
X156939285Y-114260714D01*
X157129761Y-114260714D01*
X157225000Y-114308333D01*
X158034523Y-114879761D02*
X157939285Y-114927380D01*
X157748809Y-114927380D01*
X157653571Y-114879761D01*
X157605952Y-114784523D01*
X157605952Y-114403571D01*
X157653571Y-114308333D01*
X157748809Y-114260714D01*
X157939285Y-114260714D01*
X158034523Y-114308333D01*
X158082142Y-114403571D01*
X158082142Y-114498809D01*
X157605952Y-114594047D01*
X158510714Y-114260714D02*
X158510714Y-114927380D01*
X158510714Y-114355952D02*
X158558333Y-114308333D01*
X158653571Y-114260714D01*
X158796428Y-114260714D01*
X158891666Y-114308333D01*
X158939285Y-114403571D01*
X158939285Y-114927380D01*
X159272619Y-114260714D02*
X159653571Y-114260714D01*
X159415476Y-113927380D02*
X159415476Y-114784523D01*
X159463095Y-114879761D01*
X159558333Y-114927380D01*
X159653571Y-114927380D01*
X160367857Y-114879761D02*
X160272619Y-114927380D01*
X160082142Y-114927380D01*
X159986904Y-114879761D01*
X159939285Y-114784523D01*
X159939285Y-114403571D01*
X159986904Y-114308333D01*
X160082142Y-114260714D01*
X160272619Y-114260714D01*
X160367857Y-114308333D01*
X160415476Y-114403571D01*
X160415476Y-114498809D01*
X159939285Y-114594047D01*
X160844047Y-114927380D02*
X160844047Y-114260714D01*
X160844047Y-114451190D02*
X160891666Y-114355952D01*
X160939285Y-114308333D01*
X161034523Y-114260714D01*
X161129761Y-114260714D01*
X161844047Y-114879761D02*
X161748809Y-114927380D01*
X161558333Y-114927380D01*
X161463095Y-114879761D01*
X161415476Y-114784523D01*
X161415476Y-114403571D01*
X161463095Y-114308333D01*
X161558333Y-114260714D01*
X161748809Y-114260714D01*
X161844047Y-114308333D01*
X161891666Y-114403571D01*
X161891666Y-114498809D01*
X161415476Y-114594047D01*
X162748809Y-114927380D02*
X162748809Y-113927380D01*
X162748809Y-114879761D02*
X162653571Y-114927380D01*
X162463095Y-114927380D01*
X162367857Y-114879761D01*
X162320238Y-114832142D01*
X162272619Y-114736904D01*
X162272619Y-114451190D01*
X162320238Y-114355952D01*
X162367857Y-114308333D01*
X162463095Y-114260714D01*
X162653571Y-114260714D01*
X162748809Y-114308333D01*
D11*
X182300000Y-120179761D02*
X182109523Y-120084523D01*
X182014285Y-119989285D01*
X181919047Y-119798809D01*
X181919047Y-119227380D01*
X182014285Y-119036904D01*
X182109523Y-118941666D01*
X182300000Y-118846428D01*
X182585714Y-118846428D01*
X182776190Y-118941666D01*
X182871428Y-119036904D01*
X182966666Y-119227380D01*
X182966666Y-119798809D01*
X182871428Y-119989285D01*
X182776190Y-120084523D01*
X182585714Y-120179761D01*
X182300000Y-120179761D01*
X183823809Y-120179761D02*
X183823809Y-118846428D01*
X183823809Y-119036904D02*
X183919047Y-118941666D01*
X184109523Y-118846428D01*
X184395238Y-118846428D01*
X184585714Y-118941666D01*
X184680952Y-119132142D01*
X184680952Y-120179761D01*
X184680952Y-119132142D02*
X184776190Y-118941666D01*
X184966666Y-118846428D01*
X185252380Y-118846428D01*
X185442857Y-118941666D01*
X185538095Y-119132142D01*
X185538095Y-120179761D01*
X187252380Y-120084523D02*
X187061904Y-120179761D01*
X186680952Y-120179761D01*
X186490476Y-120084523D01*
X186395238Y-119894047D01*
X186395238Y-119132142D01*
X186490476Y-118941666D01*
X186680952Y-118846428D01*
X187061904Y-118846428D01*
X187252380Y-118941666D01*
X187347619Y-119132142D01*
X187347619Y-119322619D01*
X186395238Y-119513095D01*
X189061904Y-118846428D02*
X189061904Y-120465476D01*
X188966666Y-120655952D01*
X188871428Y-120751190D01*
X188680952Y-120846428D01*
X188395238Y-120846428D01*
X188204761Y-120751190D01*
X189061904Y-120084523D02*
X188871428Y-120179761D01*
X188490476Y-120179761D01*
X188300000Y-120084523D01*
X188204761Y-119989285D01*
X188109523Y-119798809D01*
X188109523Y-119227380D01*
X188204761Y-119036904D01*
X188300000Y-118941666D01*
X188490476Y-118846428D01*
X188871428Y-118846428D01*
X189061904Y-118941666D01*
X190871428Y-120179761D02*
X190871428Y-119132142D01*
X190776190Y-118941666D01*
X190585714Y-118846428D01*
X190204761Y-118846428D01*
X190014285Y-118941666D01*
X190871428Y-120084523D02*
X190680952Y-120179761D01*
X190204761Y-120179761D01*
X190014285Y-120084523D01*
X189919047Y-119894047D01*
X189919047Y-119703571D01*
X190014285Y-119513095D01*
X190204761Y-119417857D01*
X190680952Y-119417857D01*
X190871428Y-119322619D01*
X192680952Y-118846428D02*
X192680952Y-120179761D01*
X192204761Y-118084523D02*
X191728571Y-119513095D01*
X192966666Y-119513095D01*
X193252380Y-120370238D02*
X194776190Y-120370238D01*
X195061904Y-118846428D02*
X195538095Y-120179761D01*
X196014285Y-118846428D01*
X196680952Y-118370238D02*
X196776190Y-118275000D01*
X196966666Y-118179761D01*
X197442857Y-118179761D01*
X197633333Y-118275000D01*
X197728571Y-118370238D01*
X197823809Y-118560714D01*
X197823809Y-118751190D01*
X197728571Y-119036904D01*
X196585714Y-120179761D01*
X197823809Y-120179761D01*
X198680952Y-119989285D02*
X198776190Y-120084523D01*
X198680952Y-120179761D01*
X198585714Y-120084523D01*
X198680952Y-119989285D01*
X198680952Y-120179761D01*
X200014285Y-118179761D02*
X200204761Y-118179761D01*
X200395238Y-118275000D01*
X200490476Y-118370238D01*
X200585714Y-118560714D01*
X200680952Y-118941666D01*
X200680952Y-119417857D01*
X200585714Y-119798809D01*
X200490476Y-119989285D01*
X200395238Y-120084523D01*
X200204761Y-120179761D01*
X200014285Y-120179761D01*
X199823809Y-120084523D01*
X199728571Y-119989285D01*
X199633333Y-119798809D01*
X199538095Y-119417857D01*
X199538095Y-118941666D01*
X199633333Y-118560714D01*
X199728571Y-118370238D01*
X199823809Y-118275000D01*
X200014285Y-118179761D01*
X181966666Y-123379761D02*
X181966666Y-121379761D01*
X181966666Y-122141666D02*
X182157142Y-122046428D01*
X182538095Y-122046428D01*
X182728571Y-122141666D01*
X182823809Y-122236904D01*
X182919047Y-122427380D01*
X182919047Y-122998809D01*
X182823809Y-123189285D01*
X182728571Y-123284523D01*
X182538095Y-123379761D01*
X182157142Y-123379761D01*
X181966666Y-123284523D01*
X183585714Y-122046428D02*
X184061904Y-123379761D01*
X184538095Y-122046428D02*
X184061904Y-123379761D01*
X183871428Y-123855952D01*
X183776190Y-123951190D01*
X183585714Y-124046428D01*
X186823809Y-123379761D02*
X186823809Y-122046428D01*
X186823809Y-122236904D02*
X186919047Y-122141666D01*
X187109523Y-122046428D01*
X187395238Y-122046428D01*
X187585714Y-122141666D01*
X187680952Y-122332142D01*
X187680952Y-123379761D01*
X187680952Y-122332142D02*
X187776190Y-122141666D01*
X187966666Y-122046428D01*
X188252380Y-122046428D01*
X188442857Y-122141666D01*
X188538095Y-122332142D01*
X188538095Y-123379761D01*
X190347619Y-123379761D02*
X190347619Y-122332142D01*
X190252380Y-122141666D01*
X190061904Y-122046428D01*
X189680952Y-122046428D01*
X189490476Y-122141666D01*
X190347619Y-123284523D02*
X190157142Y-123379761D01*
X189680952Y-123379761D01*
X189490476Y-123284523D01*
X189395238Y-123094047D01*
X189395238Y-122903571D01*
X189490476Y-122713095D01*
X189680952Y-122617857D01*
X190157142Y-122617857D01*
X190347619Y-122522619D01*
X191300000Y-123379761D02*
X191300000Y-121379761D01*
X191490476Y-122617857D02*
X192061904Y-123379761D01*
X192061904Y-122046428D02*
X191300000Y-122808333D01*
X193680952Y-123284523D02*
X193490476Y-123379761D01*
X193109523Y-123379761D01*
X192919047Y-123284523D01*
X192823809Y-123094047D01*
X192823809Y-122332142D01*
X192919047Y-122141666D01*
X193109523Y-122046428D01*
X193490476Y-122046428D01*
X193680952Y-122141666D01*
X193776190Y-122332142D01*
X193776190Y-122522619D01*
X192823809Y-122713095D01*
X194633333Y-122046428D02*
X194633333Y-123379761D01*
X194633333Y-122236904D02*
X194728571Y-122141666D01*
X194919047Y-122046428D01*
X195204761Y-122046428D01*
X195395238Y-122141666D01*
X195490476Y-122332142D01*
X195490476Y-123379761D01*
X196728571Y-123379761D02*
X196538095Y-123284523D01*
X196442857Y-123189285D01*
X196347619Y-122998809D01*
X196347619Y-122427380D01*
X196442857Y-122236904D01*
X196538095Y-122141666D01*
X196728571Y-122046428D01*
X197014285Y-122046428D01*
X197204761Y-122141666D01*
X197300000Y-122236904D01*
X197395238Y-122427380D01*
X197395238Y-122998809D01*
X197300000Y-123189285D01*
X197204761Y-123284523D01*
X197014285Y-123379761D01*
X196728571Y-123379761D01*
X198061904Y-122046428D02*
X198538095Y-123379761D01*
X199014285Y-122046428D01*
X200633333Y-123379761D02*
X200633333Y-122332142D01*
X200538095Y-122141666D01*
X200347619Y-122046428D01*
X199966666Y-122046428D01*
X199776190Y-122141666D01*
X200633333Y-123284523D02*
X200442857Y-123379761D01*
X199966666Y-123379761D01*
X199776190Y-123284523D01*
X199680952Y-123094047D01*
X199680952Y-122903571D01*
X199776190Y-122713095D01*
X199966666Y-122617857D01*
X200442857Y-122617857D01*
X200633333Y-122522619D01*
D10*
X81615000Y-56660000D02*
X81615000Y-74440000D01*
X51135000Y-56660000D02*
X81615000Y-56660000D01*
X51135000Y-61740000D02*
X51135000Y-56660000D01*
X48595000Y-61740000D02*
X51135000Y-61740000D01*
X48595000Y-69360000D02*
X48595000Y-61740000D01*
X51135000Y-69360000D02*
X48595000Y-69360000D01*
X51135000Y-74440000D02*
X51135000Y-69360000D01*
X51135000Y-74440000D02*
X81615000Y-74440000D01*
M02*
