G04 #@! TF.GenerationSoftware,KiCad,Pcbnew,(5.1.4-0-10_14)*
G04 #@! TF.CreationDate,2020-08-16T02:40:48-05:00*
G04 #@! TF.ProjectId,omega_4_solder,6f6d6567-615f-4345-9f73-6f6c6465722e,rev?*
G04 #@! TF.SameCoordinates,Original*
G04 #@! TF.FileFunction,Legend,Top*
G04 #@! TF.FilePolarity,Positive*
%FSLAX46Y46*%
G04 Gerber Fmt 4.6, Leading zero omitted, Abs format (unit mm)*
G04 Created by KiCad (PCBNEW (5.1.4-0-10_14)) date 2020-08-16 02:40:48*
%MOMM*%
%LPD*%
G04 APERTURE LIST*
%ADD10C,0.150000*%
%ADD11C,0.200000*%
G04 APERTURE END LIST*
D10*
X163629761Y-126627380D02*
X163439285Y-126627380D01*
X163344047Y-126675000D01*
X163296428Y-126722619D01*
X163201190Y-126865476D01*
X163153571Y-127055952D01*
X163153571Y-127436904D01*
X163201190Y-127532142D01*
X163248809Y-127579761D01*
X163344047Y-127627380D01*
X163534523Y-127627380D01*
X163629761Y-127579761D01*
X163677380Y-127532142D01*
X163725000Y-127436904D01*
X163725000Y-127198809D01*
X163677380Y-127103571D01*
X163629761Y-127055952D01*
X163534523Y-127008333D01*
X163344047Y-127008333D01*
X163248809Y-127055952D01*
X163201190Y-127103571D01*
X163153571Y-127198809D01*
X164582142Y-126960714D02*
X164582142Y-127627380D01*
X164153571Y-126960714D02*
X164153571Y-127484523D01*
X164201190Y-127579761D01*
X164296428Y-127627380D01*
X164439285Y-127627380D01*
X164534523Y-127579761D01*
X164582142Y-127532142D01*
X165058333Y-127246428D02*
X165820238Y-127246428D01*
X166725000Y-127579761D02*
X166629761Y-127627380D01*
X166439285Y-127627380D01*
X166344047Y-127579761D01*
X166296428Y-127532142D01*
X166248809Y-127436904D01*
X166248809Y-127151190D01*
X166296428Y-127055952D01*
X166344047Y-127008333D01*
X166439285Y-126960714D01*
X166629761Y-126960714D01*
X166725000Y-127008333D01*
X167534523Y-127579761D02*
X167439285Y-127627380D01*
X167248809Y-127627380D01*
X167153571Y-127579761D01*
X167105952Y-127484523D01*
X167105952Y-127103571D01*
X167153571Y-127008333D01*
X167248809Y-126960714D01*
X167439285Y-126960714D01*
X167534523Y-127008333D01*
X167582142Y-127103571D01*
X167582142Y-127198809D01*
X167105952Y-127294047D01*
X168010714Y-126960714D02*
X168010714Y-127627380D01*
X168010714Y-127055952D02*
X168058333Y-127008333D01*
X168153571Y-126960714D01*
X168296428Y-126960714D01*
X168391666Y-127008333D01*
X168439285Y-127103571D01*
X168439285Y-127627380D01*
X168772619Y-126960714D02*
X169153571Y-126960714D01*
X168915476Y-126627380D02*
X168915476Y-127484523D01*
X168963095Y-127579761D01*
X169058333Y-127627380D01*
X169153571Y-127627380D01*
X169867857Y-127579761D02*
X169772619Y-127627380D01*
X169582142Y-127627380D01*
X169486904Y-127579761D01*
X169439285Y-127484523D01*
X169439285Y-127103571D01*
X169486904Y-127008333D01*
X169582142Y-126960714D01*
X169772619Y-126960714D01*
X169867857Y-127008333D01*
X169915476Y-127103571D01*
X169915476Y-127198809D01*
X169439285Y-127294047D01*
X170344047Y-127627380D02*
X170344047Y-126960714D01*
X170344047Y-127151190D02*
X170391666Y-127055952D01*
X170439285Y-127008333D01*
X170534523Y-126960714D01*
X170629761Y-126960714D01*
X171344047Y-127579761D02*
X171248809Y-127627380D01*
X171058333Y-127627380D01*
X170963095Y-127579761D01*
X170915476Y-127484523D01*
X170915476Y-127103571D01*
X170963095Y-127008333D01*
X171058333Y-126960714D01*
X171248809Y-126960714D01*
X171344047Y-127008333D01*
X171391666Y-127103571D01*
X171391666Y-127198809D01*
X170915476Y-127294047D01*
X172248809Y-127627380D02*
X172248809Y-126627380D01*
X172248809Y-127579761D02*
X172153571Y-127627380D01*
X171963095Y-127627380D01*
X171867857Y-127579761D01*
X171820238Y-127532142D01*
X171772619Y-127436904D01*
X171772619Y-127151190D01*
X171820238Y-127055952D01*
X171867857Y-127008333D01*
X171963095Y-126960714D01*
X172153571Y-126960714D01*
X172248809Y-127008333D01*
X157677380Y-111055952D02*
X157582142Y-111008333D01*
X157534523Y-110960714D01*
X157486904Y-110865476D01*
X157486904Y-110817857D01*
X157534523Y-110722619D01*
X157582142Y-110675000D01*
X157677380Y-110627380D01*
X157867857Y-110627380D01*
X157963095Y-110675000D01*
X158010714Y-110722619D01*
X158058333Y-110817857D01*
X158058333Y-110865476D01*
X158010714Y-110960714D01*
X157963095Y-111008333D01*
X157867857Y-111055952D01*
X157677380Y-111055952D01*
X157582142Y-111103571D01*
X157534523Y-111151190D01*
X157486904Y-111246428D01*
X157486904Y-111436904D01*
X157534523Y-111532142D01*
X157582142Y-111579761D01*
X157677380Y-111627380D01*
X157867857Y-111627380D01*
X157963095Y-111579761D01*
X158010714Y-111532142D01*
X158058333Y-111436904D01*
X158058333Y-111246428D01*
X158010714Y-111151190D01*
X157963095Y-111103571D01*
X157867857Y-111055952D01*
X158915476Y-110960714D02*
X158915476Y-111627380D01*
X158486904Y-110960714D02*
X158486904Y-111484523D01*
X158534523Y-111579761D01*
X158629761Y-111627380D01*
X158772619Y-111627380D01*
X158867857Y-111579761D01*
X158915476Y-111532142D01*
X157582142Y-113277380D02*
X157010714Y-113277380D01*
X157296428Y-113277380D02*
X157296428Y-112277380D01*
X157201190Y-112420238D01*
X157105952Y-112515476D01*
X157010714Y-112563095D01*
X158201190Y-112277380D02*
X158296428Y-112277380D01*
X158391666Y-112325000D01*
X158439285Y-112372619D01*
X158486904Y-112467857D01*
X158534523Y-112658333D01*
X158534523Y-112896428D01*
X158486904Y-113086904D01*
X158439285Y-113182142D01*
X158391666Y-113229761D01*
X158296428Y-113277380D01*
X158201190Y-113277380D01*
X158105952Y-113229761D01*
X158058333Y-113182142D01*
X158010714Y-113086904D01*
X157963095Y-112896428D01*
X157963095Y-112658333D01*
X158010714Y-112467857D01*
X158058333Y-112372619D01*
X158105952Y-112325000D01*
X158201190Y-112277380D01*
X159391666Y-112610714D02*
X159391666Y-113277380D01*
X158963095Y-112610714D02*
X158963095Y-113134523D01*
X159010714Y-113229761D01*
X159105952Y-113277380D01*
X159248809Y-113277380D01*
X159344047Y-113229761D01*
X159391666Y-113182142D01*
X153986904Y-113927380D02*
X153796428Y-113927380D01*
X153701190Y-113975000D01*
X153653571Y-114022619D01*
X153558333Y-114165476D01*
X153510714Y-114355952D01*
X153510714Y-114736904D01*
X153558333Y-114832142D01*
X153605952Y-114879761D01*
X153701190Y-114927380D01*
X153891666Y-114927380D01*
X153986904Y-114879761D01*
X154034523Y-114832142D01*
X154082142Y-114736904D01*
X154082142Y-114498809D01*
X154034523Y-114403571D01*
X153986904Y-114355952D01*
X153891666Y-114308333D01*
X153701190Y-114308333D01*
X153605952Y-114355952D01*
X153558333Y-114403571D01*
X153510714Y-114498809D01*
X154939285Y-114260714D02*
X154939285Y-114927380D01*
X154510714Y-114260714D02*
X154510714Y-114784523D01*
X154558333Y-114879761D01*
X154653571Y-114927380D01*
X154796428Y-114927380D01*
X154891666Y-114879761D01*
X154939285Y-114832142D01*
X155415476Y-114546428D02*
X156177380Y-114546428D01*
X156796428Y-114927380D02*
X156701190Y-114879761D01*
X156653571Y-114832142D01*
X156605952Y-114736904D01*
X156605952Y-114451190D01*
X156653571Y-114355952D01*
X156701190Y-114308333D01*
X156796428Y-114260714D01*
X156939285Y-114260714D01*
X157034523Y-114308333D01*
X157082142Y-114355952D01*
X157129761Y-114451190D01*
X157129761Y-114736904D01*
X157082142Y-114832142D01*
X157034523Y-114879761D01*
X156939285Y-114927380D01*
X156796428Y-114927380D01*
X157415476Y-114260714D02*
X157796428Y-114260714D01*
X157558333Y-114927380D02*
X157558333Y-114070238D01*
X157605952Y-113975000D01*
X157701190Y-113927380D01*
X157796428Y-113927380D01*
X157986904Y-114260714D02*
X158367857Y-114260714D01*
X158129761Y-114927380D02*
X158129761Y-114070238D01*
X158177380Y-113975000D01*
X158272619Y-113927380D01*
X158367857Y-113927380D01*
X159129761Y-114879761D02*
X159034523Y-114927380D01*
X158844047Y-114927380D01*
X158748809Y-114879761D01*
X158701190Y-114832142D01*
X158653571Y-114736904D01*
X158653571Y-114451190D01*
X158701190Y-114355952D01*
X158748809Y-114308333D01*
X158844047Y-114260714D01*
X159034523Y-114260714D01*
X159129761Y-114308333D01*
X159939285Y-114879761D02*
X159844047Y-114927380D01*
X159653571Y-114927380D01*
X159558333Y-114879761D01*
X159510714Y-114784523D01*
X159510714Y-114403571D01*
X159558333Y-114308333D01*
X159653571Y-114260714D01*
X159844047Y-114260714D01*
X159939285Y-114308333D01*
X159986904Y-114403571D01*
X159986904Y-114498809D01*
X159510714Y-114594047D01*
X160415476Y-114260714D02*
X160415476Y-114927380D01*
X160415476Y-114355952D02*
X160463095Y-114308333D01*
X160558333Y-114260714D01*
X160701190Y-114260714D01*
X160796428Y-114308333D01*
X160844047Y-114403571D01*
X160844047Y-114927380D01*
X161177380Y-114260714D02*
X161558333Y-114260714D01*
X161320238Y-113927380D02*
X161320238Y-114784523D01*
X161367857Y-114879761D01*
X161463095Y-114927380D01*
X161558333Y-114927380D01*
X162272619Y-114879761D02*
X162177380Y-114927380D01*
X161986904Y-114927380D01*
X161891666Y-114879761D01*
X161844047Y-114784523D01*
X161844047Y-114403571D01*
X161891666Y-114308333D01*
X161986904Y-114260714D01*
X162177380Y-114260714D01*
X162272619Y-114308333D01*
X162320238Y-114403571D01*
X162320238Y-114498809D01*
X161844047Y-114594047D01*
X162748809Y-114927380D02*
X162748809Y-114260714D01*
X162748809Y-114451190D02*
X162796428Y-114355952D01*
X162844047Y-114308333D01*
X162939285Y-114260714D01*
X163034523Y-114260714D01*
D11*
X183728571Y-120179761D02*
X183538095Y-120084523D01*
X183442857Y-119989285D01*
X183347619Y-119798809D01*
X183347619Y-119227380D01*
X183442857Y-119036904D01*
X183538095Y-118941666D01*
X183728571Y-118846428D01*
X184014285Y-118846428D01*
X184204761Y-118941666D01*
X184300000Y-119036904D01*
X184395238Y-119227380D01*
X184395238Y-119798809D01*
X184300000Y-119989285D01*
X184204761Y-120084523D01*
X184014285Y-120179761D01*
X183728571Y-120179761D01*
X185252380Y-120179761D02*
X185252380Y-118846428D01*
X185252380Y-119036904D02*
X185347619Y-118941666D01*
X185538095Y-118846428D01*
X185823809Y-118846428D01*
X186014285Y-118941666D01*
X186109523Y-119132142D01*
X186109523Y-120179761D01*
X186109523Y-119132142D02*
X186204761Y-118941666D01*
X186395238Y-118846428D01*
X186680952Y-118846428D01*
X186871428Y-118941666D01*
X186966666Y-119132142D01*
X186966666Y-120179761D01*
X188680952Y-120084523D02*
X188490476Y-120179761D01*
X188109523Y-120179761D01*
X187919047Y-120084523D01*
X187823809Y-119894047D01*
X187823809Y-119132142D01*
X187919047Y-118941666D01*
X188109523Y-118846428D01*
X188490476Y-118846428D01*
X188680952Y-118941666D01*
X188776190Y-119132142D01*
X188776190Y-119322619D01*
X187823809Y-119513095D01*
X190490476Y-118846428D02*
X190490476Y-120465476D01*
X190395238Y-120655952D01*
X190300000Y-120751190D01*
X190109523Y-120846428D01*
X189823809Y-120846428D01*
X189633333Y-120751190D01*
X190490476Y-120084523D02*
X190300000Y-120179761D01*
X189919047Y-120179761D01*
X189728571Y-120084523D01*
X189633333Y-119989285D01*
X189538095Y-119798809D01*
X189538095Y-119227380D01*
X189633333Y-119036904D01*
X189728571Y-118941666D01*
X189919047Y-118846428D01*
X190300000Y-118846428D01*
X190490476Y-118941666D01*
X192300000Y-120179761D02*
X192300000Y-119132142D01*
X192204761Y-118941666D01*
X192014285Y-118846428D01*
X191633333Y-118846428D01*
X191442857Y-118941666D01*
X192300000Y-120084523D02*
X192109523Y-120179761D01*
X191633333Y-120179761D01*
X191442857Y-120084523D01*
X191347619Y-119894047D01*
X191347619Y-119703571D01*
X191442857Y-119513095D01*
X191633333Y-119417857D01*
X192109523Y-119417857D01*
X192300000Y-119322619D01*
X194109523Y-118846428D02*
X194109523Y-120179761D01*
X193633333Y-118084523D02*
X193157142Y-119513095D01*
X194395238Y-119513095D01*
X194680952Y-120370238D02*
X196204761Y-120370238D01*
X196490476Y-118846428D02*
X196966666Y-120179761D01*
X197442857Y-118846428D01*
X198585714Y-118179761D02*
X198776190Y-118179761D01*
X198966666Y-118275000D01*
X199061904Y-118370238D01*
X199157142Y-118560714D01*
X199252380Y-118941666D01*
X199252380Y-119417857D01*
X199157142Y-119798809D01*
X199061904Y-119989285D01*
X198966666Y-120084523D01*
X198776190Y-120179761D01*
X198585714Y-120179761D01*
X198395238Y-120084523D01*
X198300000Y-119989285D01*
X198204761Y-119798809D01*
X198109523Y-119417857D01*
X198109523Y-118941666D01*
X198204761Y-118560714D01*
X198300000Y-118370238D01*
X198395238Y-118275000D01*
X198585714Y-118179761D01*
X181966666Y-123379761D02*
X181966666Y-121379761D01*
X181966666Y-122141666D02*
X182157142Y-122046428D01*
X182538095Y-122046428D01*
X182728571Y-122141666D01*
X182823809Y-122236904D01*
X182919047Y-122427380D01*
X182919047Y-122998809D01*
X182823809Y-123189285D01*
X182728571Y-123284523D01*
X182538095Y-123379761D01*
X182157142Y-123379761D01*
X181966666Y-123284523D01*
X183585714Y-122046428D02*
X184061904Y-123379761D01*
X184538095Y-122046428D02*
X184061904Y-123379761D01*
X183871428Y-123855952D01*
X183776190Y-123951190D01*
X183585714Y-124046428D01*
X186823809Y-123379761D02*
X186823809Y-122046428D01*
X186823809Y-122236904D02*
X186919047Y-122141666D01*
X187109523Y-122046428D01*
X187395238Y-122046428D01*
X187585714Y-122141666D01*
X187680952Y-122332142D01*
X187680952Y-123379761D01*
X187680952Y-122332142D02*
X187776190Y-122141666D01*
X187966666Y-122046428D01*
X188252380Y-122046428D01*
X188442857Y-122141666D01*
X188538095Y-122332142D01*
X188538095Y-123379761D01*
X190347619Y-123379761D02*
X190347619Y-122332142D01*
X190252380Y-122141666D01*
X190061904Y-122046428D01*
X189680952Y-122046428D01*
X189490476Y-122141666D01*
X190347619Y-123284523D02*
X190157142Y-123379761D01*
X189680952Y-123379761D01*
X189490476Y-123284523D01*
X189395238Y-123094047D01*
X189395238Y-122903571D01*
X189490476Y-122713095D01*
X189680952Y-122617857D01*
X190157142Y-122617857D01*
X190347619Y-122522619D01*
X191300000Y-123379761D02*
X191300000Y-121379761D01*
X191490476Y-122617857D02*
X192061904Y-123379761D01*
X192061904Y-122046428D02*
X191300000Y-122808333D01*
X193680952Y-123284523D02*
X193490476Y-123379761D01*
X193109523Y-123379761D01*
X192919047Y-123284523D01*
X192823809Y-123094047D01*
X192823809Y-122332142D01*
X192919047Y-122141666D01*
X193109523Y-122046428D01*
X193490476Y-122046428D01*
X193680952Y-122141666D01*
X193776190Y-122332142D01*
X193776190Y-122522619D01*
X192823809Y-122713095D01*
X194633333Y-122046428D02*
X194633333Y-123379761D01*
X194633333Y-122236904D02*
X194728571Y-122141666D01*
X194919047Y-122046428D01*
X195204761Y-122046428D01*
X195395238Y-122141666D01*
X195490476Y-122332142D01*
X195490476Y-123379761D01*
X196728571Y-123379761D02*
X196538095Y-123284523D01*
X196442857Y-123189285D01*
X196347619Y-122998809D01*
X196347619Y-122427380D01*
X196442857Y-122236904D01*
X196538095Y-122141666D01*
X196728571Y-122046428D01*
X197014285Y-122046428D01*
X197204761Y-122141666D01*
X197300000Y-122236904D01*
X197395238Y-122427380D01*
X197395238Y-122998809D01*
X197300000Y-123189285D01*
X197204761Y-123284523D01*
X197014285Y-123379761D01*
X196728571Y-123379761D01*
X198061904Y-122046428D02*
X198538095Y-123379761D01*
X199014285Y-122046428D01*
X200633333Y-123379761D02*
X200633333Y-122332142D01*
X200538095Y-122141666D01*
X200347619Y-122046428D01*
X199966666Y-122046428D01*
X199776190Y-122141666D01*
X200633333Y-123284523D02*
X200442857Y-123379761D01*
X199966666Y-123379761D01*
X199776190Y-123284523D01*
X199680952Y-123094047D01*
X199680952Y-122903571D01*
X199776190Y-122713095D01*
X199966666Y-122617857D01*
X200442857Y-122617857D01*
X200633333Y-122522619D01*
D10*
X81615000Y-56660000D02*
X81615000Y-74440000D01*
X51135000Y-56660000D02*
X81615000Y-56660000D01*
X51135000Y-61740000D02*
X51135000Y-56660000D01*
X48595000Y-61740000D02*
X51135000Y-61740000D01*
X48595000Y-69360000D02*
X48595000Y-61740000D01*
X51135000Y-69360000D02*
X48595000Y-69360000D01*
X51135000Y-74440000D02*
X51135000Y-69360000D01*
X51135000Y-74440000D02*
X81615000Y-74440000D01*
M02*
