G04 #@! TF.GenerationSoftware,KiCad,Pcbnew,(6.0.1-0)*
G04 #@! TF.CreationDate,2022-03-12T03:36:10-07:00*
G04 #@! TF.ProjectId,omega_4_solder,6f6d6567-615f-4345-9f73-6f6c6465722e,rev?*
G04 #@! TF.SameCoordinates,Original*
G04 #@! TF.FileFunction,Legend,Top*
G04 #@! TF.FilePolarity,Positive*
%FSLAX46Y46*%
G04 Gerber Fmt 4.6, Leading zero omitted, Abs format (unit mm)*
G04 Created by KiCad (PCBNEW (6.0.1-0)) date 2022-03-12 03:36:10*
%MOMM*%
%LPD*%
G01*
G04 APERTURE LIST*
%ADD10C,0.150000*%
%ADD11C,0.200000*%
%ADD12C,0.120000*%
%ADD13R,1.600000X1.600000*%
%ADD14C,1.600000*%
G04 APERTURE END LIST*
D10*
X163036857Y-127150880D02*
X162846380Y-127150880D01*
X162751142Y-127198500D01*
X162703523Y-127246119D01*
X162608285Y-127388976D01*
X162560666Y-127579452D01*
X162560666Y-127960404D01*
X162608285Y-128055642D01*
X162655904Y-128103261D01*
X162751142Y-128150880D01*
X162941619Y-128150880D01*
X163036857Y-128103261D01*
X163084476Y-128055642D01*
X163132095Y-127960404D01*
X163132095Y-127722309D01*
X163084476Y-127627071D01*
X163036857Y-127579452D01*
X162941619Y-127531833D01*
X162751142Y-127531833D01*
X162655904Y-127579452D01*
X162608285Y-127627071D01*
X162560666Y-127722309D01*
X163989238Y-127484214D02*
X163989238Y-128150880D01*
X163560666Y-127484214D02*
X163560666Y-128008023D01*
X163608285Y-128103261D01*
X163703523Y-128150880D01*
X163846380Y-128150880D01*
X163941619Y-128103261D01*
X163989238Y-128055642D01*
X164465428Y-127769928D02*
X165227333Y-127769928D01*
X165846380Y-128150880D02*
X165751142Y-128103261D01*
X165703523Y-128055642D01*
X165655904Y-127960404D01*
X165655904Y-127674690D01*
X165703523Y-127579452D01*
X165751142Y-127531833D01*
X165846380Y-127484214D01*
X165989238Y-127484214D01*
X166084476Y-127531833D01*
X166132095Y-127579452D01*
X166179714Y-127674690D01*
X166179714Y-127960404D01*
X166132095Y-128055642D01*
X166084476Y-128103261D01*
X165989238Y-128150880D01*
X165846380Y-128150880D01*
X166465428Y-127484214D02*
X166846380Y-127484214D01*
X166608285Y-128150880D02*
X166608285Y-127293738D01*
X166655904Y-127198500D01*
X166751142Y-127150880D01*
X166846380Y-127150880D01*
X167036857Y-127484214D02*
X167417809Y-127484214D01*
X167179714Y-128150880D02*
X167179714Y-127293738D01*
X167227333Y-127198500D01*
X167322571Y-127150880D01*
X167417809Y-127150880D01*
X167751142Y-127769928D02*
X168513047Y-127769928D01*
X169417809Y-128103261D02*
X169322571Y-128150880D01*
X169132095Y-128150880D01*
X169036857Y-128103261D01*
X168989238Y-128055642D01*
X168941619Y-127960404D01*
X168941619Y-127674690D01*
X168989238Y-127579452D01*
X169036857Y-127531833D01*
X169132095Y-127484214D01*
X169322571Y-127484214D01*
X169417809Y-127531833D01*
X170227333Y-128103261D02*
X170132095Y-128150880D01*
X169941619Y-128150880D01*
X169846380Y-128103261D01*
X169798761Y-128008023D01*
X169798761Y-127627071D01*
X169846380Y-127531833D01*
X169941619Y-127484214D01*
X170132095Y-127484214D01*
X170227333Y-127531833D01*
X170274952Y-127627071D01*
X170274952Y-127722309D01*
X169798761Y-127817547D01*
X170703523Y-127484214D02*
X170703523Y-128150880D01*
X170703523Y-127579452D02*
X170751142Y-127531833D01*
X170846380Y-127484214D01*
X170989238Y-127484214D01*
X171084476Y-127531833D01*
X171132095Y-127627071D01*
X171132095Y-128150880D01*
X171465428Y-127484214D02*
X171846380Y-127484214D01*
X171608285Y-127150880D02*
X171608285Y-128008023D01*
X171655904Y-128103261D01*
X171751142Y-128150880D01*
X171846380Y-128150880D01*
X172560666Y-128103261D02*
X172465428Y-128150880D01*
X172274952Y-128150880D01*
X172179714Y-128103261D01*
X172132095Y-128008023D01*
X172132095Y-127627071D01*
X172179714Y-127531833D01*
X172274952Y-127484214D01*
X172465428Y-127484214D01*
X172560666Y-127531833D01*
X172608285Y-127627071D01*
X172608285Y-127722309D01*
X172132095Y-127817547D01*
X173036857Y-128150880D02*
X173036857Y-127484214D01*
X173036857Y-127674690D02*
X173084476Y-127579452D01*
X173132095Y-127531833D01*
X173227333Y-127484214D01*
X173322571Y-127484214D01*
X147752380Y-115120952D02*
X147657142Y-115073333D01*
X147609523Y-115025714D01*
X147561904Y-114930476D01*
X147561904Y-114882857D01*
X147609523Y-114787619D01*
X147657142Y-114740000D01*
X147752380Y-114692380D01*
X147942857Y-114692380D01*
X148038095Y-114740000D01*
X148085714Y-114787619D01*
X148133333Y-114882857D01*
X148133333Y-114930476D01*
X148085714Y-115025714D01*
X148038095Y-115073333D01*
X147942857Y-115120952D01*
X147752380Y-115120952D01*
X147657142Y-115168571D01*
X147609523Y-115216190D01*
X147561904Y-115311428D01*
X147561904Y-115501904D01*
X147609523Y-115597142D01*
X147657142Y-115644761D01*
X147752380Y-115692380D01*
X147942857Y-115692380D01*
X148038095Y-115644761D01*
X148085714Y-115597142D01*
X148133333Y-115501904D01*
X148133333Y-115311428D01*
X148085714Y-115216190D01*
X148038095Y-115168571D01*
X147942857Y-115120952D01*
X148990476Y-115025714D02*
X148990476Y-115692380D01*
X148561904Y-115025714D02*
X148561904Y-115549523D01*
X148609523Y-115644761D01*
X148704761Y-115692380D01*
X148847619Y-115692380D01*
X148942857Y-115644761D01*
X148990476Y-115597142D01*
X147657142Y-117302380D02*
X147085714Y-117302380D01*
X147371428Y-117302380D02*
X147371428Y-116302380D01*
X147276190Y-116445238D01*
X147180952Y-116540476D01*
X147085714Y-116588095D01*
X148276190Y-116302380D02*
X148371428Y-116302380D01*
X148466666Y-116350000D01*
X148514285Y-116397619D01*
X148561904Y-116492857D01*
X148609523Y-116683333D01*
X148609523Y-116921428D01*
X148561904Y-117111904D01*
X148514285Y-117207142D01*
X148466666Y-117254761D01*
X148371428Y-117302380D01*
X148276190Y-117302380D01*
X148180952Y-117254761D01*
X148133333Y-117207142D01*
X148085714Y-117111904D01*
X148038095Y-116921428D01*
X148038095Y-116683333D01*
X148085714Y-116492857D01*
X148133333Y-116397619D01*
X148180952Y-116350000D01*
X148276190Y-116302380D01*
X149466666Y-116635714D02*
X149466666Y-117302380D01*
X149038095Y-116635714D02*
X149038095Y-117159523D01*
X149085714Y-117254761D01*
X149180952Y-117302380D01*
X149323809Y-117302380D01*
X149419047Y-117254761D01*
X149466666Y-117207142D01*
X144204761Y-117912380D02*
X144014285Y-117912380D01*
X143919047Y-117960000D01*
X143871428Y-118007619D01*
X143776190Y-118150476D01*
X143728571Y-118340952D01*
X143728571Y-118721904D01*
X143776190Y-118817142D01*
X143823809Y-118864761D01*
X143919047Y-118912380D01*
X144109523Y-118912380D01*
X144204761Y-118864761D01*
X144252380Y-118817142D01*
X144300000Y-118721904D01*
X144300000Y-118483809D01*
X144252380Y-118388571D01*
X144204761Y-118340952D01*
X144109523Y-118293333D01*
X143919047Y-118293333D01*
X143823809Y-118340952D01*
X143776190Y-118388571D01*
X143728571Y-118483809D01*
X145157142Y-118245714D02*
X145157142Y-118912380D01*
X144728571Y-118245714D02*
X144728571Y-118769523D01*
X144776190Y-118864761D01*
X144871428Y-118912380D01*
X145014285Y-118912380D01*
X145109523Y-118864761D01*
X145157142Y-118817142D01*
X145633333Y-118531428D02*
X146395238Y-118531428D01*
X147300000Y-118864761D02*
X147204761Y-118912380D01*
X147014285Y-118912380D01*
X146919047Y-118864761D01*
X146871428Y-118817142D01*
X146823809Y-118721904D01*
X146823809Y-118436190D01*
X146871428Y-118340952D01*
X146919047Y-118293333D01*
X147014285Y-118245714D01*
X147204761Y-118245714D01*
X147300000Y-118293333D01*
X148109523Y-118864761D02*
X148014285Y-118912380D01*
X147823809Y-118912380D01*
X147728571Y-118864761D01*
X147680952Y-118769523D01*
X147680952Y-118388571D01*
X147728571Y-118293333D01*
X147823809Y-118245714D01*
X148014285Y-118245714D01*
X148109523Y-118293333D01*
X148157142Y-118388571D01*
X148157142Y-118483809D01*
X147680952Y-118579047D01*
X148585714Y-118245714D02*
X148585714Y-118912380D01*
X148585714Y-118340952D02*
X148633333Y-118293333D01*
X148728571Y-118245714D01*
X148871428Y-118245714D01*
X148966666Y-118293333D01*
X149014285Y-118388571D01*
X149014285Y-118912380D01*
X149347619Y-118245714D02*
X149728571Y-118245714D01*
X149490476Y-117912380D02*
X149490476Y-118769523D01*
X149538095Y-118864761D01*
X149633333Y-118912380D01*
X149728571Y-118912380D01*
X150442857Y-118864761D02*
X150347619Y-118912380D01*
X150157142Y-118912380D01*
X150061904Y-118864761D01*
X150014285Y-118769523D01*
X150014285Y-118388571D01*
X150061904Y-118293333D01*
X150157142Y-118245714D01*
X150347619Y-118245714D01*
X150442857Y-118293333D01*
X150490476Y-118388571D01*
X150490476Y-118483809D01*
X150014285Y-118579047D01*
X150919047Y-118912380D02*
X150919047Y-118245714D01*
X150919047Y-118436190D02*
X150966666Y-118340952D01*
X151014285Y-118293333D01*
X151109523Y-118245714D01*
X151204761Y-118245714D01*
X151919047Y-118864761D02*
X151823809Y-118912380D01*
X151633333Y-118912380D01*
X151538095Y-118864761D01*
X151490476Y-118769523D01*
X151490476Y-118388571D01*
X151538095Y-118293333D01*
X151633333Y-118245714D01*
X151823809Y-118245714D01*
X151919047Y-118293333D01*
X151966666Y-118388571D01*
X151966666Y-118483809D01*
X151490476Y-118579047D01*
X152823809Y-118912380D02*
X152823809Y-117912380D01*
X152823809Y-118864761D02*
X152728571Y-118912380D01*
X152538095Y-118912380D01*
X152442857Y-118864761D01*
X152395238Y-118817142D01*
X152347619Y-118721904D01*
X152347619Y-118436190D01*
X152395238Y-118340952D01*
X152442857Y-118293333D01*
X152538095Y-118245714D01*
X152728571Y-118245714D01*
X152823809Y-118293333D01*
D11*
X182300000Y-120169761D02*
X182109523Y-120074523D01*
X182014285Y-119979285D01*
X181919047Y-119788809D01*
X181919047Y-119217380D01*
X182014285Y-119026904D01*
X182109523Y-118931666D01*
X182300000Y-118836428D01*
X182585714Y-118836428D01*
X182776190Y-118931666D01*
X182871428Y-119026904D01*
X182966666Y-119217380D01*
X182966666Y-119788809D01*
X182871428Y-119979285D01*
X182776190Y-120074523D01*
X182585714Y-120169761D01*
X182300000Y-120169761D01*
X183823809Y-120169761D02*
X183823809Y-118836428D01*
X183823809Y-119026904D02*
X183919047Y-118931666D01*
X184109523Y-118836428D01*
X184395238Y-118836428D01*
X184585714Y-118931666D01*
X184680952Y-119122142D01*
X184680952Y-120169761D01*
X184680952Y-119122142D02*
X184776190Y-118931666D01*
X184966666Y-118836428D01*
X185252380Y-118836428D01*
X185442857Y-118931666D01*
X185538095Y-119122142D01*
X185538095Y-120169761D01*
X187252380Y-120074523D02*
X187061904Y-120169761D01*
X186680952Y-120169761D01*
X186490476Y-120074523D01*
X186395238Y-119884047D01*
X186395238Y-119122142D01*
X186490476Y-118931666D01*
X186680952Y-118836428D01*
X187061904Y-118836428D01*
X187252380Y-118931666D01*
X187347619Y-119122142D01*
X187347619Y-119312619D01*
X186395238Y-119503095D01*
X189061904Y-118836428D02*
X189061904Y-120455476D01*
X188966666Y-120645952D01*
X188871428Y-120741190D01*
X188680952Y-120836428D01*
X188395238Y-120836428D01*
X188204761Y-120741190D01*
X189061904Y-120074523D02*
X188871428Y-120169761D01*
X188490476Y-120169761D01*
X188300000Y-120074523D01*
X188204761Y-119979285D01*
X188109523Y-119788809D01*
X188109523Y-119217380D01*
X188204761Y-119026904D01*
X188300000Y-118931666D01*
X188490476Y-118836428D01*
X188871428Y-118836428D01*
X189061904Y-118931666D01*
X190871428Y-120169761D02*
X190871428Y-119122142D01*
X190776190Y-118931666D01*
X190585714Y-118836428D01*
X190204761Y-118836428D01*
X190014285Y-118931666D01*
X190871428Y-120074523D02*
X190680952Y-120169761D01*
X190204761Y-120169761D01*
X190014285Y-120074523D01*
X189919047Y-119884047D01*
X189919047Y-119693571D01*
X190014285Y-119503095D01*
X190204761Y-119407857D01*
X190680952Y-119407857D01*
X190871428Y-119312619D01*
X192680952Y-118836428D02*
X192680952Y-120169761D01*
X192204761Y-118074523D02*
X191728571Y-119503095D01*
X192966666Y-119503095D01*
X193252380Y-120360238D02*
X194776190Y-120360238D01*
X195061904Y-118836428D02*
X195538095Y-120169761D01*
X196014285Y-118836428D01*
X196585714Y-118169761D02*
X197823809Y-118169761D01*
X197157142Y-118931666D01*
X197442857Y-118931666D01*
X197633333Y-119026904D01*
X197728571Y-119122142D01*
X197823809Y-119312619D01*
X197823809Y-119788809D01*
X197728571Y-119979285D01*
X197633333Y-120074523D01*
X197442857Y-120169761D01*
X196871428Y-120169761D01*
X196680952Y-120074523D01*
X196585714Y-119979285D01*
X198680952Y-119979285D02*
X198776190Y-120074523D01*
X198680952Y-120169761D01*
X198585714Y-120074523D01*
X198680952Y-119979285D01*
X198680952Y-120169761D01*
X200014285Y-118169761D02*
X200204761Y-118169761D01*
X200395238Y-118265000D01*
X200490476Y-118360238D01*
X200585714Y-118550714D01*
X200680952Y-118931666D01*
X200680952Y-119407857D01*
X200585714Y-119788809D01*
X200490476Y-119979285D01*
X200395238Y-120074523D01*
X200204761Y-120169761D01*
X200014285Y-120169761D01*
X199823809Y-120074523D01*
X199728571Y-119979285D01*
X199633333Y-119788809D01*
X199538095Y-119407857D01*
X199538095Y-118931666D01*
X199633333Y-118550714D01*
X199728571Y-118360238D01*
X199823809Y-118265000D01*
X200014285Y-118169761D01*
X181966666Y-123389761D02*
X181966666Y-121389761D01*
X181966666Y-122151666D02*
X182157142Y-122056428D01*
X182538095Y-122056428D01*
X182728571Y-122151666D01*
X182823809Y-122246904D01*
X182919047Y-122437380D01*
X182919047Y-123008809D01*
X182823809Y-123199285D01*
X182728571Y-123294523D01*
X182538095Y-123389761D01*
X182157142Y-123389761D01*
X181966666Y-123294523D01*
X183585714Y-122056428D02*
X184061904Y-123389761D01*
X184538095Y-122056428D02*
X184061904Y-123389761D01*
X183871428Y-123865952D01*
X183776190Y-123961190D01*
X183585714Y-124056428D01*
X186823809Y-123389761D02*
X186823809Y-122056428D01*
X186823809Y-122246904D02*
X186919047Y-122151666D01*
X187109523Y-122056428D01*
X187395238Y-122056428D01*
X187585714Y-122151666D01*
X187680952Y-122342142D01*
X187680952Y-123389761D01*
X187680952Y-122342142D02*
X187776190Y-122151666D01*
X187966666Y-122056428D01*
X188252380Y-122056428D01*
X188442857Y-122151666D01*
X188538095Y-122342142D01*
X188538095Y-123389761D01*
X190347619Y-123389761D02*
X190347619Y-122342142D01*
X190252380Y-122151666D01*
X190061904Y-122056428D01*
X189680952Y-122056428D01*
X189490476Y-122151666D01*
X190347619Y-123294523D02*
X190157142Y-123389761D01*
X189680952Y-123389761D01*
X189490476Y-123294523D01*
X189395238Y-123104047D01*
X189395238Y-122913571D01*
X189490476Y-122723095D01*
X189680952Y-122627857D01*
X190157142Y-122627857D01*
X190347619Y-122532619D01*
X191300000Y-123389761D02*
X191300000Y-121389761D01*
X191490476Y-122627857D02*
X192061904Y-123389761D01*
X192061904Y-122056428D02*
X191300000Y-122818333D01*
X193680952Y-123294523D02*
X193490476Y-123389761D01*
X193109523Y-123389761D01*
X192919047Y-123294523D01*
X192823809Y-123104047D01*
X192823809Y-122342142D01*
X192919047Y-122151666D01*
X193109523Y-122056428D01*
X193490476Y-122056428D01*
X193680952Y-122151666D01*
X193776190Y-122342142D01*
X193776190Y-122532619D01*
X192823809Y-122723095D01*
X194633333Y-122056428D02*
X194633333Y-123389761D01*
X194633333Y-122246904D02*
X194728571Y-122151666D01*
X194919047Y-122056428D01*
X195204761Y-122056428D01*
X195395238Y-122151666D01*
X195490476Y-122342142D01*
X195490476Y-123389761D01*
X196728571Y-123389761D02*
X196538095Y-123294523D01*
X196442857Y-123199285D01*
X196347619Y-123008809D01*
X196347619Y-122437380D01*
X196442857Y-122246904D01*
X196538095Y-122151666D01*
X196728571Y-122056428D01*
X197014285Y-122056428D01*
X197204761Y-122151666D01*
X197300000Y-122246904D01*
X197395238Y-122437380D01*
X197395238Y-123008809D01*
X197300000Y-123199285D01*
X197204761Y-123294523D01*
X197014285Y-123389761D01*
X196728571Y-123389761D01*
X198061904Y-122056428D02*
X198538095Y-123389761D01*
X199014285Y-122056428D01*
X200633333Y-123389761D02*
X200633333Y-122342142D01*
X200538095Y-122151666D01*
X200347619Y-122056428D01*
X199966666Y-122056428D01*
X199776190Y-122151666D01*
X200633333Y-123294523D02*
X200442857Y-123389761D01*
X199966666Y-123389761D01*
X199776190Y-123294523D01*
X199680952Y-123104047D01*
X199680952Y-122913571D01*
X199776190Y-122723095D01*
X199966666Y-122627857D01*
X200442857Y-122627857D01*
X200633333Y-122532619D01*
D10*
X205768095Y-117172380D02*
X205577619Y-117172380D01*
X205482380Y-117220000D01*
X205434761Y-117267619D01*
X205339523Y-117410476D01*
X205291904Y-117600952D01*
X205291904Y-117981904D01*
X205339523Y-118077142D01*
X205387142Y-118124761D01*
X205482380Y-118172380D01*
X205672857Y-118172380D01*
X205768095Y-118124761D01*
X205815714Y-118077142D01*
X205863333Y-117981904D01*
X205863333Y-117743809D01*
X205815714Y-117648571D01*
X205768095Y-117600952D01*
X205672857Y-117553333D01*
X205482380Y-117553333D01*
X205387142Y-117600952D01*
X205339523Y-117648571D01*
X205291904Y-117743809D01*
X206720476Y-117505714D02*
X206720476Y-118172380D01*
X206291904Y-117505714D02*
X206291904Y-118029523D01*
X206339523Y-118124761D01*
X206434761Y-118172380D01*
X206577619Y-118172380D01*
X206672857Y-118124761D01*
X206720476Y-118077142D01*
D11*
X121068571Y-76054761D02*
X120878095Y-75959523D01*
X120782857Y-75864285D01*
X120687619Y-75673809D01*
X120687619Y-75102380D01*
X120782857Y-74911904D01*
X120878095Y-74816666D01*
X121068571Y-74721428D01*
X121354285Y-74721428D01*
X121544761Y-74816666D01*
X121639999Y-74911904D01*
X121735238Y-75102380D01*
X121735238Y-75673809D01*
X121639999Y-75864285D01*
X121544761Y-75959523D01*
X121354285Y-76054761D01*
X121068571Y-76054761D01*
X122592380Y-76054761D02*
X122592380Y-74721428D01*
X122592380Y-74911904D02*
X122687619Y-74816666D01*
X122878095Y-74721428D01*
X123163809Y-74721428D01*
X123354285Y-74816666D01*
X123449523Y-75007142D01*
X123449523Y-76054761D01*
X123449523Y-75007142D02*
X123544761Y-74816666D01*
X123735238Y-74721428D01*
X124020952Y-74721428D01*
X124211428Y-74816666D01*
X124306666Y-75007142D01*
X124306666Y-76054761D01*
X126020952Y-75959523D02*
X125830476Y-76054761D01*
X125449523Y-76054761D01*
X125259047Y-75959523D01*
X125163809Y-75769047D01*
X125163809Y-75007142D01*
X125259047Y-74816666D01*
X125449523Y-74721428D01*
X125830476Y-74721428D01*
X126020952Y-74816666D01*
X126116190Y-75007142D01*
X126116190Y-75197619D01*
X125163809Y-75388095D01*
X127830476Y-74721428D02*
X127830476Y-76340476D01*
X127735238Y-76530952D01*
X127639999Y-76626190D01*
X127449523Y-76721428D01*
X127163809Y-76721428D01*
X126973333Y-76626190D01*
X127830476Y-75959523D02*
X127639999Y-76054761D01*
X127259047Y-76054761D01*
X127068571Y-75959523D01*
X126973333Y-75864285D01*
X126878095Y-75673809D01*
X126878095Y-75102380D01*
X126973333Y-74911904D01*
X127068571Y-74816666D01*
X127259047Y-74721428D01*
X127639999Y-74721428D01*
X127830476Y-74816666D01*
X129639999Y-76054761D02*
X129639999Y-75007142D01*
X129544761Y-74816666D01*
X129354285Y-74721428D01*
X128973333Y-74721428D01*
X128782857Y-74816666D01*
X129639999Y-75959523D02*
X129449523Y-76054761D01*
X128973333Y-76054761D01*
X128782857Y-75959523D01*
X128687619Y-75769047D01*
X128687619Y-75578571D01*
X128782857Y-75388095D01*
X128973333Y-75292857D01*
X129449523Y-75292857D01*
X129639999Y-75197619D01*
X131449523Y-74721428D02*
X131449523Y-76054761D01*
X130973333Y-73959523D02*
X130497142Y-75388095D01*
X131735238Y-75388095D01*
X132020952Y-76245238D02*
X133544761Y-76245238D01*
X133830476Y-74721428D02*
X134306666Y-76054761D01*
X134782857Y-74721428D01*
X135354285Y-74054761D02*
X136592380Y-74054761D01*
X135925714Y-74816666D01*
X136211428Y-74816666D01*
X136401904Y-74911904D01*
X136497142Y-75007142D01*
X136592380Y-75197619D01*
X136592380Y-75673809D01*
X136497142Y-75864285D01*
X136401904Y-75959523D01*
X136211428Y-76054761D01*
X135640000Y-76054761D01*
X135449523Y-75959523D01*
X135354285Y-75864285D01*
X137449523Y-75864285D02*
X137544761Y-75959523D01*
X137449523Y-76054761D01*
X137354285Y-75959523D01*
X137449523Y-75864285D01*
X137449523Y-76054761D01*
X138782857Y-74054761D02*
X138973333Y-74054761D01*
X139163809Y-74150000D01*
X139259047Y-74245238D01*
X139354285Y-74435714D01*
X139449523Y-74816666D01*
X139449523Y-75292857D01*
X139354285Y-75673809D01*
X139259047Y-75864285D01*
X139163809Y-75959523D01*
X138973333Y-76054761D01*
X138782857Y-76054761D01*
X138592380Y-75959523D01*
X138497142Y-75864285D01*
X138401904Y-75673809D01*
X138306666Y-75292857D01*
X138306666Y-74816666D01*
X138401904Y-74435714D01*
X138497142Y-74245238D01*
X138592380Y-74150000D01*
X138782857Y-74054761D01*
X141830476Y-76054761D02*
X141830476Y-74054761D01*
X141830476Y-74816666D02*
X142020952Y-74721428D01*
X142401904Y-74721428D01*
X142592380Y-74816666D01*
X142687619Y-74911904D01*
X142782857Y-75102380D01*
X142782857Y-75673809D01*
X142687619Y-75864285D01*
X142592380Y-75959523D01*
X142401904Y-76054761D01*
X142020952Y-76054761D01*
X141830476Y-75959523D01*
X143449523Y-74721428D02*
X143925714Y-76054761D01*
X144401904Y-74721428D02*
X143925714Y-76054761D01*
X143735238Y-76530952D01*
X143640000Y-76626190D01*
X143449523Y-76721428D01*
X146687619Y-76054761D02*
X146687619Y-74721428D01*
X146687619Y-74911904D02*
X146782857Y-74816666D01*
X146973333Y-74721428D01*
X147259047Y-74721428D01*
X147449523Y-74816666D01*
X147544761Y-75007142D01*
X147544761Y-76054761D01*
X147544761Y-75007142D02*
X147640000Y-74816666D01*
X147830476Y-74721428D01*
X148116190Y-74721428D01*
X148306666Y-74816666D01*
X148401904Y-75007142D01*
X148401904Y-76054761D01*
X150211428Y-76054761D02*
X150211428Y-75007142D01*
X150116190Y-74816666D01*
X149925714Y-74721428D01*
X149544761Y-74721428D01*
X149354285Y-74816666D01*
X150211428Y-75959523D02*
X150020952Y-76054761D01*
X149544761Y-76054761D01*
X149354285Y-75959523D01*
X149259047Y-75769047D01*
X149259047Y-75578571D01*
X149354285Y-75388095D01*
X149544761Y-75292857D01*
X150020952Y-75292857D01*
X150211428Y-75197619D01*
X151163809Y-76054761D02*
X151163809Y-74054761D01*
X151354285Y-75292857D02*
X151925714Y-76054761D01*
X151925714Y-74721428D02*
X151163809Y-75483333D01*
X153544761Y-75959523D02*
X153354285Y-76054761D01*
X152973333Y-76054761D01*
X152782857Y-75959523D01*
X152687619Y-75769047D01*
X152687619Y-75007142D01*
X152782857Y-74816666D01*
X152973333Y-74721428D01*
X153354285Y-74721428D01*
X153544761Y-74816666D01*
X153640000Y-75007142D01*
X153640000Y-75197619D01*
X152687619Y-75388095D01*
X154497142Y-74721428D02*
X154497142Y-76054761D01*
X154497142Y-74911904D02*
X154592380Y-74816666D01*
X154782857Y-74721428D01*
X155068571Y-74721428D01*
X155259047Y-74816666D01*
X155354285Y-75007142D01*
X155354285Y-76054761D01*
X156592380Y-76054761D02*
X156401904Y-75959523D01*
X156306666Y-75864285D01*
X156211428Y-75673809D01*
X156211428Y-75102380D01*
X156306666Y-74911904D01*
X156401904Y-74816666D01*
X156592380Y-74721428D01*
X156878095Y-74721428D01*
X157068571Y-74816666D01*
X157163809Y-74911904D01*
X157259047Y-75102380D01*
X157259047Y-75673809D01*
X157163809Y-75864285D01*
X157068571Y-75959523D01*
X156878095Y-76054761D01*
X156592380Y-76054761D01*
X157925714Y-74721428D02*
X158401904Y-76054761D01*
X158878095Y-74721428D01*
X160497142Y-76054761D02*
X160497142Y-75007142D01*
X160401904Y-74816666D01*
X160211428Y-74721428D01*
X159830476Y-74721428D01*
X159639999Y-74816666D01*
X160497142Y-75959523D02*
X160306666Y-76054761D01*
X159830476Y-76054761D01*
X159639999Y-75959523D01*
X159544761Y-75769047D01*
X159544761Y-75578571D01*
X159639999Y-75388095D01*
X159830476Y-75292857D01*
X160306666Y-75292857D01*
X160497142Y-75197619D01*
D10*
X110348095Y-117372380D02*
X110157619Y-117372380D01*
X110062380Y-117420000D01*
X110014761Y-117467619D01*
X109919523Y-117610476D01*
X109871904Y-117800952D01*
X109871904Y-118181904D01*
X109919523Y-118277142D01*
X109967142Y-118324761D01*
X110062380Y-118372380D01*
X110252857Y-118372380D01*
X110348095Y-118324761D01*
X110395714Y-118277142D01*
X110443333Y-118181904D01*
X110443333Y-117943809D01*
X110395714Y-117848571D01*
X110348095Y-117800952D01*
X110252857Y-117753333D01*
X110062380Y-117753333D01*
X109967142Y-117800952D01*
X109919523Y-117848571D01*
X109871904Y-117943809D01*
X111300476Y-117705714D02*
X111300476Y-118372380D01*
X110871904Y-117705714D02*
X110871904Y-118229523D01*
X110919523Y-118324761D01*
X111014761Y-118372380D01*
X111157619Y-118372380D01*
X111252857Y-118324761D01*
X111300476Y-118277142D01*
X90912380Y-117405952D02*
X90817142Y-117358333D01*
X90769523Y-117310714D01*
X90721904Y-117215476D01*
X90721904Y-117167857D01*
X90769523Y-117072619D01*
X90817142Y-117025000D01*
X90912380Y-116977380D01*
X91102857Y-116977380D01*
X91198095Y-117025000D01*
X91245714Y-117072619D01*
X91293333Y-117167857D01*
X91293333Y-117215476D01*
X91245714Y-117310714D01*
X91198095Y-117358333D01*
X91102857Y-117405952D01*
X90912380Y-117405952D01*
X90817142Y-117453571D01*
X90769523Y-117501190D01*
X90721904Y-117596428D01*
X90721904Y-117786904D01*
X90769523Y-117882142D01*
X90817142Y-117929761D01*
X90912380Y-117977380D01*
X91102857Y-117977380D01*
X91198095Y-117929761D01*
X91245714Y-117882142D01*
X91293333Y-117786904D01*
X91293333Y-117596428D01*
X91245714Y-117501190D01*
X91198095Y-117453571D01*
X91102857Y-117405952D01*
X92150476Y-117310714D02*
X92150476Y-117977380D01*
X91721904Y-117310714D02*
X91721904Y-117834523D01*
X91769523Y-117929761D01*
X91864761Y-117977380D01*
X92007619Y-117977380D01*
X92102857Y-117929761D01*
X92150476Y-117882142D01*
X90817142Y-119587380D02*
X90245714Y-119587380D01*
X90531428Y-119587380D02*
X90531428Y-118587380D01*
X90436190Y-118730238D01*
X90340952Y-118825476D01*
X90245714Y-118873095D01*
X91436190Y-118587380D02*
X91531428Y-118587380D01*
X91626666Y-118635000D01*
X91674285Y-118682619D01*
X91721904Y-118777857D01*
X91769523Y-118968333D01*
X91769523Y-119206428D01*
X91721904Y-119396904D01*
X91674285Y-119492142D01*
X91626666Y-119539761D01*
X91531428Y-119587380D01*
X91436190Y-119587380D01*
X91340952Y-119539761D01*
X91293333Y-119492142D01*
X91245714Y-119396904D01*
X91198095Y-119206428D01*
X91198095Y-118968333D01*
X91245714Y-118777857D01*
X91293333Y-118682619D01*
X91340952Y-118635000D01*
X91436190Y-118587380D01*
X92626666Y-118920714D02*
X92626666Y-119587380D01*
X92198095Y-118920714D02*
X92198095Y-119444523D01*
X92245714Y-119539761D01*
X92340952Y-119587380D01*
X92483809Y-119587380D01*
X92579047Y-119539761D01*
X92626666Y-119492142D01*
X224432380Y-117335952D02*
X224337142Y-117288333D01*
X224289523Y-117240714D01*
X224241904Y-117145476D01*
X224241904Y-117097857D01*
X224289523Y-117002619D01*
X224337142Y-116955000D01*
X224432380Y-116907380D01*
X224622857Y-116907380D01*
X224718095Y-116955000D01*
X224765714Y-117002619D01*
X224813333Y-117097857D01*
X224813333Y-117145476D01*
X224765714Y-117240714D01*
X224718095Y-117288333D01*
X224622857Y-117335952D01*
X224432380Y-117335952D01*
X224337142Y-117383571D01*
X224289523Y-117431190D01*
X224241904Y-117526428D01*
X224241904Y-117716904D01*
X224289523Y-117812142D01*
X224337142Y-117859761D01*
X224432380Y-117907380D01*
X224622857Y-117907380D01*
X224718095Y-117859761D01*
X224765714Y-117812142D01*
X224813333Y-117716904D01*
X224813333Y-117526428D01*
X224765714Y-117431190D01*
X224718095Y-117383571D01*
X224622857Y-117335952D01*
X225670476Y-117240714D02*
X225670476Y-117907380D01*
X225241904Y-117240714D02*
X225241904Y-117764523D01*
X225289523Y-117859761D01*
X225384761Y-117907380D01*
X225527619Y-117907380D01*
X225622857Y-117859761D01*
X225670476Y-117812142D01*
X224337142Y-119517380D02*
X223765714Y-119517380D01*
X224051428Y-119517380D02*
X224051428Y-118517380D01*
X223956190Y-118660238D01*
X223860952Y-118755476D01*
X223765714Y-118803095D01*
X224956190Y-118517380D02*
X225051428Y-118517380D01*
X225146666Y-118565000D01*
X225194285Y-118612619D01*
X225241904Y-118707857D01*
X225289523Y-118898333D01*
X225289523Y-119136428D01*
X225241904Y-119326904D01*
X225194285Y-119422142D01*
X225146666Y-119469761D01*
X225051428Y-119517380D01*
X224956190Y-119517380D01*
X224860952Y-119469761D01*
X224813333Y-119422142D01*
X224765714Y-119326904D01*
X224718095Y-119136428D01*
X224718095Y-118898333D01*
X224765714Y-118707857D01*
X224813333Y-118612619D01*
X224860952Y-118565000D01*
X224956190Y-118517380D01*
X226146666Y-118850714D02*
X226146666Y-119517380D01*
X225718095Y-118850714D02*
X225718095Y-119374523D01*
X225765714Y-119469761D01*
X225860952Y-119517380D01*
X226003809Y-119517380D01*
X226099047Y-119469761D01*
X226146666Y-119422142D01*
X87776666Y-65082380D02*
X87776666Y-65796666D01*
X87729047Y-65939523D01*
X87633809Y-66034761D01*
X87490952Y-66082380D01*
X87395714Y-66082380D01*
X88776666Y-66082380D02*
X88205238Y-66082380D01*
X88490952Y-66082380D02*
X88490952Y-65082380D01*
X88395714Y-65225238D01*
X88300476Y-65320476D01*
X88205238Y-65368095D01*
X48595000Y-69360000D02*
X48595000Y-61740000D01*
X51135000Y-56660000D02*
X81615000Y-56660000D01*
X51135000Y-61740000D02*
X51135000Y-56660000D01*
X51135000Y-74440000D02*
X51135000Y-69360000D01*
X48595000Y-61740000D02*
X51135000Y-61740000D01*
X51135000Y-69360000D02*
X48595000Y-69360000D01*
X81615000Y-56660000D02*
X81615000Y-74440000D01*
X51135000Y-74440000D02*
X81615000Y-74440000D01*
D12*
X87050000Y-68690000D02*
X87050000Y-70750000D01*
X87050000Y-70750000D02*
X89170000Y-70750000D01*
X87050000Y-66630000D02*
X88110000Y-66630000D01*
X89170000Y-68690000D02*
X89170000Y-70750000D01*
X87050000Y-67690000D02*
X87050000Y-66630000D01*
X87050000Y-68690000D02*
X89170000Y-68690000D01*
D13*
X66200000Y-69600000D03*
D14*
X66200000Y-61800000D03*
D13*
X84475000Y-71625000D03*
D14*
X84475000Y-63825000D03*
D13*
X103525000Y-71625000D03*
D14*
X103525000Y-63825000D03*
D13*
X122600000Y-71625000D03*
D14*
X122600000Y-63825000D03*
D13*
X141625000Y-71625000D03*
D14*
X141625000Y-63825000D03*
D13*
X179750000Y-71625000D03*
D14*
X179750000Y-63825000D03*
D13*
X198775000Y-71625000D03*
D14*
X198775000Y-63825000D03*
D13*
X217825000Y-71625000D03*
D14*
X217825000Y-63825000D03*
D13*
X236875000Y-71625000D03*
D14*
X236875000Y-63825000D03*
D13*
X70175000Y-90675000D03*
D14*
X70175000Y-82875000D03*
D13*
X89225000Y-90675000D03*
D14*
X89225000Y-82875000D03*
D13*
X108275000Y-90675000D03*
D14*
X108275000Y-82875000D03*
D13*
X127350000Y-90675000D03*
D14*
X127350000Y-82875000D03*
D13*
X146375000Y-90675000D03*
D14*
X146375000Y-82875000D03*
D13*
X165425000Y-90675000D03*
D14*
X165425000Y-82875000D03*
D13*
X184475000Y-90675000D03*
D14*
X184475000Y-82875000D03*
D13*
X203525000Y-90675000D03*
D14*
X203525000Y-82875000D03*
D13*
X222575000Y-90675000D03*
D14*
X222575000Y-82875000D03*
D13*
X241625000Y-90675000D03*
D14*
X241625000Y-82875000D03*
D13*
X74925000Y-109750000D03*
D14*
X74925000Y-101950000D03*
D13*
X93975000Y-109750000D03*
D14*
X93975000Y-101950000D03*
D13*
X113025000Y-109750000D03*
D14*
X113025000Y-101950000D03*
D13*
X132075000Y-109750000D03*
D14*
X132075000Y-101950000D03*
D13*
X135908799Y-109750000D03*
D14*
X135908799Y-101950000D03*
D13*
X170200000Y-109750000D03*
D14*
X170200000Y-101950000D03*
D13*
X189250000Y-109750000D03*
D14*
X189250000Y-101950000D03*
D13*
X208300000Y-109750000D03*
D14*
X208300000Y-101950000D03*
D13*
X227350000Y-109750000D03*
D14*
X227350000Y-101950000D03*
D13*
X246375000Y-109750000D03*
D14*
X246375000Y-101950000D03*
D13*
X79700000Y-128800000D03*
D14*
X79700000Y-121000000D03*
D13*
X98750000Y-128800000D03*
D14*
X98750000Y-121000000D03*
D13*
X176125000Y-128800000D03*
D14*
X176125000Y-121000000D03*
D13*
X232075000Y-128775000D03*
D14*
X232075000Y-120975000D03*
D13*
X52405000Y-73170000D03*
D14*
X54945000Y-73170000D03*
X57485000Y-73170000D03*
X60025000Y-73170000D03*
X62565000Y-73170000D03*
X65105000Y-73170000D03*
X67645000Y-73170000D03*
X70185000Y-73170000D03*
X72725000Y-73170000D03*
X75265000Y-73170000D03*
X77805000Y-73170000D03*
X80345000Y-73170000D03*
X80345000Y-57930000D03*
X77805000Y-57930000D03*
X75265000Y-57930000D03*
X72725000Y-57930000D03*
X70185000Y-57930000D03*
X67645000Y-57930000D03*
X65105000Y-57930000D03*
X62565000Y-57930000D03*
X60025000Y-57930000D03*
X57485000Y-57930000D03*
X54945000Y-57930000D03*
X52405000Y-57930000D03*
D13*
X160675000Y-71625000D03*
D14*
X160675000Y-63825000D03*
D13*
X251150000Y-128775000D03*
D14*
X251150000Y-120975000D03*
M02*
