G04 #@! TF.GenerationSoftware,KiCad,Pcbnew,(6.0.1-0)*
G04 #@! TF.CreationDate,2022-03-12T03:09:29-07:00*
G04 #@! TF.ProjectId,omega_4_solder,6f6d6567-615f-4345-9f73-6f6c6465722e,rev?*
G04 #@! TF.SameCoordinates,Original*
G04 #@! TF.FileFunction,Legend,Bot*
G04 #@! TF.FilePolarity,Positive*
%FSLAX46Y46*%
G04 Gerber Fmt 4.6, Leading zero omitted, Abs format (unit mm)*
G04 Created by KiCad (PCBNEW (6.0.1-0)) date 2022-03-12 03:09:29*
%MOMM*%
%LPD*%
G01*
G04 APERTURE LIST*
%ADD10C,0.150000*%
G04 APERTURE END LIST*
D10*
X225527619Y-117325952D02*
X225622857Y-117278333D01*
X225670476Y-117230714D01*
X225718095Y-117135476D01*
X225718095Y-117087857D01*
X225670476Y-116992619D01*
X225622857Y-116945000D01*
X225527619Y-116897380D01*
X225337142Y-116897380D01*
X225241904Y-116945000D01*
X225194285Y-116992619D01*
X225146666Y-117087857D01*
X225146666Y-117135476D01*
X225194285Y-117230714D01*
X225241904Y-117278333D01*
X225337142Y-117325952D01*
X225527619Y-117325952D01*
X225622857Y-117373571D01*
X225670476Y-117421190D01*
X225718095Y-117516428D01*
X225718095Y-117706904D01*
X225670476Y-117802142D01*
X225622857Y-117849761D01*
X225527619Y-117897380D01*
X225337142Y-117897380D01*
X225241904Y-117849761D01*
X225194285Y-117802142D01*
X225146666Y-117706904D01*
X225146666Y-117516428D01*
X225194285Y-117421190D01*
X225241904Y-117373571D01*
X225337142Y-117325952D01*
X224289523Y-117230714D02*
X224289523Y-117897380D01*
X224718095Y-117230714D02*
X224718095Y-117754523D01*
X224670476Y-117849761D01*
X224575238Y-117897380D01*
X224432380Y-117897380D01*
X224337142Y-117849761D01*
X224289523Y-117802142D01*
X225622857Y-119507380D02*
X226194285Y-119507380D01*
X225908571Y-119507380D02*
X225908571Y-118507380D01*
X226003809Y-118650238D01*
X226099047Y-118745476D01*
X226194285Y-118793095D01*
X225003809Y-118507380D02*
X224908571Y-118507380D01*
X224813333Y-118555000D01*
X224765714Y-118602619D01*
X224718095Y-118697857D01*
X224670476Y-118888333D01*
X224670476Y-119126428D01*
X224718095Y-119316904D01*
X224765714Y-119412142D01*
X224813333Y-119459761D01*
X224908571Y-119507380D01*
X225003809Y-119507380D01*
X225099047Y-119459761D01*
X225146666Y-119412142D01*
X225194285Y-119316904D01*
X225241904Y-119126428D01*
X225241904Y-118888333D01*
X225194285Y-118697857D01*
X225146666Y-118602619D01*
X225099047Y-118555000D01*
X225003809Y-118507380D01*
X223813333Y-118840714D02*
X223813333Y-119507380D01*
X224241904Y-118840714D02*
X224241904Y-119364523D01*
X224194285Y-119459761D01*
X224099047Y-119507380D01*
X223956190Y-119507380D01*
X223860952Y-119459761D01*
X223813333Y-119412142D01*
X110831904Y-117432380D02*
X111022380Y-117432380D01*
X111117619Y-117480000D01*
X111165238Y-117527619D01*
X111260476Y-117670476D01*
X111308095Y-117860952D01*
X111308095Y-118241904D01*
X111260476Y-118337142D01*
X111212857Y-118384761D01*
X111117619Y-118432380D01*
X110927142Y-118432380D01*
X110831904Y-118384761D01*
X110784285Y-118337142D01*
X110736666Y-118241904D01*
X110736666Y-118003809D01*
X110784285Y-117908571D01*
X110831904Y-117860952D01*
X110927142Y-117813333D01*
X111117619Y-117813333D01*
X111212857Y-117860952D01*
X111260476Y-117908571D01*
X111308095Y-118003809D01*
X109879523Y-117765714D02*
X109879523Y-118432380D01*
X110308095Y-117765714D02*
X110308095Y-118289523D01*
X110260476Y-118384761D01*
X110165238Y-118432380D01*
X110022380Y-118432380D01*
X109927142Y-118384761D01*
X109879523Y-118337142D01*
X148847619Y-115130952D02*
X148942857Y-115083333D01*
X148990476Y-115035714D01*
X149038095Y-114940476D01*
X149038095Y-114892857D01*
X148990476Y-114797619D01*
X148942857Y-114750000D01*
X148847619Y-114702380D01*
X148657142Y-114702380D01*
X148561904Y-114750000D01*
X148514285Y-114797619D01*
X148466666Y-114892857D01*
X148466666Y-114940476D01*
X148514285Y-115035714D01*
X148561904Y-115083333D01*
X148657142Y-115130952D01*
X148847619Y-115130952D01*
X148942857Y-115178571D01*
X148990476Y-115226190D01*
X149038095Y-115321428D01*
X149038095Y-115511904D01*
X148990476Y-115607142D01*
X148942857Y-115654761D01*
X148847619Y-115702380D01*
X148657142Y-115702380D01*
X148561904Y-115654761D01*
X148514285Y-115607142D01*
X148466666Y-115511904D01*
X148466666Y-115321428D01*
X148514285Y-115226190D01*
X148561904Y-115178571D01*
X148657142Y-115130952D01*
X147609523Y-115035714D02*
X147609523Y-115702380D01*
X148038095Y-115035714D02*
X148038095Y-115559523D01*
X147990476Y-115654761D01*
X147895238Y-115702380D01*
X147752380Y-115702380D01*
X147657142Y-115654761D01*
X147609523Y-115607142D01*
X148942857Y-117312380D02*
X149514285Y-117312380D01*
X149228571Y-117312380D02*
X149228571Y-116312380D01*
X149323809Y-116455238D01*
X149419047Y-116550476D01*
X149514285Y-116598095D01*
X148323809Y-116312380D02*
X148228571Y-116312380D01*
X148133333Y-116360000D01*
X148085714Y-116407619D01*
X148038095Y-116502857D01*
X147990476Y-116693333D01*
X147990476Y-116931428D01*
X148038095Y-117121904D01*
X148085714Y-117217142D01*
X148133333Y-117264761D01*
X148228571Y-117312380D01*
X148323809Y-117312380D01*
X148419047Y-117264761D01*
X148466666Y-117217142D01*
X148514285Y-117121904D01*
X148561904Y-116931428D01*
X148561904Y-116693333D01*
X148514285Y-116502857D01*
X148466666Y-116407619D01*
X148419047Y-116360000D01*
X148323809Y-116312380D01*
X147133333Y-116645714D02*
X147133333Y-117312380D01*
X147561904Y-116645714D02*
X147561904Y-117169523D01*
X147514285Y-117264761D01*
X147419047Y-117312380D01*
X147276190Y-117312380D01*
X147180952Y-117264761D01*
X147133333Y-117217142D01*
X152395238Y-117922380D02*
X152585714Y-117922380D01*
X152680952Y-117970000D01*
X152728571Y-118017619D01*
X152823809Y-118160476D01*
X152871428Y-118350952D01*
X152871428Y-118731904D01*
X152823809Y-118827142D01*
X152776190Y-118874761D01*
X152680952Y-118922380D01*
X152490476Y-118922380D01*
X152395238Y-118874761D01*
X152347619Y-118827142D01*
X152300000Y-118731904D01*
X152300000Y-118493809D01*
X152347619Y-118398571D01*
X152395238Y-118350952D01*
X152490476Y-118303333D01*
X152680952Y-118303333D01*
X152776190Y-118350952D01*
X152823809Y-118398571D01*
X152871428Y-118493809D01*
X151442857Y-118255714D02*
X151442857Y-118922380D01*
X151871428Y-118255714D02*
X151871428Y-118779523D01*
X151823809Y-118874761D01*
X151728571Y-118922380D01*
X151585714Y-118922380D01*
X151490476Y-118874761D01*
X151442857Y-118827142D01*
X150966666Y-118541428D02*
X150204761Y-118541428D01*
X149300000Y-118874761D02*
X149395238Y-118922380D01*
X149585714Y-118922380D01*
X149680952Y-118874761D01*
X149728571Y-118827142D01*
X149776190Y-118731904D01*
X149776190Y-118446190D01*
X149728571Y-118350952D01*
X149680952Y-118303333D01*
X149585714Y-118255714D01*
X149395238Y-118255714D01*
X149300000Y-118303333D01*
X148490476Y-118874761D02*
X148585714Y-118922380D01*
X148776190Y-118922380D01*
X148871428Y-118874761D01*
X148919047Y-118779523D01*
X148919047Y-118398571D01*
X148871428Y-118303333D01*
X148776190Y-118255714D01*
X148585714Y-118255714D01*
X148490476Y-118303333D01*
X148442857Y-118398571D01*
X148442857Y-118493809D01*
X148919047Y-118589047D01*
X148014285Y-118255714D02*
X148014285Y-118922380D01*
X148014285Y-118350952D02*
X147966666Y-118303333D01*
X147871428Y-118255714D01*
X147728571Y-118255714D01*
X147633333Y-118303333D01*
X147585714Y-118398571D01*
X147585714Y-118922380D01*
X147252380Y-118255714D02*
X146871428Y-118255714D01*
X147109523Y-117922380D02*
X147109523Y-118779523D01*
X147061904Y-118874761D01*
X146966666Y-118922380D01*
X146871428Y-118922380D01*
X146157142Y-118874761D02*
X146252380Y-118922380D01*
X146442857Y-118922380D01*
X146538095Y-118874761D01*
X146585714Y-118779523D01*
X146585714Y-118398571D01*
X146538095Y-118303333D01*
X146442857Y-118255714D01*
X146252380Y-118255714D01*
X146157142Y-118303333D01*
X146109523Y-118398571D01*
X146109523Y-118493809D01*
X146585714Y-118589047D01*
X145680952Y-118922380D02*
X145680952Y-118255714D01*
X145680952Y-118446190D02*
X145633333Y-118350952D01*
X145585714Y-118303333D01*
X145490476Y-118255714D01*
X145395238Y-118255714D01*
X144680952Y-118874761D02*
X144776190Y-118922380D01*
X144966666Y-118922380D01*
X145061904Y-118874761D01*
X145109523Y-118779523D01*
X145109523Y-118398571D01*
X145061904Y-118303333D01*
X144966666Y-118255714D01*
X144776190Y-118255714D01*
X144680952Y-118303333D01*
X144633333Y-118398571D01*
X144633333Y-118493809D01*
X145109523Y-118589047D01*
X143776190Y-118922380D02*
X143776190Y-117922380D01*
X143776190Y-118874761D02*
X143871428Y-118922380D01*
X144061904Y-118922380D01*
X144157142Y-118874761D01*
X144204761Y-118827142D01*
X144252380Y-118731904D01*
X144252380Y-118446190D01*
X144204761Y-118350952D01*
X144157142Y-118303333D01*
X144061904Y-118255714D01*
X143871428Y-118255714D01*
X143776190Y-118303333D01*
X172717142Y-127152380D02*
X172907619Y-127152380D01*
X173002857Y-127200000D01*
X173050476Y-127247619D01*
X173145714Y-127390476D01*
X173193333Y-127580952D01*
X173193333Y-127961904D01*
X173145714Y-128057142D01*
X173098095Y-128104761D01*
X173002857Y-128152380D01*
X172812380Y-128152380D01*
X172717142Y-128104761D01*
X172669523Y-128057142D01*
X172621904Y-127961904D01*
X172621904Y-127723809D01*
X172669523Y-127628571D01*
X172717142Y-127580952D01*
X172812380Y-127533333D01*
X173002857Y-127533333D01*
X173098095Y-127580952D01*
X173145714Y-127628571D01*
X173193333Y-127723809D01*
X171764761Y-127485714D02*
X171764761Y-128152380D01*
X172193333Y-127485714D02*
X172193333Y-128009523D01*
X172145714Y-128104761D01*
X172050476Y-128152380D01*
X171907619Y-128152380D01*
X171812380Y-128104761D01*
X171764761Y-128057142D01*
X171288571Y-127771428D02*
X170526666Y-127771428D01*
X169907619Y-128152380D02*
X170002857Y-128104761D01*
X170050476Y-128057142D01*
X170098095Y-127961904D01*
X170098095Y-127676190D01*
X170050476Y-127580952D01*
X170002857Y-127533333D01*
X169907619Y-127485714D01*
X169764761Y-127485714D01*
X169669523Y-127533333D01*
X169621904Y-127580952D01*
X169574285Y-127676190D01*
X169574285Y-127961904D01*
X169621904Y-128057142D01*
X169669523Y-128104761D01*
X169764761Y-128152380D01*
X169907619Y-128152380D01*
X169288571Y-127485714D02*
X168907619Y-127485714D01*
X169145714Y-128152380D02*
X169145714Y-127295238D01*
X169098095Y-127200000D01*
X169002857Y-127152380D01*
X168907619Y-127152380D01*
X168717142Y-127485714D02*
X168336190Y-127485714D01*
X168574285Y-128152380D02*
X168574285Y-127295238D01*
X168526666Y-127200000D01*
X168431428Y-127152380D01*
X168336190Y-127152380D01*
X168002857Y-127771428D02*
X167240952Y-127771428D01*
X166336190Y-128104761D02*
X166431428Y-128152380D01*
X166621904Y-128152380D01*
X166717142Y-128104761D01*
X166764761Y-128057142D01*
X166812380Y-127961904D01*
X166812380Y-127676190D01*
X166764761Y-127580952D01*
X166717142Y-127533333D01*
X166621904Y-127485714D01*
X166431428Y-127485714D01*
X166336190Y-127533333D01*
X165526666Y-128104761D02*
X165621904Y-128152380D01*
X165812380Y-128152380D01*
X165907619Y-128104761D01*
X165955238Y-128009523D01*
X165955238Y-127628571D01*
X165907619Y-127533333D01*
X165812380Y-127485714D01*
X165621904Y-127485714D01*
X165526666Y-127533333D01*
X165479047Y-127628571D01*
X165479047Y-127723809D01*
X165955238Y-127819047D01*
X165050476Y-127485714D02*
X165050476Y-128152380D01*
X165050476Y-127580952D02*
X165002857Y-127533333D01*
X164907619Y-127485714D01*
X164764761Y-127485714D01*
X164669523Y-127533333D01*
X164621904Y-127628571D01*
X164621904Y-128152380D01*
X164288571Y-127485714D02*
X163907619Y-127485714D01*
X164145714Y-127152380D02*
X164145714Y-128009523D01*
X164098095Y-128104761D01*
X164002857Y-128152380D01*
X163907619Y-128152380D01*
X163193333Y-128104761D02*
X163288571Y-128152380D01*
X163479047Y-128152380D01*
X163574285Y-128104761D01*
X163621904Y-128009523D01*
X163621904Y-127628571D01*
X163574285Y-127533333D01*
X163479047Y-127485714D01*
X163288571Y-127485714D01*
X163193333Y-127533333D01*
X163145714Y-127628571D01*
X163145714Y-127723809D01*
X163621904Y-127819047D01*
X162717142Y-128152380D02*
X162717142Y-127485714D01*
X162717142Y-127676190D02*
X162669523Y-127580952D01*
X162621904Y-127533333D01*
X162526666Y-127485714D01*
X162431428Y-127485714D01*
X91987619Y-117385952D02*
X92082857Y-117338333D01*
X92130476Y-117290714D01*
X92178095Y-117195476D01*
X92178095Y-117147857D01*
X92130476Y-117052619D01*
X92082857Y-117005000D01*
X91987619Y-116957380D01*
X91797142Y-116957380D01*
X91701904Y-117005000D01*
X91654285Y-117052619D01*
X91606666Y-117147857D01*
X91606666Y-117195476D01*
X91654285Y-117290714D01*
X91701904Y-117338333D01*
X91797142Y-117385952D01*
X91987619Y-117385952D01*
X92082857Y-117433571D01*
X92130476Y-117481190D01*
X92178095Y-117576428D01*
X92178095Y-117766904D01*
X92130476Y-117862142D01*
X92082857Y-117909761D01*
X91987619Y-117957380D01*
X91797142Y-117957380D01*
X91701904Y-117909761D01*
X91654285Y-117862142D01*
X91606666Y-117766904D01*
X91606666Y-117576428D01*
X91654285Y-117481190D01*
X91701904Y-117433571D01*
X91797142Y-117385952D01*
X90749523Y-117290714D02*
X90749523Y-117957380D01*
X91178095Y-117290714D02*
X91178095Y-117814523D01*
X91130476Y-117909761D01*
X91035238Y-117957380D01*
X90892380Y-117957380D01*
X90797142Y-117909761D01*
X90749523Y-117862142D01*
X92082857Y-119567380D02*
X92654285Y-119567380D01*
X92368571Y-119567380D02*
X92368571Y-118567380D01*
X92463809Y-118710238D01*
X92559047Y-118805476D01*
X92654285Y-118853095D01*
X91463809Y-118567380D02*
X91368571Y-118567380D01*
X91273333Y-118615000D01*
X91225714Y-118662619D01*
X91178095Y-118757857D01*
X91130476Y-118948333D01*
X91130476Y-119186428D01*
X91178095Y-119376904D01*
X91225714Y-119472142D01*
X91273333Y-119519761D01*
X91368571Y-119567380D01*
X91463809Y-119567380D01*
X91559047Y-119519761D01*
X91606666Y-119472142D01*
X91654285Y-119376904D01*
X91701904Y-119186428D01*
X91701904Y-118948333D01*
X91654285Y-118757857D01*
X91606666Y-118662619D01*
X91559047Y-118615000D01*
X91463809Y-118567380D01*
X90273333Y-118900714D02*
X90273333Y-119567380D01*
X90701904Y-118900714D02*
X90701904Y-119424523D01*
X90654285Y-119519761D01*
X90559047Y-119567380D01*
X90416190Y-119567380D01*
X90320952Y-119519761D01*
X90273333Y-119472142D01*
X206301904Y-117162380D02*
X206492380Y-117162380D01*
X206587619Y-117210000D01*
X206635238Y-117257619D01*
X206730476Y-117400476D01*
X206778095Y-117590952D01*
X206778095Y-117971904D01*
X206730476Y-118067142D01*
X206682857Y-118114761D01*
X206587619Y-118162380D01*
X206397142Y-118162380D01*
X206301904Y-118114761D01*
X206254285Y-118067142D01*
X206206666Y-117971904D01*
X206206666Y-117733809D01*
X206254285Y-117638571D01*
X206301904Y-117590952D01*
X206397142Y-117543333D01*
X206587619Y-117543333D01*
X206682857Y-117590952D01*
X206730476Y-117638571D01*
X206778095Y-117733809D01*
X205349523Y-117495714D02*
X205349523Y-118162380D01*
X205778095Y-117495714D02*
X205778095Y-118019523D01*
X205730476Y-118114761D01*
X205635238Y-118162380D01*
X205492380Y-118162380D01*
X205397142Y-118114761D01*
X205349523Y-118067142D01*
X65161904Y-65084123D02*
X64361904Y-65084123D01*
X64361904Y-65274600D01*
X64400000Y-65388885D01*
X64476190Y-65465076D01*
X64552380Y-65503171D01*
X64704761Y-65541266D01*
X64819047Y-65541266D01*
X64971428Y-65503171D01*
X65047619Y-65465076D01*
X65123809Y-65388885D01*
X65161904Y-65274600D01*
X65161904Y-65084123D01*
X65161904Y-66303171D02*
X65161904Y-65846028D01*
X65161904Y-66074600D02*
X64361904Y-66074600D01*
X64476190Y-65998409D01*
X64552380Y-65922219D01*
X64590476Y-65846028D01*
X83436904Y-67109123D02*
X82636904Y-67109123D01*
X82636904Y-67299600D01*
X82675000Y-67413885D01*
X82751190Y-67490076D01*
X82827380Y-67528171D01*
X82979761Y-67566266D01*
X83094047Y-67566266D01*
X83246428Y-67528171D01*
X83322619Y-67490076D01*
X83398809Y-67413885D01*
X83436904Y-67299600D01*
X83436904Y-67109123D01*
X82713095Y-67871028D02*
X82675000Y-67909123D01*
X82636904Y-67985314D01*
X82636904Y-68175790D01*
X82675000Y-68251980D01*
X82713095Y-68290076D01*
X82789285Y-68328171D01*
X82865476Y-68328171D01*
X82979761Y-68290076D01*
X83436904Y-67832933D01*
X83436904Y-68328171D01*
X102486904Y-67109123D02*
X101686904Y-67109123D01*
X101686904Y-67299600D01*
X101725000Y-67413885D01*
X101801190Y-67490076D01*
X101877380Y-67528171D01*
X102029761Y-67566266D01*
X102144047Y-67566266D01*
X102296428Y-67528171D01*
X102372619Y-67490076D01*
X102448809Y-67413885D01*
X102486904Y-67299600D01*
X102486904Y-67109123D01*
X101686904Y-67832933D02*
X101686904Y-68328171D01*
X101991666Y-68061504D01*
X101991666Y-68175790D01*
X102029761Y-68251980D01*
X102067857Y-68290076D01*
X102144047Y-68328171D01*
X102334523Y-68328171D01*
X102410714Y-68290076D01*
X102448809Y-68251980D01*
X102486904Y-68175790D01*
X102486904Y-67947219D01*
X102448809Y-67871028D01*
X102410714Y-67832933D01*
X121561904Y-67109123D02*
X120761904Y-67109123D01*
X120761904Y-67299600D01*
X120800000Y-67413885D01*
X120876190Y-67490076D01*
X120952380Y-67528171D01*
X121104761Y-67566266D01*
X121219047Y-67566266D01*
X121371428Y-67528171D01*
X121447619Y-67490076D01*
X121523809Y-67413885D01*
X121561904Y-67299600D01*
X121561904Y-67109123D01*
X121028571Y-68251980D02*
X121561904Y-68251980D01*
X120723809Y-68061504D02*
X121295238Y-67871028D01*
X121295238Y-68366266D01*
X140586904Y-67109123D02*
X139786904Y-67109123D01*
X139786904Y-67299600D01*
X139825000Y-67413885D01*
X139901190Y-67490076D01*
X139977380Y-67528171D01*
X140129761Y-67566266D01*
X140244047Y-67566266D01*
X140396428Y-67528171D01*
X140472619Y-67490076D01*
X140548809Y-67413885D01*
X140586904Y-67299600D01*
X140586904Y-67109123D01*
X139786904Y-68290076D02*
X139786904Y-67909123D01*
X140167857Y-67871028D01*
X140129761Y-67909123D01*
X140091666Y-67985314D01*
X140091666Y-68175790D01*
X140129761Y-68251980D01*
X140167857Y-68290076D01*
X140244047Y-68328171D01*
X140434523Y-68328171D01*
X140510714Y-68290076D01*
X140548809Y-68251980D01*
X140586904Y-68175790D01*
X140586904Y-67985314D01*
X140548809Y-67909123D01*
X140510714Y-67871028D01*
X178711904Y-67109123D02*
X177911904Y-67109123D01*
X177911904Y-67299600D01*
X177950000Y-67413885D01*
X178026190Y-67490076D01*
X178102380Y-67528171D01*
X178254761Y-67566266D01*
X178369047Y-67566266D01*
X178521428Y-67528171D01*
X178597619Y-67490076D01*
X178673809Y-67413885D01*
X178711904Y-67299600D01*
X178711904Y-67109123D01*
X177911904Y-67832933D02*
X177911904Y-68366266D01*
X178711904Y-68023409D01*
X197736904Y-67109123D02*
X196936904Y-67109123D01*
X196936904Y-67299600D01*
X196975000Y-67413885D01*
X197051190Y-67490076D01*
X197127380Y-67528171D01*
X197279761Y-67566266D01*
X197394047Y-67566266D01*
X197546428Y-67528171D01*
X197622619Y-67490076D01*
X197698809Y-67413885D01*
X197736904Y-67299600D01*
X197736904Y-67109123D01*
X197279761Y-68023409D02*
X197241666Y-67947219D01*
X197203571Y-67909123D01*
X197127380Y-67871028D01*
X197089285Y-67871028D01*
X197013095Y-67909123D01*
X196975000Y-67947219D01*
X196936904Y-68023409D01*
X196936904Y-68175790D01*
X196975000Y-68251980D01*
X197013095Y-68290076D01*
X197089285Y-68328171D01*
X197127380Y-68328171D01*
X197203571Y-68290076D01*
X197241666Y-68251980D01*
X197279761Y-68175790D01*
X197279761Y-68023409D01*
X197317857Y-67947219D01*
X197355952Y-67909123D01*
X197432142Y-67871028D01*
X197584523Y-67871028D01*
X197660714Y-67909123D01*
X197698809Y-67947219D01*
X197736904Y-68023409D01*
X197736904Y-68175790D01*
X197698809Y-68251980D01*
X197660714Y-68290076D01*
X197584523Y-68328171D01*
X197432142Y-68328171D01*
X197355952Y-68290076D01*
X197317857Y-68251980D01*
X197279761Y-68175790D01*
X216786904Y-67109123D02*
X215986904Y-67109123D01*
X215986904Y-67299600D01*
X216025000Y-67413885D01*
X216101190Y-67490076D01*
X216177380Y-67528171D01*
X216329761Y-67566266D01*
X216444047Y-67566266D01*
X216596428Y-67528171D01*
X216672619Y-67490076D01*
X216748809Y-67413885D01*
X216786904Y-67299600D01*
X216786904Y-67109123D01*
X216786904Y-67947219D02*
X216786904Y-68099600D01*
X216748809Y-68175790D01*
X216710714Y-68213885D01*
X216596428Y-68290076D01*
X216444047Y-68328171D01*
X216139285Y-68328171D01*
X216063095Y-68290076D01*
X216025000Y-68251980D01*
X215986904Y-68175790D01*
X215986904Y-68023409D01*
X216025000Y-67947219D01*
X216063095Y-67909123D01*
X216139285Y-67871028D01*
X216329761Y-67871028D01*
X216405952Y-67909123D01*
X216444047Y-67947219D01*
X216482142Y-68023409D01*
X216482142Y-68175790D01*
X216444047Y-68251980D01*
X216405952Y-68290076D01*
X216329761Y-68328171D01*
X235836904Y-66728171D02*
X235036904Y-66728171D01*
X235036904Y-66918647D01*
X235075000Y-67032933D01*
X235151190Y-67109123D01*
X235227380Y-67147219D01*
X235379761Y-67185314D01*
X235494047Y-67185314D01*
X235646428Y-67147219D01*
X235722619Y-67109123D01*
X235798809Y-67032933D01*
X235836904Y-66918647D01*
X235836904Y-66728171D01*
X235836904Y-67947219D02*
X235836904Y-67490076D01*
X235836904Y-67718647D02*
X235036904Y-67718647D01*
X235151190Y-67642457D01*
X235227380Y-67566266D01*
X235265476Y-67490076D01*
X235036904Y-68442457D02*
X235036904Y-68518647D01*
X235075000Y-68594838D01*
X235113095Y-68632933D01*
X235189285Y-68671028D01*
X235341666Y-68709123D01*
X235532142Y-68709123D01*
X235684523Y-68671028D01*
X235760714Y-68632933D01*
X235798809Y-68594838D01*
X235836904Y-68518647D01*
X235836904Y-68442457D01*
X235798809Y-68366266D01*
X235760714Y-68328171D01*
X235684523Y-68290076D01*
X235532142Y-68251980D01*
X235341666Y-68251980D01*
X235189285Y-68290076D01*
X235113095Y-68328171D01*
X235075000Y-68366266D01*
X235036904Y-68442457D01*
X69136904Y-85778171D02*
X68336904Y-85778171D01*
X68336904Y-85968647D01*
X68375000Y-86082933D01*
X68451190Y-86159123D01*
X68527380Y-86197219D01*
X68679761Y-86235314D01*
X68794047Y-86235314D01*
X68946428Y-86197219D01*
X69022619Y-86159123D01*
X69098809Y-86082933D01*
X69136904Y-85968647D01*
X69136904Y-85778171D01*
X69136904Y-86997219D02*
X69136904Y-86540076D01*
X69136904Y-86768647D02*
X68336904Y-86768647D01*
X68451190Y-86692457D01*
X68527380Y-86616266D01*
X68565476Y-86540076D01*
X69136904Y-87759123D02*
X69136904Y-87301980D01*
X69136904Y-87530552D02*
X68336904Y-87530552D01*
X68451190Y-87454361D01*
X68527380Y-87378171D01*
X68565476Y-87301980D01*
X88186904Y-85778171D02*
X87386904Y-85778171D01*
X87386904Y-85968647D01*
X87425000Y-86082933D01*
X87501190Y-86159123D01*
X87577380Y-86197219D01*
X87729761Y-86235314D01*
X87844047Y-86235314D01*
X87996428Y-86197219D01*
X88072619Y-86159123D01*
X88148809Y-86082933D01*
X88186904Y-85968647D01*
X88186904Y-85778171D01*
X88186904Y-86997219D02*
X88186904Y-86540076D01*
X88186904Y-86768647D02*
X87386904Y-86768647D01*
X87501190Y-86692457D01*
X87577380Y-86616266D01*
X87615476Y-86540076D01*
X87463095Y-87301980D02*
X87425000Y-87340076D01*
X87386904Y-87416266D01*
X87386904Y-87606742D01*
X87425000Y-87682933D01*
X87463095Y-87721028D01*
X87539285Y-87759123D01*
X87615476Y-87759123D01*
X87729761Y-87721028D01*
X88186904Y-87263885D01*
X88186904Y-87759123D01*
X107236904Y-85778171D02*
X106436904Y-85778171D01*
X106436904Y-85968647D01*
X106475000Y-86082933D01*
X106551190Y-86159123D01*
X106627380Y-86197219D01*
X106779761Y-86235314D01*
X106894047Y-86235314D01*
X107046428Y-86197219D01*
X107122619Y-86159123D01*
X107198809Y-86082933D01*
X107236904Y-85968647D01*
X107236904Y-85778171D01*
X107236904Y-86997219D02*
X107236904Y-86540076D01*
X107236904Y-86768647D02*
X106436904Y-86768647D01*
X106551190Y-86692457D01*
X106627380Y-86616266D01*
X106665476Y-86540076D01*
X106436904Y-87263885D02*
X106436904Y-87759123D01*
X106741666Y-87492457D01*
X106741666Y-87606742D01*
X106779761Y-87682933D01*
X106817857Y-87721028D01*
X106894047Y-87759123D01*
X107084523Y-87759123D01*
X107160714Y-87721028D01*
X107198809Y-87682933D01*
X107236904Y-87606742D01*
X107236904Y-87378171D01*
X107198809Y-87301980D01*
X107160714Y-87263885D01*
X126311904Y-85778171D02*
X125511904Y-85778171D01*
X125511904Y-85968647D01*
X125550000Y-86082933D01*
X125626190Y-86159123D01*
X125702380Y-86197219D01*
X125854761Y-86235314D01*
X125969047Y-86235314D01*
X126121428Y-86197219D01*
X126197619Y-86159123D01*
X126273809Y-86082933D01*
X126311904Y-85968647D01*
X126311904Y-85778171D01*
X126311904Y-86997219D02*
X126311904Y-86540076D01*
X126311904Y-86768647D02*
X125511904Y-86768647D01*
X125626190Y-86692457D01*
X125702380Y-86616266D01*
X125740476Y-86540076D01*
X125778571Y-87682933D02*
X126311904Y-87682933D01*
X125473809Y-87492457D02*
X126045238Y-87301980D01*
X126045238Y-87797219D01*
X145336904Y-85778171D02*
X144536904Y-85778171D01*
X144536904Y-85968647D01*
X144575000Y-86082933D01*
X144651190Y-86159123D01*
X144727380Y-86197219D01*
X144879761Y-86235314D01*
X144994047Y-86235314D01*
X145146428Y-86197219D01*
X145222619Y-86159123D01*
X145298809Y-86082933D01*
X145336904Y-85968647D01*
X145336904Y-85778171D01*
X145336904Y-86997219D02*
X145336904Y-86540076D01*
X145336904Y-86768647D02*
X144536904Y-86768647D01*
X144651190Y-86692457D01*
X144727380Y-86616266D01*
X144765476Y-86540076D01*
X144536904Y-87721028D02*
X144536904Y-87340076D01*
X144917857Y-87301980D01*
X144879761Y-87340076D01*
X144841666Y-87416266D01*
X144841666Y-87606742D01*
X144879761Y-87682933D01*
X144917857Y-87721028D01*
X144994047Y-87759123D01*
X145184523Y-87759123D01*
X145260714Y-87721028D01*
X145298809Y-87682933D01*
X145336904Y-87606742D01*
X145336904Y-87416266D01*
X145298809Y-87340076D01*
X145260714Y-87301980D01*
X164386904Y-85778171D02*
X163586904Y-85778171D01*
X163586904Y-85968647D01*
X163625000Y-86082933D01*
X163701190Y-86159123D01*
X163777380Y-86197219D01*
X163929761Y-86235314D01*
X164044047Y-86235314D01*
X164196428Y-86197219D01*
X164272619Y-86159123D01*
X164348809Y-86082933D01*
X164386904Y-85968647D01*
X164386904Y-85778171D01*
X164386904Y-86997219D02*
X164386904Y-86540076D01*
X164386904Y-86768647D02*
X163586904Y-86768647D01*
X163701190Y-86692457D01*
X163777380Y-86616266D01*
X163815476Y-86540076D01*
X163586904Y-87682933D02*
X163586904Y-87530552D01*
X163625000Y-87454361D01*
X163663095Y-87416266D01*
X163777380Y-87340076D01*
X163929761Y-87301980D01*
X164234523Y-87301980D01*
X164310714Y-87340076D01*
X164348809Y-87378171D01*
X164386904Y-87454361D01*
X164386904Y-87606742D01*
X164348809Y-87682933D01*
X164310714Y-87721028D01*
X164234523Y-87759123D01*
X164044047Y-87759123D01*
X163967857Y-87721028D01*
X163929761Y-87682933D01*
X163891666Y-87606742D01*
X163891666Y-87454361D01*
X163929761Y-87378171D01*
X163967857Y-87340076D01*
X164044047Y-87301980D01*
X183436904Y-85778171D02*
X182636904Y-85778171D01*
X182636904Y-85968647D01*
X182675000Y-86082933D01*
X182751190Y-86159123D01*
X182827380Y-86197219D01*
X182979761Y-86235314D01*
X183094047Y-86235314D01*
X183246428Y-86197219D01*
X183322619Y-86159123D01*
X183398809Y-86082933D01*
X183436904Y-85968647D01*
X183436904Y-85778171D01*
X183436904Y-86997219D02*
X183436904Y-86540076D01*
X183436904Y-86768647D02*
X182636904Y-86768647D01*
X182751190Y-86692457D01*
X182827380Y-86616266D01*
X182865476Y-86540076D01*
X182636904Y-87263885D02*
X182636904Y-87797219D01*
X183436904Y-87454361D01*
X202486904Y-85778171D02*
X201686904Y-85778171D01*
X201686904Y-85968647D01*
X201725000Y-86082933D01*
X201801190Y-86159123D01*
X201877380Y-86197219D01*
X202029761Y-86235314D01*
X202144047Y-86235314D01*
X202296428Y-86197219D01*
X202372619Y-86159123D01*
X202448809Y-86082933D01*
X202486904Y-85968647D01*
X202486904Y-85778171D01*
X202486904Y-86997219D02*
X202486904Y-86540076D01*
X202486904Y-86768647D02*
X201686904Y-86768647D01*
X201801190Y-86692457D01*
X201877380Y-86616266D01*
X201915476Y-86540076D01*
X202029761Y-87454361D02*
X201991666Y-87378171D01*
X201953571Y-87340076D01*
X201877380Y-87301980D01*
X201839285Y-87301980D01*
X201763095Y-87340076D01*
X201725000Y-87378171D01*
X201686904Y-87454361D01*
X201686904Y-87606742D01*
X201725000Y-87682933D01*
X201763095Y-87721028D01*
X201839285Y-87759123D01*
X201877380Y-87759123D01*
X201953571Y-87721028D01*
X201991666Y-87682933D01*
X202029761Y-87606742D01*
X202029761Y-87454361D01*
X202067857Y-87378171D01*
X202105952Y-87340076D01*
X202182142Y-87301980D01*
X202334523Y-87301980D01*
X202410714Y-87340076D01*
X202448809Y-87378171D01*
X202486904Y-87454361D01*
X202486904Y-87606742D01*
X202448809Y-87682933D01*
X202410714Y-87721028D01*
X202334523Y-87759123D01*
X202182142Y-87759123D01*
X202105952Y-87721028D01*
X202067857Y-87682933D01*
X202029761Y-87606742D01*
X221536904Y-85778171D02*
X220736904Y-85778171D01*
X220736904Y-85968647D01*
X220775000Y-86082933D01*
X220851190Y-86159123D01*
X220927380Y-86197219D01*
X221079761Y-86235314D01*
X221194047Y-86235314D01*
X221346428Y-86197219D01*
X221422619Y-86159123D01*
X221498809Y-86082933D01*
X221536904Y-85968647D01*
X221536904Y-85778171D01*
X221536904Y-86997219D02*
X221536904Y-86540076D01*
X221536904Y-86768647D02*
X220736904Y-86768647D01*
X220851190Y-86692457D01*
X220927380Y-86616266D01*
X220965476Y-86540076D01*
X221536904Y-87378171D02*
X221536904Y-87530552D01*
X221498809Y-87606742D01*
X221460714Y-87644838D01*
X221346428Y-87721028D01*
X221194047Y-87759123D01*
X220889285Y-87759123D01*
X220813095Y-87721028D01*
X220775000Y-87682933D01*
X220736904Y-87606742D01*
X220736904Y-87454361D01*
X220775000Y-87378171D01*
X220813095Y-87340076D01*
X220889285Y-87301980D01*
X221079761Y-87301980D01*
X221155952Y-87340076D01*
X221194047Y-87378171D01*
X221232142Y-87454361D01*
X221232142Y-87606742D01*
X221194047Y-87682933D01*
X221155952Y-87721028D01*
X221079761Y-87759123D01*
X240586904Y-85778171D02*
X239786904Y-85778171D01*
X239786904Y-85968647D01*
X239825000Y-86082933D01*
X239901190Y-86159123D01*
X239977380Y-86197219D01*
X240129761Y-86235314D01*
X240244047Y-86235314D01*
X240396428Y-86197219D01*
X240472619Y-86159123D01*
X240548809Y-86082933D01*
X240586904Y-85968647D01*
X240586904Y-85778171D01*
X239863095Y-86540076D02*
X239825000Y-86578171D01*
X239786904Y-86654361D01*
X239786904Y-86844838D01*
X239825000Y-86921028D01*
X239863095Y-86959123D01*
X239939285Y-86997219D01*
X240015476Y-86997219D01*
X240129761Y-86959123D01*
X240586904Y-86501980D01*
X240586904Y-86997219D01*
X239786904Y-87492457D02*
X239786904Y-87568647D01*
X239825000Y-87644838D01*
X239863095Y-87682933D01*
X239939285Y-87721028D01*
X240091666Y-87759123D01*
X240282142Y-87759123D01*
X240434523Y-87721028D01*
X240510714Y-87682933D01*
X240548809Y-87644838D01*
X240586904Y-87568647D01*
X240586904Y-87492457D01*
X240548809Y-87416266D01*
X240510714Y-87378171D01*
X240434523Y-87340076D01*
X240282142Y-87301980D01*
X240091666Y-87301980D01*
X239939285Y-87340076D01*
X239863095Y-87378171D01*
X239825000Y-87416266D01*
X239786904Y-87492457D01*
X73886904Y-104853171D02*
X73086904Y-104853171D01*
X73086904Y-105043647D01*
X73125000Y-105157933D01*
X73201190Y-105234123D01*
X73277380Y-105272219D01*
X73429761Y-105310314D01*
X73544047Y-105310314D01*
X73696428Y-105272219D01*
X73772619Y-105234123D01*
X73848809Y-105157933D01*
X73886904Y-105043647D01*
X73886904Y-104853171D01*
X73163095Y-105615076D02*
X73125000Y-105653171D01*
X73086904Y-105729361D01*
X73086904Y-105919838D01*
X73125000Y-105996028D01*
X73163095Y-106034123D01*
X73239285Y-106072219D01*
X73315476Y-106072219D01*
X73429761Y-106034123D01*
X73886904Y-105576980D01*
X73886904Y-106072219D01*
X73886904Y-106834123D02*
X73886904Y-106376980D01*
X73886904Y-106605552D02*
X73086904Y-106605552D01*
X73201190Y-106529361D01*
X73277380Y-106453171D01*
X73315476Y-106376980D01*
X92936904Y-104853171D02*
X92136904Y-104853171D01*
X92136904Y-105043647D01*
X92175000Y-105157933D01*
X92251190Y-105234123D01*
X92327380Y-105272219D01*
X92479761Y-105310314D01*
X92594047Y-105310314D01*
X92746428Y-105272219D01*
X92822619Y-105234123D01*
X92898809Y-105157933D01*
X92936904Y-105043647D01*
X92936904Y-104853171D01*
X92213095Y-105615076D02*
X92175000Y-105653171D01*
X92136904Y-105729361D01*
X92136904Y-105919838D01*
X92175000Y-105996028D01*
X92213095Y-106034123D01*
X92289285Y-106072219D01*
X92365476Y-106072219D01*
X92479761Y-106034123D01*
X92936904Y-105576980D01*
X92936904Y-106072219D01*
X92213095Y-106376980D02*
X92175000Y-106415076D01*
X92136904Y-106491266D01*
X92136904Y-106681742D01*
X92175000Y-106757933D01*
X92213095Y-106796028D01*
X92289285Y-106834123D01*
X92365476Y-106834123D01*
X92479761Y-106796028D01*
X92936904Y-106338885D01*
X92936904Y-106834123D01*
X111986904Y-104853171D02*
X111186904Y-104853171D01*
X111186904Y-105043647D01*
X111225000Y-105157933D01*
X111301190Y-105234123D01*
X111377380Y-105272219D01*
X111529761Y-105310314D01*
X111644047Y-105310314D01*
X111796428Y-105272219D01*
X111872619Y-105234123D01*
X111948809Y-105157933D01*
X111986904Y-105043647D01*
X111986904Y-104853171D01*
X111263095Y-105615076D02*
X111225000Y-105653171D01*
X111186904Y-105729361D01*
X111186904Y-105919838D01*
X111225000Y-105996028D01*
X111263095Y-106034123D01*
X111339285Y-106072219D01*
X111415476Y-106072219D01*
X111529761Y-106034123D01*
X111986904Y-105576980D01*
X111986904Y-106072219D01*
X111186904Y-106338885D02*
X111186904Y-106834123D01*
X111491666Y-106567457D01*
X111491666Y-106681742D01*
X111529761Y-106757933D01*
X111567857Y-106796028D01*
X111644047Y-106834123D01*
X111834523Y-106834123D01*
X111910714Y-106796028D01*
X111948809Y-106757933D01*
X111986904Y-106681742D01*
X111986904Y-106453171D01*
X111948809Y-106376980D01*
X111910714Y-106338885D01*
X131036904Y-104853171D02*
X130236904Y-104853171D01*
X130236904Y-105043647D01*
X130275000Y-105157933D01*
X130351190Y-105234123D01*
X130427380Y-105272219D01*
X130579761Y-105310314D01*
X130694047Y-105310314D01*
X130846428Y-105272219D01*
X130922619Y-105234123D01*
X130998809Y-105157933D01*
X131036904Y-105043647D01*
X131036904Y-104853171D01*
X130313095Y-105615076D02*
X130275000Y-105653171D01*
X130236904Y-105729361D01*
X130236904Y-105919838D01*
X130275000Y-105996028D01*
X130313095Y-106034123D01*
X130389285Y-106072219D01*
X130465476Y-106072219D01*
X130579761Y-106034123D01*
X131036904Y-105576980D01*
X131036904Y-106072219D01*
X130503571Y-106757933D02*
X131036904Y-106757933D01*
X130198809Y-106567457D02*
X130770238Y-106376980D01*
X130770238Y-106872219D01*
X134870703Y-104853171D02*
X134070703Y-104853171D01*
X134070703Y-105043647D01*
X134108799Y-105157933D01*
X134184989Y-105234123D01*
X134261179Y-105272219D01*
X134413560Y-105310314D01*
X134527846Y-105310314D01*
X134680227Y-105272219D01*
X134756418Y-105234123D01*
X134832608Y-105157933D01*
X134870703Y-105043647D01*
X134870703Y-104853171D01*
X134146894Y-105615076D02*
X134108799Y-105653171D01*
X134070703Y-105729361D01*
X134070703Y-105919838D01*
X134108799Y-105996028D01*
X134146894Y-106034123D01*
X134223084Y-106072219D01*
X134299275Y-106072219D01*
X134413560Y-106034123D01*
X134870703Y-105576980D01*
X134870703Y-106072219D01*
X134070703Y-106796028D02*
X134070703Y-106415076D01*
X134451656Y-106376980D01*
X134413560Y-106415076D01*
X134375465Y-106491266D01*
X134375465Y-106681742D01*
X134413560Y-106757933D01*
X134451656Y-106796028D01*
X134527846Y-106834123D01*
X134718322Y-106834123D01*
X134794513Y-106796028D01*
X134832608Y-106757933D01*
X134870703Y-106681742D01*
X134870703Y-106491266D01*
X134832608Y-106415076D01*
X134794513Y-106376980D01*
X169161904Y-104853171D02*
X168361904Y-104853171D01*
X168361904Y-105043647D01*
X168400000Y-105157933D01*
X168476190Y-105234123D01*
X168552380Y-105272219D01*
X168704761Y-105310314D01*
X168819047Y-105310314D01*
X168971428Y-105272219D01*
X169047619Y-105234123D01*
X169123809Y-105157933D01*
X169161904Y-105043647D01*
X169161904Y-104853171D01*
X168438095Y-105615076D02*
X168400000Y-105653171D01*
X168361904Y-105729361D01*
X168361904Y-105919838D01*
X168400000Y-105996028D01*
X168438095Y-106034123D01*
X168514285Y-106072219D01*
X168590476Y-106072219D01*
X168704761Y-106034123D01*
X169161904Y-105576980D01*
X169161904Y-106072219D01*
X168361904Y-106757933D02*
X168361904Y-106605552D01*
X168400000Y-106529361D01*
X168438095Y-106491266D01*
X168552380Y-106415076D01*
X168704761Y-106376980D01*
X169009523Y-106376980D01*
X169085714Y-106415076D01*
X169123809Y-106453171D01*
X169161904Y-106529361D01*
X169161904Y-106681742D01*
X169123809Y-106757933D01*
X169085714Y-106796028D01*
X169009523Y-106834123D01*
X168819047Y-106834123D01*
X168742857Y-106796028D01*
X168704761Y-106757933D01*
X168666666Y-106681742D01*
X168666666Y-106529361D01*
X168704761Y-106453171D01*
X168742857Y-106415076D01*
X168819047Y-106376980D01*
X188211904Y-104853171D02*
X187411904Y-104853171D01*
X187411904Y-105043647D01*
X187450000Y-105157933D01*
X187526190Y-105234123D01*
X187602380Y-105272219D01*
X187754761Y-105310314D01*
X187869047Y-105310314D01*
X188021428Y-105272219D01*
X188097619Y-105234123D01*
X188173809Y-105157933D01*
X188211904Y-105043647D01*
X188211904Y-104853171D01*
X187488095Y-105615076D02*
X187450000Y-105653171D01*
X187411904Y-105729361D01*
X187411904Y-105919838D01*
X187450000Y-105996028D01*
X187488095Y-106034123D01*
X187564285Y-106072219D01*
X187640476Y-106072219D01*
X187754761Y-106034123D01*
X188211904Y-105576980D01*
X188211904Y-106072219D01*
X187411904Y-106338885D02*
X187411904Y-106872219D01*
X188211904Y-106529361D01*
X207261904Y-104853171D02*
X206461904Y-104853171D01*
X206461904Y-105043647D01*
X206500000Y-105157933D01*
X206576190Y-105234123D01*
X206652380Y-105272219D01*
X206804761Y-105310314D01*
X206919047Y-105310314D01*
X207071428Y-105272219D01*
X207147619Y-105234123D01*
X207223809Y-105157933D01*
X207261904Y-105043647D01*
X207261904Y-104853171D01*
X206538095Y-105615076D02*
X206500000Y-105653171D01*
X206461904Y-105729361D01*
X206461904Y-105919838D01*
X206500000Y-105996028D01*
X206538095Y-106034123D01*
X206614285Y-106072219D01*
X206690476Y-106072219D01*
X206804761Y-106034123D01*
X207261904Y-105576980D01*
X207261904Y-106072219D01*
X206804761Y-106529361D02*
X206766666Y-106453171D01*
X206728571Y-106415076D01*
X206652380Y-106376980D01*
X206614285Y-106376980D01*
X206538095Y-106415076D01*
X206500000Y-106453171D01*
X206461904Y-106529361D01*
X206461904Y-106681742D01*
X206500000Y-106757933D01*
X206538095Y-106796028D01*
X206614285Y-106834123D01*
X206652380Y-106834123D01*
X206728571Y-106796028D01*
X206766666Y-106757933D01*
X206804761Y-106681742D01*
X206804761Y-106529361D01*
X206842857Y-106453171D01*
X206880952Y-106415076D01*
X206957142Y-106376980D01*
X207109523Y-106376980D01*
X207185714Y-106415076D01*
X207223809Y-106453171D01*
X207261904Y-106529361D01*
X207261904Y-106681742D01*
X207223809Y-106757933D01*
X207185714Y-106796028D01*
X207109523Y-106834123D01*
X206957142Y-106834123D01*
X206880952Y-106796028D01*
X206842857Y-106757933D01*
X206804761Y-106681742D01*
X226311904Y-104853171D02*
X225511904Y-104853171D01*
X225511904Y-105043647D01*
X225550000Y-105157933D01*
X225626190Y-105234123D01*
X225702380Y-105272219D01*
X225854761Y-105310314D01*
X225969047Y-105310314D01*
X226121428Y-105272219D01*
X226197619Y-105234123D01*
X226273809Y-105157933D01*
X226311904Y-105043647D01*
X226311904Y-104853171D01*
X225588095Y-105615076D02*
X225550000Y-105653171D01*
X225511904Y-105729361D01*
X225511904Y-105919838D01*
X225550000Y-105996028D01*
X225588095Y-106034123D01*
X225664285Y-106072219D01*
X225740476Y-106072219D01*
X225854761Y-106034123D01*
X226311904Y-105576980D01*
X226311904Y-106072219D01*
X226311904Y-106453171D02*
X226311904Y-106605552D01*
X226273809Y-106681742D01*
X226235714Y-106719838D01*
X226121428Y-106796028D01*
X225969047Y-106834123D01*
X225664285Y-106834123D01*
X225588095Y-106796028D01*
X225550000Y-106757933D01*
X225511904Y-106681742D01*
X225511904Y-106529361D01*
X225550000Y-106453171D01*
X225588095Y-106415076D01*
X225664285Y-106376980D01*
X225854761Y-106376980D01*
X225930952Y-106415076D01*
X225969047Y-106453171D01*
X226007142Y-106529361D01*
X226007142Y-106681742D01*
X225969047Y-106757933D01*
X225930952Y-106796028D01*
X225854761Y-106834123D01*
X245336904Y-104853171D02*
X244536904Y-104853171D01*
X244536904Y-105043647D01*
X244575000Y-105157933D01*
X244651190Y-105234123D01*
X244727380Y-105272219D01*
X244879761Y-105310314D01*
X244994047Y-105310314D01*
X245146428Y-105272219D01*
X245222619Y-105234123D01*
X245298809Y-105157933D01*
X245336904Y-105043647D01*
X245336904Y-104853171D01*
X244536904Y-105576980D02*
X244536904Y-106072219D01*
X244841666Y-105805552D01*
X244841666Y-105919838D01*
X244879761Y-105996028D01*
X244917857Y-106034123D01*
X244994047Y-106072219D01*
X245184523Y-106072219D01*
X245260714Y-106034123D01*
X245298809Y-105996028D01*
X245336904Y-105919838D01*
X245336904Y-105691266D01*
X245298809Y-105615076D01*
X245260714Y-105576980D01*
X244536904Y-106567457D02*
X244536904Y-106643647D01*
X244575000Y-106719838D01*
X244613095Y-106757933D01*
X244689285Y-106796028D01*
X244841666Y-106834123D01*
X245032142Y-106834123D01*
X245184523Y-106796028D01*
X245260714Y-106757933D01*
X245298809Y-106719838D01*
X245336904Y-106643647D01*
X245336904Y-106567457D01*
X245298809Y-106491266D01*
X245260714Y-106453171D01*
X245184523Y-106415076D01*
X245032142Y-106376980D01*
X244841666Y-106376980D01*
X244689285Y-106415076D01*
X244613095Y-106453171D01*
X244575000Y-106491266D01*
X244536904Y-106567457D01*
X78661904Y-123903171D02*
X77861904Y-123903171D01*
X77861904Y-124093647D01*
X77900000Y-124207933D01*
X77976190Y-124284123D01*
X78052380Y-124322219D01*
X78204761Y-124360314D01*
X78319047Y-124360314D01*
X78471428Y-124322219D01*
X78547619Y-124284123D01*
X78623809Y-124207933D01*
X78661904Y-124093647D01*
X78661904Y-123903171D01*
X77861904Y-124626980D02*
X77861904Y-125122219D01*
X78166666Y-124855552D01*
X78166666Y-124969838D01*
X78204761Y-125046028D01*
X78242857Y-125084123D01*
X78319047Y-125122219D01*
X78509523Y-125122219D01*
X78585714Y-125084123D01*
X78623809Y-125046028D01*
X78661904Y-124969838D01*
X78661904Y-124741266D01*
X78623809Y-124665076D01*
X78585714Y-124626980D01*
X78661904Y-125884123D02*
X78661904Y-125426980D01*
X78661904Y-125655552D02*
X77861904Y-125655552D01*
X77976190Y-125579361D01*
X78052380Y-125503171D01*
X78090476Y-125426980D01*
X97711904Y-123903171D02*
X96911904Y-123903171D01*
X96911904Y-124093647D01*
X96950000Y-124207933D01*
X97026190Y-124284123D01*
X97102380Y-124322219D01*
X97254761Y-124360314D01*
X97369047Y-124360314D01*
X97521428Y-124322219D01*
X97597619Y-124284123D01*
X97673809Y-124207933D01*
X97711904Y-124093647D01*
X97711904Y-123903171D01*
X96911904Y-124626980D02*
X96911904Y-125122219D01*
X97216666Y-124855552D01*
X97216666Y-124969838D01*
X97254761Y-125046028D01*
X97292857Y-125084123D01*
X97369047Y-125122219D01*
X97559523Y-125122219D01*
X97635714Y-125084123D01*
X97673809Y-125046028D01*
X97711904Y-124969838D01*
X97711904Y-124741266D01*
X97673809Y-124665076D01*
X97635714Y-124626980D01*
X96988095Y-125426980D02*
X96950000Y-125465076D01*
X96911904Y-125541266D01*
X96911904Y-125731742D01*
X96950000Y-125807933D01*
X96988095Y-125846028D01*
X97064285Y-125884123D01*
X97140476Y-125884123D01*
X97254761Y-125846028D01*
X97711904Y-125388885D01*
X97711904Y-125884123D01*
X175086904Y-123903171D02*
X174286904Y-123903171D01*
X174286904Y-124093647D01*
X174325000Y-124207933D01*
X174401190Y-124284123D01*
X174477380Y-124322219D01*
X174629761Y-124360314D01*
X174744047Y-124360314D01*
X174896428Y-124322219D01*
X174972619Y-124284123D01*
X175048809Y-124207933D01*
X175086904Y-124093647D01*
X175086904Y-123903171D01*
X174286904Y-124626980D02*
X174286904Y-125122219D01*
X174591666Y-124855552D01*
X174591666Y-124969838D01*
X174629761Y-125046028D01*
X174667857Y-125084123D01*
X174744047Y-125122219D01*
X174934523Y-125122219D01*
X175010714Y-125084123D01*
X175048809Y-125046028D01*
X175086904Y-124969838D01*
X175086904Y-124741266D01*
X175048809Y-124665076D01*
X175010714Y-124626980D01*
X174286904Y-125388885D02*
X174286904Y-125884123D01*
X174591666Y-125617457D01*
X174591666Y-125731742D01*
X174629761Y-125807933D01*
X174667857Y-125846028D01*
X174744047Y-125884123D01*
X174934523Y-125884123D01*
X175010714Y-125846028D01*
X175048809Y-125807933D01*
X175086904Y-125731742D01*
X175086904Y-125503171D01*
X175048809Y-125426980D01*
X175010714Y-125388885D01*
X231036904Y-123878171D02*
X230236904Y-123878171D01*
X230236904Y-124068647D01*
X230275000Y-124182933D01*
X230351190Y-124259123D01*
X230427380Y-124297219D01*
X230579761Y-124335314D01*
X230694047Y-124335314D01*
X230846428Y-124297219D01*
X230922619Y-124259123D01*
X230998809Y-124182933D01*
X231036904Y-124068647D01*
X231036904Y-123878171D01*
X230236904Y-124601980D02*
X230236904Y-125097219D01*
X230541666Y-124830552D01*
X230541666Y-124944838D01*
X230579761Y-125021028D01*
X230617857Y-125059123D01*
X230694047Y-125097219D01*
X230884523Y-125097219D01*
X230960714Y-125059123D01*
X230998809Y-125021028D01*
X231036904Y-124944838D01*
X231036904Y-124716266D01*
X230998809Y-124640076D01*
X230960714Y-124601980D01*
X230503571Y-125782933D02*
X231036904Y-125782933D01*
X230198809Y-125592457D02*
X230770238Y-125401980D01*
X230770238Y-125897219D01*
X159636904Y-67109123D02*
X158836904Y-67109123D01*
X158836904Y-67299600D01*
X158875000Y-67413885D01*
X158951190Y-67490076D01*
X159027380Y-67528171D01*
X159179761Y-67566266D01*
X159294047Y-67566266D01*
X159446428Y-67528171D01*
X159522619Y-67490076D01*
X159598809Y-67413885D01*
X159636904Y-67299600D01*
X159636904Y-67109123D01*
X158836904Y-68251980D02*
X158836904Y-68099600D01*
X158875000Y-68023409D01*
X158913095Y-67985314D01*
X159027380Y-67909123D01*
X159179761Y-67871028D01*
X159484523Y-67871028D01*
X159560714Y-67909123D01*
X159598809Y-67947219D01*
X159636904Y-68023409D01*
X159636904Y-68175790D01*
X159598809Y-68251980D01*
X159560714Y-68290076D01*
X159484523Y-68328171D01*
X159294047Y-68328171D01*
X159217857Y-68290076D01*
X159179761Y-68251980D01*
X159141666Y-68175790D01*
X159141666Y-68023409D01*
X159179761Y-67947219D01*
X159217857Y-67909123D01*
X159294047Y-67871028D01*
X250111904Y-123878171D02*
X249311904Y-123878171D01*
X249311904Y-124068647D01*
X249350000Y-124182933D01*
X249426190Y-124259123D01*
X249502380Y-124297219D01*
X249654761Y-124335314D01*
X249769047Y-124335314D01*
X249921428Y-124297219D01*
X249997619Y-124259123D01*
X250073809Y-124182933D01*
X250111904Y-124068647D01*
X250111904Y-123878171D01*
X249311904Y-124601980D02*
X249311904Y-125097219D01*
X249616666Y-124830552D01*
X249616666Y-124944838D01*
X249654761Y-125021028D01*
X249692857Y-125059123D01*
X249769047Y-125097219D01*
X249959523Y-125097219D01*
X250035714Y-125059123D01*
X250073809Y-125021028D01*
X250111904Y-124944838D01*
X250111904Y-124716266D01*
X250073809Y-124640076D01*
X250035714Y-124601980D01*
X249311904Y-125821028D02*
X249311904Y-125440076D01*
X249692857Y-125401980D01*
X249654761Y-125440076D01*
X249616666Y-125516266D01*
X249616666Y-125706742D01*
X249654761Y-125782933D01*
X249692857Y-125821028D01*
X249769047Y-125859123D01*
X249959523Y-125859123D01*
X250035714Y-125821028D01*
X250073809Y-125782933D01*
X250111904Y-125706742D01*
X250111904Y-125516266D01*
X250073809Y-125440076D01*
X250035714Y-125401980D01*
X65438000Y-63160000D02*
X65438000Y-68240000D01*
X66962000Y-67986000D02*
X65438000Y-67986000D01*
X65438000Y-68113000D02*
X66962000Y-68113000D01*
X66962000Y-67732000D02*
X65438000Y-67732000D01*
X65438000Y-67478000D02*
X66962000Y-67478000D01*
X65438000Y-67859000D02*
X66962000Y-67859000D01*
X66962000Y-68240000D02*
X66962000Y-63160000D01*
X66962000Y-63160000D02*
X65438000Y-63160000D01*
X65438000Y-68240000D02*
X66962000Y-68240000D01*
X65438000Y-67605000D02*
X66962000Y-67605000D01*
X85237000Y-69757000D02*
X83713000Y-69757000D01*
X83713000Y-65185000D02*
X83713000Y-70265000D01*
X83713000Y-69503000D02*
X85237000Y-69503000D01*
X83713000Y-69630000D02*
X85237000Y-69630000D01*
X83713000Y-70265000D02*
X85237000Y-70265000D01*
X83713000Y-69884000D02*
X85237000Y-69884000D01*
X85237000Y-65185000D02*
X83713000Y-65185000D01*
X85237000Y-70265000D02*
X85237000Y-65185000D01*
X83713000Y-70138000D02*
X85237000Y-70138000D01*
X85237000Y-70011000D02*
X83713000Y-70011000D01*
X102763000Y-70138000D02*
X104287000Y-70138000D01*
X104287000Y-70265000D02*
X104287000Y-65185000D01*
X102763000Y-70265000D02*
X104287000Y-70265000D01*
X104287000Y-65185000D02*
X102763000Y-65185000D01*
X102763000Y-69503000D02*
X104287000Y-69503000D01*
X104287000Y-70011000D02*
X102763000Y-70011000D01*
X102763000Y-69630000D02*
X104287000Y-69630000D01*
X102763000Y-65185000D02*
X102763000Y-70265000D01*
X102763000Y-69884000D02*
X104287000Y-69884000D01*
X104287000Y-69757000D02*
X102763000Y-69757000D01*
X121838000Y-69884000D02*
X123362000Y-69884000D01*
X123362000Y-70265000D02*
X123362000Y-65185000D01*
X123362000Y-69757000D02*
X121838000Y-69757000D01*
X121838000Y-69630000D02*
X123362000Y-69630000D01*
X121838000Y-70138000D02*
X123362000Y-70138000D01*
X123362000Y-70011000D02*
X121838000Y-70011000D01*
X121838000Y-69503000D02*
X123362000Y-69503000D01*
X123362000Y-65185000D02*
X121838000Y-65185000D01*
X121838000Y-65185000D02*
X121838000Y-70265000D01*
X121838000Y-70265000D02*
X123362000Y-70265000D01*
X140863000Y-69884000D02*
X142387000Y-69884000D01*
X142387000Y-65185000D02*
X140863000Y-65185000D01*
X140863000Y-69630000D02*
X142387000Y-69630000D01*
X140863000Y-70265000D02*
X142387000Y-70265000D01*
X142387000Y-70011000D02*
X140863000Y-70011000D01*
X142387000Y-69757000D02*
X140863000Y-69757000D01*
X140863000Y-69503000D02*
X142387000Y-69503000D01*
X140863000Y-70138000D02*
X142387000Y-70138000D01*
X142387000Y-70265000D02*
X142387000Y-65185000D01*
X140863000Y-65185000D02*
X140863000Y-70265000D01*
X178988000Y-69630000D02*
X180512000Y-69630000D01*
X180512000Y-69757000D02*
X178988000Y-69757000D01*
X178988000Y-69503000D02*
X180512000Y-69503000D01*
X178988000Y-70138000D02*
X180512000Y-70138000D01*
X180512000Y-70011000D02*
X178988000Y-70011000D01*
X180512000Y-70265000D02*
X180512000Y-65185000D01*
X178988000Y-70265000D02*
X180512000Y-70265000D01*
X180512000Y-65185000D02*
X178988000Y-65185000D01*
X178988000Y-65185000D02*
X178988000Y-70265000D01*
X178988000Y-69884000D02*
X180512000Y-69884000D01*
X199537000Y-69757000D02*
X198013000Y-69757000D01*
X198013000Y-69630000D02*
X199537000Y-69630000D01*
X199537000Y-70011000D02*
X198013000Y-70011000D01*
X198013000Y-69884000D02*
X199537000Y-69884000D01*
X199537000Y-65185000D02*
X198013000Y-65185000D01*
X198013000Y-70138000D02*
X199537000Y-70138000D01*
X199537000Y-70265000D02*
X199537000Y-65185000D01*
X198013000Y-69503000D02*
X199537000Y-69503000D01*
X198013000Y-70265000D02*
X199537000Y-70265000D01*
X198013000Y-65185000D02*
X198013000Y-70265000D01*
X217063000Y-69630000D02*
X218587000Y-69630000D01*
X218587000Y-70011000D02*
X217063000Y-70011000D01*
X218587000Y-65185000D02*
X217063000Y-65185000D01*
X217063000Y-69503000D02*
X218587000Y-69503000D01*
X217063000Y-65185000D02*
X217063000Y-70265000D01*
X218587000Y-69757000D02*
X217063000Y-69757000D01*
X217063000Y-70265000D02*
X218587000Y-70265000D01*
X218587000Y-70265000D02*
X218587000Y-65185000D01*
X217063000Y-70138000D02*
X218587000Y-70138000D01*
X217063000Y-69884000D02*
X218587000Y-69884000D01*
X236113000Y-69503000D02*
X237637000Y-69503000D01*
X237637000Y-65185000D02*
X236113000Y-65185000D01*
X237637000Y-69757000D02*
X236113000Y-69757000D01*
X237637000Y-70011000D02*
X236113000Y-70011000D01*
X236113000Y-65185000D02*
X236113000Y-70265000D01*
X236113000Y-70138000D02*
X237637000Y-70138000D01*
X236113000Y-69884000D02*
X237637000Y-69884000D01*
X236113000Y-70265000D02*
X237637000Y-70265000D01*
X237637000Y-70265000D02*
X237637000Y-65185000D01*
X236113000Y-69630000D02*
X237637000Y-69630000D01*
X70937000Y-89315000D02*
X70937000Y-84235000D01*
X69413000Y-88934000D02*
X70937000Y-88934000D01*
X70937000Y-84235000D02*
X69413000Y-84235000D01*
X70937000Y-89061000D02*
X69413000Y-89061000D01*
X69413000Y-84235000D02*
X69413000Y-89315000D01*
X69413000Y-88553000D02*
X70937000Y-88553000D01*
X69413000Y-89188000D02*
X70937000Y-89188000D01*
X69413000Y-89315000D02*
X70937000Y-89315000D01*
X69413000Y-88680000D02*
X70937000Y-88680000D01*
X70937000Y-88807000D02*
X69413000Y-88807000D01*
X89987000Y-88807000D02*
X88463000Y-88807000D01*
X89987000Y-84235000D02*
X88463000Y-84235000D01*
X88463000Y-84235000D02*
X88463000Y-89315000D01*
X89987000Y-89315000D02*
X89987000Y-84235000D01*
X88463000Y-88934000D02*
X89987000Y-88934000D01*
X88463000Y-89188000D02*
X89987000Y-89188000D01*
X88463000Y-88553000D02*
X89987000Y-88553000D01*
X88463000Y-88680000D02*
X89987000Y-88680000D01*
X88463000Y-89315000D02*
X89987000Y-89315000D01*
X89987000Y-89061000D02*
X88463000Y-89061000D01*
X109037000Y-89061000D02*
X107513000Y-89061000D01*
X107513000Y-88553000D02*
X109037000Y-88553000D01*
X107513000Y-89188000D02*
X109037000Y-89188000D01*
X109037000Y-84235000D02*
X107513000Y-84235000D01*
X107513000Y-88680000D02*
X109037000Y-88680000D01*
X109037000Y-88807000D02*
X107513000Y-88807000D01*
X107513000Y-88934000D02*
X109037000Y-88934000D01*
X107513000Y-89315000D02*
X109037000Y-89315000D01*
X109037000Y-89315000D02*
X109037000Y-84235000D01*
X107513000Y-84235000D02*
X107513000Y-89315000D01*
X128112000Y-88807000D02*
X126588000Y-88807000D01*
X128112000Y-89061000D02*
X126588000Y-89061000D01*
X126588000Y-88553000D02*
X128112000Y-88553000D01*
X126588000Y-88680000D02*
X128112000Y-88680000D01*
X126588000Y-88934000D02*
X128112000Y-88934000D01*
X126588000Y-84235000D02*
X126588000Y-89315000D01*
X128112000Y-89315000D02*
X128112000Y-84235000D01*
X126588000Y-89315000D02*
X128112000Y-89315000D01*
X126588000Y-89188000D02*
X128112000Y-89188000D01*
X128112000Y-84235000D02*
X126588000Y-84235000D01*
X145613000Y-88553000D02*
X147137000Y-88553000D01*
X145613000Y-88934000D02*
X147137000Y-88934000D01*
X145613000Y-89315000D02*
X147137000Y-89315000D01*
X147137000Y-84235000D02*
X145613000Y-84235000D01*
X145613000Y-89188000D02*
X147137000Y-89188000D01*
X145613000Y-84235000D02*
X145613000Y-89315000D01*
X145613000Y-88680000D02*
X147137000Y-88680000D01*
X147137000Y-89061000D02*
X145613000Y-89061000D01*
X147137000Y-88807000D02*
X145613000Y-88807000D01*
X147137000Y-89315000D02*
X147137000Y-84235000D01*
X164663000Y-89188000D02*
X166187000Y-89188000D01*
X166187000Y-84235000D02*
X164663000Y-84235000D01*
X164663000Y-84235000D02*
X164663000Y-89315000D01*
X164663000Y-89315000D02*
X166187000Y-89315000D01*
X164663000Y-88680000D02*
X166187000Y-88680000D01*
X166187000Y-88807000D02*
X164663000Y-88807000D01*
X166187000Y-89315000D02*
X166187000Y-84235000D01*
X164663000Y-88934000D02*
X166187000Y-88934000D01*
X166187000Y-89061000D02*
X164663000Y-89061000D01*
X164663000Y-88553000D02*
X166187000Y-88553000D01*
X183713000Y-88934000D02*
X185237000Y-88934000D01*
X183713000Y-88680000D02*
X185237000Y-88680000D01*
X185237000Y-89061000D02*
X183713000Y-89061000D01*
X185237000Y-88807000D02*
X183713000Y-88807000D01*
X183713000Y-84235000D02*
X183713000Y-89315000D01*
X183713000Y-89315000D02*
X185237000Y-89315000D01*
X183713000Y-89188000D02*
X185237000Y-89188000D01*
X185237000Y-89315000D02*
X185237000Y-84235000D01*
X185237000Y-84235000D02*
X183713000Y-84235000D01*
X183713000Y-88553000D02*
X185237000Y-88553000D01*
X202763000Y-84235000D02*
X202763000Y-89315000D01*
X202763000Y-89188000D02*
X204287000Y-89188000D01*
X202763000Y-88553000D02*
X204287000Y-88553000D01*
X204287000Y-84235000D02*
X202763000Y-84235000D01*
X202763000Y-88680000D02*
X204287000Y-88680000D01*
X202763000Y-89315000D02*
X204287000Y-89315000D01*
X204287000Y-89061000D02*
X202763000Y-89061000D01*
X204287000Y-89315000D02*
X204287000Y-84235000D01*
X202763000Y-88934000D02*
X204287000Y-88934000D01*
X204287000Y-88807000D02*
X202763000Y-88807000D01*
X223337000Y-89315000D02*
X223337000Y-84235000D01*
X221813000Y-84235000D02*
X221813000Y-89315000D01*
X223337000Y-84235000D02*
X221813000Y-84235000D01*
X221813000Y-88680000D02*
X223337000Y-88680000D01*
X223337000Y-89061000D02*
X221813000Y-89061000D01*
X221813000Y-89315000D02*
X223337000Y-89315000D01*
X221813000Y-88934000D02*
X223337000Y-88934000D01*
X221813000Y-88553000D02*
X223337000Y-88553000D01*
X221813000Y-89188000D02*
X223337000Y-89188000D01*
X223337000Y-88807000D02*
X221813000Y-88807000D01*
X240863000Y-88680000D02*
X242387000Y-88680000D01*
X242387000Y-89061000D02*
X240863000Y-89061000D01*
X240863000Y-89315000D02*
X242387000Y-89315000D01*
X242387000Y-84235000D02*
X240863000Y-84235000D01*
X242387000Y-89315000D02*
X242387000Y-84235000D01*
X240863000Y-84235000D02*
X240863000Y-89315000D01*
X240863000Y-88553000D02*
X242387000Y-88553000D01*
X240863000Y-89188000D02*
X242387000Y-89188000D01*
X240863000Y-88934000D02*
X242387000Y-88934000D01*
X242387000Y-88807000D02*
X240863000Y-88807000D01*
X74163000Y-107628000D02*
X75687000Y-107628000D01*
X74163000Y-108009000D02*
X75687000Y-108009000D01*
X74163000Y-103310000D02*
X74163000Y-108390000D01*
X75687000Y-108390000D02*
X75687000Y-103310000D01*
X74163000Y-108390000D02*
X75687000Y-108390000D01*
X74163000Y-108263000D02*
X75687000Y-108263000D01*
X74163000Y-107755000D02*
X75687000Y-107755000D01*
X75687000Y-108136000D02*
X74163000Y-108136000D01*
X75687000Y-107882000D02*
X74163000Y-107882000D01*
X75687000Y-103310000D02*
X74163000Y-103310000D01*
X94737000Y-107882000D02*
X93213000Y-107882000D01*
X93213000Y-107628000D02*
X94737000Y-107628000D01*
X93213000Y-103310000D02*
X93213000Y-108390000D01*
X94737000Y-103310000D02*
X93213000Y-103310000D01*
X93213000Y-108009000D02*
X94737000Y-108009000D01*
X94737000Y-108136000D02*
X93213000Y-108136000D01*
X93213000Y-108390000D02*
X94737000Y-108390000D01*
X94737000Y-108390000D02*
X94737000Y-103310000D01*
X93213000Y-107755000D02*
X94737000Y-107755000D01*
X93213000Y-108263000D02*
X94737000Y-108263000D01*
X113787000Y-103310000D02*
X112263000Y-103310000D01*
X113787000Y-108390000D02*
X113787000Y-103310000D01*
X113787000Y-107882000D02*
X112263000Y-107882000D01*
X113787000Y-108136000D02*
X112263000Y-108136000D01*
X112263000Y-107755000D02*
X113787000Y-107755000D01*
X112263000Y-103310000D02*
X112263000Y-108390000D01*
X112263000Y-108263000D02*
X113787000Y-108263000D01*
X112263000Y-108009000D02*
X113787000Y-108009000D01*
X112263000Y-107628000D02*
X113787000Y-107628000D01*
X112263000Y-108390000D02*
X113787000Y-108390000D01*
X131313000Y-108009000D02*
X132837000Y-108009000D01*
X132837000Y-108390000D02*
X132837000Y-103310000D01*
X131313000Y-108263000D02*
X132837000Y-108263000D01*
X131313000Y-107628000D02*
X132837000Y-107628000D01*
X131313000Y-107755000D02*
X132837000Y-107755000D01*
X131313000Y-108390000D02*
X132837000Y-108390000D01*
X132837000Y-103310000D02*
X131313000Y-103310000D01*
X132837000Y-108136000D02*
X131313000Y-108136000D01*
X132837000Y-107882000D02*
X131313000Y-107882000D01*
X131313000Y-103310000D02*
X131313000Y-108390000D01*
X136670799Y-108136000D02*
X135146799Y-108136000D01*
X135146799Y-107628000D02*
X136670799Y-107628000D01*
X135146799Y-108009000D02*
X136670799Y-108009000D01*
X135146799Y-107755000D02*
X136670799Y-107755000D01*
X136670799Y-107882000D02*
X135146799Y-107882000D01*
X135146799Y-103310000D02*
X135146799Y-108390000D01*
X135146799Y-108263000D02*
X136670799Y-108263000D01*
X136670799Y-108390000D02*
X136670799Y-103310000D01*
X135146799Y-108390000D02*
X136670799Y-108390000D01*
X136670799Y-103310000D02*
X135146799Y-103310000D01*
X170962000Y-107882000D02*
X169438000Y-107882000D01*
X169438000Y-108009000D02*
X170962000Y-108009000D01*
X169438000Y-103310000D02*
X169438000Y-108390000D01*
X169438000Y-108263000D02*
X170962000Y-108263000D01*
X169438000Y-107755000D02*
X170962000Y-107755000D01*
X170962000Y-103310000D02*
X169438000Y-103310000D01*
X169438000Y-107628000D02*
X170962000Y-107628000D01*
X169438000Y-108390000D02*
X170962000Y-108390000D01*
X170962000Y-108390000D02*
X170962000Y-103310000D01*
X170962000Y-108136000D02*
X169438000Y-108136000D01*
X190012000Y-103310000D02*
X188488000Y-103310000D01*
X188488000Y-107628000D02*
X190012000Y-107628000D01*
X188488000Y-107755000D02*
X190012000Y-107755000D01*
X188488000Y-108263000D02*
X190012000Y-108263000D01*
X188488000Y-108009000D02*
X190012000Y-108009000D01*
X188488000Y-108390000D02*
X190012000Y-108390000D01*
X188488000Y-103310000D02*
X188488000Y-108390000D01*
X190012000Y-107882000D02*
X188488000Y-107882000D01*
X190012000Y-108136000D02*
X188488000Y-108136000D01*
X190012000Y-108390000D02*
X190012000Y-103310000D01*
X209062000Y-108136000D02*
X207538000Y-108136000D01*
X207538000Y-107628000D02*
X209062000Y-107628000D01*
X207538000Y-107755000D02*
X209062000Y-107755000D01*
X207538000Y-108390000D02*
X209062000Y-108390000D01*
X207538000Y-103310000D02*
X207538000Y-108390000D01*
X209062000Y-108390000D02*
X209062000Y-103310000D01*
X209062000Y-103310000D02*
X207538000Y-103310000D01*
X207538000Y-108009000D02*
X209062000Y-108009000D01*
X209062000Y-107882000D02*
X207538000Y-107882000D01*
X207538000Y-108263000D02*
X209062000Y-108263000D01*
X228112000Y-107882000D02*
X226588000Y-107882000D01*
X226588000Y-103310000D02*
X226588000Y-108390000D01*
X226588000Y-107628000D02*
X228112000Y-107628000D01*
X228112000Y-103310000D02*
X226588000Y-103310000D01*
X226588000Y-107755000D02*
X228112000Y-107755000D01*
X228112000Y-108390000D02*
X228112000Y-103310000D01*
X226588000Y-108390000D02*
X228112000Y-108390000D01*
X226588000Y-108009000D02*
X228112000Y-108009000D01*
X226588000Y-108263000D02*
X228112000Y-108263000D01*
X228112000Y-108136000D02*
X226588000Y-108136000D01*
X245613000Y-107628000D02*
X247137000Y-107628000D01*
X247137000Y-107882000D02*
X245613000Y-107882000D01*
X245613000Y-108390000D02*
X247137000Y-108390000D01*
X245613000Y-108009000D02*
X247137000Y-108009000D01*
X247137000Y-108136000D02*
X245613000Y-108136000D01*
X245613000Y-107755000D02*
X247137000Y-107755000D01*
X245613000Y-108263000D02*
X247137000Y-108263000D01*
X247137000Y-108390000D02*
X247137000Y-103310000D01*
X245613000Y-103310000D02*
X245613000Y-108390000D01*
X247137000Y-103310000D02*
X245613000Y-103310000D01*
X80462000Y-127186000D02*
X78938000Y-127186000D01*
X78938000Y-127313000D02*
X80462000Y-127313000D01*
X78938000Y-127440000D02*
X80462000Y-127440000D01*
X78938000Y-127059000D02*
X80462000Y-127059000D01*
X78938000Y-126805000D02*
X80462000Y-126805000D01*
X80462000Y-127440000D02*
X80462000Y-122360000D01*
X78938000Y-122360000D02*
X78938000Y-127440000D01*
X78938000Y-126678000D02*
X80462000Y-126678000D01*
X80462000Y-122360000D02*
X78938000Y-122360000D01*
X80462000Y-126932000D02*
X78938000Y-126932000D01*
X99512000Y-122360000D02*
X97988000Y-122360000D01*
X97988000Y-126805000D02*
X99512000Y-126805000D01*
X97988000Y-127059000D02*
X99512000Y-127059000D01*
X99512000Y-126932000D02*
X97988000Y-126932000D01*
X99512000Y-127440000D02*
X99512000Y-122360000D01*
X97988000Y-122360000D02*
X97988000Y-127440000D01*
X97988000Y-126678000D02*
X99512000Y-126678000D01*
X99512000Y-127186000D02*
X97988000Y-127186000D01*
X97988000Y-127440000D02*
X99512000Y-127440000D01*
X97988000Y-127313000D02*
X99512000Y-127313000D01*
X175363000Y-122360000D02*
X175363000Y-127440000D01*
X175363000Y-126805000D02*
X176887000Y-126805000D01*
X175363000Y-126678000D02*
X176887000Y-126678000D01*
X176887000Y-127440000D02*
X176887000Y-122360000D01*
X175363000Y-127313000D02*
X176887000Y-127313000D01*
X175363000Y-127059000D02*
X176887000Y-127059000D01*
X175363000Y-127440000D02*
X176887000Y-127440000D01*
X176887000Y-122360000D02*
X175363000Y-122360000D01*
X176887000Y-127186000D02*
X175363000Y-127186000D01*
X176887000Y-126932000D02*
X175363000Y-126932000D01*
X231313000Y-122335000D02*
X231313000Y-127415000D01*
X231313000Y-126780000D02*
X232837000Y-126780000D01*
X232837000Y-126907000D02*
X231313000Y-126907000D01*
X231313000Y-127415000D02*
X232837000Y-127415000D01*
X231313000Y-127034000D02*
X232837000Y-127034000D01*
X231313000Y-126653000D02*
X232837000Y-126653000D01*
X232837000Y-127161000D02*
X231313000Y-127161000D01*
X231313000Y-127288000D02*
X232837000Y-127288000D01*
X232837000Y-122335000D02*
X231313000Y-122335000D01*
X232837000Y-127415000D02*
X232837000Y-122335000D01*
X51135000Y-74440000D02*
X51135000Y-69360000D01*
X48595000Y-69360000D02*
X48595000Y-61740000D01*
X81615000Y-56660000D02*
X81615000Y-74440000D01*
X51135000Y-61740000D02*
X51135000Y-56660000D01*
X48595000Y-61740000D02*
X51135000Y-61740000D01*
X81615000Y-74440000D02*
X51135000Y-74440000D01*
X51135000Y-69360000D02*
X48595000Y-69360000D01*
X51135000Y-56660000D02*
X81615000Y-56660000D01*
X161437000Y-70265000D02*
X161437000Y-65185000D01*
X159913000Y-70265000D02*
X161437000Y-70265000D01*
X161437000Y-69757000D02*
X159913000Y-69757000D01*
X159913000Y-70138000D02*
X161437000Y-70138000D01*
X159913000Y-69503000D02*
X161437000Y-69503000D01*
X161437000Y-65185000D02*
X159913000Y-65185000D01*
X159913000Y-69630000D02*
X161437000Y-69630000D01*
X159913000Y-65185000D02*
X159913000Y-70265000D01*
X161437000Y-70011000D02*
X159913000Y-70011000D01*
X159913000Y-69884000D02*
X161437000Y-69884000D01*
X250388000Y-122335000D02*
X250388000Y-127415000D01*
X251912000Y-127161000D02*
X250388000Y-127161000D01*
X250388000Y-127288000D02*
X251912000Y-127288000D01*
X251912000Y-122335000D02*
X250388000Y-122335000D01*
X250388000Y-126780000D02*
X251912000Y-126780000D01*
X251912000Y-127415000D02*
X251912000Y-122335000D01*
X250388000Y-126653000D02*
X251912000Y-126653000D01*
X250388000Y-127415000D02*
X251912000Y-127415000D01*
X250388000Y-127034000D02*
X251912000Y-127034000D01*
X251912000Y-126907000D02*
X250388000Y-126907000D01*
G36*
X156054318Y-63023785D02*
G01*
X158013818Y-63202706D01*
X159923681Y-63495893D01*
X161759034Y-63903250D01*
X163495000Y-64424681D01*
X163831658Y-64544054D01*
X165433819Y-65200066D01*
X167006983Y-65985100D01*
X168492236Y-66870323D01*
X169830719Y-67820913D01*
X171051551Y-68859240D01*
X172121124Y-69962061D01*
X173037635Y-71126804D01*
X173799284Y-72350900D01*
X174404269Y-73631778D01*
X174850789Y-74966865D01*
X175137042Y-76353593D01*
X175156636Y-76506940D01*
X175198368Y-77021524D01*
X175222422Y-77631963D01*
X175228743Y-78285411D01*
X175217277Y-78929020D01*
X175187969Y-79509943D01*
X175140766Y-79975333D01*
X175004939Y-80745384D01*
X174625417Y-82162084D01*
X174079365Y-83576160D01*
X173368575Y-84983815D01*
X172494844Y-86381250D01*
X171459966Y-87764667D01*
X171164833Y-88120654D01*
X170402158Y-88985246D01*
X169536354Y-89902221D01*
X168594852Y-90844527D01*
X167605087Y-91785108D01*
X166594492Y-92696912D01*
X165590500Y-93552885D01*
X165283218Y-93811654D01*
X165076958Y-94003702D01*
X164958603Y-94149539D01*
X164904751Y-94278170D01*
X164892000Y-94418597D01*
X164892000Y-94707333D01*
X175355593Y-94707333D01*
X176325630Y-92464032D01*
X177295667Y-90220730D01*
X178339889Y-90220365D01*
X178738123Y-90225410D01*
X179074149Y-90241486D01*
X179287899Y-90266813D01*
X179355889Y-90299561D01*
X179321280Y-90386734D01*
X179228455Y-90617556D01*
X179083124Y-90977863D01*
X178890896Y-91453778D01*
X178657382Y-92031423D01*
X178388192Y-92696920D01*
X178088936Y-93436391D01*
X177765224Y-94235959D01*
X177422667Y-95081746D01*
X175517667Y-99784369D01*
X158526327Y-99787333D01*
X158912470Y-99258167D01*
X158916533Y-99252592D01*
X159088974Y-99010059D01*
X159332262Y-98660051D01*
X159624112Y-98235017D01*
X159942239Y-97767405D01*
X160264359Y-97289667D01*
X161025767Y-96118789D01*
X162288179Y-93987547D01*
X163392323Y-91856135D01*
X164337102Y-89728035D01*
X165121416Y-87606727D01*
X165744166Y-85495692D01*
X166204255Y-83398411D01*
X166500584Y-81318364D01*
X166632054Y-79259032D01*
X166597566Y-77223897D01*
X166561514Y-76670616D01*
X166469103Y-75646236D01*
X166346837Y-74732503D01*
X166189070Y-73890928D01*
X165990158Y-73083023D01*
X165661871Y-72041996D01*
X165127073Y-70769021D01*
X164479275Y-69621402D01*
X163717991Y-68598772D01*
X162842733Y-67700762D01*
X161853014Y-66927004D01*
X160748346Y-66277129D01*
X159528243Y-65750770D01*
X158192215Y-65347558D01*
X156739777Y-65067125D01*
X155170440Y-64909102D01*
X153794042Y-64869895D01*
X152232541Y-64937129D01*
X150757007Y-65126103D01*
X149377086Y-65435062D01*
X148102424Y-65862253D01*
X146942667Y-66405920D01*
X146106379Y-66924676D01*
X145135997Y-67699366D01*
X144259182Y-68601865D01*
X143490392Y-69616923D01*
X142844085Y-70729288D01*
X142429654Y-71662194D01*
X142006490Y-72923560D01*
X141680051Y-74294633D01*
X141451656Y-75758363D01*
X141322627Y-77297695D01*
X141294283Y-78895578D01*
X141367945Y-80534958D01*
X141544934Y-82198783D01*
X141826569Y-83870000D01*
X141862896Y-84048442D01*
X142387922Y-86188335D01*
X143080473Y-88342534D01*
X143939619Y-90509051D01*
X144964432Y-92685900D01*
X146153983Y-94871095D01*
X147507342Y-97062648D01*
X149023581Y-99258574D01*
X149408538Y-99788149D01*
X140930835Y-99766574D01*
X132453131Y-99745000D01*
X131706727Y-97924667D01*
X131609621Y-97687854D01*
X131364418Y-97089927D01*
X131076731Y-96388460D01*
X130761342Y-95619492D01*
X130433034Y-94819066D01*
X130106589Y-94023221D01*
X129796789Y-93268000D01*
X129538055Y-92637120D01*
X129288406Y-92028057D01*
X129065596Y-91484130D01*
X128877115Y-91023640D01*
X128730456Y-90664891D01*
X128633111Y-90426188D01*
X128592570Y-90325833D01*
X128592243Y-90301191D01*
X128660308Y-90262627D01*
X128837242Y-90237892D01*
X129143143Y-90224901D01*
X129598109Y-90221571D01*
X130644334Y-90223142D01*
X131624799Y-92444071D01*
X132605265Y-94665000D01*
X137826633Y-94686812D01*
X143048000Y-94708625D01*
X143048000Y-94426790D01*
X143045975Y-94367978D01*
X143019152Y-94245143D01*
X142944389Y-94116245D01*
X142800690Y-93956261D01*
X142567060Y-93740166D01*
X142222500Y-93442937D01*
X141466774Y-92791017D01*
X139957658Y-91424222D01*
X138603731Y-90100436D01*
X137400924Y-88813514D01*
X136345171Y-87557314D01*
X135432402Y-86325691D01*
X134658551Y-85112502D01*
X134019548Y-83911604D01*
X133511326Y-82716852D01*
X133129817Y-81522103D01*
X132870953Y-80321213D01*
X132730665Y-79108039D01*
X132715689Y-78853934D01*
X132718324Y-77382603D01*
X132878446Y-75969827D01*
X133197374Y-74611885D01*
X133676431Y-73305061D01*
X134316936Y-72045633D01*
X135120209Y-70829883D01*
X136087572Y-69654093D01*
X136837562Y-68893187D01*
X137899066Y-67980031D01*
X139087660Y-67110587D01*
X140380530Y-66298971D01*
X141754863Y-65559297D01*
X143187846Y-64905680D01*
X144656667Y-64352236D01*
X146382866Y-63846510D01*
X148217435Y-63452669D01*
X150126739Y-63173571D01*
X152085904Y-63009122D01*
X154070055Y-62959225D01*
X156054318Y-63023785D01*
G37*
M02*
