M48
; DRILL file {KiCad (5.1.4-0-10_14)} date Sunday, August 16, 2020 at 02:40:46 AM
; FORMAT={-:-/ absolute / metric / decimal}
; #@! TF.CreationDate,2020-08-16T02:40:46-05:00
; #@! TF.GenerationSoftware,Kicad,Pcbnew,(5.1.4-0-10_14)
FMAT,2
METRIC
T1C0.400
T2C1.000
T3C1.100
T4C1.470
T5C1.750
T6C3.048
T7C3.988
%
G90
G05
T1
X65.2Y-55.325
X69.125Y-64.825
X75.9Y-77.925
X76.925Y-59.9
X86.175Y-59.525
X92.675Y-69.85
X106.2Y-130.05
X113.125Y-69.925
X134.6Y-130.325
X220.7Y-129.55
T2
X141.625Y-63.825
X141.625Y-71.625
X74.925Y-101.95
X74.925Y-109.75
X203.525Y-82.875
X203.525Y-90.675
X184.475Y-82.875
X184.475Y-90.675
X146.375Y-82.875
X146.375Y-90.675
X189.25Y-101.95
X189.25Y-109.75
X170.2Y-101.95
X170.2Y-109.75
X251.15Y-120.975
X251.15Y-128.775
X132.075Y-109.75
X232.075Y-120.975
X232.075Y-128.775
X176.125Y-121.0
X176.125Y-128.8
X151.125Y-101.95
X151.125Y-109.75
X132.075Y-101.95
X113.025Y-101.95
X113.025Y-109.75
X246.375Y-101.95
X246.375Y-109.75
X108.275Y-82.875
X108.275Y-90.675
X89.225Y-82.875
X89.225Y-90.675
X98.75Y-121.0
X98.75Y-128.8
X227.35Y-101.95
X227.35Y-109.75
X70.175Y-82.875
X70.175Y-90.675
X236.875Y-71.625
X179.75Y-63.825
X179.75Y-71.625
X79.7Y-121.0
X79.7Y-128.8
X198.775Y-63.825
X198.775Y-71.625
X217.825Y-63.825
X217.825Y-71.625
X127.35Y-82.875
X127.35Y-90.675
X236.875Y-63.825
X122.6Y-63.825
X122.6Y-71.625
X66.2Y-61.8
X66.2Y-69.6
X208.3Y-101.95
X208.3Y-109.75
X160.675Y-63.825
X160.675Y-71.625
X84.475Y-63.825
X84.475Y-71.625
X103.525Y-63.825
X103.525Y-71.625
X93.975Y-101.95
X93.975Y-109.75
X241.625Y-82.875
X241.625Y-90.675
X222.575Y-82.875
X222.575Y-90.675
X165.425Y-82.875
X165.425Y-90.675
T3
X52.405Y-57.93
X52.405Y-73.17
X54.945Y-57.93
X54.945Y-73.17
X57.485Y-57.93
X57.485Y-73.17
X60.025Y-57.93
X60.025Y-73.17
X62.565Y-57.93
X62.565Y-73.17
X65.105Y-57.93
X65.105Y-73.17
X67.645Y-57.93
X67.645Y-73.17
X70.185Y-57.93
X70.185Y-73.17
X72.725Y-57.93
X72.725Y-73.17
X75.265Y-57.93
X75.265Y-73.17
X77.805Y-57.93
X77.805Y-73.17
X80.345Y-57.93
X80.345Y-73.17
T4
X230.69Y-82.06
X237.04Y-79.52
X211.64Y-82.06
X222.79Y-98.57
X54.465Y-63.01
X155.735Y-127.78
X103.715Y-79.52
X163.94Y-120.16
X170.29Y-117.62
X127.515Y-98.57
X97.365Y-82.06
X60.815Y-60.47
X162.085Y-125.24
X121.165Y-101.11
X149.74Y-63.01
X108.465Y-98.57
X156.09Y-60.47
X102.115Y-101.11
X78.315Y-82.06
X84.665Y-79.52
X217.99Y-79.52
X216.44Y-101.11
X203.715Y-98.57
X192.615Y-82.06
X130.665Y-63.01
X137.015Y-60.47
X198.965Y-79.52
X59.265Y-82.06
X65.615Y-79.52
X87.815Y-120.16
X94.165Y-117.62
X173.565Y-82.06
X179.915Y-79.52
X197.365Y-101.11
X225.915Y-63.01
X232.265Y-60.47
X111.615Y-63.01
X117.965Y-60.47
X240.215Y-120.16
X246.565Y-117.62
X92.565Y-62.985
X98.915Y-60.445
X68.79Y-120.16
X75.14Y-117.62
X178.315Y-101.11
X184.665Y-98.57
X154.465Y-82.06
X160.815Y-79.52
X206.89Y-63.01
X213.24Y-60.47
X235.44Y-101.11
X83.065Y-101.11
X89.415Y-98.57
X64.015Y-101.085
X155.8Y-118.725
X141.79Y-79.52
X154.49Y-120.185
X135.44Y-82.06
X159.265Y-101.11
X165.615Y-98.57
X160.84Y-117.645
X140.215Y-101.11
X122.74Y-79.52
X146.565Y-98.57
X116.39Y-82.06
X79.89Y-60.47
X160.8Y-118.225
X73.54Y-63.01
X241.79Y-98.57
X221.165Y-120.16
X227.515Y-117.62
X187.815Y-63.01
X194.165Y-60.47
X70.365Y-98.545
X168.79Y-63.01
X175.14Y-60.47
T5
X62.745Y-103.625
X72.905Y-103.625
X86.545Y-122.7
X96.705Y-122.7
X229.42Y-84.6
X239.58Y-84.6
X138.945Y-103.65
X149.105Y-103.65
X53.195Y-65.55
X63.355Y-65.55
X162.67Y-122.7
X172.83Y-122.7
X100.845Y-103.65
X167.52Y-65.55
X177.68Y-65.55
X163.355Y-122.7
X77.045Y-84.6
X87.205Y-84.6
X215.17Y-103.65
X225.33Y-103.65
X96.095Y-84.6
X106.255Y-84.6
X153.195Y-122.7
X119.895Y-103.65
X130.055Y-103.65
X148.47Y-65.55
X158.63Y-65.55
X210.37Y-84.6
X220.53Y-84.6
X111.005Y-103.65
X191.345Y-84.6
X201.505Y-84.6
X57.995Y-84.6
X68.155Y-84.6
X129.395Y-65.55
X139.555Y-65.55
X110.345Y-65.55
X196.095Y-103.65
X206.255Y-103.65
X238.945Y-122.7
X249.105Y-122.7
X177.045Y-103.65
X187.205Y-103.65
X120.505Y-65.55
X172.295Y-84.6
X182.455Y-84.6
X101.455Y-65.525
X81.795Y-103.65
X157.995Y-103.65
X168.155Y-103.65
X153.22Y-122.725
X163.38Y-122.725
X215.78Y-65.55
X219.895Y-122.7
X230.055Y-122.7
X205.62Y-65.55
X91.955Y-103.65
X224.645Y-65.55
X234.805Y-65.55
X77.68Y-122.7
X153.195Y-84.6
X163.355Y-84.6
X91.295Y-65.525
X67.52Y-122.7
X234.17Y-103.65
X244.33Y-103.65
X134.17Y-84.6
X144.33Y-84.6
X186.545Y-65.55
X196.705Y-65.55
X115.12Y-84.6
X125.28Y-84.6
X72.27Y-65.55
X82.43Y-65.55
T6
X224.975Y-129.71
X215.425Y-129.685
X120.125Y-129.685
X120.175Y-129.685
X91.625Y-129.71
X215.375Y-129.685
T7
X82.125Y-84.6
X63.075Y-84.6
X229.725Y-65.55
X72.6Y-122.7
X244.025Y-122.7
X91.625Y-122.7
X177.375Y-84.6
X201.175Y-103.65
X115.425Y-65.55
X158.275Y-84.6
X96.375Y-65.525
X224.975Y-122.7
X182.125Y-103.65
X86.875Y-103.65
X163.075Y-103.65
X144.025Y-103.65
X67.825Y-103.625
X120.175Y-114.445
X215.425Y-114.445
X124.975Y-103.65
X234.5Y-84.6
X105.925Y-103.65
X215.45Y-84.6
X158.275Y-122.7
X91.625Y-114.47
X224.975Y-114.47
X210.7Y-65.55
X239.25Y-103.65
X139.25Y-84.6
X191.625Y-65.55
X120.2Y-84.6
X220.25Y-103.65
X101.175Y-84.6
X58.275Y-65.55
X158.3Y-122.725
X77.35Y-65.55
X172.6Y-65.55
X120.125Y-114.445
X167.75Y-122.7
X215.375Y-114.445
X153.55Y-65.55
X134.475Y-65.55
X196.425Y-84.6
T0
M30
