G04 #@! TF.GenerationSoftware,KiCad,Pcbnew,(6.0.1-0)*
G04 #@! TF.CreationDate,2022-03-12T03:09:29-07:00*
G04 #@! TF.ProjectId,omega_4_solder,6f6d6567-615f-4345-9f73-6f6c6465722e,rev?*
G04 #@! TF.SameCoordinates,Original*
G04 #@! TF.FileFunction,Paste,Bot*
G04 #@! TF.FilePolarity,Positive*
%FSLAX46Y46*%
G04 Gerber Fmt 4.6, Leading zero omitted, Abs format (unit mm)*
G04 Created by KiCad (PCBNEW (6.0.1-0)) date 2022-03-12 03:09:29*
%MOMM*%
%LPD*%
G01*
G04 APERTURE LIST*
%ADD10R,1.200000X1.600000*%
G04 APERTURE END LIST*
D10*
X66200000Y-67100000D03*
X66200000Y-64300000D03*
X84475000Y-69125000D03*
X84475000Y-66325000D03*
X103525000Y-69125000D03*
X103525000Y-66325000D03*
X122600000Y-69125000D03*
X122600000Y-66325000D03*
X141625000Y-69125000D03*
X141625000Y-66325000D03*
X179750000Y-69125000D03*
X179750000Y-66325000D03*
X198775000Y-69125000D03*
X198775000Y-66325000D03*
X217825000Y-69125000D03*
X217825000Y-66325000D03*
X236875000Y-69125000D03*
X236875000Y-66325000D03*
X70175000Y-88175000D03*
X70175000Y-85375000D03*
X89225000Y-88175000D03*
X89225000Y-85375000D03*
X108275000Y-88175000D03*
X108275000Y-85375000D03*
X127350000Y-88175000D03*
X127350000Y-85375000D03*
X146375000Y-88175000D03*
X146375000Y-85375000D03*
X165425000Y-88175000D03*
X165425000Y-85375000D03*
X184475000Y-88175000D03*
X184475000Y-85375000D03*
X203525000Y-88175000D03*
X203525000Y-85375000D03*
X222575000Y-88175000D03*
X222575000Y-85375000D03*
X241625000Y-88175000D03*
X241625000Y-85375000D03*
X74925000Y-107250000D03*
X74925000Y-104450000D03*
X93975000Y-107250000D03*
X93975000Y-104450000D03*
X113025000Y-107250000D03*
X113025000Y-104450000D03*
X132075000Y-107250000D03*
X132075000Y-104450000D03*
X135908799Y-107250000D03*
X135908799Y-104450000D03*
X170200000Y-107250000D03*
X170200000Y-104450000D03*
X189250000Y-107250000D03*
X189250000Y-104450000D03*
X208300000Y-107250000D03*
X208300000Y-104450000D03*
X227350000Y-107250000D03*
X227350000Y-104450000D03*
X246375000Y-107250000D03*
X246375000Y-104450000D03*
X79700000Y-126300000D03*
X79700000Y-123500000D03*
X98750000Y-126300000D03*
X98750000Y-123500000D03*
X176125000Y-126300000D03*
X176125000Y-123500000D03*
X232075000Y-126275000D03*
X232075000Y-123475000D03*
X160675000Y-69125000D03*
X160675000Y-66325000D03*
X251150000Y-126275000D03*
X251150000Y-123475000D03*
M02*
