M48
; DRILL file {KiCad (6.0.1-0)} date Saturday, March 12, 2022 at 03:09:27 AM
; FORMAT={-:-/ absolute / inch / decimal}
; #@! TF.CreationDate,2022-03-12T03:09:27-07:00
; #@! TF.GenerationSoftware,Kicad,Pcbnew,(6.0.1-0)
; #@! TF.FileFunction,NonPlated,1,2,NPTH
FMAT,2
INCH
; #@! TA.AperFunction,NonPlated,NPTH,ComponentDrill
T1C0.0310
; #@! TA.AperFunction,NonPlated,NPTH,ComponentDrill
T2C0.0689
; #@! TA.AperFunction,NonPlated,NPTH,ComponentDrill
T3C0.1200
; #@! TA.AperFunction,NonPlated,NPTH,ComponentDrill
T4C0.1570
%
G90
G05
T1
X2.9169Y-4.455
X2.9669Y-4.455
X3.0669Y-4.455
X3.1169Y-4.455
T2
X2.0943Y-2.5807
X2.2833Y-3.3307
X2.4703Y-4.0797
X2.4943Y-2.5807
X2.6583Y-4.8307
X2.6833Y-3.3307
X2.8453Y-2.5807
X2.8703Y-4.0797
X3.0333Y-3.3307
X3.0583Y-4.8307
X3.2203Y-4.0807
X3.2453Y-2.5807
X3.4073Y-4.8307
X3.4333Y-3.3307
X3.5943Y-2.5797
X3.6203Y-4.0807
X3.7833Y-3.3307
X3.8073Y-4.8307
X3.9703Y-4.0807
X3.9943Y-2.5797
X4.1833Y-3.3307
X4.3443Y-2.5807
X4.3703Y-4.0807
X4.5323Y-3.3307
X4.7203Y-4.0807
X4.7443Y-2.5807
X4.9323Y-3.3307
X5.0943Y-2.5807
X5.1203Y-4.0807
X5.2823Y-3.3307
X5.4703Y-4.0807
X5.4943Y-2.5807
X5.6823Y-3.3307
X5.8453Y-2.5807
X5.8453Y-4.0811
X5.8703Y-4.0807
X6.0275Y-4.8325
X6.0275Y-4.8325
X6.0313Y-3.3307
X6.2203Y-4.0807
X6.2453Y-2.5807
X6.2453Y-4.0811
X6.4025Y-4.8325
X6.4275Y-4.8325
X6.4275Y-4.8325
X6.4313Y-3.3307
X6.5953Y-2.5807
X6.6203Y-4.0807
X6.7833Y-3.3307
X6.8025Y-4.8325
X6.9703Y-4.0807
X6.9953Y-2.5807
X7.1833Y-3.3307
X7.3443Y-2.5807
X7.3703Y-4.0807
X7.5333Y-3.3307
X7.7203Y-4.0807
X7.7443Y-2.5807
X7.9333Y-3.3307
X8.0953Y-2.5807
X8.1203Y-4.0807
X8.2823Y-3.3307
X8.4713Y-4.0807
X8.4953Y-2.5807
X8.6573Y-4.8307
X8.6823Y-3.3307
X8.8443Y-2.5807
X8.8713Y-4.0807
X9.0323Y-3.3307
X9.0573Y-4.8307
X9.2193Y-4.0807
X9.2443Y-2.5807
X9.4073Y-4.8307
X9.4323Y-3.3307
X9.6193Y-4.0807
X9.8073Y-4.8307
T3
X3.6025Y-5.1075
X4.3525Y-5.1075
X4.3525Y-5.1075
X5.5765Y-4.3561
X6.514Y-4.3561
X8.1025Y-5.1075
X8.1025Y-5.1075
X8.8525Y-5.1075
T4
X2.2943Y-2.5807
X2.4833Y-3.3307
X2.6703Y-4.0797
X2.8583Y-4.8307
X3.0453Y-2.5807
X3.2333Y-3.3307
X3.4203Y-4.0807
X3.6025Y-4.5075
X3.6073Y-4.8307
X3.7943Y-2.5797
X3.9833Y-3.3307
X4.1703Y-4.0807
X4.3525Y-4.5075
X4.3525Y-4.5075
X4.5443Y-2.5807
X4.7323Y-3.3307
X4.9203Y-4.0807
X5.2943Y-2.5807
X5.4823Y-3.3307
X5.5765Y-3.7561
X5.6703Y-4.0807
X6.0453Y-2.5807
X6.0453Y-4.0811
X6.2275Y-4.8325
X6.2275Y-4.8325
X6.2313Y-3.3307
X6.4203Y-4.0807
X6.514Y-3.7561
X6.6025Y-4.8325
X6.7953Y-2.5807
X6.9833Y-3.3307
X7.1703Y-4.0807
X7.5443Y-2.5807
X7.7333Y-3.3307
X7.9203Y-4.0807
X8.1025Y-4.5075
X8.1025Y-4.5075
X8.2953Y-2.5807
X8.4823Y-3.3307
X8.6713Y-4.0807
X8.8525Y-4.5075
X8.8573Y-4.8307
X9.0443Y-2.5807
X9.2323Y-3.3307
X9.4193Y-4.0807
X9.6073Y-4.8307
T0
M30
