G04 #@! TF.GenerationSoftware,KiCad,Pcbnew,(5.1.4-0-10_14)*
G04 #@! TF.CreationDate,2020-11-04T22:12:55-06:00*
G04 #@! TF.ProjectId,omega_4_solder,6f6d6567-615f-4345-9f73-6f6c6465722e,rev?*
G04 #@! TF.SameCoordinates,Original*
G04 #@! TF.FileFunction,Soldermask,Top*
G04 #@! TF.FilePolarity,Negative*
%FSLAX46Y46*%
G04 Gerber Fmt 4.6, Leading zero omitted, Abs format (unit mm)*
G04 Created by KiCad (PCBNEW (5.1.4-0-10_14)) date 2020-11-04 22:12:55*
%MOMM*%
%LPD*%
G04 APERTURE LIST*
%ADD10C,3.987800*%
%ADD11C,1.750000*%
%ADD12C,3.048000*%
%ADD13C,1.600000*%
%ADD14R,1.600000X1.600000*%
G04 APERTURE END LIST*
D10*
X167703500Y-122745500D03*
D11*
X162623500Y-122745500D03*
X172783500Y-122745500D03*
D12*
X110553500Y-129730500D03*
X205803500Y-129730500D03*
D10*
X110553500Y-114490500D03*
X205803500Y-114490500D03*
X110553500Y-114490500D03*
X205803500Y-114490500D03*
D12*
X110553500Y-129730500D03*
X205803500Y-129730500D03*
D11*
X153098500Y-122745500D03*
X163258500Y-122745500D03*
D10*
X158178500Y-122745500D03*
D13*
X52405000Y-57930000D03*
X54945000Y-57930000D03*
X57485000Y-57930000D03*
X60025000Y-57930000D03*
X62565000Y-57930000D03*
X65105000Y-57930000D03*
X67645000Y-57930000D03*
X70185000Y-57930000D03*
X72725000Y-57930000D03*
X75265000Y-57930000D03*
X77805000Y-57930000D03*
X80345000Y-57930000D03*
X80345000Y-73170000D03*
X77805000Y-73170000D03*
X75265000Y-73170000D03*
X72725000Y-73170000D03*
X70185000Y-73170000D03*
X67645000Y-73170000D03*
X65105000Y-73170000D03*
X62565000Y-73170000D03*
X60025000Y-73170000D03*
X57485000Y-73170000D03*
X54945000Y-73170000D03*
D14*
X52405000Y-73170000D03*
D10*
X244025000Y-122700000D03*
D11*
X238945000Y-122700000D03*
X249105000Y-122700000D03*
D10*
X224975000Y-122700000D03*
D11*
X219895000Y-122700000D03*
X230055000Y-122700000D03*
D10*
X224853500Y-114490500D03*
X91503500Y-114490500D03*
D12*
X224853500Y-129730500D03*
X91503500Y-129730500D03*
D11*
X163258500Y-122745500D03*
X153098500Y-122745500D03*
D10*
X158178500Y-122745500D03*
X91625000Y-122700000D03*
D11*
X86545000Y-122700000D03*
X96705000Y-122700000D03*
D10*
X72600000Y-122700000D03*
D11*
X67520000Y-122700000D03*
X77680000Y-122700000D03*
D10*
X239250000Y-103650000D03*
D11*
X234170000Y-103650000D03*
X244330000Y-103650000D03*
D10*
X220250000Y-103650000D03*
D11*
X215170000Y-103650000D03*
X225330000Y-103650000D03*
D10*
X201175000Y-103650000D03*
D11*
X196095000Y-103650000D03*
X206255000Y-103650000D03*
D10*
X182125000Y-103650000D03*
D11*
X177045000Y-103650000D03*
X187205000Y-103650000D03*
D10*
X163075000Y-103650000D03*
D11*
X157995000Y-103650000D03*
X168155000Y-103650000D03*
D10*
X144025000Y-103650000D03*
D11*
X138945000Y-103650000D03*
X149105000Y-103650000D03*
D10*
X124975000Y-103650000D03*
D11*
X119895000Y-103650000D03*
X130055000Y-103650000D03*
D10*
X105925000Y-103650000D03*
D11*
X100845000Y-103650000D03*
X111005000Y-103650000D03*
D10*
X86875000Y-103650000D03*
D11*
X81795000Y-103650000D03*
X91955000Y-103650000D03*
D10*
X67825000Y-103625000D03*
D11*
X62745000Y-103625000D03*
X72905000Y-103625000D03*
D10*
X234500000Y-84600000D03*
D11*
X229420000Y-84600000D03*
X239580000Y-84600000D03*
D10*
X215450000Y-84600000D03*
D11*
X210370000Y-84600000D03*
X220530000Y-84600000D03*
D10*
X196425000Y-84600000D03*
D11*
X191345000Y-84600000D03*
X201505000Y-84600000D03*
D10*
X177375000Y-84600000D03*
D11*
X172295000Y-84600000D03*
X182455000Y-84600000D03*
D10*
X158275000Y-84600000D03*
D11*
X153195000Y-84600000D03*
X163355000Y-84600000D03*
D10*
X139250000Y-84600000D03*
D11*
X134170000Y-84600000D03*
X144330000Y-84600000D03*
D10*
X120200000Y-84600000D03*
D11*
X115120000Y-84600000D03*
X125280000Y-84600000D03*
D10*
X101175000Y-84600000D03*
D11*
X96095000Y-84600000D03*
X106255000Y-84600000D03*
D10*
X82125000Y-84600000D03*
D11*
X77045000Y-84600000D03*
X87205000Y-84600000D03*
D10*
X63075000Y-84600000D03*
D11*
X57995000Y-84600000D03*
X68155000Y-84600000D03*
D10*
X229725000Y-65550000D03*
D11*
X224645000Y-65550000D03*
X234805000Y-65550000D03*
D10*
X210700000Y-65550000D03*
D11*
X205620000Y-65550000D03*
X215780000Y-65550000D03*
D10*
X191625000Y-65550000D03*
D11*
X186545000Y-65550000D03*
X196705000Y-65550000D03*
X177680000Y-65550000D03*
X167520000Y-65550000D03*
D10*
X172600000Y-65550000D03*
X153550000Y-65550000D03*
D11*
X148470000Y-65550000D03*
X158630000Y-65550000D03*
D10*
X134475000Y-65550000D03*
D11*
X129395000Y-65550000D03*
X139555000Y-65550000D03*
D10*
X115425000Y-65550000D03*
D11*
X110345000Y-65550000D03*
X120505000Y-65550000D03*
D10*
X96375000Y-65525000D03*
D11*
X91295000Y-65525000D03*
X101455000Y-65525000D03*
D10*
X77350000Y-65550000D03*
D11*
X72270000Y-65550000D03*
X82430000Y-65550000D03*
D10*
X58275000Y-65550000D03*
D11*
X53195000Y-65550000D03*
X63355000Y-65550000D03*
D14*
X251150000Y-128775000D03*
D13*
X251150000Y-120975000D03*
D14*
X232075000Y-128775000D03*
D13*
X232075000Y-120975000D03*
D14*
X176125000Y-128800000D03*
D13*
X176125000Y-121000000D03*
D14*
X98750000Y-128800000D03*
D13*
X98750000Y-121000000D03*
D14*
X79700000Y-128800000D03*
D13*
X79700000Y-121000000D03*
D14*
X246375000Y-109750000D03*
D13*
X246375000Y-101950000D03*
D14*
X227350000Y-109750000D03*
D13*
X227350000Y-101950000D03*
D14*
X208300000Y-109750000D03*
D13*
X208300000Y-101950000D03*
D14*
X189250000Y-109750000D03*
D13*
X189250000Y-101950000D03*
D14*
X170200000Y-109750000D03*
D13*
X170200000Y-101950000D03*
D14*
X151125000Y-109750000D03*
D13*
X151125000Y-101950000D03*
D14*
X132075000Y-109750000D03*
D13*
X132075000Y-101950000D03*
D14*
X113025000Y-109750000D03*
D13*
X113025000Y-101950000D03*
D14*
X93975000Y-109750000D03*
D13*
X93975000Y-101950000D03*
D14*
X74925000Y-109750000D03*
D13*
X74925000Y-101950000D03*
D14*
X241625000Y-90675000D03*
D13*
X241625000Y-82875000D03*
D14*
X222575000Y-90675000D03*
D13*
X222575000Y-82875000D03*
D14*
X203525000Y-90675000D03*
D13*
X203525000Y-82875000D03*
D14*
X184475000Y-90675000D03*
D13*
X184475000Y-82875000D03*
D14*
X165425000Y-90675000D03*
D13*
X165425000Y-82875000D03*
D14*
X146375000Y-90675000D03*
D13*
X146375000Y-82875000D03*
D14*
X127350000Y-90675000D03*
D13*
X127350000Y-82875000D03*
D14*
X108275000Y-90675000D03*
D13*
X108275000Y-82875000D03*
D14*
X89225000Y-90675000D03*
D13*
X89225000Y-82875000D03*
D14*
X70175000Y-90675000D03*
D13*
X70175000Y-82875000D03*
D14*
X236875000Y-71625000D03*
D13*
X236875000Y-63825000D03*
D14*
X217825000Y-71625000D03*
D13*
X217825000Y-63825000D03*
D14*
X198775000Y-71625000D03*
D13*
X198775000Y-63825000D03*
D14*
X179750000Y-71625000D03*
D13*
X179750000Y-63825000D03*
D14*
X160675000Y-71625000D03*
D13*
X160675000Y-63825000D03*
D14*
X141625000Y-71625000D03*
D13*
X141625000Y-63825000D03*
D14*
X122600000Y-71625000D03*
D13*
X122600000Y-63825000D03*
D14*
X103525000Y-71625000D03*
D13*
X103525000Y-63825000D03*
D14*
X84475000Y-71625000D03*
D13*
X84475000Y-63825000D03*
D14*
X66200000Y-69600000D03*
D13*
X66200000Y-61800000D03*
M02*
