G04 #@! TF.GenerationSoftware,KiCad,Pcbnew,(5.1.4-0-10_14)*
G04 #@! TF.CreationDate,2020-08-16T02:40:48-05:00*
G04 #@! TF.ProjectId,omega_4_solder,6f6d6567-615f-4345-9f73-6f6c6465722e,rev?*
G04 #@! TF.SameCoordinates,Original*
G04 #@! TF.FileFunction,Soldermask,Bot*
G04 #@! TF.FilePolarity,Negative*
%FSLAX46Y46*%
G04 Gerber Fmt 4.6, Leading zero omitted, Abs format (unit mm)*
G04 Created by KiCad (PCBNEW (5.1.4-0-10_14)) date 2020-08-16 02:40:48*
%MOMM*%
%LPD*%
G04 APERTURE LIST*
%ADD10C,3.987800*%
%ADD11C,3.048000*%
%ADD12C,1.750000*%
%ADD13C,2.250000*%
%ADD14R,1.500000X1.500000*%
%ADD15C,1.600000*%
%ADD16R,1.600000X1.600000*%
%ADD17C,2.250000*%
%ADD18R,1.200000X1.600000*%
G04 APERTURE END LIST*
D10*
X215375000Y-114445000D03*
X120125000Y-114445000D03*
D11*
X215375000Y-129685000D03*
X120125000Y-129685000D03*
D12*
X172830000Y-122700000D03*
X162670000Y-122700000D03*
D13*
X163940000Y-120160000D03*
D10*
X167750000Y-122700000D03*
D13*
X170290000Y-117620000D03*
D14*
X57525000Y-55425000D03*
X55825000Y-55425000D03*
D13*
X155735000Y-127780000D03*
D10*
X158275000Y-122700000D03*
D13*
X162085000Y-125240000D03*
D12*
X163355000Y-122700000D03*
X153195000Y-122700000D03*
D11*
X215425000Y-129685000D03*
X120175000Y-129685000D03*
D10*
X215425000Y-114445000D03*
X120175000Y-114445000D03*
D15*
X52405000Y-57930000D03*
X54945000Y-57930000D03*
X57485000Y-57930000D03*
X60025000Y-57930000D03*
X62565000Y-57930000D03*
X65105000Y-57930000D03*
X67645000Y-57930000D03*
X70185000Y-57930000D03*
X72725000Y-57930000D03*
X75265000Y-57930000D03*
X77805000Y-57930000D03*
X80345000Y-57930000D03*
X80345000Y-73170000D03*
X77805000Y-73170000D03*
X75265000Y-73170000D03*
X72725000Y-73170000D03*
X70185000Y-73170000D03*
X67645000Y-73170000D03*
X65105000Y-73170000D03*
X62565000Y-73170000D03*
X60025000Y-73170000D03*
X57485000Y-73170000D03*
X54945000Y-73170000D03*
D16*
X52405000Y-73170000D03*
D13*
X246565000Y-117620000D03*
D10*
X244025000Y-122700000D03*
D13*
X240215000Y-120160000D03*
D12*
X238945000Y-122700000D03*
X249105000Y-122700000D03*
D13*
X227515000Y-117620000D03*
D10*
X224975000Y-122700000D03*
D13*
X221165000Y-120160000D03*
D12*
X219895000Y-122700000D03*
X230055000Y-122700000D03*
D10*
X224975000Y-114470000D03*
X91625000Y-114470000D03*
D11*
X224975000Y-129710000D03*
X91625000Y-129710000D03*
D12*
X163380000Y-122725000D03*
X153220000Y-122725000D03*
D13*
X155800000Y-118725000D03*
D10*
X158300000Y-122725000D03*
D13*
X155145001Y-119455000D03*
D17*
X154490000Y-120185000D02*
X155800002Y-118725000D01*
D13*
X160840000Y-117645000D03*
X160820000Y-117935000D03*
D17*
X160800000Y-118225000D02*
X160840000Y-117645000D01*
D13*
X94165000Y-117620000D03*
D10*
X91625000Y-122700000D03*
D13*
X87815000Y-120160000D03*
D12*
X86545000Y-122700000D03*
X96705000Y-122700000D03*
D13*
X75140000Y-117620000D03*
D10*
X72600000Y-122700000D03*
D13*
X68790000Y-120160000D03*
D12*
X67520000Y-122700000D03*
X77680000Y-122700000D03*
D13*
X241790000Y-98570000D03*
D10*
X239250000Y-103650000D03*
D13*
X235440000Y-101110000D03*
D12*
X234170000Y-103650000D03*
X244330000Y-103650000D03*
D13*
X222790000Y-98570000D03*
D10*
X220250000Y-103650000D03*
D13*
X216440000Y-101110000D03*
D12*
X215170000Y-103650000D03*
X225330000Y-103650000D03*
D13*
X203715000Y-98570000D03*
D10*
X201175000Y-103650000D03*
D13*
X197365000Y-101110000D03*
D12*
X196095000Y-103650000D03*
X206255000Y-103650000D03*
D13*
X184665000Y-98570000D03*
D10*
X182125000Y-103650000D03*
D13*
X178315000Y-101110000D03*
D12*
X177045000Y-103650000D03*
X187205000Y-103650000D03*
D13*
X165615000Y-98570000D03*
D10*
X163075000Y-103650000D03*
D13*
X159265000Y-101110000D03*
D12*
X157995000Y-103650000D03*
X168155000Y-103650000D03*
D13*
X146565000Y-98570000D03*
D10*
X144025000Y-103650000D03*
D13*
X140215000Y-101110000D03*
D12*
X138945000Y-103650000D03*
X149105000Y-103650000D03*
D13*
X127515000Y-98570000D03*
D10*
X124975000Y-103650000D03*
D13*
X121165000Y-101110000D03*
D12*
X119895000Y-103650000D03*
X130055000Y-103650000D03*
D13*
X108465000Y-98570000D03*
D10*
X105925000Y-103650000D03*
D13*
X102115000Y-101110000D03*
D12*
X100845000Y-103650000D03*
X111005000Y-103650000D03*
D13*
X89415000Y-98570000D03*
D10*
X86875000Y-103650000D03*
D13*
X83065000Y-101110000D03*
D12*
X81795000Y-103650000D03*
X91955000Y-103650000D03*
D13*
X70365000Y-98545000D03*
D10*
X67825000Y-103625000D03*
D13*
X64015000Y-101085000D03*
D12*
X62745000Y-103625000D03*
X72905000Y-103625000D03*
D13*
X237040000Y-79520000D03*
D10*
X234500000Y-84600000D03*
D13*
X230690000Y-82060000D03*
D12*
X229420000Y-84600000D03*
X239580000Y-84600000D03*
D13*
X217990000Y-79520000D03*
D10*
X215450000Y-84600000D03*
D13*
X211640000Y-82060000D03*
D12*
X210370000Y-84600000D03*
X220530000Y-84600000D03*
D13*
X198965000Y-79520000D03*
D10*
X196425000Y-84600000D03*
D13*
X192615000Y-82060000D03*
D12*
X191345000Y-84600000D03*
X201505000Y-84600000D03*
D13*
X179915000Y-79520000D03*
D10*
X177375000Y-84600000D03*
D13*
X173565000Y-82060000D03*
D12*
X172295000Y-84600000D03*
X182455000Y-84600000D03*
D13*
X160815000Y-79520000D03*
D10*
X158275000Y-84600000D03*
D13*
X154465000Y-82060000D03*
D12*
X153195000Y-84600000D03*
X163355000Y-84600000D03*
D13*
X141790000Y-79520000D03*
D10*
X139250000Y-84600000D03*
D13*
X135440000Y-82060000D03*
D12*
X134170000Y-84600000D03*
X144330000Y-84600000D03*
D13*
X122740000Y-79520000D03*
D10*
X120200000Y-84600000D03*
D13*
X116390000Y-82060000D03*
D12*
X115120000Y-84600000D03*
X125280000Y-84600000D03*
D13*
X103715000Y-79520000D03*
D10*
X101175000Y-84600000D03*
D13*
X97365000Y-82060000D03*
D12*
X96095000Y-84600000D03*
X106255000Y-84600000D03*
D13*
X84665000Y-79520000D03*
D10*
X82125000Y-84600000D03*
D13*
X78315000Y-82060000D03*
D12*
X77045000Y-84600000D03*
X87205000Y-84600000D03*
D13*
X65615000Y-79520000D03*
D10*
X63075000Y-84600000D03*
D13*
X59265000Y-82060000D03*
D12*
X57995000Y-84600000D03*
X68155000Y-84600000D03*
D13*
X232265000Y-60470000D03*
D10*
X229725000Y-65550000D03*
D13*
X225915000Y-63010000D03*
D12*
X224645000Y-65550000D03*
X234805000Y-65550000D03*
D13*
X213240000Y-60470000D03*
D10*
X210700000Y-65550000D03*
D13*
X206890000Y-63010000D03*
D12*
X205620000Y-65550000D03*
X215780000Y-65550000D03*
D13*
X194165000Y-60470000D03*
D10*
X191625000Y-65550000D03*
D13*
X187815000Y-63010000D03*
D12*
X186545000Y-65550000D03*
X196705000Y-65550000D03*
X177680000Y-65550000D03*
X167520000Y-65550000D03*
D13*
X168790000Y-63010000D03*
D10*
X172600000Y-65550000D03*
D13*
X175140000Y-60470000D03*
X156090000Y-60470000D03*
D10*
X153550000Y-65550000D03*
D13*
X149740000Y-63010000D03*
D12*
X148470000Y-65550000D03*
X158630000Y-65550000D03*
D13*
X137015000Y-60470000D03*
D10*
X134475000Y-65550000D03*
D13*
X130665000Y-63010000D03*
D12*
X129395000Y-65550000D03*
X139555000Y-65550000D03*
D13*
X117965000Y-60470000D03*
D10*
X115425000Y-65550000D03*
D13*
X111615000Y-63010000D03*
D12*
X110345000Y-65550000D03*
X120505000Y-65550000D03*
D13*
X98915000Y-60445000D03*
D10*
X96375000Y-65525000D03*
D13*
X92565000Y-62985000D03*
D12*
X91295000Y-65525000D03*
X101455000Y-65525000D03*
D13*
X79890000Y-60470000D03*
D10*
X77350000Y-65550000D03*
D13*
X73540000Y-63010000D03*
D12*
X72270000Y-65550000D03*
X82430000Y-65550000D03*
D13*
X60815000Y-60470000D03*
D10*
X58275000Y-65550000D03*
D13*
X54465000Y-63010000D03*
D12*
X53195000Y-65550000D03*
X63355000Y-65550000D03*
D16*
X251150000Y-128775000D03*
D15*
X251150000Y-120975000D03*
D18*
X251150000Y-126275000D03*
X251150000Y-123475000D03*
D16*
X232075000Y-128775000D03*
D15*
X232075000Y-120975000D03*
D18*
X232075000Y-126275000D03*
X232075000Y-123475000D03*
D16*
X176125000Y-128800000D03*
D15*
X176125000Y-121000000D03*
D18*
X176125000Y-126300000D03*
X176125000Y-123500000D03*
D16*
X98750000Y-128800000D03*
D15*
X98750000Y-121000000D03*
D18*
X98750000Y-126300000D03*
X98750000Y-123500000D03*
D16*
X79700000Y-128800000D03*
D15*
X79700000Y-121000000D03*
D18*
X79700000Y-126300000D03*
X79700000Y-123500000D03*
D16*
X246375000Y-109750000D03*
D15*
X246375000Y-101950000D03*
D18*
X246375000Y-107250000D03*
X246375000Y-104450000D03*
D16*
X227350000Y-109750000D03*
D15*
X227350000Y-101950000D03*
D18*
X227350000Y-107250000D03*
X227350000Y-104450000D03*
D16*
X208300000Y-109750000D03*
D15*
X208300000Y-101950000D03*
D18*
X208300000Y-107250000D03*
X208300000Y-104450000D03*
D16*
X189250000Y-109750000D03*
D15*
X189250000Y-101950000D03*
D18*
X189250000Y-107250000D03*
X189250000Y-104450000D03*
D16*
X170200000Y-109750000D03*
D15*
X170200000Y-101950000D03*
D18*
X170200000Y-107250000D03*
X170200000Y-104450000D03*
D16*
X151125000Y-109750000D03*
D15*
X151125000Y-101950000D03*
D18*
X151125000Y-107250000D03*
X151125000Y-104450000D03*
D16*
X132075000Y-109750000D03*
D15*
X132075000Y-101950000D03*
D18*
X132075000Y-107250000D03*
X132075000Y-104450000D03*
D16*
X113025000Y-109750000D03*
D15*
X113025000Y-101950000D03*
D18*
X113025000Y-107250000D03*
X113025000Y-104450000D03*
D16*
X93975000Y-109750000D03*
D15*
X93975000Y-101950000D03*
D18*
X93975000Y-107250000D03*
X93975000Y-104450000D03*
D16*
X74925000Y-109750000D03*
D15*
X74925000Y-101950000D03*
D18*
X74925000Y-107250000D03*
X74925000Y-104450000D03*
D16*
X241625000Y-90675000D03*
D15*
X241625000Y-82875000D03*
D18*
X241625000Y-88175000D03*
X241625000Y-85375000D03*
D16*
X222575000Y-90675000D03*
D15*
X222575000Y-82875000D03*
D18*
X222575000Y-88175000D03*
X222575000Y-85375000D03*
D16*
X203525000Y-90675000D03*
D15*
X203525000Y-82875000D03*
D18*
X203525000Y-88175000D03*
X203525000Y-85375000D03*
D16*
X184475000Y-90675000D03*
D15*
X184475000Y-82875000D03*
D18*
X184475000Y-88175000D03*
X184475000Y-85375000D03*
D16*
X165425000Y-90675000D03*
D15*
X165425000Y-82875000D03*
D18*
X165425000Y-88175000D03*
X165425000Y-85375000D03*
D16*
X146375000Y-90675000D03*
D15*
X146375000Y-82875000D03*
D18*
X146375000Y-88175000D03*
X146375000Y-85375000D03*
D16*
X127350000Y-90675000D03*
D15*
X127350000Y-82875000D03*
D18*
X127350000Y-88175000D03*
X127350000Y-85375000D03*
D16*
X108275000Y-90675000D03*
D15*
X108275000Y-82875000D03*
D18*
X108275000Y-88175000D03*
X108275000Y-85375000D03*
D16*
X89225000Y-90675000D03*
D15*
X89225000Y-82875000D03*
D18*
X89225000Y-88175000D03*
X89225000Y-85375000D03*
D16*
X70175000Y-90675000D03*
D15*
X70175000Y-82875000D03*
D18*
X70175000Y-88175000D03*
X70175000Y-85375000D03*
D16*
X236875000Y-71625000D03*
D15*
X236875000Y-63825000D03*
D18*
X236875000Y-69125000D03*
X236875000Y-66325000D03*
D16*
X217825000Y-71625000D03*
D15*
X217825000Y-63825000D03*
D18*
X217825000Y-69125000D03*
X217825000Y-66325000D03*
D16*
X198775000Y-71625000D03*
D15*
X198775000Y-63825000D03*
D18*
X198775000Y-69125000D03*
X198775000Y-66325000D03*
D16*
X179750000Y-71625000D03*
D15*
X179750000Y-63825000D03*
D18*
X179750000Y-69125000D03*
X179750000Y-66325000D03*
D16*
X160675000Y-71625000D03*
D15*
X160675000Y-63825000D03*
D18*
X160675000Y-69125000D03*
X160675000Y-66325000D03*
D16*
X141625000Y-71625000D03*
D15*
X141625000Y-63825000D03*
D18*
X141625000Y-69125000D03*
X141625000Y-66325000D03*
D16*
X122600000Y-71625000D03*
D15*
X122600000Y-63825000D03*
D18*
X122600000Y-69125000D03*
X122600000Y-66325000D03*
D16*
X103525000Y-71625000D03*
D15*
X103525000Y-63825000D03*
D18*
X103525000Y-69125000D03*
X103525000Y-66325000D03*
D16*
X84475000Y-71625000D03*
D15*
X84475000Y-63825000D03*
D18*
X84475000Y-69125000D03*
X84475000Y-66325000D03*
D16*
X66200000Y-69600000D03*
D15*
X66200000Y-61800000D03*
D18*
X66200000Y-67100000D03*
X66200000Y-64300000D03*
M02*
