M48
; DRILL file {KiCad (5.1.4-0-10_14)} date Friday, November 13, 2020 at 12:42:11 AM
; FORMAT={-:-/ absolute / metric / decimal}
; #@! TF.CreationDate,2020-11-13T00:42:11-06:00
; #@! TF.GenerationSoftware,Kicad,Pcbnew,(5.1.4-0-10_14)
FMAT,2
METRIC
T1C0.400
T2C1.000
T3C1.100
T4C1.470
T5C1.750
T6C3.048
T7C3.988
%
G90
G05
T1
X65.2Y-55.325
X69.125Y-64.825
X76.327Y-78.232
X76.925Y-59.9
X79.438Y-99.631
X86.175Y-59.525
X92.675Y-69.85
X106.2Y-130.05
X113.125Y-69.925
X134.6Y-130.325
X214.249Y-130.365
T2
X89.225Y-82.875
X89.225Y-90.675
X179.75Y-63.825
X179.75Y-71.625
X74.925Y-101.95
X74.925Y-109.75
X232.075Y-120.975
X232.075Y-128.775
X160.675Y-63.825
X160.675Y-71.625
X122.6Y-71.625
X146.375Y-82.875
X146.375Y-90.675
X122.6Y-63.825
X84.475Y-71.625
X217.825Y-71.625
X70.175Y-82.875
X70.175Y-90.675
X108.275Y-82.875
X108.275Y-90.675
X151.125Y-101.95
X151.125Y-109.75
X113.025Y-101.95
X113.025Y-109.75
X170.2Y-101.95
X170.2Y-109.75
X84.475Y-63.825
X217.825Y-63.825
X66.2Y-61.8
X66.2Y-69.6
X198.775Y-63.825
X222.575Y-90.675
X241.625Y-82.875
X241.625Y-90.675
X203.525Y-82.875
X203.525Y-90.675
X184.475Y-82.875
X184.475Y-90.675
X165.425Y-82.875
X165.425Y-90.675
X198.775Y-71.625
X93.975Y-101.95
X93.975Y-109.75
X103.525Y-63.825
X103.525Y-71.625
X208.3Y-109.75
X176.125Y-121.0
X176.125Y-128.8
X222.575Y-82.875
X98.75Y-121.0
X98.75Y-128.8
X79.7Y-128.8
X227.35Y-101.95
X227.35Y-109.75
X79.7Y-121.0
X246.375Y-101.95
X246.375Y-109.75
X208.3Y-101.95
X251.15Y-120.975
X251.15Y-128.775
X132.075Y-101.95
X141.625Y-63.825
X141.625Y-71.625
X127.35Y-82.875
X236.875Y-63.825
X236.875Y-71.625
X132.075Y-109.75
X127.35Y-90.675
X189.25Y-101.95
X189.25Y-109.75
T3
X52.405Y-57.93
X52.405Y-73.17
X54.945Y-57.93
X54.945Y-73.17
X57.485Y-57.93
X57.485Y-73.17
X60.025Y-57.93
X60.025Y-73.17
X62.565Y-57.93
X62.565Y-73.17
X65.105Y-57.93
X65.105Y-73.17
X67.645Y-57.93
X67.645Y-73.17
X70.185Y-57.93
X70.185Y-73.17
X72.725Y-57.93
X72.725Y-73.17
X75.265Y-57.93
X75.265Y-73.17
X77.805Y-57.93
X77.805Y-73.17
X80.345Y-57.93
X80.345Y-73.17
T4
X59.265Y-82.06
X97.365Y-82.06
X103.715Y-79.52
X240.215Y-120.16
X187.815Y-63.01
X65.615Y-79.52
X222.79Y-98.57
X246.565Y-117.62
X102.115Y-101.11
X194.165Y-60.47
X108.465Y-98.57
X79.89Y-60.47
X216.44Y-101.11
X73.54Y-63.01
X203.715Y-98.57
X197.365Y-101.11
X87.815Y-120.16
X140.215Y-101.11
X184.665Y-98.57
X89.415Y-98.57
X78.315Y-82.06
X83.065Y-101.11
X84.665Y-79.52
X146.565Y-98.57
X168.79Y-63.01
X175.14Y-60.47
X178.315Y-101.11
X163.893Y-120.206
X170.243Y-117.665
X94.165Y-117.62
X156.09Y-60.47
X154.368Y-120.206
X155.678Y-118.745
X160.678Y-118.245
X160.719Y-117.665
X149.74Y-63.01
X130.665Y-63.01
X137.015Y-60.47
X154.465Y-82.06
X160.815Y-79.52
X159.265Y-101.11
X165.615Y-98.57
X155.638Y-127.825
X161.988Y-125.285
X217.99Y-79.52
X64.015Y-101.085
X70.365Y-98.545
X111.615Y-63.01
X117.965Y-60.47
X211.64Y-82.06
X225.915Y-63.01
X232.265Y-60.47
X68.79Y-120.16
X75.14Y-117.62
X221.165Y-120.16
X227.515Y-117.62
X141.79Y-79.52
X230.69Y-82.06
X173.565Y-82.06
X135.44Y-82.06
X92.565Y-62.985
X98.915Y-60.445
X237.04Y-79.52
X206.89Y-63.01
X213.24Y-60.47
X116.39Y-82.06
X122.74Y-79.52
X179.915Y-79.52
X241.79Y-98.57
X192.615Y-82.06
X121.165Y-101.11
X54.465Y-63.01
X235.44Y-101.11
X60.815Y-60.47
X198.965Y-79.52
X127.515Y-98.57
T5
X167.52Y-65.55
X177.68Y-65.55
X77.045Y-84.6
X87.205Y-84.6
X153.195Y-84.6
X168.155Y-103.65
X163.258Y-122.745
X163.355Y-84.6
X153.099Y-122.745
X177.045Y-103.65
X187.205Y-103.65
X157.995Y-103.65
X148.47Y-65.55
X158.63Y-65.55
X129.395Y-65.55
X139.555Y-65.55
X77.68Y-122.7
X224.645Y-65.55
X234.805Y-65.55
X67.52Y-122.7
X62.745Y-103.625
X72.905Y-103.625
X110.345Y-65.55
X120.505Y-65.55
X219.895Y-122.7
X230.055Y-122.7
X153.099Y-122.745
X163.258Y-122.745
X210.37Y-84.6
X220.53Y-84.6
X172.295Y-84.6
X234.17Y-103.65
X244.33Y-103.65
X215.17Y-103.65
X225.33Y-103.65
X205.62Y-65.55
X215.78Y-65.55
X119.895Y-103.65
X130.055Y-103.65
X91.295Y-65.525
X101.455Y-65.525
X229.42Y-84.6
X239.58Y-84.6
X186.545Y-65.55
X196.705Y-65.55
X68.155Y-84.6
X191.345Y-84.6
X201.505Y-84.6
X182.455Y-84.6
X134.17Y-84.6
X144.33Y-84.6
X53.195Y-65.55
X63.355Y-65.55
X57.995Y-84.6
X115.12Y-84.6
X125.28Y-84.6
X96.095Y-84.6
X106.255Y-84.6
X172.784Y-122.745
X81.795Y-103.65
X86.545Y-122.7
X196.095Y-103.65
X206.255Y-103.65
X238.945Y-122.7
X111.005Y-103.65
X138.945Y-103.65
X72.27Y-65.55
X82.43Y-65.55
X149.105Y-103.65
X249.105Y-122.7
X100.845Y-103.65
X96.705Y-122.7
X162.623Y-122.745
X91.955Y-103.65
T6
X110.553Y-129.731
X205.803Y-129.731
X110.553Y-129.731
X205.803Y-129.731
X91.504Y-129.731
X224.853Y-129.731
T7
X234.5Y-84.6
X229.725Y-65.55
X239.25Y-103.65
X196.425Y-84.6
X77.35Y-65.55
X210.7Y-65.55
X124.975Y-103.65
X177.375Y-84.6
X58.275Y-65.55
X63.075Y-84.6
X120.2Y-84.6
X220.25Y-103.65
X96.375Y-65.525
X191.625Y-65.55
X172.6Y-65.55
X144.025Y-103.65
X201.175Y-103.65
X182.125Y-103.65
X110.553Y-114.49
X105.925Y-103.65
X101.175Y-84.6
X167.703Y-122.745
X244.025Y-122.7
X91.625Y-122.7
X82.125Y-84.6
X205.803Y-114.49
X153.55Y-65.55
X86.875Y-103.65
X158.178Y-122.745
X163.075Y-103.65
X91.504Y-114.49
X224.853Y-114.49
X158.275Y-84.6
X134.475Y-65.55
X205.803Y-114.49
X72.6Y-122.7
X158.178Y-122.745
X115.425Y-65.55
X110.553Y-114.49
X224.975Y-122.7
X67.825Y-103.625
X215.45Y-84.6
X139.25Y-84.6
T0
M30
