0
SECTION
2
HEADER
9
$INSUNITS
70
4
9
$ACADVER
1
AC1014
9
$HANDSEED
5
FFFF
0
ENDSEC
0
SECTION
2
TABLES
0
TABLE
2
VPORT
5
8
100
AcDbSymbolTable
0
ENDTAB
0
TABLE
2
LTYPE
5
5
100
AcDbSymbolTable
0
LTYPE
5
14
100
AcDbSymbolTableRecord
100
AcDbLinetypeTableRecord
2
BYBLOCK
70
0
0
LTYPE
5
15
100
AcDbSymbolTableRecord
100
AcDbLinetypeTableRecord
2
BYLAYER
70
0
0
ENDTAB
0
TABLE
2
LAYER
5
2
100
AcDbSymbolTable
70
2
0
LAYER
5
50
100
AcDbSymbolTableRecord
100
AcDbLayerTableRecord
2
0
70
0
6
CONTINUOUS
0
ENDTAB
0
TABLE
2
STYLE
5
3
100
AcDbSymbolTable
70
1
0
STYLE
5
11
100
AcDbSymbolTableRecord
100
AcDbTextStyleTableRecord
2
STANDARD
70
0
0
ENDTAB
0
TABLE
2
VIEW
5
6
100
AcDbSymbolTable
70
0
0
ENDTAB
0
TABLE
2
UCS
5
7
100
AcDbSymbolTable
70
0
0
ENDTAB
0
TABLE
2
APPID
5
9
100
AcDbSymbolTable
70
2
0
APPID
5
12
100
AcDbSymbolTableRecord
100
AcDbRegAppTableRecord
2
ACAD
70
0
0
ENDTAB
0
TABLE
2
DIMSTYLE
5
A
100
AcDbSymbolTable
70
1
0
ENDTAB
0
TABLE
2
BLOCK_RECORD
5
1
100
AcDbSymbolTable
70
1
0
BLOCK_RECORD
5
1F
100
AcDbSymbolTableRecord
100
AcDbBlockTableRecord
2
*MODEL_SPACE
0
BLOCK_RECORD
5
1B
100
AcDbSymbolTableRecord
100
AcDbBlockTableRecord
2
*PAPER_SPACE
0
ENDTAB
0
ENDSEC
0
SECTION
2
BLOCKS
0
BLOCK
5
20
100
AcDbEntity
100
AcDbBlockBegin
2
*MODEL_SPACE
0
ENDBLK
5
21
100
AcDbEntity
100
AcDbBlockEnd
0
BLOCK
5
1C
100
AcDbEntity
100
AcDbBlockBegin
2
*PAPER_SPACE
0
ENDBLK
5
1D
100
AcDbEntity
100
AcDbBlockEnd
0
ENDSEC
0
SECTION
2
ENTITIES
0
LWPOLYLINE
5
100
100
AcDbEntity
8
0
100
AcDbPolyline
90
8
70
1
43
0.0
10
92.224999999999994
20
-16.524999999999999
10
79.224999999999994
20
-16.524999999999999
42
-0.41421356237309509
10
78.724999999999994
20
-16.024999999999999
10
78.724999999999994
20
-3.0249999999999999
42
-0.41421356237309509
10
79.224999999999994
20
-2.5249999999999999
10
92.224999999999994
20
-2.5249999999999928
42
-0.41421356237309509
10
92.725000000000009
20
-3.0249999999999999
10
92.725000000000009
20
-16.024999999999999
42
-0.41421356237309509
0
LWPOLYLINE
5
101
100
AcDbEntity
8
0
100
AcDbPolyline
90
8
70
1
43
0.0
10
45.099999999999994
20
-54.125000000000007
42
-0.41421356237309509
10
44.600000000000001
20
-54.625
10
31.600000000000001
20
-54.625
42
-0.41421356237309509
10
31.100000000000001
20
-54.125000000000007
10
31.100000000000001
20
-41.125
42
-0.41421356237309509
10
31.600000000000001
20
-40.625
10
44.600000000000001
20
-40.625
42
-0.41421356237309509
10
45.099999999999994
20
-41.125
0
LWPOLYLINE
5
102
100
AcDbEntity
8
0
100
AcDbPolyline
90
8
70
1
43
0.0
10
63.650000000000006
20
-40.625
10
50.650000000000006
20
-40.625
42
0.41421356237309509
10
50.150000000000006
20
-41.125
10
50.150000000000006
20
-54.125000000000007
42
0.41421356237309509
10
50.650000000000006
20
-54.625
10
63.650000000000006
20
-54.625
42
0.41421356237309509
10
64.150000000000006
20
-54.125000000000007
10
64.150000000000006
20
-41.125
42
0.41421356237309509
0
LWPOLYLINE
5
103
100
AcDbEntity
8
0
100
AcDbPolyline
90
8
70
1
43
0.0
10
2.5249999999999999
20
-16.024999999999999
10
2.5249999999999999
20
-3.0249999999999999
42
-0.41421356237309509
10
3.0249999999999999
20
-2.5249999999999999
10
16.024999999999999
20
-2.5249999999999995
42
-0.41421356237309509
10
16.524999999999999
20
-3.0249999999999999
10
16.525000000000002
20
-16.024999999999999
42
-0.41421356237309509
10
16.024999999999999
20
-16.524999999999999
10
3.0249999999999999
20
-16.525000000000002
42
-0.41421356237309509
0
LWPOLYLINE
5
104
100
AcDbEntity
8
0
100
AcDbPolyline
90
14
70
1
43
0.0
10
163.68750000000003
20
-72.675000000000011
42
-0.41421356237309509
10
163.1875
20
-72.174999999999997
10
163.1875
20
-58.174999999999997
42
-0.41421356237309509
10
163.68750000000003
20
-57.674999999999997
10
179.21250000000001
20
-57.67499999999999
42
-0.41421356237309509
10
179.71250000000001
20
-58.174999999999997
10
179.71250000000001
20
-59.675000000000004
10
182.71250000000003
20
-59.674999999999997
42
-0.41421356237309509
10
183.21250000000003
20
-60.174999999999997
10
183.21250000000003
20
-73.174999999999997
42
-0.41421356237309509
10
182.71250000000003
20
-73.674999999999997
10
169.71250000000001
20
-73.675000000000011
42
-0.41421356237309509
10
169.21250000000001
20
-73.174999999999997
10
169.21250000000001
20
-72.674999999999997
0
LWPOLYLINE
5
105
100
AcDbEntity
8
0
100
AcDbPolyline
90
8
70
1
43
0.0
10
126.35000000000002
20
-41.125
42
-0.41421356237309509
10
126.85000000000001
20
-40.625
10
139.84999999999999
20
-40.624999999999993
42
-0.41421356237309509
10
140.34999999999999
20
-41.125
10
140.34999999999999
20
-54.125000000000007
42
-0.41421356237309509
10
139.84999999999999
20
-54.625
10
126.85000000000001
20
-54.625000000000014
42
-0.41421356237309509
10
126.34999999999999
20
-54.125000000000007
0
LWPOLYLINE
5
106
100
AcDbEntity
8
0
100
AcDbPolyline
90
8
70
1
43
0.0
10
54.125000000000007
20
-16.524999999999999
10
41.125
20
-16.524999999999999
42
-0.41421356237309509
10
40.625
20
-16.024999999999999
10
40.625
20
-3.0249999999999999
42
-0.41421356237309509
10
41.125
20
-2.5249999999999999
10
54.125000000000007
20
-2.5250000000000017
42
-0.41421356237309509
10
54.625
20
-3.0249999999999999
10
54.625
20
-16.024999999999999
42
-0.41421356237309509
0
LWPOLYLINE
5
107
100
AcDbEntity
8
0
100
AcDbPolyline
90
8
70
1
43
0.0
10
64.9375
20
-35.575000000000003
42
-0.41421356237309509
10
64.4375
20
-35.075000000000003
10
64.4375
20
-22.074999999999999
42
-0.41421356237309509
10
64.9375
20
-21.575000000000003
10
77.9375
20
-21.575000000000003
42
-0.41421356237309509
10
78.4375
20
-22.074999999999999
10
78.4375
20
-35.075000000000003
42
-0.41421356237309509
10
77.9375
20
-35.575000000000003
0
LWPOLYLINE
5
108
100
AcDbEntity
8
0
100
AcDbPolyline
90
8
70
1
43
0.0
10
116.53750000000001
20
-35.075000000000003
10
116.53750000000001
20
-22.074999999999999
42
0.41421356237309509
10
116.03749999999999
20
-21.575000000000003
10
103.03750000000001
20
-21.575000000000003
42
0.41421356237309509
10
102.53749999999999
20
-22.074999999999999
10
102.53749999999999
20
-35.075000000000003
42
0.41421356237309509
10
103.03750000000001
20
-35.575000000000003
10
116.03749999999999
20
-35.575000000000003
42
0.41421356237309509
0
LWPOLYLINE
5
109
100
AcDbEntity
8
0
100
AcDbPolyline
90
8
70
1
43
0.0
10
135.08750000000001
20
-21.575000000000003
10
122.08750000000002
20
-21.575000000000003
42
0.41421356237309509
10
121.58750000000001
20
-22.074999999999999
10
121.58750000000001
20
-35.075000000000003
42
0.41421356237309509
10
122.08750000000002
20
-35.575000000000003
10
135.08750000000001
20
-35.575000000000003
42
0.41421356237309509
10
135.58750000000001
20
-35.075000000000003
10
135.58750000000001
20
-22.074999999999999
42
0.41421356237309509
0
LWPOLYLINE
5
110
100
AcDbEntity
8
0
100
AcDbPolyline
90
8
70
1
43
0.0
10
120.8
20
-40.624999999999993
42
-0.41421356237309509
10
121.30000000000001
20
-41.125
10
121.29999999999998
20
-54.125000000000007
42
-0.41421356237309509
10
120.8
20
-54.625
10
107.80000000000001
20
-54.625000000000014
42
-0.41421356237309509
10
107.30000000000001
20
-54.125000000000007
10
107.30000000000001
20
-41.125
42
-0.41421356237309509
10
107.80000000000001
20
-40.625
0
LWPOLYLINE
5
111
100
AcDbEntity
8
0
100
AcDbPolyline
90
8
70
1
43
0.0
10
178.73750000000001
20
-35.075000000000003
10
178.73750000000001
20
-22.074999999999999
42
-0.41421356237309509
10
179.23750000000001
20
-21.575000000000003
10
192.23750000000001
20
-21.574999999999992
42
-0.41421356237309509
10
192.73750000000004
20
-22.074999999999999
10
192.73750000000004
20
-35.075000000000003
42
-0.41421356237309509
10
192.23750000000001
20
-35.575000000000003
10
179.23750000000001
20
-35.57500000000001
42
-0.41421356237309509
0
LWPOLYLINE
5
112
100
AcDbEntity
8
0
100
AcDbPolyline
90
8
70
1
43
0.0
10
97.487500000000011
20
-35.075000000000003
10
97.487500000000011
20
-22.074999999999999
42
0.41421356237309509
10
96.987500000000011
20
-21.575000000000003
10
83.987499999999997
20
-21.575000000000003
42
0.41421356237309509
10
83.487499999999983
20
-22.074999999999999
10
83.487499999999983
20
-35.075000000000003
42
0.41421356237309509
10
83.987499999999997
20
-35.575000000000003
10
96.987500000000011
20
-35.575000000000003
42
0.41421356237309509
0
LWPOLYLINE
5
113
100
AcDbEntity
8
0
100
AcDbPolyline
90
8
70
1
43
0.0
10
177.94999999999999
20
-40.624999999999993
42
-0.41421356237309509
10
178.44999999999999
20
-41.125
10
178.44999999999999
20
-54.125000000000007
42
-0.41421356237309509
10
177.94999999999999
20
-54.625
10
164.95000000000002
20
-54.625000000000014
42
-0.41421356237309509
10
164.44999999999999
20
-54.125000000000007
10
164.44999999999999
20
-41.125
42
-0.41421356237309509
10
164.95000000000002
20
-40.625
0
LWPOLYLINE
5
114
100
AcDbEntity
8
0
100
AcDbPolyline
90
8
70
1
43
0.0
10
197.00000000000003
20
-40.625
10
184.00000000000003
20
-40.625
42
0.41421356237309509
10
183.5
20
-41.125
10
183.5
20
-54.125000000000007
42
0.41421356237309509
10
184.00000000000003
20
-54.625
10
197.00000000000003
20
-54.625
42
0.41421356237309509
10
197.5
20
-54.125000000000007
10
197.50000000000003
20
-41.125
42
0.41421356237309509
0
LWPOLYLINE
5
115
100
AcDbEntity
8
0
100
AcDbPolyline
90
14
70
1
43
0.0
10
30.3125
20
-73.674999999999997
10
17.3125
20
-73.674999999999997
42
-0.41421356237309509
10
16.8125
20
-73.174999999999997
10
16.812500000000004
20
-60.174999999999997
42
-0.41421356237309509
10
17.3125
20
-59.675000000000004
10
20.312499999999982
20
-59.675000000000004
10
20.312499999999993
20
-58.174999999999997
42
-0.41421356237309509
10
20.812499999999989
20
-57.674999999999997
10
26.812499999999968
20
-57.67499999999999
42
-0.41421356237309509
10
27.312499999999975
20
-58.174999999999997
10
27.312499999999975
20
-59.675000000000004
10
30.3125
20
-59.675000000000004
42
-0.41421356237309509
10
30.812500000000004
20
-60.174999999999997
10
30.8125
20
-73.174999999999997
42
-0.41421356237309509
0
LWPOLYLINE
5
116
100
AcDbEntity
8
0
100
AcDbPolyline
90
8
70
1
43
0.0
10
116.03749999999999
20
-59.675000000000004
10
103.03750000000001
20
-59.675000000000004
42
0.41421356237309509
10
102.53749999999999
20
-60.174999999999997
10
102.53749999999999
20
-73.174999999999997
42
0.41421356237309509
10
103.03750000000001
20
-73.674999999999997
10
116.03749999999999
20
-73.674999999999997
42
0.41421356237309509
10
116.53750000000001
20
-73.174999999999997
10
116.53750000000001
20
-60.174999999999997
42
0.41421356237309509
0
LWPOLYLINE
5
117
100
AcDbEntity
8
0
100
AcDbPolyline
90
14
70
1
43
0.0
10
39.362500000000004
20
-58.174999999999997
42
-0.41421356237309509
10
39.862499999999997
20
-57.674999999999997
10
45.862499999999997
20
-57.674999999999997
42
-0.41421356237309509
10
46.362499999999997
20
-58.174999999999997
10
46.362499999999997
20
-59.675000000000004
10
49.362500000000004
20
-59.675000000000004
42
-0.41421356237309509
10
49.862499999999997
20
-60.174999999999997
10
49.862499999999997
20
-73.174999999999997
42
-0.41421356237309509
10
49.362500000000004
20
-73.674999999999997
10
36.362499999999997
20
-73.674999999999997
42
-0.41421356237309509
10
35.862500000000004
20
-73.174999999999997
10
35.862500000000004
20
-60.174999999999997
42
-0.41421356237309509
10
36.362499999999997
20
-59.675000000000004
10
39.362500000000004
20
-59.675000000000004
0
LWPOLYLINE
5
118
100
AcDbEntity
8
0
100
AcDbPolyline
90
8
70
1
43
0.0
10
69.200000000000003
20
-54.125000000000007
10
69.200000000000003
20
-41.125
42
-0.41421356237309509
10
69.700000000000003
20
-40.625
10
82.700000000000017
20
-40.624999999999993
42
-0.41421356237309509
10
83.200000000000003
20
-41.125
10
83.200000000000003
20
-54.125000000000007
42
-0.41421356237309509
10
82.700000000000017
20
-54.625
10
69.700000000000003
20
-54.625
42
-0.41421356237309509
0
LWPOLYLINE
5
119
100
AcDbEntity
8
0
100
AcDbPolyline
90
8
70
1
43
0.0
10
39.837499999999999
20
-21.575000000000003
10
26.837499999999999
20
-21.575000000000003
42
0.41421356237309509
10
26.337499999999999
20
-22.074999999999999
10
26.337499999999999
20
-35.075000000000003
42
0.41421356237309509
10
26.837499999999999
20
-35.575000000000003
10
39.837499999999999
20
-35.575000000000003
42
0.41421356237309509
10
40.337500000000006
20
-35.075000000000003
10
40.337500000000006
20
-22.074999999999999
42
0.41421356237309509
0
LWPOLYLINE
5
120
100
AcDbEntity
8
0
100
AcDbPolyline
90
8
70
1
43
0.0
10
21.287500000000001
20
-35.075000000000003
42
-0.41421356237309509
10
20.787500000000001
20
-35.575000000000003
10
7.7875000000000005
20
-35.575000000000003
42
-0.41421356237309509
10
7.2874999999999996
20
-35.075000000000003
10
7.2875000000000023
20
-22.074999999999999
42
-0.41421356237309509
10
7.7875000000000005
20
-21.575000000000003
10
20.787500000000001
20
-21.575000000000003
42
-0.41421356237309509
10
21.287500000000001
20
-22.074999999999999
0
LWPOLYLINE
5
121
100
AcDbEntity
8
0
100
AcDbPolyline
90
8
70
1
43
0.0
10
130.32499999999999
20
-2.5249999999999999
10
117.32500000000002
20
-2.5249999999999999
42
0.41421356237309509
10
116.82500000000002
20
-3.0249999999999999
10
116.82500000000002
20
-16.024999999999999
42
0.41421356237309509
10
117.32500000000002
20
-16.524999999999999
10
130.32499999999999
20
-16.525000000000002
42
0.41421356237309509
10
130.82499999999999
20
-16.024999999999999
10
130.82499999999999
20
-3.0249999999999999
42
0.41421356237309509
0
LWPOLYLINE
5
122
100
AcDbEntity
8
0
100
AcDbPolyline
90
8
70
1
43
0.0
10
149.375
20
-16.524999999999999
10
136.375
20
-16.525000000000006
42
-0.41421356237309509
10
135.875
20
-16.024999999999999
10
135.875
20
-3.0249999999999999
42
-0.41421356237309509
10
136.375
20
-2.5249999999999999
10
149.375
20
-2.5249999999999928
42
-0.41421356237309509
10
149.875
20
-3.0249999999999999
10
149.875
20
-16.024999999999999
42
-0.41421356237309509
0
LWPOLYLINE
5
123
100
AcDbEntity
8
0
100
AcDbPolyline
90
8
70
1
43
0.0
10
35.075000000000003
20
-2.5250000000000017
42
-0.41421356237309509
10
35.575000000000003
20
-3.0249999999999999
10
35.575000000000003
20
-16.024999999999999
42
-0.41421356237309509
10
35.075000000000003
20
-16.525000000000002
10
22.074999999999999
20
-16.524999999999999
42
-0.41421356237309509
10
21.575000000000003
20
-16.024999999999999
10
21.575000000000003
20
-3.0249999999999999
42
-0.41421356237309509
10
22.074999999999999
20
-2.5249999999999999
0
LWPOLYLINE
5
124
100
AcDbEntity
8
0
100
AcDbPolyline
90
8
70
1
43
0.0
10
88.25
20
-41.125
42
-0.41421356237309509
10
88.75
20
-40.625
10
101.75
20
-40.624999999999993
42
-0.41421356237309509
10
102.25000000000001
20
-41.125
10
102.25000000000001
20
-54.125000000000007
42
-0.41421356237309509
10
101.75
20
-54.625
10
88.75
20
-54.625000000000014
42
-0.41421356237309509
10
88.25
20
-54.125000000000007
0
LWPOLYLINE
5
125
100
AcDbEntity
8
0
100
AcDbPolyline
90
8
70
1
43
0.0
10
174.47500000000002
20
-16.525000000000006
42
-0.41421356237309509
10
173.97500000000002
20
-16.024999999999999
10
173.97500000000002
20
-3.0249999999999999
42
-0.41421356237309509
10
174.47500000000002
20
-2.5249999999999999
10
187.47499999999999
20
-2.5249999999999928
42
-0.41421356237309509
10
187.97499999999999
20
-3.0249999999999999
10
187.97499999999999
20
-16.024999999999999
42
-0.41421356237309509
10
187.47499999999999
20
-16.525000000000002
0
LWPOLYLINE
5
126
100
AcDbEntity
8
0
100
AcDbPolyline
90
8
70
1
43
0.0
10
154.63750000000002
20
-35.075000000000003
42
-0.41421356237309509
10
154.13749999999999
20
-35.575000000000003
10
141.13749999999999
20
-35.57500000000001
42
-0.41421356237309509
10
140.63749999999999
20
-35.075000000000003
10
140.63749999999999
20
-22.074999999999999
42
-0.41421356237309509
10
141.13749999999999
20
-21.575000000000003
10
154.13749999999999
20
-21.574999999999992
42
-0.41421356237309509
10
154.63750000000002
20
-22.074999999999999
0
LWPOLYLINE
5
127
100
AcDbEntity
8
0
100
AcDbPolyline
90
8
70
1
43
0.0
10
173.1875
20
-21.575000000000003
10
160.1875
20
-21.575000000000003
42
0.41421356237309509
10
159.6875
20
-22.074999999999999
10
159.6875
20
-35.075000000000003
42
0.41421356237309509
10
160.1875
20
-35.575000000000003
10
173.1875
20
-35.575000000000003
42
0.41421356237309509
10
173.68750000000003
20
-35.075000000000003
10
173.68750000000003
20
-22.074999999999999
42
0.41421356237309509
0
LWPOLYLINE
5
128
100
AcDbEntity
8
0
100
AcDbPolyline
90
8
70
1
43
0.0
10
158.90000000000001
20
-40.625
10
145.90000000000001
20
-40.625
42
0.41421356237309509
10
145.40000000000001
20
-41.125
10
145.40000000000001
20
-54.125000000000007
42
0.41421356237309509
10
145.90000000000001
20
-54.625
10
158.90000000000001
20
-54.625
42
0.41421356237309509
10
159.40000000000001
20
-54.125000000000007
10
159.40000000000001
20
-41.125
42
0.41421356237309509
0
LWPOLYLINE
5
129
100
AcDbEntity
8
0
100
AcDbPolyline
90
8
70
1
43
0.0
10
67.9375
20
-58.174999999999997
10
67.9375
20
-72.174999999999997
42
0.41421356237309509
10
68.4375
20
-72.674999999999997
10
74.4375
20
-72.674999999999997
42
0.41421356237309509
10
74.9375
20
-72.174999999999997
10
74.9375
20
-58.174999999999997
42
0.41421356237309509
10
74.4375
20
-57.674999999999997
10
68.4375
20
-57.674999999999997
42
0.41421356237309509
0
LWPOLYLINE
5
130
100
AcDbEntity
8
0
100
AcDbPolyline
90
14
70
1
43
0.0
10
202.26249999999999
20
-73.174999999999997
10
202.26249999999999
20
-60.174999999999997
42
0.41421356237309509
10
201.76249999999999
20
-59.675000000000004
10
198.76249999999996
20
-59.675000000000004
10
198.76249999999996
20
-58.174999999999997
42
0.41421356237309509
10
198.26249999999993
20
-57.674999999999997
10
192.26249999999996
20
-57.674999999999997
42
0.41421356237309509
10
191.76249999999996
20
-58.174999999999997
10
191.76249999999996
20
-59.675000000000004
10
188.76249999999999
20
-59.675000000000004
42
0.41421356237309509
10
188.26249999999999
20
-60.174999999999997
10
188.26249999999999
20
-73.174999999999997
42
0.41421356237309509
10
188.76249999999999
20
-73.674999999999997
10
201.76249999999999
20
-73.674999999999997
42
0.41421356237309509
0
LWPOLYLINE
5
131
100
AcDbEntity
8
0
100
AcDbPolyline
90
8
70
1
43
0.0
10
111.27500000000001
20
-16.524999999999999
10
98.275000000000006
20
-16.525000000000006
42
-0.41421356237309509
10
97.77500000000002
20
-16.024999999999999
10
97.775000000000006
20
-3.0249999999999999
42
-0.41421356237309509
10
98.275000000000006
20
-2.5249999999999999
10
111.27500000000001
20
-2.5249999999999928
42
-0.41421356237309509
10
111.77500000000002
20
-3.0249999999999999
10
111.77500000000002
20
-16.024999999999999
42
-0.41421356237309509
0
LWPOLYLINE
5
132
100
AcDbEntity
8
0
100
AcDbPolyline
90
8
70
1
43
0.0
10
73.674999999999997
20
-16.024999999999999
10
73.674999999999997
20
-3.0249999999999999
42
0.41421356237309509
10
73.174999999999997
20
-2.5249999999999999
10
60.174999999999997
20
-2.5249999999999999
42
0.41421356237309509
10
59.675000000000004
20
-3.0249999999999999
10
59.675000000000004
20
-16.024999999999999
42
0.41421356237309509
10
60.174999999999997
20
-16.524999999999999
10
73.174999999999997
20
-16.525000000000002
42
0.41421356237309509
0
LWPOLYLINE
5
133
100
AcDbEntity
8
0
100
AcDbPolyline
90
8
70
1
43
0.0
10
155.42500000000001
20
-16.525000000000006
42
-0.41421356237309509
10
154.92500000000001
20
-16.024999999999999
10
154.92500000000001
20
-3.0249999999999999
42
-0.41421356237309509
10
155.42500000000001
20
-2.5249999999999999
10
168.42500000000001
20
-2.5249999999999928
42
-0.41421356237309509
10
168.92500000000001
20
-3.0249999999999999
10
168.92500000000001
20
-16.024999999999999
42
-0.41421356237309509
10
168.42500000000001
20
-16.524999999999999
0
LWPOLYLINE
5
134
100
AcDbEntity
8
0
100
AcDbPolyline
90
4
70
1
43
0.0
10
204.78750000000002
20
-76.200000000000017
10
0
20
-76.200000000000017
10
0
20
0
10
204.78750000000002
20
0
0
LINE
5
135
100
AcDbEntity
8
0
100
AcDbLine
10
103.03750000000001
20
-59.675000000000004
30
0
11
116.03749999999999
21
-59.675000000000004
31
0
0
LINE
5
136
100
AcDbEntity
8
0
100
AcDbLine
10
103.03750000000001
20
-73.674999999999997
30
0
11
116.03749999999999
21
-73.674999999999997
31
0
0
LINE
5
137
100
AcDbEntity
8
0
100
AcDbLine
10
102.53749999999999
20
-60.174999999999997
30
0
11
102.53749999999999
21
-73.174999999999997
31
0
0
LWPOLYLINE
5
138
100
AcDbEntity
8
0
100
AcDbPolyline
90
8
70
1
43
0.0
10
25.550000000000001
20
-40.625
10
12.550000000000001
20
-40.625
42
0.41421356237309509
10
12.050000000000001
20
-41.125
10
12.050000000000001
20
-54.125000000000007
42
0.41421356237309509
10
12.550000000000001
20
-54.625
10
25.550000000000001
20
-54.625
42
0.41421356237309509
10
26.050000000000004
20
-54.125000000000007
10
26.050000000000001
20
-41.125
42
0.41421356237309509
0
LWPOLYLINE
5
139
100
AcDbEntity
8
0
100
AcDbPolyline
90
8
70
1
43
0.0
10
59.387500000000003
20
-35.075000000000003
42
-0.41421356237309509
10
58.88750000000001
20
-35.575000000000003
10
45.887500000000003
20
-35.575000000000003
42
-0.41421356237309509
10
45.387500000000003
20
-35.075000000000003
10
45.387500000000003
20
-22.074999999999999
42
-0.41421356237309509
10
45.887500000000003
20
-21.575000000000003
10
58.88750000000001
20
-21.575000000000003
42
-0.41421356237309509
10
59.387500000000003
20
-22.074999999999999
0
LINE
5
140
100
AcDbEntity
8
0
100
AcDbLine
10
116.53750000000001
20
-60.174999999999997
30
0
11
116.53750000000001
21
-73.174999999999997
31
0
0
ARC
5
141
100
AcDbEntity
8
0
100
AcDbCircle
10
103.03750000000001
20
-60.174999999999997
30
0
40
0.49999999999999822
210
0
220
-0
230
1
100
AcDbArc
50
90
51
180
0
ARC
5
142
100
AcDbEntity
8
0
100
AcDbCircle
10
116.03749999999999
20
-60.174999999999997
30
0
40
0.50000000000000711
210
0
220
0
230
1
100
AcDbArc
50
0
51
90
0
ARC
5
143
100
AcDbEntity
8
0
100
AcDbCircle
10
116.03749999999999
20
-73.174999999999997
30
0
40
0.49999999999999822
210
0
220
0
230
1
100
AcDbArc
50
-90
51
0
0
ARC
5
144
100
AcDbEntity
8
0
100
AcDbCircle
10
103.03750000000001
20
-73.174999999999997
30
0
40
0.50000000000000711
210
0
220
0
230
1
100
AcDbArc
50
180
51
270
0
ENDSEC
0
SECTION
2
OBJECTS
0
DICTIONARY
5
C
100
AcDbDictionary
3
ACAD_GROUP
350
D
3
ACAD_MLINESTYLE
350
17
0
DICTIONARY
5
D
100
AcDbDictionary
0
DICTIONARY
5
1A
330
C
100
AcDbDictionary
0
DICTIONARY
5
17
100
AcDbDictionary
0
ENDSEC
0
EOF
