0
SECTION
2
HEADER
9
$INSUNITS
70
4
9
$ACADVER
1
AC1014
9
$HANDSEED
5
FFFF
0
ENDSEC
0
SECTION
2
TABLES
0
TABLE
2
VPORT
5
8
100
AcDbSymbolTable
0
ENDTAB
0
TABLE
2
LTYPE
5
5
100
AcDbSymbolTable
0
LTYPE
5
14
100
AcDbSymbolTableRecord
100
AcDbLinetypeTableRecord
2
BYBLOCK
70
0
0
LTYPE
5
15
100
AcDbSymbolTableRecord
100
AcDbLinetypeTableRecord
2
BYLAYER
70
0
0
ENDTAB
0
TABLE
2
LAYER
5
2
100
AcDbSymbolTable
70
2
0
LAYER
5
50
100
AcDbSymbolTableRecord
100
AcDbLayerTableRecord
2
0
70
0
6
CONTINUOUS
0
ENDTAB
0
TABLE
2
STYLE
5
3
100
AcDbSymbolTable
70
1
0
STYLE
5
11
100
AcDbSymbolTableRecord
100
AcDbTextStyleTableRecord
2
STANDARD
70
0
0
ENDTAB
0
TABLE
2
VIEW
5
6
100
AcDbSymbolTable
70
0
0
ENDTAB
0
TABLE
2
UCS
5
7
100
AcDbSymbolTable
70
0
0
ENDTAB
0
TABLE
2
APPID
5
9
100
AcDbSymbolTable
70
2
0
APPID
5
12
100
AcDbSymbolTableRecord
100
AcDbRegAppTableRecord
2
ACAD
70
0
0
ENDTAB
0
TABLE
2
DIMSTYLE
5
A
100
AcDbSymbolTable
70
1
0
ENDTAB
0
TABLE
2
BLOCK_RECORD
5
1
100
AcDbSymbolTable
70
1
0
BLOCK_RECORD
5
1F
100
AcDbSymbolTableRecord
100
AcDbBlockTableRecord
2
*MODEL_SPACE
0
BLOCK_RECORD
5
1B
100
AcDbSymbolTableRecord
100
AcDbBlockTableRecord
2
*PAPER_SPACE
0
ENDTAB
0
ENDSEC
0
SECTION
2
BLOCKS
0
BLOCK
5
20
100
AcDbEntity
100
AcDbBlockBegin
2
*MODEL_SPACE
0
ENDBLK
5
21
100
AcDbEntity
100
AcDbBlockEnd
0
BLOCK
5
1C
100
AcDbEntity
100
AcDbBlockBegin
2
*PAPER_SPACE
0
ENDBLK
5
1D
100
AcDbEntity
100
AcDbBlockEnd
0
ENDSEC
0
SECTION
2
ENTITIES
0
LWPOLYLINE
5
100
100
AcDbEntity
8
0
100
AcDbPolyline
90
24
70
1
43
0.0
10
195.27500000000003
20
-19.049999999999976
10
190.5
20
-19.049999999999979
10
190.49999999999997
20
1.6500000000000206
10
0.024999999999995026
20
1.7999999999999972
10
0.024999999999995026
20
-19.049999999999994
10
4.8000000000000034
20
-19.050000000000008
10
4.8000000000000043
20
-38.100000000000009
10
9.5500000000000007
20
-38.100000000000009
10
9.5500000000000007
20
-57.125000000000021
10
13.825000004531036
20
-57.124932687130389
42
-0.41421356237309243
10
14.325067312869621
20
-56.625000004531032
10
24.799653462783311
20
-56.626410153447281
42
-0.99999999999999989
10
24.79951883704409
20
-57.626410144385225
10
14.324932687130399
20
-57.624999995468976
10
14.32500000000001
20
-76.199999999999946
10
204.812501
20
-76.199999999999946
10
204.82500000000002
20
-57.149999999999999
10
200.52499999546899
20
-57.150067312869616
42
-0.41421356237308982
10
200.02493268713039
20
-57.64999999546896
10
191.81203702788483
20
-57.648894328309666
42
-0.99999999999999989
10
191.81217165362409
20
-56.648894337371722
10
200.02506731286962
20
-56.650000004531016
10
200.02500000000001
20
-38.099999999999973
10
195.27500000000003
20
-38.099999999999966
0
CIRCLE
5
101
100
AcDbEntity
8
0
100
AcDbCircle
10
92.893749999999955
20
-54.620000000000033
30
2.7755575615628914e-16
40
1.5239999999999998
210
0
220
-0
230
1
0
CIRCLE
5
102
100
AcDbEntity
8
0
100
AcDbCircle
10
116.70624999999998
20
-54.620000000000047
30
2.7755575615628914e-16
40
1.5239999999999998
210
0
220
-0
230
1
0
CIRCLE
5
103
100
AcDbEntity
8
0
100
AcDbCircle
10
61.803499999999978
20
-58.46550000000002
30
5.5511151231257827e-16
40
1.9939
210
0
220
-0
230
1
0
CIRCLE
5
104
100
AcDbEntity
8
0
100
AcDbCircle
10
42.753499999999988
20
-58.46550000000002
30
5.5511151231257827e-16
40
1.9939
210
0
220
-0
230
1
0
CIRCLE
5
105
100
AcDbEntity
8
0
100
AcDbCircle
10
157.05349999999999
20
-58.465500000000041
30
2.7755575615628914e-16
40
1.9939
210
0
220
-0
230
1
0
CIRCLE
5
106
100
AcDbEntity
8
0
100
AcDbCircle
10
176.10349999999997
20
-58.465500000000041
30
2.7755575615628914e-16
40
1.9939
210
0
220
-0
230
1
0
LINE
5
107
100
AcDbEntity
8
0
100
AcDbLine
10
14.32500000000001
20
-57.125
30
0
11
41.274172245455119
21
-57.128628052267835
31
5.5511151231257827e-16
0
LINE
5
108
100
AcDbEntity
8
0
100
AcDbLine
10
44.233187655667059
20
-57.129026411908413
30
5.5511151231257827e-16
11
60.321858904792371
21
-57.131192361188042
31
5.5511151231257827e-16
0
LINE
5
109
100
AcDbEntity
8
0
100
AcDbLine
10
63.285500305801989
20
-57.131591343606054
30
5.5511151231257827e-16
11
155.5604120068009
21
-57.144013921917974
31
2.7755575615628914e-16
0
LINE
5
110
100
AcDbEntity
8
0
100
AcDbLine
10
158.5469437511544
20
-57.144415985965409
30
2.7755575615628914e-16
11
174.60814633154627
21
-57.146578237255177
31
2.7755575615628914e-16
0
LINE
5
111
100
AcDbEntity
8
0
100
AcDbLine
10
177.59920873588118
20
-57.146980911246068
30
2.7755575615628914e-16
11
200.02500000000001
21
-57.149999999999991
31
0
0
LWPOLYLINE
5
112
100
AcDbEntity
8
0
100
AcDbPolyline
90
4
70
1
43
0.0
10
41.274104932585516
20
-57.628628047736811
10
30.799518782671825
20
-57.627217898820547
42
-0.99999999999999989
10
30.799653408411039
20
-56.627217907882603
10
41.27423955832473
20
-56.62862805679886
42
-0.99999999999999989
0
LINE
5
113
100
AcDbEntity
8
0
100
AcDbLine
10
30.799586095541432
20
-57.127217903351578
30
3.3935114291913306e-16
11
41.274172245455119
21
-57.128628052267835
31
5.5511151231257827e-16
0
LINE
5
114
100
AcDbEntity
8
0
100
AcDbLine
10
24.799586149913701
20
-57.12641014891625
30
2.1576036939344521e-16
11
14.32500000000001
21
-57.125
31
0
0
LWPOLYLINE
5
115
100
AcDbEntity
8
0
100
AcDbPolyline
90
4
70
1
43
0.0
10
44.23325496853667
20
-56.629026416439444
10
49.277590620285451
20
-56.629705513861595
42
-0.99999999999999989
10
49.277455994546237
20
-57.629705504799546
10
44.233120342797456
20
-57.629026407377388
42
-0.99999999999999989
0
LINE
5
116
100
AcDbEntity
8
0
100
AcDbLine
10
49.277523307415841
20
-57.12970550933057
30
5.5511151231257827e-16
11
44.233187655667059
21
-57.129026411908413
31
5.5511151231257827e-16
0
LWPOLYLINE
5
117
100
AcDbEntity
8
0
100
AcDbPolyline
90
4
70
1
43
0.0
10
60.321791591922761
20
-57.631192356657017
10
55.277455940173972
20
-57.63051325923486
42
-0.99999999999999989
10
55.277590565913187
20
-56.630513268296916
10
60.321926217661982
20
-56.631192365719073
42
-0.99999999999999989
0
LINE
5
118
100
AcDbEntity
8
0
100
AcDbLine
10
55.277523253043583
20
-57.130513263765891
30
5.5511151231257827e-16
11
60.321858904792371
21
-57.131192361188042
31
5.5511151231257827e-16
0
LINE
5
119
100
AcDbEntity
8
0
100
AcDbLine
10
191.81210434075444
20
-57.148894332840698
30
1.0164798370266887e-16
11
200.02500000000001
21
-57.149999999999991
31
0
0
LWPOLYLINE
5
120
100
AcDbEntity
8
0
100
AcDbPolyline
90
4
70
1
43
0.0
10
177.59927604875082
20
-56.646980915777092
10
185.81217170799636
20
-56.648086582936401
42
-0.99999999999999989
10
185.81203708225712
20
-57.648086573874345
10
177.59914142301156
20
-57.646980906715044
42
-0.99999999999999989
0
LINE
5
121
100
AcDbEntity
8
0
100
AcDbLine
10
185.81210439512674
20
-57.148086578405369
30
1.7590777245362027e-16
11
177.59920873588118
21
-57.146980911246068
31
2.7755575615628914e-16
0
LWPOLYLINE
5
122
100
AcDbEntity
8
0
100
AcDbPolyline
90
4
70
1
43
0.0
10
174.60807901867665
20
-57.646578232724153
10
169.57747770129458
20
-57.645900984296929
42
-0.99999999999999989
10
169.57761232703382
20
-56.645900993358978
10
174.60821364441588
20
-56.646578241786202
42
-0.99999999999999989
0
LINE
5
123
100
AcDbEntity
8
0
100
AcDbLine
10
169.5775450141642
20
-57.145900988827954
30
2.7755575615628914e-16
11
174.60814633154627
21
-57.146578237255177
31
2.7755575615628914e-16
0
LWPOLYLINE
5
124
100
AcDbEntity
8
0
100
AcDbPolyline
90
4
70
1
43
0.0
10
158.54701106402405
20
-56.644415990496441
10
163.57761238140611
20
-56.645093238923664
42
-0.99999999999999989
10
163.57747775566685
20
-57.645093229861608
10
158.54687643828478
20
-57.644415981434385
42
-0.99999999999999989
0
LINE
5
125
100
AcDbEntity
8
0
100
AcDbLine
10
163.57754506853649
20
-57.145093234392633
30
2.7755575615628914e-16
11
158.5469437511544
21
-57.144415985965409
31
2.7755575615628914e-16
0
LWPOLYLINE
5
126
100
AcDbEntity
8
0
100
AcDbPolyline
90
4
70
1
43
0.0
10
83.35416094536825
20
-57.634293106435351
10
63.285432992932378
20
-57.63159133907503
42
-0.99999999999999989
10
63.285567618671593
20
-56.631591348137079
10
83.354295571107457
20
-56.634293115497407
42
-0.99999999999999989
0
LINE
5
127
100
AcDbEntity
8
0
100
AcDbLine
10
63.285500305801989
20
-57.131591343606054
30
5.5511151231257827e-16
11
83.354228258237853
21
-57.134293110966382
31
4.9474633981604481e-16
0
LWPOLYLINE
5
128
100
AcDbEntity
8
0
100
AcDbPolyline
90
4
70
1
43
0.0
10
129.49161679586771
20
-57.640504395591307
10
89.354160890995971
20
-57.635100860870672
42
-0.99999999999999989
10
89.354295516735192
20
-56.635100869932728
10
129.49175142160692
20
-56.640504404653356
42
-0.99999999999999989
0
LINE
5
129
100
AcDbEntity
8
0
100
AcDbLine
10
89.354228203865574
20
-57.135100865401697
30
4.7669880673096717e-16
11
129.49168410873733
21
-57.140504400122332
31
3.5596846173790024e-16
0
LWPOLYLINE
5
130
100
AcDbEntity
8
0
100
AcDbPolyline
90
4
70
1
43
0.0
10
155.56034469393128
20
-57.64401391738695
10
135.49161674149542
20
-57.641312150026629
42
-0.99999999999999989
10
135.49175136723466
20
-56.641312159088677
10
155.56047931967049
20
-56.644013926449006
42
-0.99999999999999989
0
LINE
5
131
100
AcDbEntity
8
0
100
AcDbLine
10
135.49168405436504
20
-57.141312154557653
30
3.379209286528226e-16
11
155.5604120068009
21
-57.144013921917974
31
2.7755575615628914e-16
0
LWPOLYLINE
5
132
100
AcDbEntity
8
0
100
AcDbPolyline
90
8
70
1
43
0.0
10
26.050000000000004
20
-54.125000000000021
10
26.050000000000004
20
-41.124999999999986
42
0.4142135623730977
10
25.550000000000001
20
-40.624999999999993
10
12.550000000000001
20
-40.624999999999993
42
0.41421356237308593
10
12.05000000000001
20
-41.125
10
12.050000000000002
20
-54.125000000000021
42
0.4142135623730625
10
12.550000000000001
20
-54.625
10
25.550000000000001
20
-54.625000000000014
42
0.41421356237309243
0
LWPOLYLINE
5
133
100
AcDbEntity
8
0
100
AcDbPolyline
90
8
70
1
43
0.0
10
7.2875000000000023
20
-22.074999999999999
10
7.2874999999999961
20
-35.075000000000003
42
0.41421356237308915
10
7.7875000000000005
20
-35.57500000000001
10
20.787500000000001
20
-35.575000000000003
42
0.41421356237308982
10
21.287500000000001
20
-35.075000000000003
10
21.287500000000005
20
-22.074999999999999
42
0.41421356237309243
10
20.787500000000001
20
-21.57500000000001
10
7.7875000000000005
20
-21.57500000000001
42
0.41421356237311135
0
LWPOLYLINE
5
134
100
AcDbEntity
8
0
100
AcDbPolyline
90
8
70
1
43
0.0
10
16.524999999999999
20
-3.0249999999999999
10
16.525000000000002
20
-16.024999999999999
42
-0.41421356237308982
10
16.024999999999999
20
-16.525000000000002
10
3.0249999999999999
20
-16.525000000000002
42
-0.41421356237309337
10
2.5249999999999995
20
-16.024999999999999
10
2.5249999999999995
20
-3.0249999999999999
42
-0.4142135623730947
10
3.0249999999999999
20
-2.5249999999999999
10
16.024999999999999
20
-2.5250000000000004
42
-0.4142135623730957
0
LWPOLYLINE
5
135
100
AcDbEntity
8
0
100
AcDbPolyline
90
8
70
1
43
0.0
10
192.73750000000007
20
-22.074999999999999
10
192.73750000000007
20
-35.075000000000003
42
-0.41421356237307422
10
192.23750000000001
20
-35.57500000000001
10
179.23750000000001
20
-35.57500000000001
42
-0.41421356237313667
10
178.73750000000001
20
-35.075000000000003
10
178.73750000000001
20
-22.074999999999999
42
-0.41421356237316787
10
179.23750000000001
20
-21.575000000000017
10
192.23750000000001
20
-21.574999999999992
42
-0.41421356237307422
0
LWPOLYLINE
5
136
100
AcDbEntity
8
0
100
AcDbPolyline
90
8
70
1
43
0.0
10
173.97500000000005
20
-3.0249999999999999
10
173.97500000000008
20
-16.024999999999999
42
0.41421356237303786
10
174.47500000000005
20
-16.525000000000016
10
187.47499999999999
20
-16.525000000000013
42
0.41421356237314444
10
187.97499999999999
20
-16.024999999999999
10
187.97499999999999
20
-3.0249999999999999
42
0.4142135623731481
10
187.47499999999999
20
-2.5249999999999737
10
174.47500000000005
20
-2.5250000000000035
42
0.41421356237313045
0
LWPOLYLINE
5
137
100
AcDbEntity
8
0
100
AcDbPolyline
90
8
70
1
43
0.0
10
197.5
20
-54.125000000000021
10
197.50000000000003
20
-41.125
42
0.41421356237306384
10
197.00000000000003
20
-40.625000000000007
10
184.00000000000003
20
-40.625
42
0.41421356237313667
10
183.5
20
-41.125
10
183.5
20
-54.125000000000021
42
0.41421356237321466
10
184.00000000000003
20
-54.624999999999993
10
197.00000000000003
20
-54.625000000000014
42
0.41421356237297541
0
LWPOLYLINE
5
138
100
AcDbEntity
8
0
100
AcDbPolyline
90
14
70
1
43
0.0
10
201.76249999999999
20
-73.674999999999983
10
188.76249999999999
20
-73.674999999999969
42
-0.41421356237316265
10
188.26249999999999
20
-73.174999999999983
10
188.26250000000002
20
-60.174999999999997
42
-0.41421356237298057
10
188.76249999999999
20
-59.675000000000004
10
191.76249999999999
20
-59.675000000000004
10
191.76250000000005
20
-58.174999999999997
42
-0.4142135623730222
10
192.26249999999999
20
-57.674999999999997
10
198.26250000000002
20
-57.674999999999947
42
-0.41421356237305862
10
198.76249999999999
20
-58.174999999999997
10
198.76249999999999
20
-59.675000000000004
10
201.76249999999999
20
-59.674999999999955
42
-0.41421356237311585
10
202.26249999999999
20
-60.174999999999997
10
202.26249999999999
20
-73.174999999999983
42
-0.41421356237316787
0
LWPOLYLINE
5
139
100
AcDbEntity
8
0
100
AcDbPolyline
90
14
70
1
43
0.0
10
17.3125
20
-73.674999999999983
10
30.3125
20
-73.674999999999997
42
0.41421356237313667
10
30.812500000000007
20
-73.174999999999983
10
30.812500000000014
20
-60.17499999999999
42
0.41421356237308982
10
30.3125
20
-59.675000000000004
10
27.312499999999972
20
-59.675000000000004
10
27.312499999999972
20
-58.17499999999999
42
0.4142135623730977
10
26.812499999999968
20
-57.67499999999999
10
20.812499999999989
20
-57.674999999999997
42
0.41421356237307944
10
20.3125
20
-58.174999999999997
10
20.312499999999982
20
-59.675000000000004
10
17.3125
20
-59.674999999999997
42
0.41421356237312756
10
16.812500000000004
20
-60.174999999999997
10
16.812500000000004
20
-73.174999999999983
42
0.4142135623730977
0
LWPOLYLINE
5
140
100
AcDbEntity
8
0
100
AcDbPolyline
90
8
70
1
43
0.0
10
92.224999999999994
20
-16.524999999999995
10
79.22499999999998
20
-16.524999999999999
42
-0.41421356237309509
10
78.724999999999994
20
-16.024999999999999
10
78.724999999999994
20
-3.0249999999999999
42
-0.41421356237306545
10
79.22499999999998
20
-2.5249999999999968
10
92.224999999999994
20
-2.5249999999999986
42
-0.4142135623731022
10
92.725000000000023
20
-3.0249999999999999
10
92.725000000000023
20
-16.024999999999999
42
-0.41421356237311718
0
LWPOLYLINE
5
141
100
AcDbEntity
8
0
100
AcDbPolyline
90
8
70
1
43
0.0
10
98.275000000000006
20
-16.525000000000006
10
111.27500000000001
20
-16.524999999999991
42
0.41421356237310542
10
111.77500000000002
20
-16.024999999999999
10
111.77500000000002
20
-3.0249999999999999
42
0.41421356237309409
10
111.27500000000001
20
-2.5249999999999946
10
98.275000000000006
20
-2.5250000000000195
42
0.4142135623731581
10
97.775000000000034
20
-3.0249999999999999
10
97.775000000000034
20
-16.024999999999999
42
0.41421356237307289
0
LWPOLYLINE
5
142
100
AcDbEntity
8
0
100
AcDbPolyline
90
8
70
1
43
0.0
10
103.03750000000001
20
-21.57500000000001
10
116.03750000000005
20
-21.575000000000003
42
-0.41421356237305862
10
116.53750000000001
20
-22.074999999999999
10
116.53750000000001
20
-35.075000000000003
42
-0.4142135623730534
10
116.03749999999999
20
-35.57500000000001
10
103.03750000000001
20
-35.575000000000003
42
-0.41421356237309243
10
102.53749999999999
20
-35.075000000000003
10
102.53749999999999
20
-22.074999999999999
42
-0.4142135623731002
0
LWPOLYLINE
5
143
100
AcDbEntity
8
0
100
AcDbPolyline
90
8
70
1
43
0.0
10
83.987499999999983
20
-35.575000000000017
10
96.987500000000011
20
-35.575000000000003
42
0.41421356237309243
10
97.487500000000011
20
-35.075000000000003
10
97.487500000000011
20
-22.074999999999999
42
0.41421356237310542
10
96.987500000000011
20
-21.57500000000001
10
83.987499999999983
20
-21.575000000000006
42
0.4142135623730977
10
83.487499999999983
20
-22.074999999999999
10
83.487500000000011
20
-35.075000000000003
42
0.41421356237306384
0
LWPOLYLINE
5
144
100
AcDbEntity
8
0
100
AcDbPolyline
90
8
70
1
43
0.0
10
102.25000000000001
20
-54.125000000000021
10
102.25000000000001
20
-41.125
42
0.41421356237309509
10
101.75
20
-40.624999999999993
10
88.749999999999986
20
-40.625000000000014
42
0.41421356237310542
10
88.250000000000014
20
-41.125
10
88.250000000000014
20
-54.125000000000021
42
0.41421356237295975
10
88.75
20
-54.625000000000021
10
101.75
20
-54.625000000000014
42
0.41421356237310542
0
LWPOLYLINE
5
145
100
AcDbEntity
8
0
100
AcDbPolyline
90
8
70
1
43
0.0
10
121.29999999999998
20
-54.125000000000021
10
121.30000000000001
20
-41.125
42
0.41421356237305862
10
120.80000000000001
20
-40.624999999999986
10
107.80000000000001
20
-40.625000000000007
42
0.4142135623731002
10
107.30000000000001
20
-41.125
10
107.30000000000001
20
-54.125000000000021
42
0.41421356237308982
10
107.80000000000001
20
-54.625000000000021
10
120.8
20
-54.625000000000014
42
0.41421356237311585
0
ENDSEC
0
SECTION
2
OBJECTS
0
DICTIONARY
5
C
100
AcDbDictionary
3
ACAD_GROUP
350
D
3
ACAD_MLINESTYLE
350
17
0
DICTIONARY
5
D
100
AcDbDictionary
0
DICTIONARY
5
1A
330
C
100
AcDbDictionary
0
DICTIONARY
5
17
100
AcDbDictionary
0
ENDSEC
0
EOF
