0
SECTION
2
HEADER
9
$INSUNITS
70
4
9
$ACADVER
1
AC1014
9
$HANDSEED
5
FFFF
0
ENDSEC
0
SECTION
2
TABLES
0
TABLE
2
VPORT
5
8
100
AcDbSymbolTable
0
ENDTAB
0
TABLE
2
LTYPE
5
5
100
AcDbSymbolTable
0
LTYPE
5
14
100
AcDbSymbolTableRecord
100
AcDbLinetypeTableRecord
2
BYBLOCK
70
0
0
LTYPE
5
15
100
AcDbSymbolTableRecord
100
AcDbLinetypeTableRecord
2
BYLAYER
70
0
0
ENDTAB
0
TABLE
2
LAYER
5
2
100
AcDbSymbolTable
70
2
0
LAYER
5
50
100
AcDbSymbolTableRecord
100
AcDbLayerTableRecord
2
0
70
0
6
CONTINUOUS
0
ENDTAB
0
TABLE
2
STYLE
5
3
100
AcDbSymbolTable
70
1
0
STYLE
5
11
100
AcDbSymbolTableRecord
100
AcDbTextStyleTableRecord
2
STANDARD
70
0
0
ENDTAB
0
TABLE
2
VIEW
5
6
100
AcDbSymbolTable
70
0
0
ENDTAB
0
TABLE
2
UCS
5
7
100
AcDbSymbolTable
70
0
0
ENDTAB
0
TABLE
2
APPID
5
9
100
AcDbSymbolTable
70
2
0
APPID
5
12
100
AcDbSymbolTableRecord
100
AcDbRegAppTableRecord
2
ACAD
70
0
0
ENDTAB
0
TABLE
2
DIMSTYLE
5
A
100
AcDbSymbolTable
70
1
0
ENDTAB
0
TABLE
2
BLOCK_RECORD
5
1
100
AcDbSymbolTable
70
1
0
BLOCK_RECORD
5
1F
100
AcDbSymbolTableRecord
100
AcDbBlockTableRecord
2
*MODEL_SPACE
0
BLOCK_RECORD
5
1B
100
AcDbSymbolTableRecord
100
AcDbBlockTableRecord
2
*PAPER_SPACE
0
ENDTAB
0
ENDSEC
0
SECTION
2
BLOCKS
0
BLOCK
5
20
100
AcDbEntity
100
AcDbBlockBegin
2
*MODEL_SPACE
0
ENDBLK
5
21
100
AcDbEntity
100
AcDbBlockEnd
0
BLOCK
5
1C
100
AcDbEntity
100
AcDbBlockBegin
2
*PAPER_SPACE
0
ENDBLK
5
1D
100
AcDbEntity
100
AcDbBlockEnd
0
ENDSEC
0
SECTION
2
ENTITIES
0
LWPOLYLINE
5
100
100
AcDbEntity
8
0
100
AcDbPolyline
90
8
70
1
43
0.0
10
184.1132102448428
20
-42.754210244842774
42
-0.41421356237313667
10
184.6132102448428
20
-42.254210244842767
10
197.61321024484283
20
-42.254210244842781
42
-0.41421356237312629
10
198.11321024484283
20
-42.754210244842774
10
198.11321024484278
20
-55.754210244842781
42
-0.41421356237307422
10
197.61321024484283
20
-56.254210244842767
10
184.6132102448428
20
-56.254210244842753
42
-0.41421356237311585
10
184.1132102448428
20
-55.754210244842781
0
LWPOLYLINE
5
101
100
AcDbEntity
8
0
100
AcDbPolyline
90
8
70
1
43
0.0
10
16.638210244842796
20
-4.154210244842762
10
3.6382102448427958
20
-4.15421024484277
42
0.41421356237308493
10
3.1382102448427958
20
-4.6542102448427514
10
3.1382102448427904
20
-17.654210244842758
42
0.4142135623730937
10
3.6382102448427966
20
-18.154210244842766
10
16.638210244842796
20
-18.154210244842766
42
0.41421356237309243
10
17.138210244842796
20
-17.654210244842758
10
17.138210244842803
20
-4.6542102448427691
42
0.41421356237309509
0
LWPOLYLINE
5
102
100
AcDbEntity
8
0
100
AcDbPolyline
90
8
70
1
43
0.0
10
64.263210244842824
20
-42.25421024484276
42
-0.41421356237307944
10
64.76321024484281
20
-42.754210244842774
10
64.76321024484281
20
-55.754210244842781
42
-0.41421356237307422
10
64.263210244842824
20
-56.254210244842767
10
51.26321024484281
20
-56.25421024484276
42
-0.41421356237310542
10
50.76321024484281
20
-55.754210244842781
10
50.763210244842824
20
-42.754210244842753
42
-0.41421356237311585
10
51.26321024484281
20
-42.254210244842767
0
LWPOLYLINE
5
103
100
AcDbEntity
8
0
100
AcDbPolyline
90
20
70
1
43
0.0
10
121.41321024484279
20
-56.254210244842767
42
0.41421356237309509
10
121.91321024484279
20
-55.754210244842781
10
121.9132102448428
20
-42.754210244842774
42
0.41421356237308465
10
121.41321024484279
20
-42.254210244842753
10
120.7012102448428
20
-42.254210244842767
10
120.70121024484281
20
-41.75421024484276
42
0.41421356237308465
10
120.2012102448428
20
-41.254210244842753
10
114.4512102448428
20
-41.254210244842767
42
0.41421356237310542
10
113.9512102448428
20
-41.75421024484276
10
113.9512102448428
20
-42.254210244842767
10
96.825210244842808
20
-42.254210244842767
10
96.825210244842822
20
-41.75421024484276
42
0.41421356237308465
10
96.325210244842793
20
-41.254210244842753
10
90.575210244842793
20
-41.254210244842767
42
0.41421356237308465
10
90.075210244842822
20
-41.75421024484276
10
90.075210244842793
20
-42.254210244842767
10
89.36321024484279
20
-42.254210244842767
42
0.41421356237311585
10
88.863210244842804
20
-42.754210244842753
10
88.863210244842776
20
-55.754210244842781
42
0.4142135623730534
10
89.36321024484279
20
-56.254210244842788
0
LWPOLYLINE
5
104
100
AcDbEntity
8
0
100
AcDbPolyline
90
8
70
1
43
0.0
10
179.06321024484276
20
-55.754210244842781
10
179.06321024484276
20
-42.754210244842774
42
0.41421356237315754
10
178.56321024484276
20
-42.254210244842753
10
165.56321024484282
20
-42.254210244842767
42
0.41421356237307422
10
165.06321024484279
20
-42.754210244842774
10
165.06321024484279
20
-55.754210244842781
42
0.41421356237308465
10
165.56321024484282
20
-56.254210244842788
10
178.56321024484276
20
-56.254210244842753
42
0.41421356237311585
0
LWPOLYLINE
5
105
100
AcDbEntity
8
0
100
AcDbPolyline
90
8
70
1
43
0.0
10
70.313210244842807
20
-56.254210244842767
10
83.313210244842807
20
-56.254210244842767
42
0.41421356237309509
10
83.813210244842793
20
-55.754210244842781
10
83.813210244842793
20
-42.754210244842774
42
0.41421356237308465
10
83.313210244842807
20
-42.254210244842767
10
70.313210244842807
20
-42.254210244842774
42
0.41421356237309509
10
69.813210244842807
20
-42.754210244842774
10
69.813210244842793
20
-55.754210244842781
42
0.41421356237310542
0
LWPOLYLINE
5
106
100
AcDbEntity
8
0
100
AcDbPolyline
90
8
70
1
43
0.0
10
40.450710244842796
20
-23.204210244842773
10
27.450710244842792
20
-23.204210244842773
42
0.4142135623731002
10
26.950710244842796
20
-23.704210244842763
10
26.950710244842789
20
-36.70421024484277
42
0.41421356237309243
10
27.450710244842792
20
-37.204210244842777
10
40.450710244842796
20
-37.204210244842777
42
0.41421356237308982
10
40.950710244842796
20
-36.70421024484277
10
40.950710244842803
20
-23.704210244842763
42
0.41421356237310542
0
LWPOLYLINE
5
107
100
AcDbEntity
8
0
100
AcDbPolyline
90
8
70
1
43
0.0
10
65.050710244842804
20
-36.70421024484277
10
65.050710244842804
20
-23.704210244842763
42
-0.4142135623731002
10
65.550710244842804
20
-23.204210244842773
10
78.550710244842804
20
-23.204210244842773
42
-0.41421356237309509
10
79.050710244842804
20
-23.704210244842763
10
79.050710244842804
20
-36.70421024484277
42
-0.41421356237308982
10
78.550710244842804
20
-37.204210244842777
10
65.550710244842804
20
-37.204210244842777
42
-0.41421356237308982
0
LWPOLYLINE
5
108
100
AcDbEntity
8
0
100
AcDbPolyline
90
8
70
1
43
0.0
10
160.30071024484278
20
-23.704210244842763
42
-0.41421356237308465
10
160.8007102448428
20
-23.204210244842773
10
173.8007102448428
20
-23.204210244842773
42
-0.41421356237312629
10
174.3007102448428
20
-23.704210244842763
10
174.3007102448428
20
-36.70421024484277
42
-0.41421356237309509
10
173.8007102448428
20
-37.204210244842777
10
160.8007102448428
20
-37.204210244842777
42
-0.41421356237309509
10
160.30071024484278
20
-36.70421024484277
0
LWPOLYLINE
5
109
100
AcDbEntity
8
0
100
AcDbPolyline
90
8
70
1
43
0.0
10
59.500710244842814
20
-23.204210244842773
42
-0.41421356237307422
10
60.000710244842807
20
-23.704210244842763
10
60.000710244842814
20
-36.70421024484277
42
-0.41421356237308982
10
59.500710244842814
20
-37.204210244842777
10
46.5007102448428
20
-37.204210244842777
42
-0.41421356237308982
10
46.0007102448428
20
-36.70421024484277
10
46.000710244842793
20
-23.704210244842763
42
-0.41421356237308465
10
46.5007102448428
20
-23.204210244842773
0
LWPOLYLINE
5
110
100
AcDbEntity
8
0
100
AcDbPolyline
90
8
70
1
43
0.0
10
7.9007102448427933
20
-36.70421024484277
42
0.41421356237309243
10
8.400710244842795
20
-37.204210244842777
10
21.400710244842799
20
-37.20421024484277
42
0.41421356237309243
10
21.900710244842795
20
-36.70421024484277
10
21.900710244842795
20
-23.704210244842763
42
0.4142135623731002
10
21.400710244842799
20
-23.204210244842773
10
8.4007102448427968
20
-23.204210244842773
42
0.41421356237309892
10
7.9007102448427977
20
-23.704210244842763
0
LWPOLYLINE
5
111
100
AcDbEntity
8
0
100
AcDbPolyline
90
8
70
1
43
0.0
10
188.5882102448428
20
-17.654210244842776
10
188.5882102448428
20
-4.6542102448427691
42
0.4142135623731471
10
188.08821024484277
20
-4.154210244842762
10
175.08821024484286
20
-4.1542102448427798
42
0.41421356237312629
10
174.58821024484283
20
-4.6542102448427691
10
174.5882102448428
20
-17.654210244842758
42
0.41421356237312629
10
175.08821024484286
20
-18.154210244842766
10
188.08821024484277
20
-18.154210244842783
42
0.41421356237309509
0
LWPOLYLINE
5
112
100
AcDbEntity
8
0
100
AcDbPolyline
90
8
70
1
43
0.0
10
146.01321024484281
20
-55.754210244842795
42
0.41421356237307422
10
146.51321024484281
20
-56.254210244842788
10
159.51321024484281
20
-56.254210244842767
42
0.41421356237308465
10
160.01321024484281
20
-55.754210244842781
10
160.01321024484281
20
-42.754210244842774
42
0.41421356237309509
10
159.51321024484281
20
-42.254210244842767
10
146.51321024484281
20
-42.254210244842767
42
0.41421356237309509
10
146.01321024484284
20
-42.754210244842774
0
LWPOLYLINE
5
113
100
AcDbEntity
8
0
100
AcDbPolyline
90
8
70
1
43
0.0
10
12.6632102448428
20
-42.754210244842774
10
12.663210244842791
20
-55.754210244842781
42
0.41421356237310542
10
13.163210244842798
20
-56.254210244842767
10
26.163210244842794
20
-56.254210244842767
42
0.41421356237308204
10
26.663210244842798
20
-55.754210244842781
10
26.663210244842812
20
-42.754210244842774
42
0.4142135623731002
10
26.163210244842794
20
-42.254210244842767
10
13.163210244842798
20
-42.254210244842774
42
0.41421356237309509
0
LWPOLYLINE
5
114
100
AcDbEntity
8
0
100
AcDbPolyline
90
8
70
1
43
0.0
10
35.6882102448428
20
-18.154210244842762
42
0.4142135623730977
10
36.188210244842807
20
-17.654210244842758
10
36.188210244842807
20
-4.6542102448427691
42
0.4142135623730977
10
35.6882102448428
20
-4.154210244842762
10
22.688210244842793
20
-4.1542102448427665
42
0.41421356237307944
10
22.1882102448428
20
-4.6542102448427514
10
22.1882102448428
20
-17.654210244842758
42
0.41421356237310802
10
22.688210244842793
20
-18.154210244842766
0
LWPOLYLINE
5
115
100
AcDbEntity
8
0
100
AcDbPolyline
90
8
70
1
43
0.0
10
130.93821024484276
20
-4.154210244842762
10
117.93821024484281
20
-4.154210244842762
42
0.41421356237311585
10
117.43821024484282
20
-4.6542102448427514
10
117.43821024484282
20
-17.654210244842776
42
0.4142135623730534
10
117.93821024484281
20
-18.154210244842766
10
130.93821024484276
20
-18.154210244842766
42
0.41421356237308465
10
131.43821024484279
20
-17.654210244842776
10
131.43821024484279
20
-4.6542102448427691
42
0.41421356237309509
0
LWPOLYLINE
5
116
100
AcDbEntity
8
0
100
AcDbPolyline
90
8
70
1
43
0.0
10
192.85071024484282
20
-37.204210244842777
42
0.41421356237307422
10
193.35071024484284
20
-36.70421024484277
10
193.35071024484284
20
-23.704210244842763
42
0.41421356237308465
10
192.85071024484282
20
-23.204210244842756
10
179.85071024484284
20
-23.204210244842791
42
0.41421356237312629
10
179.35071024484279
20
-23.70421024484278
10
179.35071024484279
20
-36.70421024484277
42
0.4142135623731471
10
179.85071024484282
20
-37.204210244842777
0
LWPOLYLINE
5
117
100
AcDbEntity
8
0
100
AcDbPolyline
90
8
70
1
43
0.0
10
93.338210244842813
20
-17.654210244842776
10
93.338210244842784
20
-4.6542102448427691
42
0.41421356237310542
10
92.838210244842799
20
-4.154210244842762
10
79.838210244842784
20
-4.1542102448427709
42
0.41421356237309509
10
79.338210244842784
20
-4.6542102448427691
10
79.33821024484277
20
-17.654210244842758
42
0.41421356237309509
10
79.838210244842784
20
-18.154210244842766
10
92.838210244842799
20
-18.154210244842766
42
0.41421356237309509
0
LWPOLYLINE
5
118
100
AcDbEntity
8
0
100
AcDbPolyline
90
8
70
1
43
0.0
10
41.238210244842797
20
-4.6542102448427514
10
41.23821024484279
20
-17.654210244842758
42
0.41421356237309509
10
41.738210244842797
20
-18.154210244842766
10
54.738210244842811
20
-18.154210244842766
42
0.41421356237309509
10
55.238210244842804
20
-17.654210244842776
10
55.238210244842811
20
-4.6542102448427514
42
0.4142135623731002
10
54.738210244842811
20
-4.154210244842762
10
41.738210244842797
20
-4.1542102448427709
42
0.41421356237308465
0
LWPOLYLINE
5
119
100
AcDbEntity
8
0
100
AcDbPolyline
90
8
70
1
43
0.0
10
32.213210244842799
20
-56.25421024484276
42
-0.41421356237310542
10
31.713210244842799
20
-55.754210244842781
10
31.713210244842788
20
-42.754210244842774
42
-0.41421356237309509
10
32.213210244842799
20
-42.254210244842767
10
45.213210244842799
20
-42.25421024484276
42
-0.41421356237307944
10
45.713210244842806
20
-42.754210244842753
10
45.713210244842799
20
-55.754210244842781
42
-0.4142135623731002
10
45.213210244842799
20
-56.254210244842767
0
LWPOLYLINE
5
120
100
AcDbEntity
8
0
100
AcDbPolyline
90
8
70
1
43
0.0
10
60.788210244842801
20
-4.1542102448427709
42
0.41421356237309509
10
60.288210244842801
20
-4.6542102448427691
10
60.288210244842801
20
-17.654210244842758
42
0.41421356237313145
10
60.788210244842801
20
-18.154210244842766
10
73.788210244842787
20
-18.154210244842766
42
0.41421356237308982
10
74.288210244842787
20
-17.654210244842758
10
74.288210244842787
20
-4.6542102448427869
42
0.41421356237313145
10
73.788210244842787
20
-4.1542102448427798
0
LWPOLYLINE
5
121
100
AcDbEntity
8
0
100
AcDbPolyline
90
8
70
1
43
0.0
10
126.96321024484278
20
-42.754210244842753
42
-0.41421356237306384
10
127.4632102448428
20
-42.254210244842767
10
140.4632102448428
20
-42.254210244842767
42
-0.41421356237309509
10
140.9632102448428
20
-42.754210244842774
10
140.9632102448428
20
-55.754210244842781
42
-0.41421356237310542
10
140.4632102448428
20
-56.254210244842767
10
127.4632102448428
20
-56.254210244842767
42
-0.41421356237306384
10
126.96321024484278
20
-55.754210244842781
0
LWPOLYLINE
5
122
100
AcDbEntity
8
0
100
AcDbPolyline
90
8
70
1
43
0.0
10
136.4882102448428
20
-17.654210244842776
42
0.41421356237307422
10
136.9882102448428
20
-18.154210244842783
10
149.98821024484278
20
-18.154210244842748
42
0.41421356237310542
10
150.4882102448428
20
-17.654210244842758
10
150.4882102448428
20
-4.6542102448427691
42
0.41421356237309509
10
149.98821024484278
20
-4.154210244842762
10
136.9882102448428
20
-4.154210244842762
42
0.41421356237307422
10
136.4882102448428
20
-4.6542102448427691
0
LWPOLYLINE
5
123
100
AcDbEntity
8
0
100
AcDbPolyline
90
8
70
1
43
0.0
10
155.25071024484282
20
-23.704210244842763
42
0.41421356237307422
10
154.75071024484279
20
-23.204210244842756
10
141.75071024484279
20
-23.204210244842773
42
0.41421356237310542
10
141.25071024484276
20
-23.704210244842763
10
141.25071024484276
20
-36.70421024484277
42
0.41421356237309509
10
141.75071024484279
20
-37.204210244842777
10
154.75071024484279
20
-37.204210244842777
42
0.41421356237307422
10
155.25071024484282
20
-36.70421024484277
0
LWPOLYLINE
5
124
100
AcDbEntity
8
0
100
AcDbPolyline
90
8
70
1
43
0.0
10
98.38821024484281
20
-4.6542102448427514
10
98.388210244842838
20
-17.654210244842758
42
0.41421356237308465
10
98.888210244842796
20
-18.154210244842766
10
111.88821024484281
20
-18.154210244842748
42
0.41421356237309509
10
112.38821024484281
20
-17.654210244842776
10
112.38821024484281
20
-4.6542102448427691
42
0.41421356237309509
10
111.88821024484281
20
-4.154210244842762
10
98.888210244842796
20
-4.154210244842762
42
0.41421356237311585
0
LWPOLYLINE
5
125
100
AcDbEntity
8
0
100
AcDbPolyline
90
8
70
1
43
0.0
10
84.600710244842773
20
-23.204210244842773
42
0.41421356237309509
10
84.100710244842787
20
-23.704210244842763
10
84.100710244842801
20
-36.70421024484277
42
0.41421356237309509
10
84.600710244842773
20
-37.204210244842777
10
97.600710244842787
20
-37.204210244842777
42
0.41421356237309509
10
98.100710244842801
20
-36.70421024484277
10
98.100710244842801
20
-23.704210244842763
42
0.41421356237309509
10
97.600710244842787
20
-23.204210244842756
0
LWPOLYLINE
5
126
100
AcDbEntity
8
0
100
AcDbPolyline
90
8
70
1
43
0.0
10
156.03821024484282
20
-18.154210244842766
10
169.03821024484279
20
-18.154210244842748
42
0.41421356237312629
10
169.53821024484282
20
-17.654210244842758
10
169.53821024484279
20
-4.6542102448427691
42
0.41421356237310542
10
169.03821024484279
20
-4.154210244842762
10
156.03821024484282
20
-4.154210244842762
42
0.41421356237307422
10
155.53821024484282
20
-4.6542102448427691
10
155.53821024484282
20
-17.654210244842776
42
0.41421356237307422
0
LWPOLYLINE
5
127
100
AcDbEntity
8
0
100
AcDbPolyline
90
8
70
1
43
0.0
10
135.70071024484281
20
-23.204210244842756
10
122.70071024484281
20
-23.204210244842773
42
0.41421356237310542
10
122.20071024484281
20
-23.704210244842763
10
122.20071024484281
20
-36.70421024484277
42
0.41421356237309509
10
122.70071024484281
20
-37.204210244842777
10
135.70071024484281
20
-37.204210244842777
42
0.41421356237307422
10
136.20071024484281
20
-36.70421024484277
10
136.20071024484281
20
-23.704210244842763
42
0.41421356237307422
0
LWPOLYLINE
5
128
100
AcDbEntity
8
0
100
AcDbPolyline
90
8
70
1
43
0.0
10
103.1507102448428
20
-36.70421024484277
42
0.41421356237309509
10
103.6507102448428
20
-37.204210244842777
10
116.65071024484278
20
-37.204210244842777
42
0.41421356237307422
10
117.1507102448428
20
-36.70421024484277
10
117.1507102448428
20
-23.704210244842763
42
0.41421356237307422
10
116.65071024484278
20
-23.204210244842756
10
103.6507102448428
20
-23.204210244842773
42
0.41421356237310542
10
103.1507102448428
20
-23.704210244842763
0
LWPOLYLINE
5
129
100
AcDbEntity
8
0
100
AcDbPolyline
90
24
70
1
43
0.0
10
0.35921024484281361
20
0.14878975515721926
10
190.60521024484285
20
0.14878975515721038
42
-0.41421356237309509
10
191.11321024484283
20
-0.35921024484277808
10
191.11321024484283
20
-20.171210244842783
42
0.41421356237309509
10
191.62121024484281
20
-20.679210244842785
10
195.30421024484284
20
-20.679210244842796
42
-0.41421356237309509
10
195.81221024484282
20
-21.187210244842785
10
195.81221024484282
20
-39.22121024484278
42
0.41421356237309509
10
196.32021024484285
20
-39.729210244842783
10
200.13021024484286
20
-39.729210244842804
42
-0.41421356237309509
10
200.63821024484284
20
-40.2372102448428
10
200.63821024484284
20
-58.271210244842791
42
-0.41421356237311552
10
200.13021024484283
20
-58.779210244842801
10
10.646210244842784
20
-58.779210244842801
42
-0.41421356237309509
10
10.138210244842778
20
-58.271210244842791
10
10.138210244842778
20
-40.2372102448428
42
0.41421356237308926
10
9.6302102448427913
20
-39.729210244842783
10
5.8202102448427873
20
-39.729210244842783
42
-0.41421356237309248
10
5.312210244842789
20
-39.221210244842787
10
5.3122102448427899
20
-21.187210244842785
42
0.41421356237309948
10
4.8042102448427757
20
-20.679210244842785
10
0.35921024484277814
20
-20.679210244842785
42
-0.41421356237309248
10
-0.14878975515722923
20
-20.171210244842786
10
-0.14878975515721926
20
-0.35921024484277814
42
-0.41421356237311552
0
ENDSEC
0
SECTION
2
OBJECTS
0
DICTIONARY
5
C
100
AcDbDictionary
3
ACAD_GROUP
350
D
3
ACAD_MLINESTYLE
350
17
0
DICTIONARY
5
D
100
AcDbDictionary
0
DICTIONARY
5
1A
330
C
100
AcDbDictionary
0
DICTIONARY
5
17
100
AcDbDictionary
0
ENDSEC
0
EOF
