G04 #@! TF.GenerationSoftware,KiCad,Pcbnew,(5.1.4-0-10_14)*
G04 #@! TF.CreationDate,2020-08-17T11:45:28-05:00*
G04 #@! TF.ProjectId,omega_4_skeleton_bottom,6f6d6567-615f-4345-9f73-6b656c65746f,rev?*
G04 #@! TF.SameCoordinates,Original*
G04 #@! TF.FileFunction,Profile,NP*
%FSLAX46Y46*%
G04 Gerber Fmt 4.6, Leading zero omitted, Abs format (unit mm)*
G04 Created by KiCad (PCBNEW (5.1.4-0-10_14)) date 2020-08-17 11:45:28*
%MOMM*%
%LPD*%
G04 APERTURE LIST*
%ADD10C,0.200000*%
G04 APERTURE END LIST*
D10*
X51112501Y-72800000D02*
X48737500Y-72799999D01*
X214844871Y-48256612D02*
G75*
G02X217673298Y-47085039I2828427J-2828427D01*
G01*
X48737500Y-72799999D02*
G75*
G02X47537500Y-71599999I0J1200000D01*
G01*
X228677759Y-52092649D02*
X236813446Y-52099056D01*
X76202747Y-51972575D02*
X209364038Y-52077440D01*
X229157366Y-133778425D02*
X226506652Y-131127711D01*
X231985793Y-134949998D02*
G75*
G02X229157366Y-133778425I0J4000000D01*
G01*
X53512501Y-91849999D02*
G75*
G02X52312501Y-90649999I0J1200000D01*
G01*
X70713005Y-48136538D02*
X73377470Y-50801003D01*
X243987501Y-91849999D02*
G75*
G02X242787501Y-90649999I0J1200000D01*
G01*
X238012500Y-53299056D02*
X238012501Y-71599999D01*
X220359590Y-47085039D02*
G75*
G02X223188017Y-48256612I0J-4000000D01*
G01*
X59720604Y-50785793D02*
X62369859Y-48136538D01*
X212195615Y-50905868D02*
G75*
G02X209364038Y-52077440I-2828427J2828427D01*
G01*
X65198286Y-46964965D02*
X67884578Y-46964965D01*
X67884578Y-46964965D02*
G75*
G02X70713005Y-48136538I0J-4000000D01*
G01*
X59720603Y-50785793D02*
G75*
G02X56889026Y-51957365I-2828427J2828427D01*
G01*
X236813445Y-52099056D02*
G75*
G02X238012500Y-53299056I-945J-1200000D01*
G01*
X81939154Y-132049999D02*
G75*
G03X81939154Y-132049999I-1100000J0D01*
G01*
X217673298Y-47085039D02*
X220359590Y-47085039D01*
X247537501Y-93049999D02*
X247537501Y-109699999D01*
X246337501Y-91849999D02*
G75*
G02X247537501Y-93049999I0J-1200000D01*
G01*
X52312501Y-90649999D02*
X52312501Y-74000000D01*
X51112501Y-72800000D02*
G75*
G02X52312501Y-74000000I0J-1200000D01*
G01*
X243987501Y-91849999D02*
X246337501Y-91849999D01*
X55862501Y-91850000D02*
X53512501Y-91849999D01*
X55862500Y-91850000D02*
G75*
G02X57062500Y-93050000I0J-1200000D01*
G01*
X223188017Y-48256612D02*
X225852482Y-50921078D01*
X228677759Y-52092650D02*
G75*
G02X225852482Y-50921078I3150J3999999D01*
G01*
X67639148Y-49864964D02*
G75*
G03X67639148Y-49864964I-1100000J0D01*
G01*
X234426655Y-132049999D02*
G75*
G03X234426655Y-132049999I-1100000J0D01*
G01*
X234672085Y-134949998D02*
X231985793Y-134949998D01*
X237500512Y-133778425D02*
G75*
G02X234672085Y-134949998I-2828427J2828427D01*
G01*
X212195615Y-50905868D02*
X214844871Y-48256612D01*
X71192216Y-129955345D02*
X63036815Y-129950685D01*
X71192217Y-129955346D02*
G75*
G02X74018358Y-131126918I-2286J-3999999D01*
G01*
X82184584Y-134949998D02*
X79498292Y-134949998D01*
X85013011Y-133778425D02*
G75*
G02X82184584Y-134949998I-2828427J2828427D01*
G01*
X240162722Y-131116215D02*
X237500512Y-133778425D01*
X240162721Y-131116215D02*
G75*
G02X242993445Y-129944643I2828428J-2828428D01*
G01*
X60637501Y-110875000D02*
X58262501Y-110875000D01*
X60637501Y-110875000D02*
G75*
G02X61837501Y-112075000I0J-1200000D01*
G01*
X220114160Y-49985039D02*
G75*
G03X220114160Y-49985039I-1100000J0D01*
G01*
X223678595Y-129956139D02*
X90504815Y-129943844D01*
X223678594Y-129956138D02*
G75*
G02X226506652Y-131127711I-369J-4000001D01*
G01*
X57062501Y-109675000D02*
X57062500Y-93050000D01*
X58262500Y-110874999D02*
G75*
G02X57062501Y-109675000I0J1199999D01*
G01*
X76669865Y-133778425D02*
X74018358Y-131126918D01*
X79498292Y-134949998D02*
G75*
G02X76669865Y-133778425I0J4000000D01*
G01*
X61837501Y-128750685D02*
X61837501Y-112075000D01*
X63036815Y-129950685D02*
G75*
G02X61837501Y-128750685I686J1200000D01*
G01*
X241587501Y-72799999D02*
G75*
G02X242787501Y-73999999I0J-1200000D01*
G01*
X242787501Y-73999999D02*
X242787501Y-90649999D01*
X48738446Y-51950946D02*
X56889026Y-51957365D01*
X239212501Y-72799999D02*
G75*
G02X238012501Y-71599999I0J1200000D01*
G01*
X239212501Y-72799999D02*
X241587501Y-72799999D01*
X47537500Y-71599999D02*
X47537500Y-53150946D01*
X76202747Y-51972576D02*
G75*
G02X73377470Y-50801003I3151J4000000D01*
G01*
X87676019Y-131115417D02*
X85013011Y-133778425D01*
X87676019Y-131115417D02*
G75*
G02X90504815Y-129943844I2828427J-2828427D01*
G01*
X252336713Y-112100787D02*
X252325789Y-128750098D01*
X251136713Y-110900000D02*
G75*
G02X252336713Y-112100787I0J-1200000D01*
G01*
X47537500Y-53150945D02*
G75*
G02X48738446Y-51950946I1200000J-1D01*
G01*
X248737501Y-110899999D02*
X251136713Y-110900000D01*
X248737501Y-110899999D02*
G75*
G02X247537501Y-109699999I0J1200000D01*
G01*
X251125100Y-129949311D02*
X242993445Y-129944643D01*
X252325789Y-128750099D02*
G75*
G02X251125100Y-129949311I-1200000J788D01*
G01*
X62369859Y-48136538D02*
G75*
G02X65198286Y-46964965I2828427J-2828427D01*
G01*
M02*
