G04 #@! TF.GenerationSoftware,KiCad,Pcbnew,(5.1.4-0-10_14)*
G04 #@! TF.CreationDate,2020-08-17T11:45:28-05:00*
G04 #@! TF.ProjectId,omega_4_skeleton_bottom,6f6d6567-615f-4345-9f73-6b656c65746f,rev?*
G04 #@! TF.SameCoordinates,Original*
G04 #@! TF.FileFunction,Legend,Top*
G04 #@! TF.FilePolarity,Positive*
%FSLAX46Y46*%
G04 Gerber Fmt 4.6, Leading zero omitted, Abs format (unit mm)*
G04 Created by KiCad (PCBNEW (5.1.4-0-10_14)) date 2020-08-17 11:45:28*
%MOMM*%
%LPD*%
G04 APERTURE LIST*
%ADD10C,0.300000*%
G04 APERTURE END LIST*
D10*
X127475000Y-113553571D02*
X127332142Y-113482142D01*
X127260714Y-113410714D01*
X127189285Y-113267857D01*
X127189285Y-112839285D01*
X127260714Y-112696428D01*
X127332142Y-112625000D01*
X127475000Y-112553571D01*
X127689285Y-112553571D01*
X127832142Y-112625000D01*
X127903571Y-112696428D01*
X127975000Y-112839285D01*
X127975000Y-113267857D01*
X127903571Y-113410714D01*
X127832142Y-113482142D01*
X127689285Y-113553571D01*
X127475000Y-113553571D01*
X128617857Y-113553571D02*
X128617857Y-112553571D01*
X128617857Y-112696428D02*
X128689285Y-112625000D01*
X128832142Y-112553571D01*
X129046428Y-112553571D01*
X129189285Y-112625000D01*
X129260714Y-112767857D01*
X129260714Y-113553571D01*
X129260714Y-112767857D02*
X129332142Y-112625000D01*
X129475000Y-112553571D01*
X129689285Y-112553571D01*
X129832142Y-112625000D01*
X129903571Y-112767857D01*
X129903571Y-113553571D01*
X131189285Y-113482142D02*
X131046428Y-113553571D01*
X130760714Y-113553571D01*
X130617857Y-113482142D01*
X130546428Y-113339285D01*
X130546428Y-112767857D01*
X130617857Y-112625000D01*
X130760714Y-112553571D01*
X131046428Y-112553571D01*
X131189285Y-112625000D01*
X131260714Y-112767857D01*
X131260714Y-112910714D01*
X130546428Y-113053571D01*
X132546428Y-112553571D02*
X132546428Y-113767857D01*
X132475000Y-113910714D01*
X132403571Y-113982142D01*
X132260714Y-114053571D01*
X132046428Y-114053571D01*
X131903571Y-113982142D01*
X132546428Y-113482142D02*
X132403571Y-113553571D01*
X132117857Y-113553571D01*
X131975000Y-113482142D01*
X131903571Y-113410714D01*
X131832142Y-113267857D01*
X131832142Y-112839285D01*
X131903571Y-112696428D01*
X131975000Y-112625000D01*
X132117857Y-112553571D01*
X132403571Y-112553571D01*
X132546428Y-112625000D01*
X133903571Y-113553571D02*
X133903571Y-112767857D01*
X133832142Y-112625000D01*
X133689285Y-112553571D01*
X133403571Y-112553571D01*
X133260714Y-112625000D01*
X133903571Y-113482142D02*
X133760714Y-113553571D01*
X133403571Y-113553571D01*
X133260714Y-113482142D01*
X133189285Y-113339285D01*
X133189285Y-113196428D01*
X133260714Y-113053571D01*
X133403571Y-112982142D01*
X133760714Y-112982142D01*
X133903571Y-112910714D01*
X134260714Y-113696428D02*
X135403571Y-113696428D01*
X136403571Y-112553571D02*
X136403571Y-113553571D01*
X136046428Y-111982142D02*
X135689285Y-113053571D01*
X136617857Y-113053571D01*
X136832142Y-113696428D02*
X137975000Y-113696428D01*
X138332142Y-113553571D02*
X138332142Y-112053571D01*
X138332142Y-112625000D02*
X138475000Y-112553571D01*
X138760714Y-112553571D01*
X138903571Y-112625000D01*
X138975000Y-112696428D01*
X139046428Y-112839285D01*
X139046428Y-113267857D01*
X138975000Y-113410714D01*
X138903571Y-113482142D01*
X138760714Y-113553571D01*
X138475000Y-113553571D01*
X138332142Y-113482142D01*
X139903571Y-113553571D02*
X139760714Y-113482142D01*
X139689285Y-113410714D01*
X139617857Y-113267857D01*
X139617857Y-112839285D01*
X139689285Y-112696428D01*
X139760714Y-112625000D01*
X139903571Y-112553571D01*
X140117857Y-112553571D01*
X140260714Y-112625000D01*
X140332142Y-112696428D01*
X140403571Y-112839285D01*
X140403571Y-113267857D01*
X140332142Y-113410714D01*
X140260714Y-113482142D01*
X140117857Y-113553571D01*
X139903571Y-113553571D01*
X140832142Y-112553571D02*
X141403571Y-112553571D01*
X141046428Y-112053571D02*
X141046428Y-113339285D01*
X141117857Y-113482142D01*
X141260714Y-113553571D01*
X141403571Y-113553571D01*
X141689285Y-112553571D02*
X142260714Y-112553571D01*
X141903571Y-112053571D02*
X141903571Y-113339285D01*
X141975000Y-113482142D01*
X142117857Y-113553571D01*
X142260714Y-113553571D01*
X142975000Y-113553571D02*
X142832142Y-113482142D01*
X142760714Y-113410714D01*
X142689285Y-113267857D01*
X142689285Y-112839285D01*
X142760714Y-112696428D01*
X142832142Y-112625000D01*
X142975000Y-112553571D01*
X143189285Y-112553571D01*
X143332142Y-112625000D01*
X143403571Y-112696428D01*
X143475000Y-112839285D01*
X143475000Y-113267857D01*
X143403571Y-113410714D01*
X143332142Y-113482142D01*
X143189285Y-113553571D01*
X142975000Y-113553571D01*
X144117857Y-113553571D02*
X144117857Y-112553571D01*
X144117857Y-112696428D02*
X144189285Y-112625000D01*
X144332142Y-112553571D01*
X144546428Y-112553571D01*
X144689285Y-112625000D01*
X144760714Y-112767857D01*
X144760714Y-113553571D01*
X144760714Y-112767857D02*
X144832142Y-112625000D01*
X144975000Y-112553571D01*
X145189285Y-112553571D01*
X145332142Y-112625000D01*
X145403571Y-112767857D01*
X145403571Y-113553571D01*
X145760714Y-113696428D02*
X146903571Y-113696428D01*
X147260714Y-112553571D02*
X147260714Y-114053571D01*
X147260714Y-112625000D02*
X147403571Y-112553571D01*
X147689285Y-112553571D01*
X147832142Y-112625000D01*
X147903571Y-112696428D01*
X147975000Y-112839285D01*
X147975000Y-113267857D01*
X147903571Y-113410714D01*
X147832142Y-113482142D01*
X147689285Y-113553571D01*
X147403571Y-113553571D01*
X147260714Y-113482142D01*
X148832142Y-113553571D02*
X148689285Y-113482142D01*
X148617857Y-113339285D01*
X148617857Y-112053571D01*
X150046428Y-113553571D02*
X150046428Y-112767857D01*
X149975000Y-112625000D01*
X149832142Y-112553571D01*
X149546428Y-112553571D01*
X149403571Y-112625000D01*
X150046428Y-113482142D02*
X149903571Y-113553571D01*
X149546428Y-113553571D01*
X149403571Y-113482142D01*
X149332142Y-113339285D01*
X149332142Y-113196428D01*
X149403571Y-113053571D01*
X149546428Y-112982142D01*
X149903571Y-112982142D01*
X150046428Y-112910714D01*
X150546428Y-112553571D02*
X151117857Y-112553571D01*
X150760714Y-112053571D02*
X150760714Y-113339285D01*
X150832142Y-113482142D01*
X150975000Y-113553571D01*
X151117857Y-113553571D01*
X152189285Y-113482142D02*
X152046428Y-113553571D01*
X151760714Y-113553571D01*
X151617857Y-113482142D01*
X151546428Y-113339285D01*
X151546428Y-112767857D01*
X151617857Y-112625000D01*
X151760714Y-112553571D01*
X152046428Y-112553571D01*
X152189285Y-112625000D01*
X152260714Y-112767857D01*
X152260714Y-112910714D01*
X151546428Y-113053571D01*
X132725000Y-116103571D02*
X132725000Y-114603571D01*
X132725000Y-115175000D02*
X132867857Y-115103571D01*
X133153571Y-115103571D01*
X133296428Y-115175000D01*
X133367857Y-115246428D01*
X133439285Y-115389285D01*
X133439285Y-115817857D01*
X133367857Y-115960714D01*
X133296428Y-116032142D01*
X133153571Y-116103571D01*
X132867857Y-116103571D01*
X132725000Y-116032142D01*
X133939285Y-115103571D02*
X134296428Y-116103571D01*
X134653571Y-115103571D02*
X134296428Y-116103571D01*
X134153571Y-116460714D01*
X134082142Y-116532142D01*
X133939285Y-116603571D01*
X136367857Y-116103571D02*
X136367857Y-115103571D01*
X136367857Y-115246428D02*
X136439285Y-115175000D01*
X136582142Y-115103571D01*
X136796428Y-115103571D01*
X136939285Y-115175000D01*
X137010714Y-115317857D01*
X137010714Y-116103571D01*
X137010714Y-115317857D02*
X137082142Y-115175000D01*
X137225000Y-115103571D01*
X137439285Y-115103571D01*
X137582142Y-115175000D01*
X137653571Y-115317857D01*
X137653571Y-116103571D01*
X139010714Y-116103571D02*
X139010714Y-115317857D01*
X138939285Y-115175000D01*
X138796428Y-115103571D01*
X138510714Y-115103571D01*
X138367857Y-115175000D01*
X139010714Y-116032142D02*
X138867857Y-116103571D01*
X138510714Y-116103571D01*
X138367857Y-116032142D01*
X138296428Y-115889285D01*
X138296428Y-115746428D01*
X138367857Y-115603571D01*
X138510714Y-115532142D01*
X138867857Y-115532142D01*
X139010714Y-115460714D01*
X139725000Y-116103571D02*
X139725000Y-114603571D01*
X139867857Y-115532142D02*
X140296428Y-116103571D01*
X140296428Y-115103571D02*
X139725000Y-115675000D01*
X141510714Y-116032142D02*
X141367857Y-116103571D01*
X141082142Y-116103571D01*
X140939285Y-116032142D01*
X140867857Y-115889285D01*
X140867857Y-115317857D01*
X140939285Y-115175000D01*
X141082142Y-115103571D01*
X141367857Y-115103571D01*
X141510714Y-115175000D01*
X141582142Y-115317857D01*
X141582142Y-115460714D01*
X140867857Y-115603571D01*
X142225000Y-115103571D02*
X142225000Y-116103571D01*
X142225000Y-115246428D02*
X142296428Y-115175000D01*
X142439285Y-115103571D01*
X142653571Y-115103571D01*
X142796428Y-115175000D01*
X142867857Y-115317857D01*
X142867857Y-116103571D01*
X143796428Y-116103571D02*
X143653571Y-116032142D01*
X143582142Y-115960714D01*
X143510714Y-115817857D01*
X143510714Y-115389285D01*
X143582142Y-115246428D01*
X143653571Y-115175000D01*
X143796428Y-115103571D01*
X144010714Y-115103571D01*
X144153571Y-115175000D01*
X144225000Y-115246428D01*
X144296428Y-115389285D01*
X144296428Y-115817857D01*
X144225000Y-115960714D01*
X144153571Y-116032142D01*
X144010714Y-116103571D01*
X143796428Y-116103571D01*
X144796428Y-115103571D02*
X145153571Y-116103571D01*
X145510714Y-115103571D01*
X146725000Y-116103571D02*
X146725000Y-115317857D01*
X146653571Y-115175000D01*
X146510714Y-115103571D01*
X146225000Y-115103571D01*
X146082142Y-115175000D01*
X146725000Y-116032142D02*
X146582142Y-116103571D01*
X146225000Y-116103571D01*
X146082142Y-116032142D01*
X146010714Y-115889285D01*
X146010714Y-115746428D01*
X146082142Y-115603571D01*
X146225000Y-115532142D01*
X146582142Y-115532142D01*
X146725000Y-115460714D01*
X136010714Y-118653571D02*
X136010714Y-117153571D01*
X136010714Y-118582142D02*
X135867857Y-118653571D01*
X135582142Y-118653571D01*
X135439285Y-118582142D01*
X135367857Y-118510714D01*
X135296428Y-118367857D01*
X135296428Y-117939285D01*
X135367857Y-117796428D01*
X135439285Y-117725000D01*
X135582142Y-117653571D01*
X135867857Y-117653571D01*
X136010714Y-117725000D01*
X137367857Y-118653571D02*
X137367857Y-117867857D01*
X137296428Y-117725000D01*
X137153571Y-117653571D01*
X136867857Y-117653571D01*
X136725000Y-117725000D01*
X137367857Y-118582142D02*
X137225000Y-118653571D01*
X136867857Y-118653571D01*
X136725000Y-118582142D01*
X136653571Y-118439285D01*
X136653571Y-118296428D01*
X136725000Y-118153571D01*
X136867857Y-118082142D01*
X137225000Y-118082142D01*
X137367857Y-118010714D01*
X138082142Y-118653571D02*
X138082142Y-117653571D01*
X138082142Y-117939285D02*
X138153571Y-117796428D01*
X138225000Y-117725000D01*
X138367857Y-117653571D01*
X138510714Y-117653571D01*
X139010714Y-118653571D02*
X139010714Y-117153571D01*
X139153571Y-118082142D02*
X139582142Y-118653571D01*
X139582142Y-117653571D02*
X139010714Y-118225000D01*
X140153571Y-118582142D02*
X140296428Y-118653571D01*
X140582142Y-118653571D01*
X140725000Y-118582142D01*
X140796428Y-118439285D01*
X140796428Y-118367857D01*
X140725000Y-118225000D01*
X140582142Y-118153571D01*
X140367857Y-118153571D01*
X140225000Y-118082142D01*
X140153571Y-117939285D01*
X140153571Y-117867857D01*
X140225000Y-117725000D01*
X140367857Y-117653571D01*
X140582142Y-117653571D01*
X140725000Y-117725000D01*
X141439285Y-118653571D02*
X141439285Y-117653571D01*
X141439285Y-117153571D02*
X141367857Y-117225000D01*
X141439285Y-117296428D01*
X141510714Y-117225000D01*
X141439285Y-117153571D01*
X141439285Y-117296428D01*
X142796428Y-118653571D02*
X142796428Y-117153571D01*
X142796428Y-118582142D02*
X142653571Y-118653571D01*
X142367857Y-118653571D01*
X142225000Y-118582142D01*
X142153571Y-118510714D01*
X142082142Y-118367857D01*
X142082142Y-117939285D01*
X142153571Y-117796428D01*
X142225000Y-117725000D01*
X142367857Y-117653571D01*
X142653571Y-117653571D01*
X142796428Y-117725000D01*
X144082142Y-118582142D02*
X143939285Y-118653571D01*
X143653571Y-118653571D01*
X143510714Y-118582142D01*
X143439285Y-118439285D01*
X143439285Y-117867857D01*
X143510714Y-117725000D01*
X143653571Y-117653571D01*
X143939285Y-117653571D01*
X144082142Y-117725000D01*
X144153571Y-117867857D01*
X144153571Y-118010714D01*
X143439285Y-118153571D01*
M02*
