G04 #@! TF.GenerationSoftware,KiCad,Pcbnew,(5.1.4-0-10_14)*
G04 #@! TF.CreationDate,2020-08-19T23:06:19-05:00*
G04 #@! TF.ProjectId,omega_4_skeleton_bottom,6f6d6567-615f-4345-9f73-6b656c65746f,rev?*
G04 #@! TF.SameCoordinates,Original*
G04 #@! TF.FileFunction,Profile,NP*
%FSLAX46Y46*%
G04 Gerber Fmt 4.6, Leading zero omitted, Abs format (unit mm)*
G04 Created by KiCad (PCBNEW (5.1.4-0-10_14)) date 2020-08-19 23:06:19*
%MOMM*%
%LPD*%
G04 APERTURE LIST*
%ADD10C,0.200000*%
G04 APERTURE END LIST*
D10*
X46770313Y-72197558D02*
X46770313Y-52148082D01*
X47470312Y-72897557D02*
G75*
G02X46770313Y-72197558I0J699999D01*
G01*
X50845313Y-72897559D02*
X47470312Y-72897558D01*
X50845313Y-72897559D02*
G75*
G02X51545313Y-73597559I0J-700000D01*
G01*
X51545313Y-91247559D02*
X51545313Y-73597559D01*
X52245314Y-91947558D02*
G75*
G02X51545313Y-91247559I-1J700000D01*
G01*
X55595313Y-91947559D02*
X52245313Y-91947558D01*
X55595312Y-91947559D02*
G75*
G02X56295313Y-92647558I1J-700000D01*
G01*
X56295313Y-110272559D02*
X56295313Y-92647558D01*
X56995313Y-110972559D02*
G75*
G02X56295313Y-110272559I0J700000D01*
G01*
X60370313Y-110972559D02*
X56995313Y-110972559D01*
X60370313Y-110972559D02*
G75*
G02X61070313Y-111672559I0J-700000D01*
G01*
X61070313Y-129317938D02*
X61070313Y-111672559D01*
X61769934Y-130017938D02*
G75*
G02X61070313Y-129317938I379J700000D01*
G01*
X71024959Y-130022953D02*
X61769933Y-130017938D01*
X71024960Y-130022954D02*
G75*
G02X73851219Y-131194526I-2168J-3999999D01*
G01*
X76502677Y-133845984D02*
X73851219Y-131194526D01*
X79331104Y-135017557D02*
G75*
G02X76502677Y-133845984I0J4000000D01*
G01*
X82017396Y-135017557D02*
X79331104Y-135017557D01*
X84845823Y-133845984D02*
G75*
G02X82017396Y-135017557I-2828427J2828427D01*
G01*
X87508831Y-131182976D02*
X84845823Y-133845984D01*
X87508831Y-131182976D02*
G75*
G02X90337627Y-130011403I2828427J-2828427D01*
G01*
X248670313Y-109797558D02*
X252070249Y-109797558D01*
X248670313Y-109797558D02*
G75*
G02X247970313Y-109097558I0J700000D01*
G01*
X247970313Y-91447558D02*
X247970313Y-109097558D01*
X247270313Y-90747558D02*
G75*
G02X247970313Y-91447558I0J-700000D01*
G01*
X243920313Y-90747558D02*
X247270313Y-90747558D01*
X243920313Y-90747558D02*
G75*
G02X243220313Y-90047558I0J700000D01*
G01*
X243220313Y-72397558D02*
X243220313Y-90047558D01*
X242520312Y-71697559D02*
G75*
G02X243220313Y-72397558I1J-700000D01*
G01*
X239145313Y-71697558D02*
X242520313Y-71697558D01*
X239145312Y-71697557D02*
G75*
G02X238445313Y-70997558I0J699999D01*
G01*
X238445312Y-52297037D02*
X238445313Y-70997558D01*
X237745835Y-51597037D02*
G75*
G02X238445312Y-52297037I-523J-700000D01*
G01*
X228510667Y-51590141D02*
X237745835Y-51597037D01*
X228510667Y-51590141D02*
G75*
G02X225685227Y-50418569I2987J3999999D01*
G01*
X223020829Y-47754171D02*
X225685227Y-50418569D01*
X220192402Y-46582598D02*
G75*
G02X223020829Y-47754171I0J-4000000D01*
G01*
X217506110Y-46582598D02*
X220192402Y-46582598D01*
X46770313Y-52148082D02*
G75*
G02X47470835Y-51448083I699999J0D01*
G01*
X67471960Y-49362523D02*
G75*
G03X67471960Y-49362523I-1100000J0D01*
G01*
X219946972Y-49482598D02*
G75*
G03X219946972Y-49482598I-1100000J0D01*
G01*
X234259467Y-132117558D02*
G75*
G03X234259467Y-132117558I-1100000J0D01*
G01*
X252758259Y-129317983D02*
G75*
G02X252057855Y-130017537I-700000J446D01*
G01*
X252770249Y-110498004D02*
X252758259Y-129317983D01*
X252070249Y-109797558D02*
G75*
G02X252770249Y-110498004I0J-700000D01*
G01*
X223511407Y-130023698D02*
X90337627Y-130011403D01*
X223511406Y-130023697D02*
G75*
G02X226339464Y-131195270I-369J-4000001D01*
G01*
X228990178Y-133845984D02*
X226339464Y-131195270D01*
X231818605Y-135017557D02*
G75*
G02X228990178Y-133845984I0J4000000D01*
G01*
X234504897Y-135017557D02*
X231818605Y-135017557D01*
X237333324Y-133845984D02*
G75*
G02X234504897Y-135017557I-2828427J2828427D01*
G01*
X239995528Y-131183780D02*
X237333324Y-133845984D01*
X239995528Y-131183780D02*
G75*
G02X242826264Y-130012208I2828427J-2828427D01*
G01*
X252057855Y-130017537D02*
X242826264Y-130012208D01*
X81771966Y-132117558D02*
G75*
G03X81771966Y-132117558I-1100000J0D01*
G01*
X67717390Y-46462524D02*
G75*
G02X70545817Y-47634097I0J-4000000D01*
G01*
X65031098Y-46462524D02*
X67717390Y-46462524D01*
X62202671Y-47634097D02*
G75*
G02X65031098Y-46462524I2828427J-2828427D01*
G01*
X59553348Y-50283420D02*
X62202671Y-47634097D01*
X59553348Y-50283419D02*
G75*
G02X56721934Y-51454991I-2828427J2828426D01*
G01*
X47470835Y-51448083D02*
X56721934Y-51454991D01*
X76035559Y-51470134D02*
X209196850Y-51574999D01*
X76035559Y-51470135D02*
G75*
G02X73210282Y-50298562I3151J4000000D01*
G01*
X70545817Y-47634097D02*
X73210282Y-50298562D01*
X214677683Y-47754171D02*
G75*
G02X217506110Y-46582598I2828427J-2828427D01*
G01*
X212028427Y-50403427D02*
X214677683Y-47754171D01*
X212028427Y-50403427D02*
G75*
G02X209196850Y-51574999I-2828427J2828427D01*
G01*
M02*
