G04 #@! TF.GenerationSoftware,KiCad,Pcbnew,(5.1.4-0-10_14)*
G04 #@! TF.CreationDate,2020-08-19T23:06:19-05:00*
G04 #@! TF.ProjectId,omega_4_skeleton_bottom,6f6d6567-615f-4345-9f73-6b656c65746f,rev?*
G04 #@! TF.SameCoordinates,Original*
G04 #@! TF.FileFunction,Copper,L2,Bot*
G04 #@! TF.FilePolarity,Positive*
%FSLAX46Y46*%
G04 Gerber Fmt 4.6, Leading zero omitted, Abs format (unit mm)*
G04 Created by KiCad (PCBNEW (5.1.4-0-10_14)) date 2020-08-19 23:06:19*
%MOMM*%
%LPD*%
G04 APERTURE LIST*
%ADD10C,0.010000*%
%ADD11C,0.400000*%
%ADD12C,0.800000*%
G04 APERTURE END LIST*
D10*
G36*
X154825000Y-113625000D02*
G01*
X155081500Y-113579800D01*
X155307100Y-113449500D01*
X155474500Y-113250000D01*
X155563600Y-113005200D01*
X155563600Y-112744800D01*
X155474500Y-112500000D01*
X155307100Y-112300500D01*
X155081500Y-112170200D01*
X154825000Y-112125000D01*
X154825000Y-113625000D01*
X154825000Y-113625000D01*
G37*
X154825000Y-113625000D02*
X155081500Y-113579800D01*
X155307100Y-113449500D01*
X155474500Y-113250000D01*
X155563600Y-113005200D01*
X155563600Y-112744800D01*
X155474500Y-112500000D01*
X155307100Y-112300500D01*
X155081500Y-112170200D01*
X154825000Y-112125000D01*
X154825000Y-113625000D01*
G36*
X154625000Y-112125000D02*
G01*
X154368500Y-112170200D01*
X154142900Y-112300500D01*
X153975500Y-112500000D01*
X153886400Y-112744800D01*
X153886400Y-113005200D01*
X153975500Y-113250000D01*
X154142900Y-113449500D01*
X154368500Y-113579800D01*
X154625000Y-113625000D01*
X154625000Y-112125000D01*
X154625000Y-112125000D01*
G37*
X154625000Y-112125000D02*
X154368500Y-112170200D01*
X154142900Y-112300500D01*
X153975500Y-112500000D01*
X153886400Y-112744800D01*
X153886400Y-113005200D01*
X153975500Y-113250000D01*
X154142900Y-113449500D01*
X154368500Y-113579800D01*
X154625000Y-113625000D01*
X154625000Y-112125000D01*
D11*
X155175000Y-112875000D03*
X154275000Y-112875000D03*
D12*
X125500000Y-112925000D03*
M02*
